<svg xmlns="http://www.w3.org/2000/svg" height="896" preserveAspectRatio="none" style="display: block;" version="1.1" viewBox="0 0 2048 1509" width="1216">
<defs>
	<linearGradient gradientUnits="userSpaceOnUse" id="Gradient1" x1="1627.09" x2="1622.54" y1="302.828" y2="296.1">
		<stop class="stop0" offset="0" stop-color="rgb(91,52,18)" stop-opacity="1"></stop>
		<stop class="stop1" offset="1" stop-color="rgb(115,81,41)" stop-opacity="1"></stop>
	</linearGradient>
</defs>
<path d="M 0 0 L 2048 0 L 2048 1509 L 0 1509 L 0 0 z" fill="rgb(253,248,236)" transform="translate(0,0)"></path>
<path d="M 1189.46 550.344 C 1197.11 535.712 1203.8 523.705 1213.9 510.533 C 1290.48 410.681 1443.65 358.792 1565.64 375.855 C 1671.13 390.259 1766.46 446.341 1830.28 531.559 C 1884.35 603.389 1915.25 708.421 1902.51 797.771 C 1901.66 807.883 1900.45 820.601 1898.14 830.519 C 1896.32 846.222 1891.06 863.143 1886.26 878.179 C 1839.01 1026.18 1692.28 1136.43 1537.7 1145.99 L 1522.3 1146.49 C 1465.43 1150.09 1392.93 1132.04 1343.19 1105.12 C 1284.91 1073.59 1223.24 1016.42 1191.79 957.676 C 1245 1000.98 1272.72 1015.84 1341.68 1022.9 C 1583.08 1047.58 1740.79 767.45 1582.71 578.638 C 1535.83 522.64 1460.43 487.394 1387.99 481.758 C 1311.07 475.774 1247.6 500.501 1189.46 550.344 z" fill="rgb(107,96,81)" transform="translate(0,0)"></path>
<path d="M 1493.23 506.621 C 1494.71 506.325 1496.19 506.048 1497.67 505.789 C 1587.47 490.112 1685.67 513.907 1760.02 566.066 C 1826.62 612.133 1873.51 681.516 1891.42 760.495 C 1893.81 770.582 1893.52 781.735 1895.29 791.401 L 1895.56 792.806 C 1896.17 800.762 1896.63 808.729 1896.93 816.702 C 1896.46 818.914 1895.98 820.878 1895.16 822.985 C 1858.86 916.22 1794.93 980.85 1702.94 1020.17 C 1613.57 1058.38 1498.17 1061.31 1408.03 1025.19 C 1426.71 1022.52 1443.02 1019.57 1461.08 1013.57 C 1598.73 967.773 1684.57 807.086 1636.64 668.173 C 1610.86 593.455 1563.99 541.645 1493.23 506.621 z" fill="rgb(207,107,52)" transform="translate(0,0)"></path>
<path d="M 1500.77 376.414 C 1585.4 371.443 1680.19 404.45 1747.77 454.819 C 1829.06 514.904 1882.85 605.084 1897.09 705.161 C 1898.76 716.639 1903.94 779.722 1898.62 786.84 C 1888.02 693.06 1838.57 619.357 1763.74 563.864 C 1705.02 521.771 1623.86 496.165 1551.65 497.274 C 1529.84 497.609 1508.86 501.05 1487.42 504.568 C 1454.35 489.824 1432.36 482.874 1395.85 479.209 C 1326.27 472.224 1255.4 490.89 1201.3 536.427 C 1208.66 523.502 1217.33 511.369 1227.18 500.221 C 1294.15 423.492 1401.03 383.169 1500.77 376.414 z" fill="rgb(227,160,42)" transform="translate(0,0)"></path>
<path d="M 1888.64 848.305 C 1889.61 845.507 1890.12 843.362 1891.94 841.058 C 1892.23 847.343 1891.04 847.769 1890.63 853.011 C 1882.13 878.237 1871.96 907.861 1859.71 931.466 C 1821.76 1004.55 1760.58 1063.8 1687.11 1100.61 C 1634.41 1127.01 1595.47 1136.35 1538.12 1142.45 L 1524.4 1143.04 C 1398.36 1147.1 1288.57 1087.97 1214.98 987.324 C 1211.36 982.369 1207.68 977.435 1204.06 972.471 C 1209.5 976.003 1215.97 981.478 1221.61 985.469 C 1233.68 993.849 1246.52 1001.05 1259.96 1006.97 C 1306.75 1027.57 1348.34 1027.03 1397.83 1026.34 C 1407.64 1027.36 1418.2 1034.43 1427.34 1037.1 C 1513.87 1062.33 1612.05 1059.9 1696.27 1027.41 C 1780.52 994.898 1852.05 931.381 1888.64 848.305 z" fill="rgb(184,58,35)" transform="translate(0,0)"></path>
<path d="M 949.098 996.474 C 979.143 977.795 1019.11 989.212 1036.93 1019.14 C 1045.23 1033.1 1044.97 1043.61 1042.22 1059.04 C 1088.83 1031.15 1156.34 1058.22 1132.05 1118.6 C 1147.86 1108.67 1159.55 1101.77 1176.66 1094.54 C 1237.21 1068.97 1335.94 1099.19 1326.82 1178.44 C 1337.79 1170.36 1351.93 1163.75 1365.31 1167.07 C 1396.4 1174.8 1413.3 1196.41 1449.13 1198.97 C 1503.74 1202.88 1537.33 1156.27 1592.84 1186.22 C 1611.22 1196.13 1623.51 1206.86 1635.75 1224.26 C 1637.06 1226.12 1638.41 1227.53 1638.71 1229.73 L 1637.35 1229.65 C 1621.83 1211.4 1608.87 1203.56 1584.19 1201.05 C 1533.39 1195.88 1502.38 1235.15 1455.76 1242.21 C 1444.6 1243.9 1435.36 1242.83 1424.21 1241.54 C 1428.88 1271.31 1401.9 1296.2 1374.18 1300.13 C 1359.26 1302.25 1349.58 1299.46 1335.94 1294.03 C 1324.3 1331.49 1281.91 1334.32 1251.38 1318.13 C 1248.94 1338.09 1241.34 1352.76 1225.21 1365.41 C 1206.88 1379.76 1183.55 1386.15 1160.46 1383.17 C 1140.26 1380.45 1119.53 1370.54 1107.14 1353.95 C 1097.83 1341.65 1093.84 1326.13 1096.06 1310.86 C 1096.59 1307.51 1097.24 1304.18 1098.02 1300.88 C 1072.26 1310.13 1037.88 1302.26 1041.6 1268.69 C 971.506 1292.94 944.576 1324.81 879.965 1259.94 C 889.49 1265.12 900.611 1272.89 911.03 1275.34 C 979.848 1291.55 1009.46 1211.53 1082.71 1236.53 C 1080.75 1219.24 1083.08 1203.59 1094.12 1189.52 C 1103.48 1177.63 1117.17 1169.93 1132.19 1168.12 C 1165.44 1164.38 1186.99 1189.34 1185.08 1221.58 C 1199.42 1205.75 1212.3 1197.98 1233.51 1194.54 C 1225.52 1186.24 1221.27 1177.99 1221.54 1166.12 C 1221.77 1155.74 1226.16 1145.88 1233.72 1138.76 C 1241.18 1131.74 1249.22 1128.96 1259.21 1127.86 L 1262.65 1127.59 L 1262.42 1126.52 L 1258.5 1125.1 C 1244.9 1122.41 1234.51 1120.93 1220.42 1121.75 C 1171.97 1124.58 1142.73 1170.76 1093.51 1172.97 C 1074.29 1173.83 1063.61 1171.85 1046.59 1162.71 C 1048.49 1188.89 1044.33 1209.95 1019.41 1223.84 C 1016.71 1225.51 1012.29 1227.81 1009.1 1228.37 C 982.865 1235.38 953.009 1227.92 937.376 1204.34 C 928.309 1190.66 929.793 1173.98 933.304 1158.69 L 931.871 1158.01 C 928.051 1162.95 919.138 1169.87 913.537 1172.67 C 908.317 1177.11 891.514 1183.08 884.815 1184.47 C 775.859 1207.17 715.494 1066.88 608.582 1162.09 C 615.492 1151.22 625.242 1141.22 635.136 1133 C 717.341 1064.62 749.895 1127.02 830.3 1134.38 C 825.752 1127.82 822.992 1123.33 821.094 1115.5 C 818.313 1103.81 820.356 1091.5 826.762 1081.34 C 846.404 1049.79 889.164 1047.7 918.611 1066.58 C 912.923 1036.93 920.827 1011.71 948.477 996.693 L 949.098 996.474 z" fill="rgb(91,60,26)" transform="translate(0,0)"></path>
<path d="M 971.579 990.323 C 1044.58 983.299 1072.47 1075.67 996.968 1088.83 C 968.676 1093.76 942.561 1059.93 964.587 1035.82 C 977.173 1020.55 1013.6 1029.17 1012.44 1050.35 C 1011.64 1064.77 996.997 1069.36 985.744 1062.52 C 982.367 1056.96 988.394 1053.12 992.52 1049.58 C 987.113 1048.38 983.984 1051.32 982.671 1056.42 C 979.586 1068.4 1002.49 1070.29 1007.48 1065.05 C 1032.05 1039.19 987.67 1011.04 963.767 1033.79 C 957.561 1039.68 954.02 1047.85 953.956 1056.41 C 953.866 1078.71 975.133 1092.18 995.609 1091.51 C 1011.54 1090.98 1024.58 1083.32 1034.1 1070.73 C 1051.91 1047.17 1091.9 1043.16 1116.17 1060.45 L 1117.39 1061.28 L 1121.22 1064.45 L 1122.68 1065.55 L 1124.52 1067.59 L 1125.68 1068.84 L 1126.42 1069.7 C 1148.08 1095.28 1128.67 1138.68 1093.48 1133.55 C 1083.78 1132.13 1077.07 1129.16 1071.09 1121.41 C 1057.85 1106.93 1074.43 1083.29 1088.83 1096.88 C 1091.45 1099.35 1089.41 1106.14 1086.22 1109.07 C 1083.2 1109.38 1084.33 1109.46 1081.23 1107.39 L 1080.25 1109.18 C 1083.52 1114.85 1090.42 1116.15 1096.28 1113.8 C 1108.91 1108.73 1108.86 1092.92 1100.5 1083.87 C 1086.84 1069.07 1066.3 1073.02 1052.71 1085.39 C 1044.64 1092.79 1039.91 1103.13 1039.58 1114.06 C 1038.56 1141.01 1061.75 1152.64 1085.64 1152.39 C 1143.81 1151.77 1185.93 1094.55 1247.09 1113.19 C 1255.52 1115.59 1269.01 1121.94 1275.3 1128.17 C 1276.34 1129.21 1277.36 1130.28 1278.35 1131.37 C 1269.79 1127.61 1261.75 1123.87 1252.61 1121.63 L 1250.94 1121.3 C 1167.9 1108.83 1151.01 1170.17 1092.53 1170.48 C 1087.07 1171.15 1085.93 1171.16 1080.46 1170.52 C 1066.95 1169.75 1058.1 1167.06 1046.18 1160.22 C 1043.94 1155.37 1040.04 1145.69 1035.56 1142.99 L 1034.32 1143.56 C 1036.45 1147.89 1039.96 1152.48 1041.38 1155.69 C 1046.43 1167.07 1046.05 1181.3 1042.61 1192.96 C 1038.68 1206.31 1023.97 1215.51 1019.41 1223.84 C 1016.71 1225.51 1012.29 1227.81 1009.1 1228.37 C 982.865 1235.38 953.009 1227.92 937.376 1204.34 C 928.309 1190.66 929.793 1173.98 933.304 1158.69 L 931.871 1158.01 C 928.051 1162.95 919.138 1169.87 913.537 1172.67 C 908.317 1177.11 891.514 1183.08 884.815 1184.47 C 775.859 1207.17 715.494 1066.88 608.582 1162.09 C 615.492 1151.22 625.242 1141.22 635.136 1133 C 717.341 1064.62 749.895 1127.02 830.3 1134.38 C 825.752 1127.82 822.992 1123.33 821.094 1115.5 C 818.313 1103.81 820.356 1091.5 826.762 1081.34 C 846.404 1049.79 889.164 1047.7 918.611 1066.58 C 912.923 1036.93 920.827 1011.71 948.477 996.693 L 949.098 996.474 C 953.45 996.082 962.917 991.764 969.878 990.63 L 971.579 990.323 z" fill="rgb(107,96,81)" transform="translate(0,0)"></path>
<path d="M 948.477 996.693 C 947.129 1007.33 901.205 1017.25 926.865 1080.9 C 918.647 1069.94 919.953 1069.18 907.256 1062.54 C 876.785 1046.6 827.25 1062.46 822.703 1100.18 C 821.258 1111.39 824.394 1122.7 831.401 1131.56 C 844.135 1147.47 873.043 1155.13 889.861 1141.38 C 895.521 1136.83 899.022 1130.12 899.518 1122.87 C 899.942 1117.03 898.338 1110.94 894.172 1106.67 C 890.479 1102.94 885.413 1100.89 880.164 1101 C 876.482 1101.08 872.69 1102.19 870.187 1105.03 C 868.429 1107.01 867.608 1109.65 867.935 1112.28 C 868.813 1119.54 876.238 1123.12 874.752 1125.57 C 870.913 1123.48 867.186 1119.73 865.938 1115.45 C 865.014 1112.25 865.425 1108.82 867.078 1105.93 C 875.047 1091.94 898.714 1099.15 901.716 1115.62 C 903.071 1123.49 901.158 1131.56 896.418 1137.98 C 881.217 1158.53 853.2 1152.6 835.36 1139.06 C 834.63 1138.5 833.906 1137.94 833.188 1137.37 C 820.116 1135.89 801.794 1133.51 789.498 1128.62 C 743.851 1110.5 707.329 1087.41 658.98 1118.54 L 657.734 1119.42 C 650.988 1122.48 644.454 1128.39 638.617 1133.16 C 676.373 1118.09 713.972 1106.71 753.135 1125.32 C 795.994 1145.68 840.018 1175.14 889.564 1156.33 C 946.315 1134.79 919.62 1061.71 863.2 1082.65 C 844.712 1089.3 851.777 1098.89 843.806 1108.95 L 842.702 1108.74 C 842.634 1101.04 845.485 1093.66 851.094 1088.26 C 869.063 1070.94 896.596 1072.69 913.867 1090.21 C 929.679 1106.24 925.45 1131.56 909.94 1146.14 C 895.385 1159.81 873.322 1165.21 853.782 1164.48 C 787.749 1163.4 752.162 1103.46 682.198 1121.1 C 677.779 1122.22 660.163 1126.15 657.208 1127.94 L 657.062 1129.4 L 659.598 1130.97 C 679.376 1121.66 714.758 1129.42 733.939 1137.62 C 792.265 1162.56 840.104 1204.75 907.238 1174.96 C 909.735 1173.96 910.462 1172.34 912.931 1171.99 L 913.537 1172.67 C 908.317 1177.11 891.514 1183.08 884.815 1184.47 C 775.859 1207.17 715.494 1066.88 608.582 1162.09 C 615.492 1151.22 625.242 1141.22 635.136 1133 C 717.341 1064.62 749.895 1127.02 830.3 1134.38 C 825.752 1127.82 822.992 1123.33 821.094 1115.5 C 818.313 1103.81 820.356 1091.5 826.762 1081.34 C 846.404 1049.79 889.164 1047.7 918.611 1066.58 C 912.923 1036.93 920.827 1011.71 948.477 996.693 z" fill="rgb(91,60,26)" transform="translate(0,0)"></path>
<path d="M 931.871 1158.01 C 932.545 1154.47 948.092 1139.32 952.469 1136.32 C 964.249 1128.17 978.79 1125.03 992.885 1127.61 C 1025.71 1133.92 1034.76 1175.54 1007.74 1193.48 C 987.7 1206.79 955.106 1190.52 963.322 1166.54 C 965.119 1161.31 968.951 1157.03 973.948 1154.67 C 986.465 1148.65 1004.08 1156.14 1000.16 1172.09 C 998.293 1179.68 982.261 1185.37 979.685 1174.41 C 978.617 1170.93 980.233 1165.02 983.28 1162.27 L 985.354 1162.3 C 977.252 1179.68 990.634 1181.23 993.747 1176.81 C 1011.39 1151.78 962.459 1143.95 964.771 1176.09 C 965.812 1186.86 978.208 1195.82 990.011 1196.08 C 998.232 1196.21 1006.14 1192.94 1011.87 1187.04 C 1034.04 1164.63 1015.31 1127.75 981.657 1128.93 C 967.813 1129.28 954.721 1135.31 945.447 1145.59 C 935.195 1156.8 932.447 1165.54 932.799 1180.78 C 933.52 1212.04 963.018 1230.3 991.952 1229.23 C 997.763 1229.02 1003.19 1227.06 1009.1 1228.37 C 982.865 1235.38 953.009 1227.92 937.376 1204.34 C 928.309 1190.66 929.793 1173.98 933.304 1158.69 L 931.871 1158.01 z" fill="rgb(91,60,26)" transform="translate(0,0)"></path>
<path d="M 1122.3 1279.42 C 1093.53 1265.5 1076.68 1238.33 1087.5 1206.43 C 1092.06 1192.84 1101.88 1181.64 1114.76 1175.34 C 1127.4 1169.2 1142 1168.45 1155.2 1173.27 C 1187.73 1185.18 1193.59 1232.56 1160.63 1247.88 C 1134.24 1260.81 1101.43 1233.34 1114.15 1205.8 C 1128.07 1178.85 1170.18 1193.34 1154.53 1224.08 C 1146.85 1239.18 1118.82 1226.91 1130.61 1213.4 C 1134.46 1211.58 1137.16 1212.27 1141.48 1212.63 L 1142.08 1211.64 L 1140.83 1210.35 C 1137.46 1208.97 1134.98 1208.72 1131.43 1210.13 C 1129.02 1211.09 1127.15 1213.03 1126.28 1215.46 C 1123.78 1222.56 1128.98 1230.7 1135.93 1232.6 C 1155.75 1239.05 1167.48 1211.75 1156.58 1198.36 C 1140.42 1178.51 1111.96 1191.58 1109.33 1215.01 C 1106.15 1243.46 1137.42 1260.85 1161.32 1250.08 C 1177.56 1242.45 1183.62 1223.93 1197.53 1212.78 C 1221.48 1193.57 1233.57 1198.02 1260.58 1204.28 C 1266.92 1205.75 1281.73 1202.54 1287.08 1197.08 C 1305.48 1178.3 1302.36 1153.65 1285.41 1134.99 C 1274.85 1123.35 1261.33 1114.81 1246.28 1110.27 C 1182.74 1091.52 1141.56 1152.32 1081.04 1149.71 C 1057.36 1148.69 1040.87 1137.5 1042.51 1112.05 C 1044.17 1085.77 1080.53 1061.72 1099.9 1087.37 C 1109.08 1099.52 1100.53 1115.98 1087.93 1112.11 L 1087.88 1110.68 C 1092.11 1105.23 1096.49 1095.44 1086.56 1091.5 C 1073.26 1086.23 1057.49 1102.7 1065.72 1116.96 C 1070.4 1125.08 1074.71 1130.14 1084.06 1133.81 C 1106.07 1142.37 1123.45 1127.1 1140.57 1115.8 C 1149.7 1109.88 1158.36 1104.88 1168.13 1100.51 L 1170.03 1099.54 C 1177.33 1096.15 1185.41 1093.67 1193.18 1091.67 L 1195.42 1091.23 L 1197.5 1090.86 L 1199.68 1090.37 L 1203.94 1089.76 L 1205.59 1089.37 C 1236.39 1085.46 1277.43 1091.26 1300.13 1114.4 C 1301.13 1115.31 1302.88 1116.73 1303.5 1117.79 C 1329.21 1144.42 1330.82 1166.7 1315.04 1197 C 1306.96 1212.53 1314.85 1238.24 1326.98 1251.11 C 1335.43 1260.05 1347.16 1265.17 1359.47 1265.29 C 1382.24 1265.65 1393.16 1252.39 1397.97 1231.76 C 1416.55 1240.59 1431.1 1238.41 1418.7 1264.6 C 1411.94 1279.05 1399.6 1290.14 1384.51 1295.33 C 1372.33 1299.6 1355.71 1300.63 1344.34 1294.55 C 1342.28 1293.46 1336.21 1290.81 1334.26 1290.74 C 1333.6 1292.86 1332.92 1295.72 1332.13 1297.71 C 1317.97 1333.51 1265.42 1331.95 1243.22 1307.95 C 1255.27 1302.74 1270.32 1294.74 1274.46 1281.48 C 1293.87 1219.44 1206.3 1204.15 1184.91 1256.14 C 1175.59 1278.78 1191.67 1301.64 1213.59 1307.66 C 1224.49 1310.92 1230.22 1310.3 1241.17 1308.61 L 1249.04 1317.92 C 1246.17 1341.18 1238.04 1351.01 1219.9 1366.26 C 1212.05 1372.86 1192.98 1380.63 1183.19 1381.05 C 1179.84 1382.72 1165.36 1383.45 1162.4 1381.51 C 1128.96 1377.35 1098.2 1352.9 1097.62 1317.61 C 1097.23 1293.11 1119.35 1277.54 1142.23 1277.95 C 1189.15 1278.79 1204.31 1345.99 1150.47 1348.72 C 1132.3 1349.61 1117.79 1317.73 1135.3 1305.64 C 1150.66 1295.04 1178.5 1307.6 1160.16 1324.81 C 1156.94 1327.72 1151.48 1324.6 1147.39 1323.42 L 1146.14 1324.23 C 1147.63 1327.44 1150.34 1328.49 1153.94 1328.43 C 1170.59 1329.98 1173.02 1307.6 1160.78 1301.99 C 1127.1 1286.57 1110.9 1331.54 1140.32 1348.37 C 1154.13 1356.27 1175.68 1348.2 1183.03 1333.93 C 1194.35 1311.96 1182.77 1290.59 1161.61 1280.57 C 1146.57 1273.37 1137.57 1274.36 1122.3 1279.42 z" fill="rgb(107,96,81)" transform="translate(0,0)"></path>
<path d="M 1348.41 1169.17 C 1353.7 1168.71 1358.89 1168.14 1364.17 1169.05 C 1374.68 1170.86 1383.65 1176.03 1392.86 1181.11 C 1410.79 1191 1428.85 1199.74 1449.74 1200.81 C 1495.5 1203.13 1527.24 1171.14 1569.89 1180.68 C 1576.16 1182.08 1592.93 1186.06 1596.35 1191.49 L 1595.6 1193.26 C 1590.91 1193.86 1585.53 1190.17 1580.94 1189.05 C 1572.44 1186.97 1563.26 1187.05 1554.66 1188.52 C 1513.96 1195.46 1489.68 1221.05 1442.91 1219.01 C 1429.59 1218.43 1417.51 1215.29 1405.28 1210.07 C 1389.36 1203.29 1373.98 1189.4 1355.81 1194.98 L 1354.5 1195.39 L 1353.52 1195.95 C 1346.67 1199.86 1341.3 1205.87 1339.4 1213.7 C 1337.86 1219.8 1338.84 1226.25 1342.11 1231.62 C 1346.75 1239.23 1353.38 1242.26 1361.7 1244.38 C 1368.16 1242.84 1373.92 1240.55 1377.79 1234.83 C 1379.28 1232.64 1379.97 1230.24 1379.31 1227.62 C 1378.45 1224.13 1375.13 1220.75 1372.04 1219.11 C 1369.63 1217.84 1366.04 1216.95 1363.4 1218.02 C 1360.2 1219.32 1358.28 1222.44 1356.99 1225.45 C 1357.17 1228.58 1357.26 1228.55 1359.27 1230.69 L 1360.3 1230.31 C 1360.23 1228.61 1360.04 1226.75 1360.2 1225.07 C 1360.44 1222.49 1361.49 1222.01 1363.25 1220.36 C 1364.62 1219.92 1365.96 1219.41 1367.44 1219.58 C 1370.36 1219.9 1373.03 1221.77 1374.72 1224.11 C 1376.32 1226.32 1377.08 1229.04 1376.53 1231.75 C 1375.9 1234.89 1373.84 1236.93 1371.12 1238.47 C 1366.64 1241.01 1361.05 1242.01 1356.07 1240.56 C 1350.53 1238.94 1346.36 1234.47 1343.97 1229.35 C 1341.1 1223.15 1340.97 1216.03 1343.63 1209.74 C 1345.99 1204.04 1350.38 1199.57 1356.2 1197.45 C 1362.9 1195.01 1370.81 1195.4 1377.25 1198.36 C 1384.57 1201.73 1389.84 1208.09 1392.61 1215.56 C 1396.11 1224.99 1395.8 1235.92 1391.44 1245.01 C 1387.96 1252.27 1381.99 1257.8 1374.32 1260.36 C 1363.25 1264.05 1350.81 1263.5 1340.35 1258.21 C 1329.05 1252.5 1321.29 1241.85 1317.41 1229.97 C 1313.35 1217.53 1313.43 1203.58 1319.53 1191.81 C 1325.76 1179.8 1335.86 1173.26 1348.41 1169.17 z" fill="rgb(107,96,81)" transform="translate(0,0)"></path>
<path d="M 1228.5 1227.3 C 1239.48 1226.56 1250.78 1228.35 1259.77 1235.07 C 1268.02 1241.24 1273.06 1250.66 1274.41 1260.8 C 1275.85 1270.97 1273.13 1281.3 1266.86 1289.45 C 1257.94 1300.99 1245.31 1305.82 1231.26 1307.47 C 1221.57 1308.71 1209.61 1304.93 1201.66 1299.46 C 1193.54 1293.87 1187.68 1285.53 1185.9 1275.77 C 1184.08 1265.77 1186.91 1255.29 1192.83 1247.13 C 1201.49 1235.19 1214.3 1229.54 1228.5 1227.3 z" fill="rgb(107,96,81)" transform="translate(0,0)"></path>
<path d="M 1220.18 1246.09 C 1223 1246.03 1225.72 1245.92 1228.5 1246.5 C 1234.35 1247.74 1239.61 1250.94 1242.76 1256.13 C 1245.84 1261.22 1246.88 1266.83 1245.39 1272.62 C 1243.6 1279.56 1238.91 1282.9 1233.07 1286.38 C 1227.97 1287.3 1223.43 1287.67 1218.59 1285.44 C 1213.85 1283.26 1210.71 1279.43 1208.89 1274.59 C 1206.65 1268.67 1205.39 1260.64 1208.34 1254.8 C 1210.88 1249.78 1215.13 1247.88 1220.18 1246.09 z" fill="rgb(91,60,26)" transform="translate(0,0)"></path>
<path d="M 1217.66 1249.16 C 1218.94 1249.02 1220.22 1248.86 1221.51 1248.75 C 1227.48 1248.25 1232.96 1249.44 1237.46 1253.65 C 1241.43 1257.35 1243.26 1262.15 1243.3 1267.5 C 1243.33 1272.77 1241.78 1276.39 1238.02 1280.03 C 1233.49 1284.41 1229.14 1284.79 1223.09 1284.67 C 1221.88 1284.18 1220.65 1283.71 1219.49 1283.11 C 1215.78 1281.22 1212.52 1277.94 1211.37 1273.84 C 1210.98 1272.44 1210.93 1271.1 1211.8 1269.86 C 1213.77 1267.05 1215.64 1267.86 1218.51 1266.93 C 1218.97 1266.78 1219.42 1266.56 1219.6 1266.07 C 1219.65 1265.91 1219.68 1265.69 1219.58 1265.53 C 1219.33 1265.1 1218.62 1264.69 1218.16 1264.57 C 1216.75 1264.19 1214 1265.05 1212.84 1265.88 C 1212.44 1266.17 1211.07 1267.39 1210.38 1267.31 C 1210.02 1267.27 1209.77 1267.09 1209.58 1266.79 C 1208.57 1265.13 1209.02 1260.32 1209.38 1258.59 C 1210.29 1254.09 1214.03 1251.42 1217.66 1249.16 z" fill="rgb(107,96,81)" transform="translate(0,0)"></path>
<path d="M 1051.32 1234.75 C 1054.62 1233.2 1059.68 1233.84 1063.14 1234.69 C 1069.29 1234.61 1077.39 1237.18 1083.28 1239.04 C 1088.87 1259.95 1100.14 1271.42 1119.64 1280.58 L 1118.32 1281.29 C 1099.68 1291.41 1094.91 1309.17 1066.95 1300.9 C 1055.29 1298.46 1038.99 1284.65 1043.95 1271.4 C 1049.04 1257.84 1064.08 1252.03 1077.35 1258.26 C 1105.51 1271.48 1074.94 1294.36 1066.24 1278.55 C 1066.44 1275.96 1067.51 1275.01 1069.09 1272.93 L 1068.56 1271.92 C 1065.49 1272.72 1066.4 1272.55 1063.88 1275.4 C 1063.13 1279.27 1062.96 1277.73 1064.17 1281.44 C 1072.9 1290.74 1093.16 1284.35 1091.63 1271.41 C 1089.49 1253.31 1059.63 1249.83 1045.67 1252.65 C 994.733 1262.91 972.423 1290.11 916.37 1280.65 C 932.437 1279.85 951.367 1278.81 966.099 1271.95 C 996.976 1257.57 1005.75 1241.33 1042.91 1235.76 L 1044.58 1235.27 L 1051.32 1234.75 z" fill="rgb(107,96,81)" transform="translate(0,0)"></path>
<path d="M 1257.48 1130.22 C 1277.63 1128.35 1295.44 1143.27 1297.13 1163.44 C 1298.82 1183.61 1283.74 1201.28 1263.56 1202.79 C 1243.63 1204.28 1226.23 1189.43 1224.56 1169.52 C 1222.89 1149.6 1237.59 1132.07 1257.48 1130.22 z" fill="rgb(107,96,81)" transform="translate(0,0)"></path>
<path d="M 1258.13 1149.02 C 1261.16 1148.88 1264.45 1148.53 1267.41 1149.33 C 1271.99 1150.56 1275.8 1153.3 1278.08 1157.47 C 1280.05 1161.07 1280.09 1166.1 1278.69 1169.91 C 1276.7 1175.31 1272.13 1177.65 1267.17 1179.88 C 1263.09 1180.12 1258.93 1180.59 1254.98 1179.28 C 1251.13 1178.01 1247.68 1175.36 1245.97 1171.61 C 1244.36 1168.09 1244.37 1163.85 1245.74 1160.25 C 1247.97 1154.38 1252.61 1151.39 1258.13 1149.02 z" fill="rgb(91,60,26)" transform="translate(0,0)"></path>
<path d="M 1258.71 1151.17 C 1262.53 1151.14 1265.68 1150.98 1269.27 1152.5 C 1272.24 1153.77 1275.51 1156.75 1276.52 1159.89 C 1277.55 1163.11 1277.41 1167.78 1275.7 1170.74 C 1273.43 1174.68 1269.29 1176.35 1265.14 1177.61 C 1262.15 1177.66 1259.42 1177.75 1256.48 1177.06 C 1253.16 1176.29 1249.94 1173.75 1248.37 1170.73 C 1246.96 1168.04 1246.63 1164.78 1247.65 1161.89 C 1249.5 1156.66 1253.86 1153.39 1258.71 1151.17 z" fill="rgb(107,96,81)" transform="translate(0,0)"></path>
<path d="M 1557.54 1190.33 C 1571.22 1188.53 1586.39 1191.44 1598.67 1197.57 C 1600.45 1198.46 1602.29 1198.98 1602.93 1200.93 C 1597.12 1202.21 1588.39 1198.99 1582.32 1198.5 C 1572.19 1197.7 1561.57 1198.96 1551.73 1201.39 C 1508.33 1212.11 1478.6 1245.72 1430.79 1239.86 C 1419.19 1237.65 1407.95 1233.87 1397.38 1228.61 C 1396.92 1220.22 1395.07 1213.99 1391.41 1206.43 C 1433.56 1227.94 1467.42 1224.23 1509.71 1206.56 C 1525.48 1199.97 1540.58 1193.31 1557.54 1190.33 z" fill="rgb(107,96,81)" transform="translate(0,0)"></path>
<path d="M 1057 1254.66 L 1056.8 1255.17 C 1051.65 1257.98 1047.64 1262.32 1042.44 1265.12 C 1025.52 1274.26 995.364 1286.01 976.845 1291.19 C 952.698 1297.95 933.507 1296.4 911.47 1283.94 L 903.454 1278.29 C 913.396 1280.93 923.274 1283.91 933.559 1284.85 C 978.533 1288.98 1013.27 1255.3 1057 1254.66 z" fill="rgb(107,96,81)" transform="translate(0,0)"></path>
<path d="M 1098.83 211.202 C 1070.12 122.999 1234.92 91.2783 1250.39 196.491 C 1282.37 175.566 1322.76 185.943 1337.41 222.163 C 1378.33 203.813 1426.74 228.38 1424.77 275.647 C 1501.95 261.406 1535.05 340.262 1608.64 308.848 C 1617.32 313.835 1614.04 310.49 1622.98 307.203 C 1606.87 326.098 1585.47 337.699 1560.42 339.847 C 1528.62 342.575 1505.61 323.738 1475.24 318.447 C 1452.2 314.435 1429.65 319.807 1409 330.784 C 1379.47 347.848 1360.24 362.515 1328.08 340.216 C 1328.1 347.928 1328.32 356.112 1325.96 363.506 C 1311.81 407.868 1263.26 430.017 1219.57 429.604 C 1183.6 429.264 1161.26 417.005 1133.42 397.95 C 1148.19 450.36 1098.53 469.64 1055.3 453.769 C 1049.91 451.789 1044.76 448.958 1039.72 446.174 C 1053.34 477.63 1040.53 503.365 1009.44 516.221 C 991.902 523.639 972.118 523.697 954.536 516.382 C 922.355 502.816 910.814 477.185 917.947 443.868 C 899.907 454.699 883.646 458.566 862.803 453.728 C 828.703 445.813 808.884 415.6 829.364 383.637 C 815.298 385.09 800.053 386.933 787.368 392.525 C 745.693 410.895 713.214 435.45 666.048 413.391 C 646.975 404.471 621.534 390.171 608.978 372.329 C 719.542 448.586 766.991 327.267 869.573 331.366 C 889.423 332.003 908.682 338.277 925.099 349.454 C 927.829 351.339 930.515 353.287 933.155 355.295 C 930.242 346.363 928.797 341.427 929.097 331.99 C 930.418 290.58 984.246 269.987 1017.94 287.445 C 1030.68 294.082 1040.24 305.514 1044.53 319.217 C 1047.9 329.977 1047.41 338.557 1046.62 349.633 C 1066.3 338.641 1090.58 337.163 1111.56 343.96 C 1171.99 363.542 1189.86 410.218 1262.4 387.66 L 1264.59 385.785 L 1264.15 384.857 L 1259.52 384.905 C 1238.36 385.351 1220.31 369.079 1220.75 347.493 C 1221.02 334.185 1226.93 327.184 1236.01 318.387 C 1233.52 318.225 1231.03 317.984 1228.56 317.664 C 1209.45 315.024 1195.23 304.261 1183.95 289.303 C 1184.43 294.665 1184.66 299.117 1184.01 304.511 C 1182.58 316.496 1176.43 327.417 1166.93 334.862 C 1156.55 343.004 1143.44 346.197 1130.42 344.592 C 1115.84 342.822 1102.59 335.258 1093.65 323.605 C 1082.67 309.03 1080.86 292.548 1083.2 274.971 C 1006.25 305.324 982.558 220.066 908.735 237.428 C 904.616 238.396 892.111 245.771 886.607 247.956 L 886.102 247.267 C 890.252 242.682 895.437 238.322 900.103 234.192 L 902.511 232.495 C 952.832 191.958 990.549 227.863 1041.91 243.332 C 1041.77 240.16 1041.3 234.356 1042.12 231.428 C 1049.26 206.02 1078.63 204.743 1098.83 211.202 z" fill="rgb(91,60,26)" transform="translate(0,0)"></path>
<path d="M 902.511 232.495 C 908.025 232.091 930.207 217.015 941.159 216.218 C 976.271 213.666 1008.89 235.875 1042.56 245.862 C 1049.62 255.024 1050.71 255.957 1061.01 261.145 C 1007.79 258.209 968.563 212.482 913.896 231.586 C 910.448 232.791 903.682 234.527 900.103 234.192 L 902.511 232.495 z" fill="rgb(107,96,81)" transform="translate(0,0)"></path>
<path d="M 980.602 284.247 C 998.289 282.862 1012.35 283.954 1026.85 296.008 C 1045.08 311.158 1050.55 341.58 1038.84 362.144 C 1037.5 364.502 1035.5 366.705 1036.67 368.906 C 1043.3 364.793 1043.68 352.41 1052.99 348.288 C 1070.5 340.54 1101.61 340.722 1119.11 348.555 C 1180.58 376.061 1202.14 416.961 1275.46 383.643 C 1264.3 393.68 1256.89 398.859 1242.4 403.187 C 1179.01 422.111 1134.84 350.789 1072.47 362.235 C 1054.58 365.519 1040.36 378.619 1039.45 397.334 C 1039.01 408.025 1042.93 418.436 1050.32 426.18 C 1068.81 445.851 1105.97 441.895 1106.67 411.605 C 1106.98 397.958 1091.37 394.582 1081.28 401.429 L 1080.26 403.49 C 1083.41 404.66 1089.21 399.009 1091.09 405.822 C 1095.12 420.414 1069.74 424.611 1066.24 409.486 C 1063.93 399.485 1068.2 388.826 1077.05 383.705 C 1107.1 366.328 1140.75 390.443 1133.59 424.725 C 1129.12 446.126 1105.63 456.277 1086.27 457.254 C 1057.85 458.689 1040.11 442.161 1018.68 426.891 C 1002.02 415.482 974.396 420.069 962.13 436.185 C 950.543 450.188 951.915 467.201 964.971 480.192 C 980.458 495.604 1018.44 484.56 1015.67 462.276 C 1015.01 456.926 1012.13 452.1 1007.73 448.982 C 997.927 442.139 979.846 444.817 982.092 458.466 C 983.945 461.705 986.463 463.422 990.23 463.926 L 990.475 462.94 C 986.192 459.035 984.346 458.66 984.043 453.5 C 988.058 445.956 1000.84 446.766 1006.76 450.858 C 1024.52 463.115 1003.88 485.125 988.191 485.424 C 972.06 486.709 957.772 474.793 956.703 459.103 C 955.328 438.911 976.618 422.829 995.391 423.065 C 1008.24 422.952 1021.85 428.238 1030.31 437.718 C 1065.91 477.614 1024 520.12 980.629 519.675 C 963.003 519.341 946.209 512.119 933.842 499.556 C 915.234 480.53 912.79 454.641 926.974 432.282 C 910.603 448.104 901.637 453.074 877.301 453.513 C 840.64 454.174 803.07 414.356 835.254 382.503 C 849.045 368.853 879.992 363.101 894.222 380.449 C 898.033 385.073 899.752 391.073 898.968 397.014 C 896.001 421.324 867.211 420.624 868.182 402.493 C 869.787 399.57 870.874 398.126 872.87 395.426 L 872.517 394.262 C 869.02 394.48 870.561 393.883 867.815 396.307 C 864.859 403.522 867.021 414.495 874.901 417.418 C 886.289 421.642 898.586 411.015 901.517 400.267 C 908.602 366.859 860.471 359.864 839.916 375.727 C 837.316 377.733 835.085 379.094 832.789 380.829 C 816.308 382.362 807.401 383.049 791.35 388.645 C 757.21 400.547 730.148 425.251 691.59 418.781 C 690.99 418.86 689.823 418.543 689.144 418.409 C 669.544 414.581 655.65 406.766 639.471 395.738 C 657.916 404.611 671.047 407.979 691.002 409.809 C 744.968 414.759 776.713 376.218 824.593 361.572 C 848.89 353.708 874.201 353.259 897.292 365.185 C 916.482 375.097 927.439 394.148 916.152 414.622 C 905.208 434.472 871.214 440.926 854.313 425.576 C 850.907 422.483 848.897 414.32 844.383 411.803 L 843.772 412.883 C 850.526 434.835 874.251 440.501 894.132 434.019 C 934.931 420.843 930.779 376.056 893.658 360.677 C 844.567 339.214 798.493 368.78 756.888 391.98 C 717.912 413.715 678.871 411.374 639.454 393.695 C 651.337 396.682 665.372 400.313 677.468 400.102 C 746.127 399.358 792.008 334.342 860.684 333.62 C 899.125 333.216 920.704 345.514 947.169 370.821 C 963.055 386.012 997.493 386.451 1013.75 369.727 C 1020.31 362.966 1023.83 353.819 1023.48 344.405 C 1023.17 335.703 1019.49 326.059 1013.03 320.051 C 1006.48 314.065 997.824 310.925 988.959 311.323 C 981.191 311.733 973.516 315.078 968.426 321.054 C 964.36 325.769 962.418 331.952 963.06 338.145 C 965.088 359.536 984.055 366.782 999.146 349.181 C 1003.16 341.743 1003.43 336.53 996.591 332.18 C 982.387 323.149 970.276 345.365 984.31 347.885 C 984.695 344.435 981.085 345.497 980.51 338.791 C 982.948 333.864 988.187 331.968 993.665 333.469 C 995.495 334.083 998.021 336.284 998.302 338.204 C 1000.52 353.407 986.633 361.124 974.222 353.102 C 966.769 348.285 966.425 343.399 964.711 335.989 C 973.552 298.999 1022.17 311.624 1020.93 345.956 C 1020.67 355.159 1016.64 363.851 1009.79 369.998 C 981.342 395.503 925.804 370.028 931.573 329.962 C 933.776 314.662 937.886 307.327 949.642 297.346 L 950.821 296.443 C 959.3 289.928 967.885 286.855 978.194 284.694 C 978.938 284.133 979.332 284.343 980.602 284.247 z" fill="rgb(107,96,81)" transform="translate(0,0)"></path>
<path d="M 1122.73 232.598 C 1138.08 235.971 1149 236.157 1163.6 229.369 C 1182.96 220.373 1192.89 197.975 1182.37 178.366 C 1178 170.148 1170.55 163.995 1161.65 161.252 C 1143.65 155.847 1129.02 166.285 1124.41 182.985 C 1116.9 210.158 1159.1 224.283 1167.87 199.304 C 1169.86 193.613 1160.24 183.074 1154.13 183.755 C 1149.87 184.231 1149.56 183.126 1145.43 186.401 C 1153.04 186.416 1170.18 187.84 1164.29 202.108 C 1159.26 214.297 1128.89 210.168 1126.96 194.686 C 1125.16 180.298 1131.49 166.288 1147.15 163.02 C 1154.98 161.441 1163.11 163.109 1169.68 167.642 C 1176.76 172.402 1181.64 179.803 1183.22 188.188 C 1190.35 225.725 1140.36 244.444 1113.46 224.308 C 1092.72 208.778 1093.13 182.084 1108.14 162.504 C 1135.09 126.846 1186.55 122.09 1221.35 149.195 C 1240.24 163.907 1245.47 178.993 1248.34 201.662 C 1238.57 198.456 1231.58 196.872 1221.11 198.503 C 1208.74 200.375 1197.66 207.194 1190.41 217.394 C 1175.94 237.671 1182.02 262.001 1202.33 275.447 C 1214.68 283.451 1229.69 286.267 1244.1 283.287 C 1254.35 281.193 1265.98 273.42 1271.77 264.49 C 1277.67 255.262 1279.57 244.035 1277.03 233.382 C 1273.42 218.043 1262.73 210.415 1250.28 202.687 L 1249.98 201.022 C 1270.42 178.323 1319.38 187.224 1331.34 214.94 C 1332.82 218.369 1333.69 222.372 1334.47 226.011 C 1360.06 214.077 1382.81 213.79 1405 233.296 C 1406.03 234.249 1407.85 235.743 1408.5 236.843 C 1420.29 250.213 1422.72 258.629 1421.72 276.144 C 1413.49 279.014 1406.6 281.616 1398.55 284.977 C 1389.48 241.527 1340.92 242.2 1320.31 274.778 C 1312.83 286.502 1310.31 300.716 1313.3 314.297 C 1315.44 323.612 1319.81 331 1325.89 338.233 C 1325.55 352.353 1325.7 362.871 1318.36 375.562 C 1297.85 411.05 1257.44 428.631 1217.5 427.41 C 1214.21 427.277 1210.91 427.06 1207.63 426.758 C 1205.48 427.235 1206.54 427.295 1204.38 426.387 C 1179.59 423.112 1153.94 411.38 1134.74 395.44 C 1120.08 383.266 1114.96 372.823 1092.32 375.777 C 1082.16 377.115 1072.97 382.485 1066.82 390.677 C 1059.52 400.501 1062.83 416.796 1072.04 419.505 C 1093.2 425.723 1093.97 415.084 1090.23 401.393 L 1091.61 399.513 L 1093.65 399.286 C 1102.67 402.361 1106.98 413.413 1102.72 420.869 C 1087.71 447.112 1054.59 436.046 1045.03 413.097 C 1041.21 404.002 1041.24 393.741 1045.14 384.675 C 1048.66 376.632 1056.19 369.589 1064.49 366.885 C 1104.71 353.767 1141.93 382.3 1176.54 398.102 C 1200.89 409.225 1224.41 412.994 1249.74 403.465 C 1266.02 396.666 1291.85 377.598 1298.17 360.871 C 1310.06 329.368 1286.34 305.389 1254.45 311.049 C 1248.98 312.02 1243.58 315.639 1238.4 315.754 C 1227.32 316.001 1215.81 312.724 1206.09 307.564 C 1185.57 295.797 1179.51 268.467 1157.53 259.165 C 1147.45 254.827 1139.03 256.854 1129.33 260.418 C 1113.43 266.254 1101.85 286.15 1109.48 302.619 C 1112.82 309.707 1118.84 315.181 1126.21 317.838 C 1133.31 320.368 1141.14 319.841 1147.83 316.383 C 1158.91 310.618 1160.87 297.619 1155.5 286.818 C 1152.4 280.595 1146.1 278.493 1139.83 276.579 C 1131.04 278.665 1120.73 282.984 1126.73 293.899 C 1128.29 296.697 1130.91 298.749 1134 299.589 C 1137.41 300.508 1142.25 299.37 1143.16 295.677 C 1140.67 296.047 1137.5 297.33 1135.17 297.187 C 1128.33 296.767 1124.17 287.033 1130.39 282.694 C 1135.92 277.983 1148.82 279.953 1152.44 286.689 C 1167.88 314.544 1128.86 328.622 1114.18 306.053 C 1104.79 291.616 1111.29 273.631 1125.1 265.153 C 1133.41 260.002 1143.42 258.367 1152.93 260.61 C 1161.53 262.717 1173.34 271.305 1176.99 279.171 C 1203.74 335.399 1119.15 368.623 1092 316.662 C 1073.21 280.682 1090.03 250.438 1122.73 232.598 z" fill="rgb(107,96,81)" transform="translate(0,0)"></path>
<path d="M 1354.21 254.287 C 1365.02 253.235 1373.81 254.227 1382.59 261.103 C 1389.88 266.86 1394.53 275.325 1395.48 284.569 C 1400.12 327.333 1343.49 330.662 1342.11 299.657 C 1341.87 292.947 1344.5 286.453 1349.33 281.794 C 1366.61 265.145 1385.05 288.097 1373.18 296.244 C 1367.11 296.398 1364.01 293.264 1359.48 289.55 C 1358.32 291.828 1358.66 290.535 1359.46 293.767 C 1373.62 308.695 1395.13 282.697 1362.29 273.287 C 1353.29 275.681 1345.39 278.613 1341.59 288.114 C 1336.26 301.443 1341.44 315.948 1355.27 321.228 C 1373.08 328.03 1387.29 314.882 1402.91 307.642 C 1439.57 290.644 1465.92 294.065 1502.25 308.57 C 1551.15 329.766 1559.75 334.745 1609.51 315.754 C 1599.64 325.867 1592.23 329.423 1578.83 333.962 C 1531.41 349.956 1500.15 311.49 1451.66 314.902 C 1415.18 317.469 1400.34 338.63 1372.3 347.066 C 1312.27 365.12 1288.52 270.367 1354.21 254.287 z" fill="rgb(107,96,81)" transform="translate(0,0)"></path>
<path d="M 1224.34 200.366 C 1279.24 197.711 1298.18 269.89 1238.71 281.973 C 1172.18 282.518 1168.02 210.028 1224.34 200.366 z" fill="rgb(107,96,81)" transform="translate(0,0)"></path>
<path d="M 1222.26 222.244 C 1226.59 221.986 1229.57 221.722 1233.75 223.36 C 1238.27 225.148 1241.86 228.732 1243.65 233.258 C 1249.63 248.142 1241.01 257.22 1227.54 261.948 C 1220.37 262.266 1208.54 261.149 1206.63 253.369 C 1202.7 237.34 1208 227.187 1222.26 222.244 z" fill="rgb(91,60,26)" transform="translate(0,0)"></path>
<path d="M 1224.45 224.213 C 1252.02 225.461 1248.77 264.754 1215.52 258.568 C 1210.97 255.614 1209.21 254.733 1208.09 249.057 C 1205.88 237.93 1215.43 246.581 1220.56 243.562 C 1220.54 243.445 1220.52 243.328 1220.5 243.211 C 1218.6 241.522 1212.94 242.388 1211.38 241.288 C 1201.96 234.642 1219.01 225.524 1224.45 224.213 z" fill="rgb(107,96,81)" transform="translate(0,0)"></path>
<path d="M 1045.22 278.391 C 1008.72 276.237 991.299 250.644 961.699 239.437 C 954.816 236.814 947.64 235.033 940.329 234.132 C 935.85 233.624 924.32 233.735 921.584 232.574 L 921.88 231.366 C 961.09 218.231 1010.11 256.737 1047.8 262.136 C 1061.02 264.029 1080.88 262.45 1087.99 249.38 C 1096.34 234.527 1080.58 218.739 1066.46 228.95 C 1063.24 231.277 1062.36 234.63 1063 238.493 C 1064.58 240.697 1064.97 241.723 1067.53 242.56 L 1068.85 241.537 L 1067.79 240.459 C 1066.29 238.896 1066.03 238.387 1064.94 236.544 C 1066.3 226.973 1080.1 225.875 1085 233.054 C 1095.88 249.003 1073.03 262.878 1059.88 257.644 C 1037.17 248.34 1039.13 222.837 1061.27 213.744 C 1069.82 210.231 1074.87 209.495 1084.23 209.981 C 1100.53 210.826 1106.65 223.811 1120.25 231.189 C 1100.51 241.514 1090.99 251.992 1083.23 272.598 C 1072.58 276.903 1061.33 279.531 1049.77 278.803 C 1047.49 279.251 1047.5 279.054 1045.22 278.391 z" fill="rgb(107,96,81)" transform="translate(0,0)"></path>
<path d="M 1257.02 313.352 C 1266.01 312.752 1275.29 312.781 1283.39 317.282 C 1305.25 329.423 1302.82 369.278 1278.7 377.792 C 1274.57 379.25 1270.74 381.224 1266.56 382.328 C 1239.02 383.412 1218.5 369.072 1224.59 337.691 C 1225.65 332.229 1234.19 322.847 1238.8 319.901 C 1243.73 316.755 1251.11 314.619 1257.02 313.352 z" fill="rgb(107,96,81)" transform="translate(0,0)"></path>
<path d="M 1260.35 334.073 C 1282.26 334.407 1289.32 356.732 1268.46 365.261 C 1264.89 365.261 1258.96 365.628 1256.02 363.808 C 1239.53 353.622 1244.36 339.441 1260.35 334.073 z" fill="rgb(91,60,26)" transform="translate(0,0)"></path>
<path d="M 1257.5 337.171 C 1277.46 335.39 1285.82 351.511 1269.94 362.631 C 1249.38 364.198 1239.95 348.271 1257.5 337.171 z" fill="rgb(107,96,81)" transform="translate(0,0)"></path>
<path d="M 1435.7 276.385 C 1496.36 270.958 1528.13 326.954 1588.5 317.182 C 1593.71 316.338 1598.75 314.658 1604.05 314.578 C 1590.01 323.889 1569.33 325.958 1552.88 324.243 C 1528.92 319.748 1507.18 306.65 1484.21 299.205 C 1448.19 287.531 1424.14 294.385 1392.21 310.523 C 1396.13 301.655 1397.27 297.466 1398.38 287.838 C 1412.5 281.273 1420.35 278.443 1435.7 276.385 z" fill="rgb(107,96,81)" transform="translate(0,0)"></path>
<path d="M 523.558 611.232 C 599.656 604.637 666.646 661.089 673.045 737.204 C 679.444 813.319 622.82 880.163 546.689 886.366 C 470.835 892.546 404.287 836.172 397.911 760.335 C 391.536 684.497 447.737 617.804 523.558 611.232 z" fill="rgb(227,160,42)" transform="translate(0,0)"></path>
<path d="M 528.06 638.649 C 588.796 634.691 641.255 680.686 645.271 741.418 C 649.288 802.15 603.343 854.654 542.615 858.728 C 481.804 862.809 429.213 816.787 425.192 755.973 C 421.17 695.158 467.241 642.612 528.06 638.649 z" fill="rgb(109,43,15)" transform="translate(0,0)"></path>
<path d="M 629.44 693.238 C 642.085 713.944 647.367 738.313 644.432 762.397 C 636.449 822.967 578.268 862.35 518.741 853.962 C 489.272 849.795 462.721 833.943 445.072 809.979 C 428.721 788.085 422.284 759.549 426.322 732.666 C 430.461 705.27 445.525 680.722 468.076 664.624 C 522.119 625.379 590.131 638.357 628.543 692.074 L 629.44 693.238 z" fill="rgb(184,58,35)" transform="translate(0,0)"></path>
<path d="M 1086.16 664.233 C 1104.36 665.44 1134.62 664.411 1153.62 664.407 L 1279.09 664.538 L 1279.01 848.065 L 1085.86 848.014 L 1086.16 664.233 z" fill="rgb(107,96,81)" transform="translate(0,0)"></path>
<path d="M 1215.01 786.862 C 1235.3 786.729 1255.67 786.578 1275.96 786.927 C 1276.11 806.363 1276.14 825.799 1276.04 845.236 L 1214.92 845.319 C 1214.98 825.837 1214.76 806.341 1215.01 786.862 z" fill="rgb(253,248,236)" transform="translate(0,0)"></path>
<path d="M 1238.12 809.695 L 1252.52 809.761 L 1252.51 823.627 C 1247.7 823.645 1242.89 823.61 1238.08 823.678 L 1238.12 809.695 z" fill="rgb(107,96,81)" transform="translate(0,0)"></path>
<path d="M 1089.73 786.494 C 1109.44 787.231 1129.3 786.69 1149.03 786.718 L 1149.07 845.141 C 1129.02 845.062 1108.97 845.123 1088.93 845.325 C 1088.95 833.623 1087.12 794.784 1089.73 786.494 z" fill="rgb(253,248,236)" transform="translate(0,0)"></path>
<path d="M 1112.88 809.238 L 1126.9 809.249 L 1126.97 824.017 L 1112.78 824.024 C 1112.78 819.095 1112.73 814.165 1112.88 809.238 z" fill="rgb(107,96,81)" transform="translate(0,0)"></path>
<path d="M 1215.23 667.505 C 1235.48 667.388 1255.8 667.078 1276.04 667.474 C 1275.99 681.662 1277.68 712.417 1275.47 724.848 C 1255.25 724.663 1235.07 724.497 1214.85 724.655 C 1214.74 709.61 1213.1 681.145 1215.23 667.505 z" fill="rgb(253,248,236)" transform="translate(0,0)"></path>
<path d="M 1238.17 689.188 L 1252.83 689.042 L 1252.86 703.432 C 1247.94 703.416 1243.02 703.436 1238.09 703.492 C 1238.09 698.724 1238.11 693.956 1238.17 689.188 z" fill="rgb(107,96,81)" transform="translate(0,0)"></path>
<path d="M 1152.08 786.939 L 1212.09 786.886 L 1212.09 845.267 C 1192.11 844.982 1172.09 845.143 1152.1 845.186 L 1152.08 786.939 z" fill="rgb(253,248,236)" transform="translate(0,0)"></path>
<path d="M 1174.98 809.128 L 1189.99 809.126 L 1189.99 824.12 C 1184.97 824.069 1179.94 824.062 1174.91 824.096 C 1174.89 819.107 1174.91 814.117 1174.98 809.128 z" fill="rgb(107,96,81)" transform="translate(0,0)"></path>
<path d="M 1215.07 726.982 C 1235.3 727.013 1255.58 726.716 1275.8 727.185 C 1276.31 745.84 1276.65 765.234 1275.77 783.87 C 1255.53 784.004 1235.24 784.084 1215 783.877 C 1214.97 764.92 1214.82 745.936 1215.07 726.982 z" fill="rgb(253,248,236)" transform="translate(0,0)"></path>
<path d="M 1234.95 746.836 L 1255.02 746.804 C 1254.97 752.991 1254.96 759.178 1254.98 765.365 C 1248.37 765.449 1241.77 765.461 1235.16 765.4 C 1235.19 759.2 1235.18 753.033 1234.95 746.836 z" fill="rgb(107,96,81)" transform="translate(0,0)"></path>
<path d="M 1240.25 751.246 C 1242.67 751.21 1248.15 750.338 1249.99 751.971 C 1251.64 753.43 1250.82 759.233 1250.81 761.259 C 1248.6 761.249 1242.23 762.141 1240.65 760.382 C 1239.24 758.81 1240.11 753.173 1240.25 751.246 z" fill="rgb(253,248,236)" transform="translate(0,0)"></path>
<path d="M 1098.84 667.49 C 1115.33 667.497 1132.7 667.1 1149.1 667.565 C 1149.13 673.977 1149.75 722.846 1148.45 723.863 C 1147.04 724.968 1143.9 724.397 1142.25 724.346 C 1124.52 724.216 1106.79 724.247 1089.06 724.439 C 1089.08 717.888 1088.53 669.214 1089.59 668.331 C 1091.34 666.886 1096.64 667.529 1098.84 667.49 z" fill="rgb(253,248,236)" transform="translate(0,0)"></path>
<path d="M 1111.83 688.917 C 1116.72 688.909 1121.61 689.024 1126.51 689.056 C 1126.47 693.881 1126.52 698.707 1126.66 703.53 C 1121.84 704.212 1116.54 703.765 1111.65 703.79 C 1111.66 698.832 1111.72 693.874 1111.83 688.917 z" fill="rgb(107,96,81)" transform="translate(0,0)"></path>
<path d="M 1152.23 667.495 L 1212.04 667.598 C 1212.3 686.554 1212.06 705.531 1212.08 724.49 C 1192.09 724.28 1172.09 724.296 1152.09 724.537 C 1151.86 705.979 1150.67 685.917 1152.23 667.495 z" fill="rgb(253,248,236)" transform="translate(0,0)"></path>
<path d="M 1173.57 688.156 C 1179.81 688.022 1186.04 687.962 1192.28 687.976 C 1192.33 694.006 1192.32 700.036 1192.24 706.066 C 1185.94 706.027 1179.64 706.044 1173.34 706.117 C 1173.32 700.129 1173.4 694.141 1173.57 688.156 z" fill="rgb(107,96,81)" transform="translate(0,0)"></path>
<path d="M 1178.08 692.121 C 1180.12 692.117 1185.9 691.311 1187.37 692.657 C 1188.95 694.106 1188.02 699.821 1187.93 701.804 C 1185.58 701.794 1183.21 701.897 1180.86 701.819 C 1180.06 701.792 1179.21 701.608 1178.67 700.975 C 1177.29 699.377 1178.06 694.098 1178.08 692.121 z" fill="rgb(253,248,236)" transform="translate(0,0)"></path>
<path d="M 1152.25 726.905 L 1212.11 726.988 C 1212.16 745.95 1212.39 764.947 1212.12 783.906 C 1192.14 783.888 1172.13 784.1 1152.16 783.766 C 1152.08 764.812 1152.12 745.858 1152.25 726.905 z" fill="rgb(253,248,236)" transform="translate(0,0)"></path>
<path d="M 1174.44 748.632 C 1179.66 748.524 1184.9 748.603 1190.13 748.603 L 1190.15 763.913 L 1174.43 763.899 L 1174.44 748.632 z" fill="rgb(107,96,81)" transform="translate(0,0)"></path>
<path d="M 1089.08 726.873 L 1149.08 726.941 C 1149.14 745.76 1149.87 764.918 1148.97 783.699 C 1129.02 783.824 1108.99 783.881 1089.04 783.658 L 1089.08 726.873 z" fill="rgb(253,248,236)" transform="translate(0,0)"></path>
<path d="M 1110.56 747.012 L 1129.15 746.97 C 1129.16 753.276 1129.13 759.582 1129.05 765.888 C 1122.89 765.706 1116.72 765.842 1110.55 765.793 L 1110.56 747.012 z" fill="rgb(107,96,81)" transform="translate(0,0)"></path>
<path d="M 1115.49 751.78 C 1117.34 751.775 1119.21 751.699 1121.07 751.724 C 1122.16 751.74 1123.53 751.752 1124.28 752.696 C 1125.49 754.202 1124.71 759.815 1124.71 761.833 C 1122.87 761.787 1117.56 762.498 1116.25 760.882 C 1114.76 759.037 1115.46 754.066 1115.49 751.78 z" fill="rgb(253,248,236)" transform="translate(0,0)"></path>
<path d="M 697.235 731.491 L 830.732 731.503 C 830.696 738.35 832.812 763.428 829.945 768.145 C 829.29 769.223 827.425 769.024 826.25 769.156 L 690.758 769.041 C 690.72 757.17 690.033 744.869 691.264 733.068 C 693.044 731.323 694.8 731.703 697.235 731.491 z" fill="rgb(184,58,35)" transform="translate(0,0)"></path>
<path d="M 693.227 733.51 C 738.369 733.491 783.579 734.218 828.711 733.409 C 828.363 744.453 828.587 755.56 828.583 766.611 C 802.626 767.653 776.386 766.915 750.4 766.926 C 731.571 766.934 711.895 768.099 693.182 766.478 L 693.227 733.51 z" fill="rgb(227,160,42)" transform="translate(0,0)"></path>
<path d="M 248.221 731.554 L 332.036 731.657 C 347.018 731.72 367.456 731.268 382.093 732.47 C 382.074 733.983 382.111 738.164 381.92 739.435 L 382.391 768.876 C 338.651 769.729 292.016 768.793 248.077 768.701 L 248.221 731.554 z" fill="rgb(227,160,42)" transform="translate(0,0)"></path>
<path d="M 248.221 731.554 L 332.036 731.657 C 347.018 731.72 367.456 731.268 382.093 732.47 C 367.701 732.869 254.469 731.481 249.962 733.862 L 250.029 766.977 L 380.571 766.803 C 382.149 757.659 379.817 748.091 381.92 739.435 L 382.391 768.876 C 338.651 769.729 292.016 768.793 248.077 768.701 L 248.221 731.554 z" fill="rgb(109,43,15)" transform="translate(0,0)"></path>
<path d="M 382.093 732.47 C 382.074 733.983 382.111 738.164 381.92 739.435 C 379.817 748.091 382.149 757.659 380.571 766.803 C 379.241 759.356 379.885 742.004 380.018 734.044 C 337.211 732.722 292.963 734.829 249.962 733.862 C 254.469 731.481 367.701 732.869 382.093 732.47 z" fill="rgb(207,107,52)" transform="translate(0,0)"></path>
<path d="M 519.522 904.96 L 556.984 905.086 L 556.814 1033.29 C 544.43 1033.15 532.045 1033.14 519.661 1033.26 C 519.76 990.502 518.406 947.726 519.522 904.96 z" fill="rgb(184,58,35)" transform="translate(0,0)"></path>
<path d="M 521.51 906.773 L 554.84 906.856 L 554.681 984.054 C 554.63 999.531 555.109 1015.24 553.985 1030.67 C 543.546 1031.78 532.234 1030.94 521.696 1030.95 C 522.301 989.605 521.541 948.133 521.51 906.773 z" fill="rgb(227,160,42)" transform="translate(0,0)"></path>
<path d="M 519.629 473.723 L 556.734 473.757 C 557.621 514.164 557.027 556.918 557.138 597.516 L 519.369 597.255 C 519.082 556.078 519.168 514.898 519.629 473.723 z" fill="rgb(184,58,35)" transform="translate(0,0)"></path>
<path d="M 521.725 476.082 L 554.524 476.316 L 554.764 594.934 L 521.81 594.941 L 521.725 476.082 z" fill="rgb(227,160,42)" transform="translate(0,0)"></path>
<path d="M 414.536 843.697 C 421.522 846.202 436.377 862.201 442.65 867.92 C 414.16 897.567 383.383 924.995 354.729 954.453 C 344.895 948.56 334.954 936.421 326.619 928.272 C 356.791 900.933 384.788 871.426 414.536 843.697 z" fill="rgb(109,43,15)" transform="translate(0,0)"></path>
<path d="M 414.881 845.905 C 423.729 851.633 432.19 861.071 440.01 868.298 C 410.898 894.979 382.664 923.575 354.755 951.528 C 350.107 950.34 334.702 933.428 329.506 928.794 C 358.441 901.659 386.903 874.025 414.881 845.905 z" fill="rgb(227,160,42)" transform="translate(0,0)"></path>
<path d="M 655.897 840.789 C 669.883 852.955 683.056 866.398 696.417 879.252 C 711.944 894.19 727.861 908.887 742.662 924.547 C 733.584 932.726 724.968 941.561 716.187 950.066 C 685.126 924.42 659.286 892.131 628.519 866.129 C 637.895 857.956 647.025 849.506 655.897 840.789 z" fill="rgb(109,43,15)" transform="translate(0,0)"></path>
<path d="M 655.718 843.626 C 665.709 851.139 674.716 861.246 683.761 869.93 C 702.62 887.956 721.358 906.108 739.972 924.386 L 716.078 947.569 C 686.96 921.396 660.816 891.706 631.352 865.94 C 639.774 858.878 647.686 851.128 655.718 843.626 z" fill="rgb(227,160,42)" transform="translate(0,0)"></path>
<path d="M 357.138 555.555 C 363.505 558.003 430.727 624.772 441.705 634.902 C 433.414 642.645 424.89 651.336 416.76 659.337 L 415.03 659.877 C 410.335 657.004 395.262 641.66 390.646 637.267 C 371.041 618.606 351.975 598.759 332.01 580.5 C 340.408 572.382 348.829 563.807 357.138 555.555 z" fill="rgb(109,43,15)" transform="translate(0,0)"></path>
<path d="M 357.694 557.775 C 364.847 563.106 380.029 578.547 387.16 585.477 C 404.266 602.162 421.466 618.75 438.759 635.242 C 431.291 641.721 422.411 651.042 415.257 658.177 C 389.515 635.666 360.719 604.605 334.705 580.242 C 342.297 573.415 350.412 565.015 357.694 557.775 z" fill="rgb(227,160,42)" transform="translate(0,0)"></path>
<path d="M 715.58 551.707 C 720.81 555.039 738.02 571.115 743.004 575.8 C 715.39 603.069 687.598 630.157 659.63 657.062 C 655.687 656.663 637.37 637.422 633.53 633.474 C 655.443 608.758 691.271 576.112 715.58 551.707 z" fill="rgb(109,43,15)" transform="translate(0,0)"></path>
<path d="M 636.142 633.419 C 662.547 606.741 689.242 580.351 716.22 554.254 C 723.643 560.737 733.54 568.934 740.317 575.767 C 713.713 602.753 685.519 628.306 659.241 655.078 C 656.861 654.347 655.356 652.867 654.107 650.678 C 648.418 645.238 641.55 638.984 636.142 633.419 z" fill="rgb(227,160,42)" transform="translate(0,0)"></path>
<path d="M 654.107 650.678 C 656.086 651.828 657.565 653.542 659.241 655.078 C 656.861 654.347 655.356 652.867 654.107 650.678 z" fill="rgb(207,107,52)" transform="translate(0,0)"></path>
<path d="M 620.017 518.286 L 650.906 529.995 C 638.765 559.909 625.034 589.968 612.54 619.8 C 603.319 616.95 591.958 612.224 582.764 608.655 C 594.866 578.403 607.284 548.278 620.017 518.286 z" fill="rgb(227,160,42)" transform="translate(0,0)"></path>
<path d="M 462.503 878.225 C 472.574 881.139 482.586 885.897 492.251 889.948 C 479.671 919.567 469.819 951.152 455.301 979.834 C 445.725 974.92 435.549 970.922 425.324 967.588 C 436.819 937.714 448.74 907.082 462.503 878.225 z" fill="rgb(227,160,42)" transform="translate(0,0)"></path>
<path d="M 424.418 528.964 C 434.967 526.684 445.119 522.852 454.544 517.593 C 459.903 529.053 465.352 544.092 470.059 556.074 C 473.764 565.114 479.506 578.013 482.471 586.981 C 485.301 592.608 489.146 602.332 491.966 608.538 C 484.314 612.099 469.052 617.175 460.84 620.168 C 452.149 595.57 434.923 553.207 424.418 528.964 z" fill="rgb(227,160,42)" transform="translate(0,0)"></path>
<path d="M 424.418 528.964 C 434.967 526.684 445.119 522.852 454.544 517.593 C 459.903 529.053 465.352 544.092 470.059 556.074 L 468.475 556.271 C 464.731 548.258 461.648 540.07 458.645 531.767 C 457.002 527.221 457.028 525.089 452.438 522.889 C 446.738 522.886 433.429 528.59 427.537 530.861 C 435.025 549.177 442.388 567.543 449.624 585.959 C 452.615 593.464 458.707 609.688 462.559 615.944 C 467.624 616.165 483.284 610.03 488.922 608.003 C 487.241 603.411 481.233 590.174 482.471 586.981 C 485.301 592.608 489.146 602.332 491.966 608.538 C 484.314 612.099 469.052 617.175 460.84 620.168 C 452.149 595.57 434.923 553.207 424.418 528.964 z" fill="rgb(207,107,52)" transform="translate(0,0)"></path>
<path d="M 607.459 880.872 L 608.79 880.624 C 609.382 880.956 610.111 881.117 610.567 881.62 C 613.371 884.717 641.606 957.248 647.424 969.576 C 638.123 972.122 629.215 975.728 620.234 979.205 C 618.799 979.828 618.123 979.919 616.576 979.692 C 609.655 967.076 604.526 952.557 599.143 939.211 C 592.848 923.608 586.013 907.903 580.805 891.925 C 589.725 888.336 598.578 884.557 607.459 880.872 z" fill="rgb(227,160,42)" transform="translate(0,0)"></path>
<path d="M 684.546 792.84 C 714.212 803.2 743.201 816.369 772.526 827.741 C 768.416 837.656 763.536 847.36 759.012 857.1 C 751.358 855.601 742.221 850.498 734.839 847.503 C 713.725 838.938 692.62 830.536 671.707 821.467 C 675.748 811.786 679.931 802.261 684.546 792.84 z" fill="rgb(227,160,42)" transform="translate(0,0)"></path>
<path d="M 762.624 644.897 L 763.678 645.268 C 766.975 648.35 773.391 669.226 775.167 674.507 C 766.204 677.218 754.843 682.669 745.807 686.138 C 726.704 693.472 707.487 701.493 688.219 708.312 C 685.229 703.286 678.341 685.783 675.425 679.118 C 704.452 667.556 733.392 656.729 762.624 644.897 z" fill="rgb(227,160,42)" transform="translate(0,0)"></path>
<path d="M 315.556 644.896 C 342.899 654.379 373.764 668.236 401.421 678.839 C 398.946 686.768 392.78 700.518 389.424 708.624 C 360.699 696.82 331.521 686.029 302.678 674.05 C 307.258 665.355 312.698 654.275 315.556 644.896 z" fill="rgb(227,160,42)" transform="translate(0,0)"></path>
<path d="M 385.763 794.045 C 386.081 794.048 386.406 793.985 386.717 794.054 C 389.225 794.611 398.617 818.71 400.703 823.071 C 372.783 834.053 344.793 844.747 316.981 856.013 L 315.065 856.267 C 311.288 853.355 304.162 833.701 301.536 828.081 C 310.874 824.75 320.001 820.308 329.197 816.556 L 385.763 794.045 z" fill="rgb(227,160,42)" transform="translate(0,0)"></path>
<path d="M 531.002 316.111 C 557.722 312.909 558.156 333.322 556.751 353.219 C 555.487 371.118 563.584 389.352 543.092 396.989 C 512.235 399.126 518.913 374.42 518.161 352.953 C 517.87 344.664 518.223 335.294 519.187 327.076 C 523.008 321.27 525.336 319.481 531.002 316.111 z" fill="rgb(107,96,81)" transform="translate(0,0)"></path>
<path d="M 532.888 318.227 C 539.794 317.893 552.152 320.305 553.041 328.816 C 554.979 347.36 555.624 369.114 552.444 387.431 C 551.865 390.771 545.108 393.811 542.257 394.955 C 530.794 395.634 527.895 394.25 521.397 384.838 C 520.309 369.731 521.11 343.474 521.18 327.83 C 525.782 323.114 527.22 321.402 532.888 318.227 z" fill="rgb(146,146,42)" transform="translate(0,0)"></path>
<path d="M 236.887 450.109 C 248.627 449.911 252.533 451.456 260.378 460.973 C 268.321 470.608 288.098 482.453 291.09 494.473 C 294.035 506.303 286.902 513.026 277.067 517.566 C 260.462 520.693 257.997 509.2 246.604 500.786 C 231.999 490 205.342 461.479 236.887 450.109 z" fill="rgb(107,96,81)" transform="translate(0,0)"></path>
<path d="M 274.03 477.258 C 282.161 484.198 292.347 493.222 288.199 504.984 C 284.924 511.97 271.805 519.495 264.661 514.541 C 256.497 508.879 248.518 498.935 240.989 492.073 C 231.33 483.27 216.65 469.259 230.516 456.838 C 243.935 444.816 256.933 460.995 266.044 469.766 C 266.894 470.971 267.102 471.297 268.384 471.976 C 269.939 473.418 271.477 474.878 272.996 476.358 C 273.639 476.81 273.627 476.731 274.03 477.258 z" fill="rgb(146,146,42)" transform="translate(0,0)"></path>
<path d="M 263.953 987.43 C 268.812 985.029 273.43 985.271 278.182 988.064 C 311.313 1006.82 263.788 1035.12 251.126 1049.21 C 238.637 1063.11 212.366 1045.28 220.355 1028.61 C 224.341 1020.29 256.306 991.011 263.953 987.43 z" fill="rgb(146,146,42)" transform="translate(0,0)"></path>
<path d="M 263.953 987.43 C 263.297 989.789 234.047 1017.1 229.618 1020.8 C 208.919 1036.53 234.428 1062.87 251.526 1045.51 C 262.218 1034.66 275.412 1024.5 284.996 1012.98 C 292.869 1003.51 278.979 992.321 278.182 988.064 C 311.313 1006.82 263.788 1035.12 251.126 1049.21 C 238.637 1063.11 212.366 1045.28 220.355 1028.61 C 224.341 1020.29 256.306 991.011 263.953 987.43 z" fill="rgb(107,96,81)" transform="translate(0,0)"></path>
<path d="M 531.067 1106.18 C 535.052 1105.8 539.132 1105.27 543.044 1106.41 C 547.639 1107.75 551.235 1110.49 553.392 1114.8 C 556.926 1121.86 557.699 1166.05 554.913 1173.5 C 552.608 1179.67 547.902 1182.55 542.199 1185.03 C 538.085 1185.38 534.166 1185.7 530.133 1184.5 C 525.584 1183.14 521.894 1180.38 519.745 1176.09 C 516.063 1168.75 516.034 1124.72 519.127 1116.59 C 521.276 1110.94 525.964 1108.61 531.067 1106.18 z" fill="rgb(107,96,81)" transform="translate(0,0)"></path>
<path d="M 520.386 1116.72 C 525.274 1111.44 528.994 1107.54 536.492 1107.46 C 553.128 1107.27 553.187 1122.17 553.189 1133 L 553.55 1170.89 C 546.506 1182.15 540.348 1186.37 526.974 1180.48 C 525.7 1179.85 525.813 1179.98 525.015 1178.79 C 522.356 1176.35 520.09 1175.37 520.101 1172.55 C 520.17 1155.25 519.251 1133.72 520.386 1116.72 z" fill="rgb(146,146,42)" transform="translate(0,0)"></path>
<path d="M 525.015 1178.79 C 526.46 1179.46 526.366 1179.24 526.974 1180.48 C 525.7 1179.85 525.813 1179.98 525.015 1178.79 z" fill="rgb(145,132,38)" transform="translate(0,0)"></path>
<path d="M 795.394 986.088 C 800.391 985.97 804.186 985.937 808.624 988.635 C 816.595 993.482 844.29 1019.4 846.023 1027.99 C 846.86 1032.14 847.194 1035.83 845.526 1039.91 C 842.564 1047.16 837.076 1049.14 830.304 1051.74 C 826.083 1052.03 822.812 1051.76 818.98 1049.78 C 810.83 1045.58 782.329 1018.65 779.678 1010.01 C 778.299 1005.52 779.311 1000.57 781.482 996.489 C 784.662 990.509 789.154 988.027 795.394 986.088 z" fill="rgb(107,96,81)" transform="translate(0,0)"></path>
<path d="M 840.767 1022.31 C 853.641 1037.78 832.348 1054.67 822.473 1048.96 C 810.744 1042.19 773.927 1013.53 784.139 997.627 C 797.771 976.399 820.858 999.288 829.7 1011.06 C 833.679 1014.25 837.756 1018.19 840.767 1022.31 z" fill="rgb(146,146,42)" transform="translate(0,0)"></path>
<path d="M 829.7 1011.06 C 833.679 1014.25 837.756 1018.19 840.767 1022.31 C 837.184 1019.48 832.451 1014.74 829.7 1011.06 z" fill="rgb(145,132,38)" transform="translate(0,0)"></path>
<path d="M 921.847 731.353 C 936.544 731.27 962.233 728.206 975.443 734.495 C 979.602 736.475 983.523 739.592 984.885 744.17 C 986.354 749.112 984.73 755.082 982.25 759.487 C 979.113 765.058 974.3 766.717 968.554 768.43 C 953.536 768.78 926.589 772.193 913.639 765.402 C 909.69 763.331 906.091 760.27 904.87 755.814 C 903.381 750.38 905.595 743.804 908.477 739.125 C 911.545 734.144 916.527 732.652 921.847 731.353 z" fill="rgb(107,96,81)" transform="translate(0,0)"></path>
<path d="M 917.45 734.404 C 932.729 733.65 954.026 732.572 968.987 734.274 C 972.633 734.689 976.576 737.276 978.793 740.129 C 981.55 743.676 982.863 748.004 982.248 752.506 C 981.816 755.675 979.559 759.966 976.877 761.806 C 974.945 763.131 973.017 764.425 970.998 765.616 C 956.251 766.607 936.43 768.123 921.997 765.987 C 917.71 765.352 913.376 764.472 910.819 760.658 C 908.062 756.546 906.993 750.265 908.193 745.492 C 909.357 740.863 913.411 736.701 917.45 734.404 z" fill="rgb(146,146,42)" transform="translate(0,0)"></path>
<path d="M 826.192 452.211 C 855.122 455.434 852.268 481.472 831.246 495.455 C 821.062 502.23 817.668 512.835 803.03 517.181 C 792.809 516.658 785.771 514.023 782.114 503.504 C 776.935 488.888 790.172 481.301 799.156 472.18 C 807.257 463.956 814.645 455.163 826.192 452.211 z" fill="rgb(107,96,81)" transform="translate(0,0)"></path>
<path d="M 823.129 455.295 C 832.781 454.346 842.808 457.323 844.952 468.494 C 845.46 471.14 845.545 476.496 843.826 478.654 C 834.109 490.856 820.616 499.516 811.093 511.653 C 811.608 510.998 805.425 513.934 805.367 513.962 C 791.918 519.818 780.341 501.673 783.301 493.979 C 786.416 485.88 815.927 459.489 823.129 455.295 z" fill="rgb(146,146,42)" transform="translate(0,0)"></path>
<path d="M 108.308 732.138 C 129.119 730.518 193.737 722.941 170.442 762.727 C 164.779 772.398 111.45 770.427 102.931 764.22 C 98.0492 760.633 96.9555 755.138 96.5616 749.522 C 97.4548 739.579 100.202 737.475 108.308 732.138 z" fill="rgb(146,146,42)" transform="translate(0,0)"></path>
<path d="M 108.308 732.138 C 129.119 730.518 193.737 722.941 170.442 762.727 C 164.779 772.398 111.45 770.427 102.931 764.22 C 105.709 764.318 110.687 765.953 115.011 766.193 C 131.123 767.089 147.528 767.396 163.539 765.32 C 173.058 757.819 173.357 753.455 171.005 742.016 L 170.118 740.644 C 159.105 729.192 135.529 735.085 120.56 733.717 C 104.365 732.237 104.385 740.667 96.5616 749.522 C 97.4548 739.579 100.202 737.475 108.308 732.138 z" fill="rgb(107,96,81)" transform="translate(0,0)"></path>
<path d="M 754.34 935.301 C 767.083 945.011 778.827 957.616 790.456 968.684 C 781.867 977.034 772.814 984.79 764.417 993.351 C 751.467 984.362 740.93 970.64 728.769 960.378 C 736.705 952.408 748.285 944.538 754.34 935.301 z" fill="rgb(109,43,15)" transform="translate(0,0)"></path>
<path d="M 754.724 938.708 C 761.37 941.054 781.71 962.599 787.803 968.808 C 779.68 975.77 771.825 982.854 764.165 990.329 C 755.796 985.686 739.354 967.581 731.133 960.227 C 739.011 953.072 746.948 945.975 754.724 938.708 z" fill="rgb(227,160,42)" transform="translate(0,0)"></path>
<path d="M 315.616 938.697 C 324.594 947.214 333.554 956.725 342.022 965.781 C 331.206 975.85 320.209 986.249 309.132 995.999 C 299.684 988.226 291.104 979.446 282.44 970.825 C 292.231 959.401 304.725 949.148 315.616 938.697 z" fill="rgb(109,43,15)" transform="translate(0,0)"></path>
<path d="M 315.028 941.706 C 320.482 944.932 334.628 960.255 339.629 965.419 C 328.9 974.238 319.519 983.888 309.531 993.466 C 300.565 987.416 292.753 978.098 284.826 970.673 C 294.75 960.865 305.095 951.514 315.028 941.706 z" fill="rgb(227,160,42)" transform="translate(0,0)"></path>
<path d="M 518.565 1051.08 C 531.269 1051.24 543.975 1051.25 556.679 1051.13 C 556.808 1065.76 557.026 1080.54 556.578 1095.15 C 543.714 1094.96 530.848 1094.97 517.984 1095.18 C 518.037 1080.76 517.087 1065.37 518.565 1051.08 z" fill="rgb(184,58,35)" transform="translate(0,0)"></path>
<path d="M 520.202 1053.2 C 531.643 1053.31 543.084 1053.34 554.525 1053.28 C 554.463 1066.55 554.545 1079.73 554.012 1092.99 C 542.718 1092.86 531.236 1092.59 520.024 1093.85 C 520.287 1080.3 520.346 1066.75 520.202 1053.2 z" fill="rgb(207,107,52)" transform="translate(0,0)"></path>
<path d="M 309.902 511.843 C 316.643 516.556 338.376 538.756 344.795 545.298 C 336.559 553.207 328.69 560.027 320.626 568.274 C 309.1 559.098 294.93 544.155 284.683 533.558 C 293.323 525.191 300.665 519.281 309.902 511.843 z" fill="rgb(207,107,52)" transform="translate(0,0)"></path>
<path d="M 764.592 509.703 C 767.82 511.459 785.951 528.937 789.85 532.539 C 778.948 543.499 766.461 555.148 755.17 566.361 C 751.866 564.285 734.387 547.163 730.425 543.339 C 740.567 532.203 753.598 520.065 764.592 509.703 z" fill="rgb(109,43,15)" transform="translate(0,0)"></path>
<path d="M 764.78 511.798 C 768.011 514.38 783.883 529.611 787.425 533.047 C 776.291 542.554 765.716 552.698 755.755 563.428 C 753.716 563.778 736.405 546.107 733.178 543.211 C 743.905 532.627 753.84 522.334 764.78 511.798 z" fill="rgb(227,160,42)" transform="translate(0,0)"></path>
<path d="M 188.024 731.173 L 231.044 731.201 C 230.93 743.823 230.625 756.443 230.128 769.056 L 187.884 769.045 C 187.933 756.431 187.704 743.781 188.024 731.173 z" fill="rgb(207,107,52)" transform="translate(0,0)"></path>
<path d="M 190.011 733.156 L 228.957 733.246 L 227.891 766.728 C 215.877 768.394 202.029 766.849 189.79 767.028 C 190.128 755.741 190.202 744.447 190.011 733.156 z" fill="rgb(227,160,42)" transform="translate(0,0)"></path>
<path d="M 519.722 451.818 C 519.126 447.217 519.304 442.583 519.301 437.947 C 519.295 429.119 518.858 420.267 519.273 411.447 C 519.367 409.462 521.675 409.976 522.972 410.15 C 533.948 409.664 545.962 409.885 557.001 409.932 C 557.052 423.794 557.014 437.656 556.886 451.517 C 544.1 451.165 532.453 451.434 519.722 451.818 z" fill="rgb(109,43,15)" transform="translate(0,0)"></path>
<path d="M 520.553 412.027 C 527.277 412.072 549.252 412.324 555.048 411.28 C 554.954 424.226 554.939 437.172 555.003 450.119 L 520.913 450.14 C 520.725 438.443 521.517 423.232 520.553 412.027 z" fill="rgb(227,160,42)" transform="translate(0,0)"></path>
<path d="M 519.722 451.818 C 519.126 447.217 519.304 442.583 519.301 437.947 C 519.295 429.119 518.858 420.267 519.273 411.447 C 519.367 409.462 521.675 409.976 522.972 410.15 C 531.033 411.148 549.705 409.694 555.048 411.28 C 549.252 412.324 527.277 412.072 520.553 412.027 C 518.775 424.157 521.955 438.258 519.722 451.818 z" fill="rgb(184,58,35)" transform="translate(0,0)"></path>
<path d="M 848.08 731.302 C 861.418 731.162 874.755 731.105 888.093 731.131 C 888.263 743.838 888.27 756.546 888.114 769.253 L 847.964 769.056 C 847.98 756.499 847.626 743.847 848.08 731.302 z" fill="rgb(184,58,35)" transform="translate(0,0)"></path>
<path d="M 850.119 733.183 C 862.094 733.184 874.069 733.104 886.043 732.944 C 885.845 744.474 885.776 756.006 885.837 767.538 C 873.952 767.206 862.037 767.231 850.139 766.962 L 850.119 733.183 z" fill="rgb(207,107,52)" transform="translate(0,0)"></path>
<path d="M 636.925 479.201 C 645.913 482.261 658.71 487.067 667.435 490.796 C 664.174 498.217 659.542 511.238 656.036 517.629 C 645.315 514.009 637.176 510.575 625.697 507.249 C 629.284 498.245 634.075 487.999 636.925 479.201 z" fill="rgb(107,96,81)" transform="translate(0,0)"></path>
<path d="M 637.674 483.912 C 638.194 482.61 638.494 482.383 639.89 482.454 C 647.669 485.835 656.351 488.913 664.302 491.985 C 660.868 499.87 658.185 506.83 655.252 514.849 C 646.406 511.598 637.45 508.656 628.399 506.027 C 631.603 498.799 634.407 490.963 637.674 483.912 z" fill="rgb(138,90,134)" transform="translate(0,0)"></path>
<path d="M 272.893 629.611 C 281.479 633.05 292.773 637.092 301.637 639.781 C 297.993 648.53 293.548 659.34 289.659 667.938 C 280.275 665.101 269.667 661.238 260.504 657.565 C 264.363 649.099 269.531 638.045 272.893 629.611 z" fill="rgb(107,96,81)" transform="translate(0,0)"></path>
<path d="M 273.704 632.589 C 280.816 634.376 291.743 638.687 298.877 641.397 C 295.272 649.49 291.492 657.504 287.54 665.433 L 263.412 656.303 C 267.217 648.545 270.445 640.542 273.704 632.589 z" fill="rgb(138,90,134)" transform="translate(0,0)"></path>
<path d="M 785.799 835.53 C 795.407 838.297 804.689 843.369 814.166 846.752 C 810.286 856.235 806.488 866.004 801.986 875.2 C 792.504 872.478 783.413 867.268 773.944 864.134 C 777.618 854.483 782.093 845.189 785.799 835.53 z" fill="rgb(107,96,81)" transform="translate(0,0)"></path>
<path d="M 787.269 838.574 C 795.567 840.898 803.366 845.165 811.568 847.938 C 807.598 855.875 804.36 863.846 801.053 872.068 C 793.715 870.871 784.091 865.455 777.041 862.494 C 780.381 854.49 783.553 846.418 787.269 838.574 z" fill="rgb(138,90,134)" transform="translate(0,0)"></path>
<path d="M 289.576 836.122 C 293.514 840.19 296.705 850.993 298.946 856.52 C 299.802 858.63 300.54 860.779 301.399 862.887 L 301.798 863.849 C 292.412 867.487 283.189 871.815 273.689 875.11 C 268.919 866.365 265.673 856.075 261.52 846.916 C 270.925 843.546 280.31 839.86 289.576 836.122 z" fill="rgb(107,96,81)" transform="translate(0,0)"></path>
<path d="M 285.417 840.449 C 286.279 840.128 287.469 839.427 288.435 839.753 C 290.509 840.455 293.937 850.812 294.95 853.1 C 296.339 856.236 297.764 859.311 298.997 862.516 C 291.72 865.411 284.544 868.605 277.242 871.405 C 276.485 871.711 275.779 872.121 274.966 871.743 C 272.884 870.775 269.894 859.312 268.448 856.637 C 266.962 853.89 265.853 851.12 264.609 848.264 C 271.459 845.518 278.686 843.398 285.417 840.449 z" fill="rgb(138,90,134)" transform="translate(0,0)"></path>
<path d="M 800.589 630.832 C 806.316 629.932 812.607 653.512 814.383 658.768 C 807.54 661.359 796.459 664.89 789.208 667.208 C 788.791 667.409 785.856 668.807 785.432 667.927 C 781.345 659.452 778.598 649.636 775.036 640.739 L 775.9 640.385 C 784.074 636.965 792.072 634.606 800.589 630.832 z" fill="rgb(107,96,81)" transform="translate(0,0)"></path>
<path d="M 800.964 633.092 C 804.382 634.906 809.8 652.503 811.489 657.38 C 802.741 659.923 796.174 662.52 787.682 665.527 C 785.89 664.94 778.983 644.755 777.906 641.789 C 785.687 638.958 793.282 636.263 800.964 633.092 z" fill="rgb(138,90,134)" transform="translate(0,0)"></path>
<path d="M 421.29 979.803 C 430.225 984.168 440.612 987.85 450.084 990.88 C 446.757 1000.35 442.783 1009.66 438.862 1018.9 C 429.368 1014.64 419.708 1010.76 409.906 1007.27 C 413.498 998.025 417.481 988.962 421.29 979.803 z" fill="rgb(107,96,81)" transform="translate(0,0)"></path>
<path d="M 422.663 982.74 C 430.693 986.334 439.237 989.17 447.516 992.151 C 444.181 999.972 441.084 1007.99 437.318 1015.61 C 429.032 1012.2 420.884 1008.76 412.419 1005.83 C 415.132 999.776 418.138 993.643 420.636 987.527 C 421.295 985.916 421.949 984.329 422.663 982.74 z" fill="rgb(138,90,134)" transform="translate(0,0)"></path>
<path d="M 653.37 981.956 C 653.5 981.983 654.163 982.111 654.355 982.191 C 657.189 983.373 663.862 1005.31 665.243 1009.25 C 655.963 1011.94 646.753 1014.86 637.623 1018.01 C 637.189 1018.11 636.087 1018.48 635.543 1018.27 C 634.627 1017.9 634.323 1016.87 634.054 1016.02 C 631.359 1007.66 628.446 999.378 625.318 991.172 C 634.648 988.086 643.994 984.894 653.37 981.956 z" fill="rgb(107,96,81)" transform="translate(0,0)"></path>
<path d="M 650.972 985.152 C 651.543 985.097 652.255 984.934 652.83 985.163 C 655.364 986.171 657.811 995 658.707 997.731 C 659.789 1001.03 661.181 1004.03 662.644 1007.17 C 654.576 1009.9 646.457 1012.34 638.487 1015.37 C 638.014 1015.46 637.738 1015.6 637.318 1015.36 C 634.798 1013.91 629.655 996.735 628.291 992.991 L 628.035 992.302 C 635.697 989.985 643.306 987.426 650.972 985.152 z" fill="rgb(138,90,134)" transform="translate(0,0)"></path>
<path d="M 437.379 479.858 C 440.128 480.461 448.428 503.021 449.921 507.05 C 442.714 509.054 429.484 513.679 422.217 516.321 C 418.547 517.955 411.478 494.105 409.896 489.939 C 419.58 486.579 427.801 483.841 437.379 479.858 z" fill="rgb(107,96,81)" transform="translate(0,0)"></path>
<path d="M 435.416 482.928 C 439.12 483.831 445.121 501.071 446.791 505.296 C 439.052 508.413 431.083 510.935 423.387 514.001 C 419.997 513.389 414.201 494.957 412.983 490.959 C 420.138 488.906 428.645 485.963 435.416 482.928 z" fill="rgb(138,90,134)" transform="translate(0,0)"></path>
<path d="M 1608.64 308.848 C 1618.02 303.94 1625.62 300.234 1632.37 291.613 C 1633.37 290.343 1637.13 284.916 1638.77 286.243 C 1639.66 288.772 1625.42 305.541 1622.98 307.203 C 1614.04 310.49 1617.32 313.835 1608.64 308.848 z" fill="url(#Gradient1)" transform="translate(0,0)"></path>
<metadata><recraft-signature>{"signed_by": "recraft", "signature_b64": "loi9POCFBE8kxLGB7wLq1EhHdl9ud8d38UNAwHR6y+jfMYxwG4agt08rJGiOGDTmGIoU0U7UdFKwlhHyea3zAg==", "signing_algo": "Ed25519", "generation_timestamp": 1781418432, "identifier": "f7d3a706-acc6-4d0c-8f32-c97f9e9fa6e2"}</recraft-signature></metadata></svg>