<svg xmlns="http://www.w3.org/2000/svg" height="896" preserveAspectRatio="none" style="display: block;" version="1.1" viewBox="0 0 2048 1509" width="1216">
<path d="M 0 0 L 2048 0 L 2048 1509 L 0 1509 L 0 0 z" fill="rgb(253,248,236)" transform="translate(0,0)"></path>
<path d="M 520.925 462.506 C 523.655 456.656 534.858 440.992 538.809 435.541 C 566.422 396.915 598.445 361.64 634.23 330.432 C 722.404 252.987 839.675 202.707 955.854 189.196 C 982.54 186.093 1015.17 184.013 1042.01 185.761 C 1195.98 188.656 1348.37 257.868 1454.92 368.63 C 1559.1 475.105 1615.81 619.19 1612.12 768.115 C 1610.18 880.285 1573.57 989.107 1507.34 1079.65 C 1500.94 1088.28 1483.41 1112.93 1476.24 1118.83 L 1475.68 1120.08 C 1475.34 1120.98 1474.72 1122.1 1474.26 1122.99 L 1471.06 1124.87 C 1438.52 1166.31 1370.79 1218.36 1325.5 1243.55 L 1324.2 1244.06 C 1243.04 1294.74 1120.12 1327.34 1024.97 1326 L 1020.24 1326.53 C 997.853 1324.08 976.669 1324.31 952.521 1321.26 C 871.585 1311.03 793.532 1284.63 723.012 1243.62 C 673.766 1212.98 636.484 1185.81 596.192 1143.68 C 485.502 1027.93 433.974 893.118 437.106 733.526 C 437.012 730.733 437.443 727.318 437.692 724.473 C 443.854 628.714 468.529 553.083 516.087 469.998 C 517.686 467.165 518.816 464.957 520.925 462.506 z" fill="rgb(253,248,236)" transform="translate(0,0)"></path>
<path d="M 1041.56 460.856 C 1108.69 464.33 1173.04 488.74 1225.59 530.659 L 1227.23 529.64 L 1228.69 533.384 L 1232.95 536.63 C 1233.52 537.498 1233.46 537.342 1234.4 538.012 L 1240.94 543.637 C 1242.3 545.681 1244.21 547.295 1246.21 548.695 C 1301.58 602.652 1332.91 676.625 1333.12 753.939 C 1333.66 829.634 1305.98 895.67 1256.63 952.357 L 1258.21 953.412 C 1267.28 962.375 1288.44 976.384 1299.51 985.555 C 1302.68 981.794 1306.33 977.204 1309.58 973.627 C 1309.07 976.649 1309.13 976.515 1307.56 979.143 L 1305.22 981.665 L 1303.17 984.143 L 1301.89 986.588 C 1302.6 987.835 1385.87 1052.85 1390.39 1054.48 L 1391.62 1054.24 L 1392.72 1055.49 L 1392.76 1057.13 C 1403.45 1065.05 1469.49 1116.62 1474.23 1118.02 L 1476.24 1118.83 L 1475.68 1120.08 C 1475.34 1120.98 1474.72 1122.1 1474.26 1122.99 L 1471.06 1124.87 L 1470.3 1123.62 C 1470.46 1123.01 1470.42 1121.85 1470.44 1121.16 L 1410.94 1078.97 C 1406.06 1075.55 1391.1 1064.61 1386.34 1062.62 L 1384.76 1061.47 C 1376.63 1054.7 1363.06 1045.54 1354.21 1039.2 C 1333.86 1024.52 1313.37 1010.04 1292.75 995.754 L 1276.23 1011.96 L 1274.39 1013.55 L 1272.82 1015 L 1271.16 1013.62 C 1278 1008.09 1285.03 1000.63 1291.32 994.327 C 1276.9 986.103 1262.96 973.101 1248.51 965.515 C 1245.18 965.716 1245.25 966.635 1242.31 969.353 L 1240.53 968.302 C 1181.39 1018.14 1121.75 1045.83 1043.71 1051.08 C 976.633 1055.6 924.229 1042.14 865.362 1010.97 L 864.015 1009.95 C 823.004 987.289 783.927 948.396 759.375 908.757 C 718.81 842.619 706.261 763.048 724.501 687.636 C 743.195 608.925 794.758 545.578 862.854 503.529 C 911.5 476.822 953.422 463.151 1009.44 460.864 C 1018.84 461.194 1032.12 461.16 1041.56 460.856 z" fill="rgb(253,248,236)" transform="translate(0,0)"></path>
<path d="M 1034.14 785.053 C 1058.16 794.052 1086.5 819.487 1107.24 835.657 L 1220.22 924.809 C 1225.83 929.299 1251.25 950.748 1256.63 952.357 L 1258.21 953.412 C 1267.28 962.375 1288.44 976.384 1299.51 985.555 C 1302.68 981.794 1306.33 977.204 1309.58 973.627 C 1309.07 976.649 1309.13 976.515 1307.56 979.143 L 1305.22 981.665 L 1303.17 984.143 L 1301.89 986.588 C 1302.6 987.835 1385.87 1052.85 1390.39 1054.48 L 1391.62 1054.24 L 1392.72 1055.49 L 1392.76 1057.13 C 1403.45 1065.05 1469.49 1116.62 1474.23 1118.02 L 1476.24 1118.83 L 1475.68 1120.08 C 1475.34 1120.98 1474.72 1122.1 1474.26 1122.99 L 1471.06 1124.87 L 1470.3 1123.62 C 1470.46 1123.01 1470.42 1121.85 1470.44 1121.16 L 1410.94 1078.97 C 1406.06 1075.55 1391.1 1064.61 1386.34 1062.62 L 1384.76 1061.47 C 1376.63 1054.7 1363.06 1045.54 1354.21 1039.2 C 1333.86 1024.52 1313.37 1010.04 1292.75 995.754 L 1276.23 1011.96 L 1274.39 1013.55 L 1272.82 1015 L 1271.16 1013.62 C 1278 1008.09 1285.03 1000.63 1291.32 994.327 C 1276.9 986.103 1262.96 973.101 1248.51 965.515 C 1245.18 965.716 1245.25 966.635 1242.31 969.353 L 1240.53 968.302 C 1241.88 967.07 1242.88 965.786 1244.04 964.389 C 1243.72 961.973 1243.18 960.324 1241.01 958.799 C 1217.74 942.487 1194.33 925.774 1171.03 909.522 C 1129.63 880.357 1088.44 850.899 1047.46 821.148 C 1035.41 812.559 1022 804.253 1010.5 794.947 C 1007.9 792.844 1008.17 792.086 1008.14 789.584 C 1010.09 786.599 1012.29 786.21 1015.69 784.878 C 1017.46 789.787 1016.64 790.317 1017.5 793.983 C 1023.97 794.916 1026.33 795.023 1032.88 794.88 C 1033.39 791.197 1032.59 788.672 1034.14 785.053 z" fill="rgb(8,6,11)" transform="translate(0,0)"></path>
<path d="M 1019.81 655.438 L 1021.18 574.037 C 1021.31 559.515 1021.17 544.654 1021.29 530.112 C 1021.31 527.362 1021.68 527.592 1023.3 525.603 L 1025.79 525.358 L 1027.5 526.993 C 1029.36 542.888 1028.78 582.701 1029.18 600.44 C 1028.93 607.214 1028.96 620.674 1029.85 627.189 C 1029.93 637.096 1029.72 648.662 1030.17 658.429 C 1029.98 664.829 1030.11 670.099 1030.81 676.486 C 1030.91 692.006 1030.68 709.028 1031.16 724.426 C 1030.95 731.19 1030.94 738.444 1031.86 745.138 C 1031.92 758.441 1031.46 782.266 1032.88 794.88 C 1026.33 795.023 1023.97 794.916 1017.5 793.983 C 1018.67 787.47 1018.17 741.128 1018.16 731.287 C 1018.97 724.525 1019.05 712.359 1018.84 705.433 C 1019.12 698.089 1019.08 689.878 1019.19 682.469 C 1020.1 674.798 1020.1 663.241 1019.81 655.438 z" fill="rgb(253,248,236)" transform="translate(0,0)"></path>
<path d="M 1025.76 487.589 C 1032.72 489.316 1037.47 490.863 1041.5 497.345 C 1043.97 501.24 1044.75 505.973 1043.65 510.452 C 1041.71 518.599 1037.08 521.531 1030.51 525.306 C 1030.55 547.785 1030.77 570.263 1031.17 592.737 C 1032.02 600.32 1032.12 611.852 1031.81 619.557 C 1032.27 652.3 1033.19 684.159 1033.17 716.96 C 1034.06 724.49 1034.11 735.939 1033.84 743.56 C 1034.01 751.753 1035.08 778.207 1034.14 785.053 C 1032.59 788.672 1033.39 791.197 1032.88 794.88 C 1031.46 782.266 1031.92 758.441 1031.86 745.138 C 1030.94 738.444 1030.95 731.19 1031.16 724.426 C 1030.68 709.028 1030.91 692.006 1030.81 676.486 C 1030.11 670.099 1029.98 664.829 1030.17 658.429 C 1029.72 648.662 1029.93 637.096 1029.85 627.189 C 1028.96 620.674 1028.93 607.214 1029.18 600.44 C 1028.78 582.701 1029.36 542.888 1027.5 526.993 L 1025.79 525.358 L 1023.3 525.603 C 1021.68 527.592 1021.31 527.362 1021.29 530.112 C 1021.17 544.654 1021.31 559.515 1021.18 574.037 L 1019.81 655.438 C 1020.1 663.241 1020.1 674.798 1019.19 682.469 C 1019.08 689.878 1019.12 698.089 1018.84 705.433 C 1019.05 712.359 1018.97 724.525 1018.16 731.287 C 1018.17 741.128 1018.67 787.47 1017.5 793.983 C 1016.64 790.317 1017.46 789.787 1015.69 784.878 L 1016.18 721.562 C 1015.91 714.347 1015.96 705.776 1016.81 698.61 C 1016.84 640.518 1019.14 582.841 1018.94 524.449 C 1013.39 521.159 1009.53 517.365 1007.85 510.935 C 1006.64 506.395 1007.34 501.558 1009.79 497.548 C 1013.94 490.68 1018.71 489.36 1025.76 487.589 z" fill="rgb(49,46,45)" transform="translate(0,0)"></path>
<path d="M 1033.17 716.96 C 1034.06 724.49 1034.11 735.939 1033.84 743.56 C 1032.16 735.899 1032.49 724.915 1033.17 716.96 z" fill="rgb(138,90,134)" transform="translate(0,0)"></path>
<path d="M 1031.17 592.737 C 1032.02 600.32 1032.12 611.852 1031.81 619.557 C 1030.26 612.226 1030.52 600.298 1031.17 592.737 z" fill="rgb(107,96,81)" transform="translate(0,0)"></path>
<path d="M 1029.18 600.44 C 1030.77 607.673 1030.49 619.709 1029.85 627.189 C 1028.96 620.674 1028.93 607.214 1029.18 600.44 z" fill="rgb(107,96,81)" transform="translate(0,0)"></path>
<path d="M 1018.16 731.287 C 1017.53 723.974 1017.18 712.499 1018.84 705.433 C 1019.05 712.359 1018.97 724.525 1018.16 731.287 z" fill="rgb(107,96,81)" transform="translate(0,0)"></path>
<path d="M 1019.19 682.469 C 1018.69 675.446 1018.35 662.035 1019.81 655.438 C 1020.1 663.241 1020.1 674.798 1019.19 682.469 z" fill="rgb(107,96,81)" transform="translate(0,0)"></path>
<path d="M 1016.18 721.562 C 1015.91 714.347 1015.96 705.776 1016.81 698.61 C 1017.42 705.916 1017.78 714.429 1016.18 721.562 z" fill="rgb(107,96,81)" transform="translate(0,0)"></path>
<path d="M 1031.16 724.426 C 1032.93 731.603 1032.56 737.814 1031.86 745.138 C 1030.94 738.444 1030.95 731.19 1031.16 724.426 z" fill="rgb(138,90,134)" transform="translate(0,0)"></path>
<path d="M 1030.17 658.429 C 1031.75 664.98 1031.31 669.766 1030.81 676.486 C 1030.11 670.099 1029.98 664.829 1030.17 658.429 z" fill="rgb(107,96,81)" transform="translate(0,0)"></path>
<path d="M 1023.35 490.461 C 1032.01 489.181 1040.14 494.965 1041.78 503.57 C 1043.41 512.175 1037.96 520.536 1029.43 522.52 C 1023.6 523.877 1017.48 521.928 1013.51 517.441 C 1009.54 512.954 1008.34 506.652 1010.39 501.021 C 1012.45 495.39 1017.42 491.337 1023.35 490.461 z" fill="rgb(227,160,42)" transform="translate(0,0)"></path>
<path d="M 1227.23 529.64 L 1228.69 533.384 C 1227.63 532.469 1226.62 531.602 1225.59 530.659 L 1227.23 529.64 z" fill="rgb(138,90,134)" transform="translate(0,0)"></path>
<path d="M 823.878 698.154 C 855.378 693.539 884.655 715.333 889.27 746.833 C 893.885 778.333 872.091 807.61 840.591 812.225 C 809.091 816.84 779.814 795.046 775.199 763.546 C 770.584 732.046 792.378 702.769 823.878 698.154 z" fill="rgb(48,26,22)" transform="translate(0,0)"></path>
<path d="M 824.973 700.091 C 855.187 696.078 882.989 717.166 887.27 747.343 C 891.551 777.519 870.712 805.508 840.574 810.058 C 810.055 814.665 781.634 793.504 777.299 762.945 C 772.963 732.386 794.377 704.154 824.973 700.091 z" fill="rgb(227,160,42)" transform="translate(0,0)"></path>
<path d="M 1264.5 810.412 C 1251.79 813.663 1243.6 815.331 1230.44 812.705 C 1198.1 806.252 1174.9 774.8 1183.13 741.729 C 1186.98 726.165 1196.83 712.756 1210.53 704.433 C 1228.04 693.948 1244.38 694.546 1263.28 699.258 C 1227.13 714.239 1210.26 746.79 1229.89 784.674 C 1231.66 788.094 1235.1 791.791 1237.65 794.772 C 1237.9 795.003 1238.14 795.235 1238.38 795.466 C 1248.51 803.712 1252.73 805.454 1264.5 810.412 z" fill="rgb(107,96,81)" transform="translate(0,0)"></path>
<path d="M 1237.65 794.772 C 1237.9 795.003 1238.14 795.235 1238.38 795.466 C 1236.04 797.225 1236.7 796.122 1237.65 794.772 z" fill="rgb(8,6,11)" transform="translate(0,0)"></path>
<path d="M 1042.01 185.761 C 1195.98 188.656 1348.37 257.868 1454.92 368.63 C 1559.1 475.105 1615.81 619.19 1612.12 768.115 C 1610.18 880.285 1573.57 989.107 1507.34 1079.65 C 1500.94 1088.28 1483.41 1112.93 1476.24 1118.83 L 1474.23 1118.02 C 1469.49 1116.62 1403.45 1065.05 1392.76 1057.13 L 1392.72 1055.49 L 1391.62 1054.24 L 1390.39 1054.48 C 1385.87 1052.85 1302.6 987.835 1301.89 986.588 L 1303.17 984.143 L 1305.22 981.665 L 1307.56 979.143 C 1309.13 976.515 1309.07 976.649 1309.58 973.627 C 1318.73 960.553 1327.83 950.29 1336.15 936.343 C 1382.42 963.787 1430.52 989.074 1476.87 1016.53 C 1493.62 1026.45 1510.66 1036.74 1527.6 1046.23 C 1529.71 1043.67 1532.03 1039.95 1533.92 1037.12 C 1516.03 1029.12 1481.41 1008.06 1463.42 997.785 L 1340.64 928.154 C 1374.56 874.7 1386.6 823.053 1389.66 760.966 L 1538.84 760.863 L 1588.28 760.737 C 1593.36 760.737 1604.6 762.285 1608.46 759.882 C 1610.24 757.029 1610.07 756.755 1609.87 753.236 C 1605.94 750.435 1533.05 751.243 1524.19 751.247 L 1389.9 751.086 C 1388.25 685.81 1372.37 639.641 1341.88 583.308 C 1358.4 576.017 1389.02 555.645 1405.41 546.06 C 1447.23 521.616 1489.24 494.475 1531.48 470.811 L 1526.2 462.772 C 1478.38 492.884 1427.4 521.25 1379.3 551.315 C 1365.69 559.824 1351.05 567.266 1337.52 575.859 C 1305.12 525.464 1259.87 480.509 1206.62 452.449 C 1210.26 447.995 1230.36 418.771 1232.85 414.209 C 1241.98 397.529 1327.45 278.939 1327.21 270.645 C 1323.98 268.258 1325.39 268.623 1321.71 268.501 C 1315.89 272.115 1210.12 431.156 1199.42 448.022 C 1146.86 419.009 1091.9 404.968 1032.13 403.206 C 1031.84 331.057 1032.05 258.906 1032.78 186.76 C 1035.06 185.777 1039.29 185.893 1042.01 185.761 z" fill="rgb(48,26,22)" transform="translate(0,0)"></path>
<path d="M 1436.35 995.665 C 1464.22 1013.35 1499.85 1030.62 1526.28 1048.66 C 1523.16 1053.37 1517.77 1062.1 1514.46 1066.25 L 1513.63 1067.35 C 1503.61 1082.17 1485.89 1104.16 1474.23 1118.02 C 1469.49 1116.62 1403.45 1065.05 1392.76 1057.13 L 1392.72 1055.49 C 1408.31 1038.22 1423.65 1015.34 1436.35 995.665 z" fill="rgb(184,58,35)" transform="translate(0,0)"></path>
<path d="M 1307.56 979.143 C 1318.55 968.756 1326.94 949.93 1336.83 940.648 C 1344.03 941.646 1419.78 986.563 1434.4 994.951 C 1422.98 1012.5 1411.67 1029.36 1398.29 1045.5 C 1396.13 1048.11 1393.43 1051.46 1391.62 1054.24 L 1390.39 1054.48 C 1385.87 1052.85 1302.6 987.835 1301.89 986.588 L 1303.17 984.143 L 1305.22 981.665 L 1307.56 979.143 z" fill="rgb(184,58,35)" transform="translate(0,0)"></path>
<path d="M 1444.25 525.182 C 1461.74 514.434 1479.33 503.847 1497.02 493.424 C 1507.86 486.977 1521.71 478.274 1532.81 472.988 C 1576.48 545.993 1602.38 628.247 1608.4 713.107 C 1609.14 724.294 1609.94 736.407 1609.83 747.621 C 1609.81 750.177 1606.15 750.01 1604.37 749.882 C 1592.89 750.956 1517.87 751.548 1506.7 749.706 C 1504.57 668.23 1485.28 596.069 1444.25 525.182 z" fill="rgb(227,160,42)" transform="translate(0,0)"></path>
<path d="M 1506.7 749.706 C 1514.27 748.549 1596.9 748.514 1604.37 749.882 C 1592.89 750.956 1517.87 751.548 1506.7 749.706 z" fill="rgb(207,107,52)" transform="translate(0,0)"></path>
<path d="M 1034.49 186.787 C 1055.06 188.699 1073.9 189.113 1095.05 191.676 C 1177.32 201.646 1247.4 226.099 1319.75 265.812 C 1310.92 280.73 1295.06 302.232 1284.84 316.879 C 1277.18 327.752 1269.74 338.771 1262.5 349.93 C 1197.44 311.014 1109.11 289.604 1034.15 286.981 C 1034.93 253.93 1033.79 220.22 1034.49 186.787 z" fill="rgb(184,58,35)" transform="translate(0,0)"></path>
<path d="M 1507.19 762.712 C 1535.75 763.438 1581.86 763.823 1609.88 762.426 L 1609.92 772.971 C 1610.23 778.941 1610.53 780.25 1609.07 786.085 L 1608.71 796.302 C 1609.02 798.247 1609.22 798.213 1608.29 799.77 C 1607.78 814.912 1605.23 831.513 1602.86 846.465 C 1591.62 917.085 1569.1 973.523 1534.72 1035.35 C 1529.87 1033.18 1525.32 1030.38 1520.68 1027.8 C 1495.08 1013.63 1469.93 998.635 1444.36 984.419 C 1488.4 906.485 1502.07 850.479 1507.19 762.712 z" fill="rgb(138,90,134)" transform="translate(0,0)"></path>
<path d="M 1609.92 772.971 C 1610.23 778.941 1610.53 780.25 1609.07 786.085 C 1608.8 780.083 1609.02 778.837 1609.92 772.971 z" fill="rgb(107,96,81)" transform="translate(0,0)"></path>
<path d="M 1608.29 799.77 C 1608.07 797.893 1607.83 797.846 1608.71 796.302 C 1609.02 798.247 1609.22 798.213 1608.29 799.77 z" fill="rgb(107,96,81)" transform="translate(0,0)"></path>
<path d="M 1330.5 272.418 C 1336.32 274.647 1357.25 289.037 1363.12 293.08 C 1430.69 339.628 1479.96 393.678 1525.44 461.012 C 1503.42 473.903 1481.71 487.468 1459.58 500.406 C 1452.3 504.731 1445.05 509.116 1437.84 513.56 C 1387.45 439.778 1349.07 404.777 1274.28 356.905 C 1292.87 328.645 1311.61 300.482 1330.5 272.418 z" fill="rgb(184,58,35)" transform="translate(0,0)"></path>
<path d="M 1441.26 526.965 L 1442.02 527.202 C 1446.46 531.826 1455.31 550.43 1458.62 557.145 C 1489.37 619.606 1502.52 680.201 1504.27 749.416 C 1474.35 748.624 1441.47 749.215 1411.25 749.137 L 1392.05 749.025 C 1391.54 691.365 1372.64 634.442 1344.79 584.473 C 1377.12 565.597 1409.28 546.427 1441.26 526.965 z" fill="rgb(227,160,42)" transform="translate(0,0)"></path>
<path d="M 1272.62 358.682 C 1344.2 401.734 1389.17 446.307 1436.09 514.513 C 1411.32 529.794 1386.39 544.832 1361.32 559.626 L 1337.87 572.582 C 1305.5 523.473 1261.96 479.707 1209.8 451.856 C 1230.92 421.409 1251.7 389.475 1272.62 358.682 z" fill="rgb(184,58,35)" transform="translate(0,0)"></path>
<path d="M 1390.82 762.543 C 1428.78 763.1 1466.75 763.157 1504.71 762.714 C 1499.37 852.724 1486.54 902.95 1442.53 983.26 C 1409.23 965.06 1376.77 945.942 1343.76 927.36 C 1366.66 887.741 1381.47 851.378 1388.38 805.626 C 1388.12 804.467 1388.05 804.119 1388.76 803.18 L 1389.16 797.826 C 1389.1 796.898 1389.38 796.229 1389.63 795.254 L 1390.15 788.811 C 1390.13 788.318 1390.49 786.789 1390.6 786.23 C 1390.8 778.355 1391.11 770.409 1390.82 762.543 z" fill="rgb(138,90,134)" transform="translate(0,0)"></path>
<path d="M 1388.76 803.18 C 1388.78 804.531 1388.91 804.567 1388.38 805.626 C 1388.12 804.467 1388.05 804.119 1388.76 803.18 z" fill="rgb(107,96,81)" transform="translate(0,0)"></path>
<path d="M 1034.39 289.72 C 1101.62 291.193 1167.81 306.682 1228.71 335.197 C 1236.58 338.842 1254.11 346.958 1261.24 351.701 C 1247.87 370.748 1234.79 390 1222.01 409.45 C 1214.79 420.349 1205.85 434.752 1198.21 445.052 C 1140.4 415.824 1099.31 404.312 1034.03 401.26 L 1034.14 342.217 C 1033.52 335.313 1033.47 296.324 1034.39 289.72 z" fill="rgb(184,58,35)" transform="translate(0,0)"></path>
<path d="M 516.087 469.998 L 517.843 471.094 C 530.212 479.233 547.78 488.336 561.145 496.105 L 662.234 555.114 C 676.113 563.305 693.995 573.203 707.285 581.829 C 676.577 643.126 662.374 681.061 662.788 751.908 C 636.796 751.758 442.613 750.238 439.205 752.528 C 439.067 755.294 438.639 757.134 439.98 759.501 C 445.964 760.765 493.456 760.166 503.015 760.18 L 661.81 760.614 C 660.25 811.609 677.77 884.744 706.37 926.981 C 651.643 959.506 594.915 989.149 540.05 1021.52 C 532.093 1026.21 523.878 1031.28 515.753 1035.59 L 520.912 1043.99 L 711 935.157 C 742.493 987.014 787.113 1029.64 840.353 1058.74 C 807.048 1108.46 773.618 1158.37 740.756 1208.39 C 734.093 1218.53 726.625 1227.6 720.305 1237.98 C 720.87 1240.17 721.854 1240.86 723.432 1242.49 L 723.012 1243.62 C 673.766 1212.98 636.484 1185.81 596.192 1143.68 C 485.502 1027.93 433.974 893.118 437.106 733.526 C 437.012 730.733 437.443 727.318 437.692 724.473 C 443.854 628.714 468.529 553.083 516.087 469.998 z" fill="rgb(31,33,16)" transform="translate(0,0)"></path>
<path d="M 517.08 473.116 C 546.796 489.739 576.169 506.969 605.179 524.796 C 564.255 592.705 542.651 670.501 542.7 749.789 C 532.887 751.478 448.682 751.027 439.082 749.572 L 439.177 746.019 C 439.176 741.491 439.377 737.538 438.512 733.087 L 437.106 733.526 C 437.012 730.733 437.443 727.318 437.692 724.473 C 437.871 727.011 437.618 728.893 438.819 730.845 L 440.044 723.976 L 440.112 722.013 C 439.768 716.343 439.695 715.382 441.056 709.857 L 441.031 708.013 C 441.807 702.255 442.2 700.854 442.079 694.98 C 442.626 689.201 443.285 684.57 444.246 678.838 C 444.198 677.921 444.478 677.298 444.727 676.343 L 445.24 672.002 C 445.179 670.387 445.42 670.21 445.865 668.578 L 446.206 666.502 L 446.7 664.103 L 447.097 660.004 L 447.596 658.381 C 454.216 608.163 480.089 540.85 504.126 495.907 C 507.264 490.04 513.354 478.359 517.08 473.116 z" fill="rgb(107,96,81)" transform="translate(0,0)"></path>
<path d="M 442.079 694.98 C 442.2 700.854 441.807 702.255 441.031 708.013 C 440.854 701.665 440.995 701.323 442.079 694.98 z" fill="rgb(52,77,43)" transform="translate(0,0)"></path>
<path d="M 438.817 761.91 L 542.08 761.961 C 547.469 856.029 561.839 900.476 603.551 983.097 L 572.601 1000.49 C 553.266 1011.3 534.144 1023.43 514.51 1033.54 C 466.48 959.909 440.197 848.625 438.817 761.91 z" fill="rgb(227,160,42)" transform="translate(0,0)"></path>
<path d="M 610.398 993.968 C 618.4 1005.64 625.705 1017.07 634.277 1028.39 C 674.336 1081.29 719.458 1117.94 774.644 1153.6 C 757.88 1178.2 735.229 1216.29 717.249 1237.8 L 697.029 1224.84 C 626.67 1178.27 566.992 1117.3 521.934 1045.96 C 550.815 1028.18 581.143 1011.41 610.398 993.968 z" fill="rgb(255,234,12)" transform="translate(0,0)"></path>
<path d="M 606.86 525.636 C 638.727 543.77 673.559 562.863 704.611 582.127 C 683.551 624.527 670 654.274 663.613 702.599 C 661.277 720.266 661.517 732.606 660.253 749.431 C 651.073 751.401 554.036 750.974 545.476 749.691 C 544.218 671.596 568.001 592.94 606.86 525.636 z" fill="rgb(107,96,81)" transform="translate(0,0)"></path>
<path d="M 547.839 762.087 C 571.125 760.957 596.784 762.095 620.306 761.697 C 627.398 761.577 654.022 761.345 659.85 762.317 C 659.376 822.97 674.348 873.529 703.353 926.579 C 671.616 945.429 637.751 963.743 605.45 981.782 C 577.799 931.695 558.113 879.001 550.039 822.306 C 548.861 814.034 542.687 766.945 545.44 762.492 L 547.839 762.087 z" fill="rgb(227,160,42)" transform="translate(0,0)"></path>
<path d="M 547.839 762.087 C 571.125 760.957 596.784 762.095 620.306 761.697 C 627.398 761.577 654.022 761.345 659.85 762.317 C 647.099 764.729 561.728 763.643 547.839 762.087 z" fill="rgb(151,109,14)" transform="translate(0,0)"></path>
<path d="M 708.753 938.851 C 711.844 939.294 717.209 948.485 719.178 951.397 C 750.257 997.357 789.157 1031.77 837.418 1059.39 L 775.84 1151.89 C 769.253 1147.85 761.897 1142.72 755.379 1138.38 C 704.994 1106.97 642.45 1044.37 612.601 993.036 C 644.096 974.391 676.94 956.955 708.753 938.851 z" fill="rgb(255,234,12)" transform="translate(0,0)"></path>
<path d="M 520.925 462.506 C 523.655 456.656 534.858 440.992 538.809 435.541 C 566.422 396.915 598.445 361.64 634.23 330.432 C 722.404 252.987 839.675 202.707 955.854 189.196 C 982.54 186.093 1015.17 184.013 1042.01 185.761 C 1039.29 185.893 1035.06 185.777 1032.78 186.76 L 1019.17 187.005 L 1018.96 402.97 C 957.403 402.726 903.811 418.701 849.753 447.223 C 842.123 433.18 829.392 414.591 820.406 401.129 L 778.354 337.998 L 748.65 293.023 C 743.909 285.756 735.773 272.418 730.527 266.199 C 726.985 266.901 726.5 267.506 723.43 269.63 C 723.465 272.839 725.923 275.837 727.751 278.731 L 728.513 279.962 C 767.414 334.708 804.228 397.832 843.269 450.979 C 791.113 480.816 744.006 521.601 713.232 573.887 C 696.956 565.023 524.652 463.178 521.52 463.66 L 520.925 462.506 z" fill="rgb(31,33,16)" transform="translate(0,0)"></path>
<path d="M 720.348 271.348 C 723.149 274.961 723.84 276.049 727.751 278.731 L 728.513 279.962 C 728.367 285.144 770.326 345.534 776.716 355.759 C 726.825 385.345 684.649 419.922 647.415 464.575 C 634.56 479.991 624.662 496.515 612.019 511.818 C 610.526 512.228 605.443 508.564 604.42 507.933 C 590.21 499.177 572.784 490.556 558.902 481.797 C 552.433 477.715 527 464.228 524.442 461.058 L 524.371 460.31 L 526.388 457.856 C 574.486 384.888 643.878 314.269 720.348 271.348 z" fill="rgb(107,96,81)" transform="translate(0,0)"></path>
<path d="M 998.148 187.851 C 1003.37 186.416 1009.94 186.704 1015.27 187.001 L 1016.9 188 C 1017.72 194.317 1017.05 215.364 1017 222.546 L 1016.96 286.861 C 942.036 287.348 852.622 310.832 788.1 349.293 C 771.142 321.027 749.917 292.288 732.073 264.334 C 770.565 240.232 847.583 211.843 891.378 202.516 L 893.041 202.203 C 911.069 196.908 963.997 189.077 982.344 188.791 C 984.465 187.382 983.262 187.925 986.601 188.181 C 988.039 188.113 997.522 187.517 998.148 187.851 z" fill="rgb(107,96,81)" transform="translate(0,0)"></path>
<path d="M 789.874 350.848 C 796.956 346.229 814.806 337.762 822.818 333.973 C 885.907 304.143 947.586 291.775 1016.77 289.304 C 1017.37 313.174 1016.83 337.896 1017.06 361.822 C 1017.12 368.227 1017.42 394.894 1016.38 400.29 C 1013.78 401.061 981.978 402.691 975.464 403.625 C 926.795 410.605 894.047 422.179 850.743 444.421 C 842.464 431.217 830.755 414.227 823.288 401.332 L 822.469 400.059 C 814.002 389.118 796.554 362.722 789.874 350.848 z" fill="rgb(107,96,81)" transform="translate(0,0)"></path>
<path d="M 648.297 533.616 C 639.221 528.403 623.549 519.974 615.518 514.183 C 616.278 509.306 624.869 498.919 628.142 494.188 C 656.039 453.861 695.953 414.168 735.603 385.257 C 749.395 375.212 763.711 365.907 778.492 357.384 C 795.31 385.709 821.235 422.228 840.287 450.154 C 788.206 479.252 744.213 520.89 712.296 571.291 C 691.015 559.526 670.507 546.352 649.44 534.327 C 648.599 533.876 648.975 534.12 648.297 533.616 z" fill="rgb(107,96,81)" transform="translate(0,0)"></path>
<path d="M 848.335 1062.72 C 900.043 1090.74 960.028 1107.34 1019.06 1107.03 L 1018.96 1252.65 C 1018.95 1268 1017.95 1310.16 1019.56 1324.15 L 1020.24 1326.53 C 997.853 1324.08 976.669 1324.31 952.521 1321.26 C 871.585 1311.03 793.532 1284.63 723.012 1243.62 L 723.432 1242.49 C 724.729 1242.72 727.205 1243.47 727.73 1242.73 C 763.293 1192.87 817.227 1110.74 848.335 1062.72 z" fill="rgb(49,46,45)" transform="translate(0,0)"></path>
<path d="M 786.18 1161.54 C 804.679 1170.51 824.902 1180.71 843.785 1188.42 C 894.024 1208.95 962.002 1223.43 1016.48 1223.21 L 1016.49 1323.62 L 991.723 1322.7 C 989.853 1322.97 989.832 1323.18 988.212 1322.4 L 976.629 1321.74 C 974.44 1322.12 974.096 1322.39 972.346 1321.27 L 966.812 1320.77 C 966.32 1320.8 964.796 1320.47 964.233 1320.37 C 905.063 1317.45 827.71 1291.89 773.646 1267.58 C 772.233 1267.4 772.391 1267.49 771.304 1266.56 C 762.791 1262.78 754.457 1258.35 746.165 1254.1 C 744.827 1253.67 744.88 1253.78 743.929 1252.79 L 729.227 1244.69 C 748.751 1218.74 767.127 1188.44 786.18 1161.54 z" fill="rgb(138,90,134)" transform="translate(0,0)"></path>
<path d="M 972.346 1321.27 C 974.377 1321.03 974.758 1320.84 976.629 1321.74 C 974.44 1322.12 974.096 1322.39 972.346 1321.27 z" fill="rgb(107,96,81)" transform="translate(0,0)"></path>
<path d="M 988.212 1322.4 C 990.175 1322.07 990.126 1321.81 991.723 1322.7 C 989.853 1322.97 989.832 1323.18 988.212 1322.4 z" fill="rgb(107,96,81)" transform="translate(0,0)"></path>
<path d="M 771.304 1266.56 C 772.51 1266.59 772.829 1266.7 773.646 1267.58 C 772.233 1267.4 772.391 1267.49 771.304 1266.56 z" fill="rgb(107,96,81)" transform="translate(0,0)"></path>
<path d="M 743.929 1252.79 C 745.241 1253.02 745.424 1252.99 746.165 1254.1 C 744.827 1253.67 744.88 1253.78 743.929 1252.79 z" fill="rgb(107,96,81)" transform="translate(0,0)"></path>
<path d="M 846.902 1068.6 L 848.633 1066.63 C 853.521 1066.98 879.691 1080.76 887.159 1083.61 C 922.008 1096.89 959.942 1106.14 997.295 1108.37 C 998.306 1108.31 998.211 1108.31 999.177 1108.7 C 1003.34 1108.77 1013.49 1108.35 1016.52 1110.45 L 1016.71 1111.64 C 1017.01 1136.04 1017.11 1160.43 1017.02 1184.83 C 1017.02 1190.69 1017.35 1215.9 1016.27 1220.74 C 924.777 1217.69 867.894 1200.19 787.338 1159.41 C 806.056 1129.92 826.401 1100.13 845.553 1070.65 L 846.902 1068.6 z" fill="rgb(138,90,134)" transform="translate(0,0)"></path>
<path d="M 997.295 1108.37 C 998.306 1108.31 998.211 1108.31 999.177 1108.7 C 998.256 1108.68 998.047 1108.8 997.295 1108.37 z" fill="rgb(107,96,81)" transform="translate(0,0)"></path>
<path d="M 1198.58 1063.52 C 1222.89 1098.6 1289.3 1201.78 1319.04 1243.4 C 1319.66 1243.61 1320.29 1243.82 1320.91 1244.02 L 1323.45 1243.57 L 1324.2 1244.06 C 1243.04 1294.74 1120.12 1327.34 1024.97 1326 C 1027.77 1325.74 1028.59 1325.65 1031.28 1324.91 C 1035.26 1318.5 1033.04 1229.87 1032.79 1214.47 L 1032.89 1107.01 C 1090.8 1105.97 1147.62 1091.05 1198.58 1063.52 z" fill="rgb(8,6,11)" transform="translate(0,0)"></path>
<path d="M 1035.1 1222.85 C 1103.88 1222.84 1178.32 1204.73 1239.43 1173.27 C 1246.51 1169.63 1253.29 1165.32 1260.43 1161.74 L 1262.15 1162.92 L 1263.47 1164.8 L 1268.8 1172.98 L 1270.47 1175.47 L 1272.57 1178.62 C 1273.18 1179.28 1273.1 1179.2 1273.58 1180.01 C 1276.61 1184.56 1281.38 1191.28 1283.89 1195.9 L 1285.45 1198.5 L 1287.57 1201.61 L 1289.56 1204.57 L 1290.6 1205.97 C 1297.49 1215.85 1304.21 1225.84 1310.75 1235.95 C 1311.42 1236.56 1312.03 1237.77 1312.47 1238.53 C 1313.13 1239.22 1312.98 1239.04 1313.62 1239.94 C 1316.03 1243.61 1316.59 1243.07 1316.17 1246.35 C 1311.9 1249.5 1295.58 1257.77 1290 1260.58 C 1235.99 1287.77 1156.34 1313.63 1095.64 1319.35 C 1094.74 1320.02 1094.29 1319.88 1093.16 1319.67 C 1083.75 1321.07 1074.27 1321.95 1064.77 1322.31 C 1062.21 1323.54 1060.78 1323.16 1057.95 1322.97 C 1050.26 1323.17 1042.57 1323.62 1034.91 1324.32 C 1034.61 1290.72 1035 1256.49 1035.1 1222.85 z" fill="rgb(138,90,134)" transform="translate(0,0)"></path>
<path d="M 1093.16 1319.67 C 1094.32 1319.27 1094.36 1319.33 1095.64 1319.35 C 1094.74 1320.02 1094.29 1319.88 1093.16 1319.67 z" fill="rgb(107,96,81)" transform="translate(0,0)"></path>
<path d="M 1197.67 1066.02 C 1199.58 1068.51 1202.05 1072.27 1203.9 1074.92 L 1205.48 1077.48 L 1206.67 1078.86 L 1209.94 1083.9 L 1210.74 1085.02 C 1214.57 1090.2 1216.7 1093.36 1219.91 1098.91 L 1221.56 1101.6 L 1222.69 1102.89 L 1225.98 1107.87 L 1226.73 1109.05 C 1236.74 1124.16 1247.37 1139.71 1256.86 1155.11 C 1257.72 1156.26 1257.83 1156.4 1258.49 1157.66 C 1258.59 1158.72 1258.27 1159.99 1257.3 1160.58 C 1194.87 1198.7 1106.74 1221.1 1035.07 1219.97 L 1035.06 1109.14 L 1049.39 1108.75 C 1050.81 1107.89 1050.83 1108.09 1052.62 1108.32 L 1060.14 1107.74 C 1061.3 1107.09 1061.23 1107.17 1062.61 1107.37 C 1103.93 1102.99 1162.09 1088.19 1197.67 1066.02 z" fill="rgb(138,90,134)" transform="translate(0,0)"></path>
<path d="M 1049.39 1108.75 C 1050.81 1107.89 1050.83 1108.09 1052.62 1108.32 C 1051.17 1109.1 1051.14 1108.88 1049.39 1108.75 z" fill="rgb(107,96,81)" transform="translate(0,0)"></path>
<path d="M 1060.14 1107.74 C 1061.3 1107.09 1061.23 1107.17 1062.61 1107.37 C 1061.57 1107.98 1061.54 1107.82 1060.14 1107.74 z" fill="rgb(107,96,81)" transform="translate(0,0)"></path>
<path d="M 1384.76 1061.47 L 1386.34 1062.62 C 1391.1 1064.61 1406.06 1075.55 1410.94 1078.97 L 1470.44 1121.16 C 1470.42 1121.85 1470.46 1123.01 1470.3 1123.62 L 1471.06 1124.87 C 1438.52 1166.31 1370.79 1218.36 1325.5 1243.55 L 1324.89 1241.32 L 1325.64 1239.49 C 1322.08 1231.98 1312.49 1218.03 1307.52 1210.56 L 1277.14 1165.11 L 1267.27 1150.28 L 1271.79 1152.26 L 1273.33 1152.34 C 1308.38 1134.3 1358.85 1089.87 1384.76 1061.47 z" fill="rgb(184,58,35)" transform="translate(0,0)"></path>
<path d="M 1328.96 1239.37 C 1338.9 1232.31 1351.78 1224.83 1362.26 1217.92 C 1378.83 1206.77 1394.76 1194.68 1409.96 1181.72 C 1422.06 1171.29 1433.76 1160.39 1445.02 1149.06 C 1450.57 1143.44 1465.03 1126.99 1470.3 1123.62 L 1471.06 1124.87 C 1438.52 1166.31 1370.79 1218.36 1325.5 1243.55 L 1324.89 1241.32 L 1325.64 1239.49 C 1322.08 1231.98 1312.49 1218.03 1307.52 1210.56 L 1277.14 1165.11 L 1278.49 1163.13 C 1281.74 1166.38 1290.41 1179.81 1293.36 1184.23 C 1305.55 1202.4 1317.42 1220.78 1328.96 1239.37 z" fill="rgb(93,35,19)" transform="translate(0,0)"></path>
<path d="M 1384.76 1061.47 L 1386.34 1062.62 C 1367.89 1086.6 1331.87 1114.72 1307.37 1132.87 C 1301.58 1137.15 1275.02 1153.46 1273.65 1155.97 C 1274.64 1157.59 1275.27 1158.65 1276.42 1160.18 L 1277.69 1161.74 L 1278.49 1163.13 L 1277.14 1165.11 L 1267.27 1150.28 L 1271.79 1152.26 L 1273.33 1152.34 C 1308.38 1134.3 1358.85 1089.87 1384.76 1061.47 z" fill="rgb(48,26,22)" transform="translate(0,0)"></path>
<path d="M 1276.23 1011.96 L 1292.75 995.754 C 1313.37 1010.04 1333.86 1024.52 1354.21 1039.2 C 1363.06 1045.54 1376.63 1054.7 1384.76 1061.47 C 1358.85 1089.87 1308.38 1134.3 1273.33 1152.34 L 1271.79 1152.26 L 1267.27 1150.28 C 1262.18 1144.2 1251.62 1127.16 1246.82 1119.87 C 1233.39 1099.71 1220.18 1079.41 1207.18 1058.98 C 1215.86 1053.24 1224.68 1048.38 1233.38 1042.67 C 1246.92 1033.77 1258.78 1024.03 1271.16 1013.62 L 1272.82 1015 L 1274.39 1013.55 L 1276.23 1011.96 z" fill="rgb(184,58,35)" transform="translate(0,0)"></path>
<path d="M 1271.16 1013.62 L 1272.82 1015 C 1268.56 1019.52 1250.3 1034.55 1244.9 1037.57 L 1243.85 1038.58 C 1232.15 1046.82 1223.05 1052.87 1210.18 1059.34 C 1222.26 1078.41 1235.3 1097.47 1247.79 1116.32 C 1253.79 1125.39 1265.28 1144.82 1271.79 1152.26 L 1267.27 1150.28 C 1262.18 1144.2 1251.62 1127.16 1246.82 1119.87 C 1233.39 1099.71 1220.18 1079.41 1207.18 1058.98 C 1215.86 1053.24 1224.68 1048.38 1233.38 1042.67 C 1246.92 1033.77 1258.78 1024.03 1271.16 1013.62 z" fill="rgb(93,35,19)" transform="translate(0,0)"></path>
<path d="M 862.295 501.546 L 862.854 503.529 C 794.758 545.578 743.195 608.925 724.501 687.636 C 706.261 763.048 718.81 842.619 759.375 908.757 C 783.927 948.396 823.004 987.289 864.015 1009.95 L 862.096 1011.1 C 850.103 1004.99 829.765 989.647 819.351 981.08 C 818.543 980.525 818.466 980.518 817.81 979.803 C 792.157 959.059 769.154 930.075 752.734 901.602 C 714.391 834.516 704.132 754.99 724.194 680.369 C 745.14 605.03 794.698 540.858 862.295 501.546 z" fill="rgb(49,46,45)" transform="translate(0,0)"></path>
<path d="M 1227.23 529.64 C 1281.22 567.367 1318.9 640.829 1330.82 704.642 C 1346.58 789.006 1319.35 891.292 1258.21 953.412 L 1256.63 952.357 C 1305.98 895.67 1333.66 829.634 1333.12 753.939 C 1332.91 676.625 1301.58 602.652 1246.21 548.695 C 1244.21 547.295 1242.3 545.681 1240.94 543.637 L 1234.4 538.012 C 1233.46 537.342 1233.52 537.498 1232.95 536.63 L 1228.69 533.384 L 1227.23 529.64 z" fill="rgb(49,46,45)" transform="translate(0,0)"></path>
<path d="M 1240.94 543.637 C 1243.46 544.886 1244.52 546.455 1246.21 548.695 C 1244.21 547.295 1242.3 545.681 1240.94 543.637 z" fill="rgb(138,90,134)" transform="translate(0,0)"></path>
<path d="M 1240.53 968.302 L 1242.31 969.353 C 1177.39 1027.98 1091.78 1058.31 1004.42 1053.62 C 966.498 1051.83 929.224 1043.09 894.456 1027.83 C 883.673 1023.06 873.786 1017.34 863.477 1012.57 L 865.362 1010.97 C 924.229 1042.14 976.633 1055.6 1043.71 1051.08 C 1121.75 1045.83 1181.39 1018.14 1240.53 968.302 z" fill="rgb(49,46,45)" transform="translate(0,0)"></path>
<path d="M 862.295 501.546 C 934.309 458.497 1023.71 448.051 1104.64 468.319 C 1141.97 477.663 1177.32 493.662 1208.98 515.549 C 1212.86 518.218 1224.22 526.399 1227.23 529.64 L 1225.59 530.659 C 1173.04 488.74 1108.69 464.33 1041.56 460.856 C 1032.12 461.16 1018.84 461.194 1009.44 460.864 C 953.422 463.151 911.5 476.822 862.854 503.529 L 862.295 501.546 z" fill="rgb(49,46,45)" transform="translate(0,0)"></path>
<path d="M 1009.44 460.864 C 1017.04 459.206 1033.88 459.162 1041.56 460.856 C 1032.12 461.16 1018.84 461.194 1009.44 460.864 z" fill="rgb(138,90,134)" transform="translate(0,0)"></path>
<path d="M 1031.84 1323.91 L 1031.92 1254.12 C 1031.92 1243.23 1031.49 1224.57 1032.79 1214.47 C 1033.04 1229.87 1035.26 1318.5 1031.28 1324.91 C 1028.59 1325.65 1027.77 1325.74 1024.97 1326 L 1020.24 1326.53 L 1019.56 1324.15 L 1031.84 1323.91 z" fill="rgb(186,184,180)" transform="translate(0,0)"></path>
<path d="M 516.087 469.998 C 517.686 467.165 518.816 464.957 520.925 462.506 L 521.52 463.66 C 520.296 466.321 519.073 468.527 517.843 471.094 L 516.087 469.998 z" fill="rgb(107,96,81)" transform="translate(0,0)"></path>
<path d="M 864.015 1009.95 L 865.362 1010.97 L 863.477 1012.57 L 862.096 1011.1 L 864.015 1009.95 z" fill="rgb(107,96,81)" transform="translate(0,0)"></path>
<path d="M 1515.63 1149.58 C 1523.86 1155.49 1563.32 1182.3 1567.91 1187.7 L 1565.87 1188.2 C 1550.25 1175.94 1530.17 1163.82 1513.86 1151.25 L 1515.63 1149.58 z" fill="rgb(107,96,81)" transform="translate(0,0)"></path>
<path d="M 1474.26 1122.99 C 1474.72 1122.1 1475.34 1120.98 1475.68 1120.08 C 1479.74 1123.98 1510.06 1145.81 1515.63 1149.58 L 1513.86 1151.25 C 1503.06 1143.46 1483.5 1131.19 1474.26 1122.99 z" fill="rgb(8,6,11)" transform="translate(0,0)"></path>
<path d="M 1567.91 1187.7 C 1569.93 1188.77 1579.15 1194.42 1579.66 1196.24 C 1580.47 1199.14 1574.47 1194.02 1569.78 1191.17 C 1568.41 1190.18 1567.18 1189.26 1565.87 1188.2 L 1567.91 1187.7 z" fill="rgb(49,46,45)" transform="translate(0,0)"></path>
<path d="M 1567.91 1187.7 C 1568.56 1188.84 1569.18 1190 1569.78 1191.17 C 1568.41 1190.18 1567.18 1189.26 1565.87 1188.2 L 1567.91 1187.7 z" fill="rgb(138,90,134)" transform="translate(0,0)"></path>
<metadata><recraft-signature>{"signed_by": "recraft", "signature_b64": "9GroDzrSsX7NaIS8qWtnqYUtvrLgN0AIs0SQBOGhJejVve4tmVqJNRMh4C3X2V/Ls9UqzKLXz/LQBR3X3sHfAA==", "signing_algo": "Ed25519", "generation_timestamp": 1781421504, "identifier": "bcae1eff-5dc0-4219-a3f7-69fd7e4e0094"}</recraft-signature></metadata></svg>