<svg xmlns="http://www.w3.org/2000/svg" height="896" preserveAspectRatio="none" style="display: block;" version="1.1" viewBox="0 0 2048 1509" width="1216">
<path d="M 0 0 L 2048 0 L 2048 1509 L 0 1509 L 0 0 z" fill="rgb(253,248,236)" transform="translate(0,0)"></path>
<path d="M 1261.35 153.126 C 1269.28 167.551 1283.22 194.433 1288.73 209.175 C 1291.56 213.588 1295.68 222.872 1297.36 227.985 C 1336.89 317.997 1354.9 415.274 1367.31 511.993 C 1401.8 512.405 1433.37 523.259 1457.89 548.339 C 1460.02 550.55 1462.06 552.846 1464 555.219 C 1466.25 557.867 1468.05 560.357 1470.18 563.059 C 1472.06 565.68 1476.1 571.864 1476.63 574.887 C 1478.72 578.121 1479.62 579.194 1480.76 582.897 C 1495.75 617.584 1480.84 634.2 1500.01 661.278 C 1515.6 677.895 1521.73 676.144 1539.16 687.141 C 1567.8 705.207 1584.1 737.916 1583.07 771.666 C 1582.18 798.815 1570.41 824.464 1550.4 842.844 C 1546.36 846.594 1540.17 851.414 1535.13 853.778 C 1533.48 855.645 1528.02 858.955 1525.96 859.415 C 1513.71 868.736 1502.28 881.335 1504.43 898.035 C 1516.37 887.354 1528.09 881.856 1544.52 882.702 C 1558.24 883.3 1571.13 889.429 1580.25 899.691 C 1590.27 910.994 1594.63 926.915 1591.13 941.695 C 1604.15 937.535 1615.65 935.682 1628.51 942.388 C 1637.03 946.906 1643.39 954.632 1646.19 963.854 C 1652.16 983.184 1641.39 1004.58 1621.75 1010.09 C 1612.5 1012.58 1602.64 1011.26 1594.38 1006.41 C 1592.58 1005.36 1590.76 1004.08 1589.06 1002.87 C 1584.59 1009.76 1582.29 1012.18 1575.2 1016.44 C 1573.68 1017.44 1572.91 1018.11 1571.21 1018.74 C 1563.22 1023.87 1565.78 1036.8 1552.26 1045.64 L 1549.96 1047.18 C 1538.64 1054.12 1528.79 1053.09 1515.75 1053.1 L 1515.79 1127.45 C 1532.34 1127.59 1580.72 1119.75 1573.12 1147.19 C 1568.92 1153.82 1566.66 1154.12 1559.41 1156.99 C 1552.95 1178.96 1548.75 1204.53 1541.43 1226.26 C 1540.86 1227.94 1538.4 1230.21 1536.99 1231.38 C 1549.3 1231.19 1648.47 1230.06 1653.31 1232.65 C 1634.36 1234.25 1605.71 1233.21 1585.85 1233.77 C 1565.44 1274.07 1528.95 1268.33 1490.84 1268.14 C 1472.43 1317.1 1432.86 1309.8 1389.65 1309.68 C 1362.72 1309.82 1335.78 1309.8 1308.85 1309.61 C 1304.89 1326.19 1296.03 1339.8 1281.36 1348.86 C 1273.02 1354.01 1264.09 1356.64 1254.4 1357.73 C 1239.52 1359.4 1077.75 1358.78 1073.25 1357.05 C 1072.82 1356.88 1072.43 1356.63 1072.02 1356.42 C 1092.02 1354.48 1128.44 1355.85 1149.66 1355.39 C 1153.9 1354.93 1156 1354.5 1160.19 1353.65 C 1161.06 1353.04 1167.88 1350.24 1169.49 1349.35 C 1189.24 1338.4 1194.79 1330.06 1201.73 1309.5 L 976.2 1309.64 L 910.5 1309.85 C 882.715 1309.94 862.971 1313.44 839.531 1295.56 C 828.907 1285.95 825.93 1281.55 821.136 1268.13 L 709.465 1268.14 C 691.158 1268.15 671.003 1268.56 652.84 1267.71 C 651.029 1266.58 652.023 1267.01 649.387 1267.21 L 650.847 1267.17 C 654.392 1265.11 803.475 1266.11 819.908 1266.12 C 855.061 1265.32 899.134 1265.51 934.359 1266.22 C 936.623 1256.84 940.992 1243.68 943.825 1234.13 C 929.89 1233.95 915.954 1233.86 902.018 1233.84 C 885.755 1235.26 854.438 1234.19 836.647 1234.19 L 703.692 1234.02 L 559.286 1234.12 C 531.332 1234.19 496.182 1235.1 468.897 1233.23 C 480.32 1232.79 491.472 1233.05 502.89 1233.24 L 502.862 1230.83 C 503.812 1223.78 502.032 1213.7 503.742 1206.87 C 505.809 1205.95 511.963 1205.59 514.534 1205.34 C 513.569 1195.89 514.055 1174.64 514.072 1164.39 L 514.188 1089.3 C 514.202 1013.67 513.377 936.936 514.174 861.409 L 514.011 836.997 C 510.328 837.08 506.716 837.709 503.893 835.742 C 499.88 829.914 502.2 815.709 502.43 807.095 C 506.634 807.125 508.315 807.118 512.566 806.476 C 515.234 803.024 513.255 768.634 513.133 761.066 C 505.498 763.384 443.429 761.855 432.77 761.831 L 432.733 748.115 L 432.925 727.339 L 443.65 723.373 C 447.489 720.91 485.302 705.947 491.282 703.73 C 516.014 694.558 541.59 682.471 565.989 673.551 C 569.587 671.865 574.856 669.949 578.666 668.432 C 578.888 649.659 578.955 630.883 578.867 612.109 C 568.528 612.284 560.411 613.907 551.768 608.613 C 546.091 606.379 543.3 597.915 543.911 592.251 C 544.399 587.498 546.77 583.139 550.494 580.146 C 557.048 574.878 570.666 575.633 579.025 575.87 C 604.601 576.597 632.71 574.005 658.112 576.208 L 661.045 575.821 C 663.648 573.217 662.915 572.586 663.35 568.199 C 668.496 514.316 712.484 476.574 765.422 471.578 C 788.387 469.41 810.91 475.203 831.906 462.161 C 845.13 453.947 848.593 442.11 856.894 429.771 C 897.572 375.869 987.858 372.954 1033.59 421.884 C 1048.67 438.015 1051.25 454.982 1072.55 465.255 C 1096.97 477.033 1122.57 466.496 1147.12 475.581 L 1157.05 478.143 C 1171.98 364.412 1207.32 254.309 1261.35 153.126 z" fill="rgb(29,25,17)" transform="translate(0,0)"></path>
<path d="M 1266.56 576.109 C 1285.85 542.057 1318.49 519.598 1357.61 515.01 C 1389.36 511.31 1421.26 520.466 1446.21 540.437 C 1446.9 540.774 1446.8 540.756 1447.35 541.344 C 1450.3 543.812 1452.73 545.706 1455.3 548.596 C 1456.14 549.064 1456.13 549.016 1456.59 549.853 C 1458.63 551.924 1462.37 557.329 1463.57 558.287 L 1464 555.219 C 1466.25 557.867 1468.05 560.357 1470.18 563.059 C 1472.06 565.68 1476.1 571.864 1476.63 574.887 C 1478.72 578.121 1479.62 579.194 1480.76 582.897 C 1495.75 617.584 1480.84 634.2 1500.01 661.278 C 1515.6 677.895 1521.73 676.144 1539.16 687.141 C 1567.8 705.207 1584.1 737.916 1583.07 771.666 C 1582.18 798.815 1570.41 824.464 1550.4 842.844 C 1546.36 846.594 1540.17 851.414 1535.13 853.778 C 1533.48 855.645 1528.02 858.955 1525.96 859.415 C 1513.71 868.736 1502.28 881.335 1504.43 898.035 C 1503.59 898.863 1502.94 898.898 1501.79 899.115 C 1495.05 919.217 1492.06 913.084 1493.08 937.948 C 1459.06 929.066 1440.93 940.137 1432.64 973.838 C 1432.44 974.681 1429.05 976.203 1428.11 976.581 L 1428.15 978.252 C 1422.84 981.327 1413.47 984.571 1407.42 985.676 L 1404.16 985.01 L 1401.77 984.53 C 1400.41 982.616 1400.83 786.735 1400.72 762.085 L 1483.89 761.916 C 1483.84 750.245 1483.58 738.577 1483.11 726.915 C 1442.83 708.838 1400.67 687.875 1360.45 668.967 L 1360.6 612.482 C 1369.78 612.483 1379.61 613.493 1387.12 607.407 C 1398.98 597.803 1393.37 577.968 1377.96 576.516 C 1365.46 575.339 1352.73 575.81 1340.17 575.836 L 1266.56 576.109 z" fill="rgb(138,90,134)" transform="translate(0,0)"></path>
<path d="M 1500.01 661.278 C 1515.6 677.895 1521.73 676.144 1539.16 687.141 C 1567.8 705.207 1584.1 737.916 1583.07 771.666 C 1582.18 798.815 1570.41 824.464 1550.4 842.844 C 1546.36 846.594 1540.17 851.414 1535.13 853.778 C 1537.24 850.621 1543.83 845.452 1547.04 842.678 C 1582.44 812.054 1590.49 763.928 1569.57 723.21 C 1569.11 722.626 1569.09 722.604 1568.79 721.924 L 1566.73 718.073 C 1566.06 717.126 1566.38 717.497 1565.82 716.909 C 1562.52 711.942 1560.39 709.435 1556.43 704.926 C 1555.62 703.555 1555.73 703.712 1554.44 702.684 L 1552.53 700.698 C 1551.5 699.406 1551.64 699.511 1550.18 698.643 C 1534.63 682.97 1518.71 681.33 1500.56 665.317 L 1500.01 661.278 z" fill="rgb(35,34,55)" transform="translate(0,0)"></path>
<path d="M 1500.56 665.317 C 1500.36 665.162 1500.15 665.006 1499.95 664.851 C 1484.05 645.554 1488 630.069 1486.23 607.326 C 1485.77 601.474 1480.05 589.397 1480.76 582.897 C 1495.75 617.584 1480.84 634.2 1500.01 661.278 L 1500.56 665.317 z" fill="rgb(71,65,122)" transform="translate(0,0)"></path>
<path d="M 1501.79 899.115 C 1501.59 888.073 1503.22 884.173 1508.37 874.415 C 1511.33 868.811 1519.46 859.629 1525.96 859.415 C 1513.71 868.736 1502.28 881.335 1504.43 898.035 C 1503.59 898.863 1502.94 898.898 1501.79 899.115 z" fill="rgb(71,65,122)" transform="translate(0,0)"></path>
<path d="M 1404.16 985.01 C 1404.69 984.736 1427.83 976.63 1428.11 976.581 L 1428.15 978.252 C 1422.84 981.327 1413.47 984.571 1407.42 985.676 L 1404.16 985.01 z" fill="rgb(35,34,55)" transform="translate(0,0)"></path>
<path d="M 1470.18 563.059 C 1472.06 565.68 1476.1 571.864 1476.63 574.887 C 1474.16 574.357 1469.46 566.452 1468.03 564.048 L 1470.18 563.059 z" fill="rgb(107,96,81)" transform="translate(0,0)"></path>
<path d="M 1464 555.219 C 1466.25 557.867 1468.05 560.357 1470.18 563.059 L 1468.03 564.048 C 1466.35 560.9 1466.2 560.808 1463.57 558.287 L 1464 555.219 z" fill="rgb(35,34,55)" transform="translate(0,0)"></path>
<path d="M 1550.18 698.643 C 1551.64 699.511 1551.5 699.406 1552.53 700.698 L 1552 700.408 C 1550.77 699.751 1550.74 699.853 1550.18 698.643 z" fill="rgb(107,96,81)" transform="translate(0,0)"></path>
<path d="M 1455.3 548.596 C 1456.14 549.064 1456.13 549.016 1456.59 549.853 C 1455.77 549.48 1455.59 549.417 1455.3 548.596 z" fill="rgb(71,65,122)" transform="translate(0,0)"></path>
<path d="M 565.989 673.551 C 568.776 674.636 570.3 673.636 573.638 672.189 C 578.044 670.278 583.386 670.471 588.362 670.418 C 633.247 669.939 678.2 670.372 723.084 670.407 L 998.857 670.654 L 1284.24 670.437 C 1297.3 670.523 1357.93 669.84 1363.37 672.449 C 1371.77 676.473 1477.21 726.202 1478.06 727.036 L 1478.08 727.405 C 1442.58 729.361 1393.34 727.934 1356.93 727.885 C 1287.01 728.091 1217.09 727.885 1147.17 727.266 L 785.443 727.248 L 560 727.239 L 479.291 728.003 C 468.61 728.023 451.763 728.538 441.478 727.648 C 441.363 725.726 442.195 725.401 443.65 723.373 C 447.489 720.91 485.302 705.947 491.282 703.73 C 516.014 694.558 541.59 682.471 565.989 673.551 z" fill="rgb(107,96,81)" transform="translate(0,0)"></path>
<path d="M 543.6 687.777 C 546.684 689.764 581.738 715.519 582.303 717.065 C 578.105 719.981 554.067 718.843 547.25 718.773 C 532.142 718.626 517.562 718.443 502.486 717.303 C 515.617 708.939 530.757 697.136 543.6 687.777 z" fill="rgb(29,25,17)" transform="translate(0,0)"></path>
<path d="M 542.875 690.704 C 545.156 691.167 575.448 713.243 580.37 716.688 C 568.963 716.694 557.802 716.792 546.371 716.659 C 533.521 716.476 520.288 716.623 507.535 716.066 C 520.346 708.006 530.564 699.409 542.875 690.704 z" fill="rgb(227,160,42)" transform="translate(0,0)"></path>
<path d="M 720.952 687.804 C 725.349 689.647 752.407 712.656 761.964 718.107 C 749.696 718.845 737.213 718.561 724.936 718.31 C 709.401 718.265 693.868 718.027 678.339 717.597 C 688.572 712.177 711.351 695.338 720.952 687.804 z" fill="rgb(29,25,17)" transform="translate(0,0)"></path>
<path d="M 720.963 690.758 C 727.369 693.688 748.136 710.853 755.363 716.118 L 721.5 716.108 L 685.246 716.17 C 697.553 707.281 708.4 699.41 720.963 690.758 z" fill="rgb(227,160,42)" transform="translate(0,0)"></path>
<path d="M 629.846 688.796 C 633.491 689.664 666.681 714.56 671.363 718.018 L 633.25 718.14 C 625.786 718.122 597.993 719.301 593.183 716.123 L 593.31 714.383 C 596.301 711.056 624.035 692.767 629.846 688.796 z" fill="rgb(29,25,17)" transform="translate(0,0)"></path>
<path d="M 629.522 691.808 C 632.582 691.645 661.11 712.875 665.632 716.115 L 632.701 716.172 C 619.546 716.239 606.391 716.231 593.236 716.147 C 604.716 708.318 617.921 698.975 629.522 691.808 z" fill="rgb(227,160,42)" transform="translate(0,0)"></path>
<path d="M 1276.06 688.76 C 1279.97 689.651 1312.54 714.115 1317.02 718.117 C 1303.6 718.395 1290.17 718.453 1276.75 718.29 C 1262.84 718.174 1248.92 718.137 1235.01 718.177 L 1276.06 688.76 z" fill="rgb(29,25,17)" transform="translate(0,0)"></path>
<path d="M 1275.55 691.819 C 1279.67 692.406 1307.49 712.336 1311.33 716.169 L 1276.84 716.038 C 1264.97 715.997 1253.11 716.036 1241.24 716.154 C 1252.12 707.858 1264.35 699.714 1275.55 691.819 z" fill="rgb(227,160,42)" transform="translate(0,0)"></path>
<path d="M 1371.57 688.796 C 1380.96 693.922 1403.21 711.331 1411.54 718.452 C 1398.42 718.948 1384.91 718.645 1371.74 718.517 C 1357.69 717.908 1342.39 717.914 1328.22 717.539 C 1343.42 710.128 1357.51 698.617 1371.57 688.796 z" fill="rgb(29,25,17)" transform="translate(0,0)"></path>
<path d="M 1371.44 691.129 C 1377.53 694.152 1401.39 712.209 1406.81 716.82 L 1373.5 716.532 C 1361.03 716.295 1348.62 716.486 1336.16 716.329 C 1347.36 708.105 1360.01 698.843 1371.44 691.129 z" fill="rgb(227,160,42)" transform="translate(0,0)"></path>
<path d="M 1181.56 688.686 C 1188.01 691.009 1215.38 712.935 1222.5 718.529 C 1209.67 718.835 1196.84 718.824 1184.01 718.498 L 1140.75 717.903 C 1147.92 711.597 1172.08 695.77 1181.56 688.686 z" fill="rgb(29,25,17)" transform="translate(0,0)"></path>
<path d="M 1182.03 691.136 C 1191.78 697.036 1207.27 709.052 1216.4 716.351 L 1180.5 716.304 C 1169 716.232 1157.51 716.271 1146.01 716.422 C 1156.88 708.19 1170.6 699.554 1182.03 691.136 z" fill="rgb(227,160,42)" transform="translate(0,0)"></path>
<path d="M 998.021 689.036 C 1003.71 691.318 1032.46 713.531 1038.97 718.322 L 998.641 718.041 L 957.238 717.991 C 969.9 707.997 984.644 698.191 998.021 689.036 z" fill="rgb(29,25,17)" transform="translate(0,0)"></path>
<path d="M 997.619 691.816 C 1001.33 691.403 1027.58 712.315 1032.63 715.965 L 999.5 716.024 C 987.237 716.118 974.974 716.116 962.711 716.019 C 974.029 707.501 985.673 699.427 997.619 691.816 z" fill="rgb(227,160,42)" transform="translate(0,0)"></path>
<path d="M 1088.35 689.751 C 1096.91 693.666 1119.75 711.436 1128.3 717.86 L 1090.83 717.843 C 1076.89 717.745 1062.07 717.382 1048.22 718.147 C 1056.23 710.653 1078.33 696.465 1088.35 689.751 z" fill="rgb(29,25,17)" transform="translate(0,0)"></path>
<path d="M 1088.43 691.782 C 1099.47 697.89 1112.53 708.539 1123.34 716.008 L 1089.59 716.039 L 1052.87 716.169 C 1064.56 707.807 1076.42 699.676 1088.43 691.782 z" fill="rgb(227,160,42)" transform="translate(0,0)"></path>
<path d="M 904.909 690.889 C 913.476 698.1 929.464 709.198 938.881 715.908 C 926.718 716.072 914.553 716.136 902.388 716.098 L 868.393 716.052 L 904.909 690.889 z" fill="rgb(227,160,42)" transform="translate(0,0)"></path>
<path d="M 812.424 691.798 C 815.875 691.9 842.385 712.424 846.871 715.982 C 835.415 716.09 823.957 716.108 812.5 716.036 L 776.756 716.02 C 788.422 708.033 800.687 699.581 812.424 691.798 z" fill="rgb(227,160,42)" transform="translate(0,0)"></path>
<path d="M 1504.43 898.035 C 1516.37 887.354 1528.09 881.856 1544.52 882.702 C 1558.24 883.3 1571.13 889.429 1580.25 899.691 C 1590.27 910.994 1594.63 926.915 1591.13 941.695 C 1604.15 937.535 1615.65 935.682 1628.51 942.388 C 1637.03 946.906 1643.39 954.632 1646.19 963.854 C 1652.16 983.184 1641.39 1004.58 1621.75 1010.09 C 1612.5 1012.58 1602.64 1011.26 1594.38 1006.41 C 1592.58 1005.36 1590.76 1004.08 1589.06 1002.87 C 1584.59 1009.76 1582.29 1012.18 1575.2 1016.44 C 1573.68 1017.44 1572.91 1018.11 1571.21 1018.74 C 1563.22 1023.87 1565.78 1036.8 1552.26 1045.64 L 1549.96 1047.18 C 1538.64 1054.12 1528.79 1053.09 1515.75 1053.1 L 1515.79 1127.45 C 1532.34 1127.59 1580.72 1119.75 1573.12 1147.19 C 1568.92 1153.82 1566.66 1154.12 1559.41 1156.99 C 1552.95 1178.96 1548.75 1204.53 1541.43 1226.26 C 1540.86 1227.94 1538.4 1230.21 1536.99 1231.38 L 1534.16 1233.16 C 1515.06 1233.57 1495.01 1233.25 1475.84 1233.19 L 1473.84 1230.65 C 1467.46 1231.42 1451.27 1231.15 1443.98 1231.05 C 1433.17 1230.9 1420.33 1231.65 1409.84 1231.32 C 1409.86 1226.92 1411.3 1207.68 1407.86 1206.53 C 1404.85 1206.33 1404.54 1206.28 1401.64 1205.49 C 1401.15 1204.75 1400.67 1204 1400.18 1203.26 C 1401.87 1143.65 1399.37 1043.76 1401.2 988.627 C 1403.27 986.167 1403.63 986.762 1407.42 985.676 C 1413.47 984.571 1422.84 981.327 1428.15 978.252 L 1428.11 976.581 C 1429.05 976.203 1432.44 974.681 1432.64 973.838 C 1440.93 940.137 1459.06 929.066 1493.08 937.948 C 1492.06 913.084 1495.05 919.217 1501.79 899.115 C 1502.94 898.898 1503.59 898.863 1504.43 898.035 z" fill="rgb(253,248,236)" transform="translate(0,0)"></path>
<path d="M 1504.43 898.035 C 1516.37 887.354 1528.09 881.856 1544.52 882.702 C 1558.24 883.3 1571.13 889.429 1580.25 899.691 C 1590.27 910.994 1594.63 926.915 1591.13 941.695 C 1604.15 937.535 1615.65 935.682 1628.51 942.388 C 1637.03 946.906 1643.39 954.632 1646.19 963.854 C 1652.16 983.184 1641.39 1004.58 1621.75 1010.09 C 1612.5 1012.58 1602.64 1011.26 1594.38 1006.41 C 1592.58 1005.36 1590.76 1004.08 1589.06 1002.87 C 1584.59 1009.76 1582.29 1012.18 1575.2 1016.44 C 1573.68 1017.44 1572.91 1018.11 1571.21 1018.74 C 1563.22 1023.87 1565.78 1036.8 1552.26 1045.64 L 1549.96 1047.18 C 1538.64 1054.12 1528.79 1053.09 1515.75 1053.1 L 1515.79 1127.45 C 1532.34 1127.59 1580.72 1119.75 1573.12 1147.19 L 1572.21 1143.42 C 1571.76 1135.97 1570.28 1133.92 1564.09 1130 C 1558.57 1128.44 1522.65 1128.08 1517.23 1129.1 C 1509.07 1129.01 1500.91 1129.07 1492.75 1129.28 L 1492.49 1129.03 C 1492.32 1128.8 1492.16 1128.56 1492 1128.32 C 1492.2 1128.15 1492.4 1127.97 1492.61 1127.8 C 1493.63 1118.71 1493.02 1097.01 1493.02 1087.3 L 1492.99 1008.95 C 1471.23 1017.61 1446.94 1011.12 1436.38 989.017 C 1434.72 985.527 1434.9 979.488 1432.53 977.27 L 1428.15 978.252 L 1428.11 976.581 C 1429.05 976.203 1432.44 974.681 1432.64 973.838 C 1440.93 940.137 1459.06 929.066 1493.08 937.948 C 1492.06 913.084 1495.05 919.217 1501.79 899.115 C 1502.94 898.898 1503.59 898.863 1504.43 898.035 z" fill="rgb(107,96,81)" transform="translate(0,0)"></path>
<path d="M 1540.25 1028.78 L 1541.24 1027.71 C 1561.77 1005.43 1539.94 938.895 1557.97 933.967 C 1560.86 934.634 1563.34 935.418 1564.89 938.152 C 1567.56 942.845 1566.51 1021.18 1564.2 1027.33 C 1562.16 1032.77 1552.73 1041.72 1552.26 1045.64 L 1549.96 1047.18 C 1544.23 1047.85 1541.94 1049.84 1537.04 1050.59 C 1535.2 1051.19 1535.38 1051.07 1533.38 1050.84 L 1514.17 1051.18 L 1514.13 1127 L 1494.77 1127.1 C 1495.2 1087.71 1494 1048.17 1495.17 1008.7 C 1502.49 1003.07 1505.01 1000.25 1509.96 992.477 C 1510.79 996.406 1511.73 998.848 1513.08 1002.56 C 1514.37 1008.97 1513.2 1023.1 1514.42 1027 L 1514.51 1027.07 C 1515.49 1023.09 1513.87 1014.16 1515.52 1007.14 L 1516.17 1007.82 C 1521.2 1013.16 1522.52 1015.16 1529.07 1019.49 C 1532.34 1021.65 1540.17 1023.59 1540.93 1024.55 C 1540.68 1025.94 1537.56 1027.86 1536.3 1028.84 C 1537.68 1028.85 1538.87 1028.86 1540.25 1028.78 z" fill="rgb(184,58,35)" transform="translate(0,0)"></path>
<path d="M 1515.52 1007.14 L 1516.17 1007.82 C 1521.2 1013.16 1522.52 1015.16 1529.07 1019.49 C 1532.34 1021.65 1540.17 1023.59 1540.93 1024.55 C 1540.68 1025.94 1537.56 1027.86 1536.3 1028.84 C 1527.55 1029.86 1525.48 1030.73 1515.82 1030.61 C 1515.83 1022.83 1515.96 1014.89 1515.52 1007.14 z" fill="rgb(253,248,236)" transform="translate(0,0)"></path>
<path d="M 1513.08 1002.56 C 1514.37 1008.97 1513.2 1023.1 1514.42 1027 L 1514.51 1027.07 C 1515.49 1023.09 1513.87 1014.16 1515.52 1007.14 C 1515.96 1014.89 1515.83 1022.83 1515.82 1030.61 C 1525.48 1030.73 1527.55 1029.86 1536.3 1028.84 C 1537.68 1028.85 1538.87 1028.86 1540.25 1028.78 C 1533.55 1033.8 1525.34 1031.41 1517.97 1032.34 C 1510.12 1033.34 1512.65 1008.88 1513.08 1002.56 z" fill="rgb(107,96,81)" transform="translate(0,0)"></path>
<path d="M 1533.38 1050.84 C 1534.92 1050 1535.13 1050.32 1537.04 1050.59 C 1535.2 1051.19 1535.38 1051.07 1533.38 1050.84 z" fill="rgb(107,96,81)" transform="translate(0,0)"></path>
<path d="M 1504.43 898.035 C 1516.37 887.354 1528.09 881.856 1544.52 882.702 C 1558.24 883.3 1571.13 889.429 1580.25 899.691 C 1590.27 910.994 1594.63 926.915 1591.13 941.695 L 1588.78 943.94 C 1589.46 941.002 1589.9 938.014 1590.09 935.005 C 1590.9 921.28 1588.02 911.661 1578.97 901.378 C 1577.34 898.575 1574.56 896.648 1572.02 894.518 C 1564.28 888.068 1556.33 885.858 1546.54 884.51 C 1541.92 883.589 1541.32 883.524 1536.73 884.516 C 1526.48 885.963 1517.22 889.121 1509.65 896.508 L 1508.6 897.337 C 1493.44 911.394 1494.38 922.32 1495.4 941.499 C 1483.76 936.51 1472.11 934.497 1459.94 939.304 C 1450.39 943.167 1442.77 950.686 1438.79 960.189 C 1429.22 982.882 1443.72 1004.93 1466.67 1010.44 C 1471.6 1011.48 1478.28 1011.64 1483.11 1010.19 C 1499.26 1006.02 1505.06 998.872 1510.92 983.974 C 1514.25 1002.13 1516.45 1007.86 1532.33 1019.98 C 1534.36 1021.53 1536.12 1022.05 1538.63 1022.25 C 1541.25 1021.59 1542.82 1020.91 1544.31 1018.53 C 1553.83 1003.41 1540.63 936.789 1555.28 932.064 C 1557.57 931.325 1560.27 931.378 1562.35 932.684 C 1565.76 934.835 1567.16 939.351 1567.76 943.118 C 1569.96 957.064 1564.97 1011.18 1568.48 1017.95 L 1571.21 1018.74 C 1563.22 1023.87 1565.78 1036.8 1552.26 1045.64 C 1552.73 1041.72 1562.16 1032.77 1564.2 1027.33 C 1566.51 1021.18 1567.56 942.845 1564.89 938.152 C 1563.34 935.418 1560.86 934.634 1557.97 933.967 C 1539.94 938.895 1561.77 1005.43 1541.24 1027.71 L 1540.25 1028.78 C 1538.87 1028.86 1537.68 1028.85 1536.3 1028.84 C 1537.56 1027.86 1540.68 1025.94 1540.93 1024.55 C 1540.17 1023.59 1532.34 1021.65 1529.07 1019.49 C 1522.52 1015.16 1521.2 1013.16 1516.17 1007.82 L 1515.52 1007.14 C 1513.87 1014.16 1515.49 1023.09 1514.51 1027.07 L 1514.42 1027 C 1513.2 1023.1 1514.37 1008.97 1513.08 1002.56 C 1511.73 998.848 1510.79 996.406 1509.96 992.477 C 1505.01 1000.25 1502.49 1003.07 1495.17 1008.7 C 1494 1048.17 1495.2 1087.71 1494.77 1127.1 L 1514.13 1127 L 1514.17 1051.18 L 1533.38 1050.84 C 1535.38 1051.07 1535.2 1051.19 1537.04 1050.59 C 1541.94 1049.84 1544.23 1047.85 1549.96 1047.18 C 1538.64 1054.12 1528.79 1053.09 1515.75 1053.1 L 1515.79 1127.45 C 1532.34 1127.59 1580.72 1119.75 1573.12 1147.19 L 1572.21 1143.42 C 1571.76 1135.97 1570.28 1133.92 1564.09 1130 C 1558.57 1128.44 1522.65 1128.08 1517.23 1129.1 C 1509.07 1129.01 1500.91 1129.07 1492.75 1129.28 L 1492.49 1129.03 C 1492.32 1128.8 1492.16 1128.56 1492 1128.32 C 1492.2 1128.15 1492.4 1127.97 1492.61 1127.8 C 1493.63 1118.71 1493.02 1097.01 1493.02 1087.3 L 1492.99 1008.95 C 1471.23 1017.61 1446.94 1011.12 1436.38 989.017 C 1434.72 985.527 1434.9 979.488 1432.53 977.27 L 1428.15 978.252 L 1428.11 976.581 C 1429.05 976.203 1432.44 974.681 1432.64 973.838 C 1440.93 940.137 1459.06 929.066 1493.08 937.948 C 1492.06 913.084 1495.05 919.217 1501.79 899.115 C 1502.94 898.898 1503.59 898.863 1504.43 898.035 z" fill="rgb(48,25,15)" transform="translate(0,0)"></path>
<path d="M 1591.13 941.695 C 1604.15 937.535 1615.65 935.682 1628.51 942.388 C 1637.03 946.906 1643.39 954.632 1646.19 963.854 C 1652.16 983.184 1641.39 1004.58 1621.75 1010.09 C 1612.5 1012.58 1602.64 1011.26 1594.38 1006.41 C 1592.58 1005.36 1590.76 1004.08 1589.06 1002.87 C 1584.59 1009.76 1582.29 1012.18 1575.2 1016.44 C 1575.83 1012.7 1585.19 1009.01 1586.41 1002.43 C 1586.55 1001.66 1587.77 999.89 1588.27 999.223 L 1592.87 1002.78 L 1594.42 1004.2 C 1597.21 1006.01 1599.81 1007.51 1603.03 1008.41 C 1611.57 1010.85 1620.73 1009.71 1628.41 1005.25 C 1657.85 988.561 1649.34 946.067 1616.24 939.951 C 1605.76 938.013 1592.05 944.743 1588.78 943.94 L 1591.13 941.695 z" fill="rgb(29,25,17)" transform="translate(0,0)"></path>
<path d="M 1517.23 1129.1 C 1522.65 1128.08 1558.57 1128.44 1564.09 1130 C 1570.28 1133.92 1571.76 1135.97 1572.21 1143.42 L 1573.12 1147.19 C 1568.92 1153.82 1566.66 1154.12 1559.41 1156.99 C 1552.95 1178.96 1548.75 1204.53 1541.43 1226.26 C 1540.86 1227.94 1538.4 1230.21 1536.99 1231.38 L 1534.16 1233.16 C 1515.06 1233.57 1495.01 1233.25 1475.84 1233.19 L 1473.84 1230.65 C 1466.17 1224.72 1464.98 1213.91 1462.91 1204.76 C 1459.18 1188.35 1455.47 1172.24 1451.06 1156 C 1440.37 1154.61 1431.44 1148.81 1435.72 1136.69 C 1435.93 1136.8 1436.15 1136.91 1436.37 1137.02 C 1436.99 1136.91 1439.02 1134.6 1439.63 1134.03 C 1442.18 1131.54 1443.58 1131.01 1446.82 1129.75 C 1452.67 1130.11 1489.35 1130.45 1492.75 1129.28 C 1500.91 1129.07 1509.07 1129.01 1517.23 1129.1 z" fill="rgb(35,34,55)" transform="translate(0,0)"></path>
<path d="M 1517.23 1129.1 C 1522.65 1128.08 1558.57 1128.44 1564.09 1130 C 1570.28 1133.92 1571.76 1135.97 1572.21 1143.42 C 1570.68 1147.09 1569.1 1150.7 1565.19 1152.35 C 1557.22 1155.72 1465.4 1153.68 1448.79 1153.81 C 1447.63 1153.82 1447.53 1153.87 1446.45 1153.58 C 1436.66 1150.8 1434.78 1142.32 1439.63 1134.03 C 1442.18 1131.54 1443.58 1131.01 1446.82 1129.75 C 1452.67 1130.11 1489.35 1130.45 1492.75 1129.28 C 1500.91 1129.07 1509.07 1129.01 1517.23 1129.1 z" fill="rgb(138,90,134)" transform="translate(0,0)"></path>
<path d="M 1517.23 1129.1 C 1522.65 1128.08 1558.57 1128.44 1564.09 1130 C 1558.13 1130.03 1519.52 1130.56 1517.23 1129.1 z" fill="rgb(107,96,81)" transform="translate(0,0)"></path>
<path d="M 1453.7 1158 C 1455.36 1156.03 1455.35 1156.13 1458.84 1156.01 C 1469.83 1155.64 1481.25 1155.8 1492.24 1155.82 L 1556.74 1156.01 C 1555.85 1160.29 1554.88 1165.77 1553.8 1169.9 C 1551.63 1179.43 1542.85 1228.98 1534.16 1230.11 C 1526.46 1231.11 1479.09 1232.32 1474.99 1229.04 C 1466.11 1221.93 1460.39 1182.45 1456.52 1169.51 L 1454.58 1161.52 C 1454.05 1159.91 1453.99 1159.68 1453.7 1158 z" fill="rgb(138,90,134)" transform="translate(0,0)"></path>
<path d="M 1453.7 1158 C 1455.36 1156.03 1455.35 1156.13 1458.84 1156.01 C 1469.83 1155.64 1481.25 1155.8 1492.24 1155.82 L 1556.74 1156.01 C 1555.85 1160.29 1554.88 1165.77 1553.8 1169.9 C 1548.8 1168.13 1467.84 1169.47 1456.52 1169.51 L 1454.58 1161.52 C 1454.05 1159.91 1453.99 1159.68 1453.7 1158 z" fill="rgb(71,65,122)" transform="translate(0,0)"></path>
<path d="M 1447.18 1127.59 C 1453.68 1126.83 1486.55 1126.82 1492.61 1127.8 C 1492.4 1127.97 1492.2 1128.15 1492 1128.32 C 1492.16 1128.56 1492.32 1128.8 1492.49 1129.03 L 1492.75 1129.28 C 1489.35 1130.45 1452.67 1130.11 1446.82 1129.75 L 1447.18 1127.59 z" fill="rgb(71,65,122)" transform="translate(0,0)"></path>
<path d="M 1435.72 1136.69 C 1438.57 1130.83 1440.85 1129.55 1447.18 1127.59 L 1446.82 1129.75 C 1443.58 1131.01 1442.18 1131.54 1439.63 1134.03 C 1439.02 1134.6 1436.99 1136.91 1436.37 1137.02 C 1436.15 1136.91 1435.93 1136.8 1435.72 1136.69 z" fill="rgb(29,25,17)" transform="translate(0,0)"></path>
<path d="M 663.35 568.199 C 668.496 514.316 712.484 476.574 765.422 471.578 C 788.387 469.41 810.91 475.203 831.906 462.161 C 845.13 453.947 848.593 442.11 856.894 429.771 C 897.572 375.869 987.858 372.954 1033.59 421.884 C 1048.67 438.015 1051.25 454.982 1072.55 465.255 C 1096.97 477.033 1122.57 466.496 1147.12 475.581 L 1147.06 476.927 C 1196.35 493.882 1221.85 524.065 1227.85 576.19 C 1204.55 576.207 1178.7 575.681 1155.61 576.508 C 1152.17 560.115 1145.1 548.01 1130.74 538.752 C 1116.81 529.65 1099.81 526.514 1083.54 530.045 C 1079.96 530.84 1076.18 532.393 1072.76 533.765 C 1059.45 498.545 1030.63 485.092 994.563 494.879 C 990.917 482.351 985.999 474.722 974.127 468.083 C 962.888 461.774 949.575 460.282 937.218 463.946 C 919.939 468.93 911.539 478.864 905.664 495.184 C 870.045 483.312 843.45 499.451 828.458 531.958 C 794.394 521.483 759.172 534.705 748.356 570.348 C 747.763 572.247 747.247 574.168 746.808 576.107 C 733.517 576.314 674.211 577.993 665.159 575.407 C 663.678 571.678 664.805 570.136 663.35 568.199 z" fill="rgb(107,96,81)" transform="translate(0,0)"></path>
<path d="M 1473.84 1230.65 L 1475.84 1233.19 C 1495.01 1233.25 1515.06 1233.57 1534.16 1233.16 L 1536.99 1231.38 C 1549.3 1231.19 1648.47 1230.06 1653.31 1232.65 C 1634.36 1234.25 1605.71 1233.21 1585.85 1233.77 C 1565.44 1274.07 1528.95 1268.33 1490.84 1268.14 C 1472.43 1317.1 1432.86 1309.8 1389.65 1309.68 C 1362.72 1309.82 1335.78 1309.8 1308.85 1309.61 C 1304.89 1326.19 1296.03 1339.8 1281.36 1348.86 C 1273.02 1354.01 1264.09 1356.64 1254.4 1357.73 C 1239.52 1359.4 1077.75 1358.78 1073.25 1357.05 C 1072.82 1356.88 1072.43 1356.63 1072.02 1356.42 C 1092.02 1354.48 1128.44 1355.85 1149.66 1355.39 C 1153.9 1354.93 1156 1354.5 1160.19 1353.65 C 1161.06 1353.04 1167.88 1350.24 1169.49 1349.35 C 1189.24 1338.4 1194.79 1330.06 1201.73 1309.5 L 976.2 1309.64 L 910.5 1309.85 C 882.715 1309.94 862.971 1313.44 839.531 1295.56 C 828.907 1285.95 825.93 1281.55 821.136 1268.13 L 709.465 1268.14 C 691.158 1268.15 671.003 1268.56 652.84 1267.71 C 651.029 1266.58 652.023 1267.01 649.387 1267.21 L 650.847 1267.17 C 654.392 1265.11 803.475 1266.11 819.908 1266.12 C 855.061 1265.32 899.134 1265.51 934.359 1266.22 L 933.613 1267.06 L 933.187 1268.28 C 931.246 1273.72 929.276 1279.1 931.633 1284.82 C 935.065 1293.58 944.777 1298.98 953.582 1294.33 C 963.535 1289.08 964.658 1277.82 967.824 1268 L 968.246 1265.12 C 977.124 1267.85 1053.89 1266 1068.58 1266.01 L 1068.66 1267.8 C 1071.2 1272.36 1071.53 1281.49 1073.33 1284.49 C 1086.72 1306.74 1113.45 1295.04 1103.45 1268.57 L 1103.69 1266.76 C 1112.3 1265.08 1218.78 1265.02 1227.33 1266.55 L 1227.4 1268.27 C 1224.78 1275.5 1222.81 1281.94 1227.25 1289.06 C 1229.34 1292.35 1232.68 1294.65 1236.5 1295.41 C 1254.19 1299.03 1258.87 1280.51 1261.56 1267.98 L 1363.11 1267.93 C 1364.97 1277.11 1366.06 1285.59 1374.03 1291.84 C 1381.92 1298.02 1392.87 1297.09 1398.43 1288.35 C 1402.79 1281.51 1399.6 1275.46 1397.82 1268.25 L 1397.75 1266.49 C 1393.01 1260.42 1389.02 1241.69 1386.99 1233.72 C 1394.3 1233.2 1402.65 1233.35 1410.05 1233.32 L 1409.71 1231.78 L 1409.84 1231.32 C 1420.33 1231.65 1433.17 1230.9 1443.98 1231.05 C 1451.27 1231.15 1467.46 1231.42 1473.84 1230.65 z" fill="rgb(253,248,236)" transform="translate(0,0)"></path>
<path d="M 1473.84 1230.65 L 1475.84 1233.19 C 1495.01 1233.25 1515.06 1233.57 1534.16 1233.16 L 1536.99 1231.38 C 1549.3 1231.19 1648.47 1230.06 1653.31 1232.65 C 1634.36 1234.25 1605.71 1233.21 1585.85 1233.77 C 1565.44 1274.07 1528.95 1268.33 1490.84 1268.14 C 1472.43 1317.1 1432.86 1309.8 1389.65 1309.68 C 1362.72 1309.82 1335.78 1309.8 1308.85 1309.61 C 1304.89 1326.19 1296.03 1339.8 1281.36 1348.86 C 1273.02 1354.01 1264.09 1356.64 1254.4 1357.73 C 1239.52 1359.4 1077.75 1358.78 1073.25 1357.05 C 1072.82 1356.88 1072.43 1356.63 1072.02 1356.42 C 1092.02 1354.48 1128.44 1355.85 1149.66 1355.39 C 1153.9 1354.93 1156 1354.5 1160.19 1353.65 C 1161.06 1353.04 1167.88 1350.24 1169.49 1349.35 C 1189.24 1338.4 1194.79 1330.06 1201.73 1309.5 L 976.2 1309.64 L 910.5 1309.85 C 882.715 1309.94 862.971 1313.44 839.531 1295.56 C 828.907 1285.95 825.93 1281.55 821.136 1268.13 L 709.465 1268.14 C 691.158 1268.15 671.003 1268.56 652.84 1267.71 C 651.029 1266.58 652.023 1267.01 649.387 1267.21 L 650.847 1267.17 C 654.392 1265.11 803.475 1266.11 819.908 1266.12 C 855.061 1265.32 899.134 1265.51 934.359 1266.22 L 933.613 1267.06 L 933.187 1268.28 C 899.211 1267.48 856.984 1267.5 822.804 1268.15 C 827.956 1280.97 831.078 1285.59 841.591 1294.62 C 846.919 1298.63 852.199 1301.77 858.474 1304.12 C 864.006 1306.22 869.85 1307.38 875.763 1307.55 C 896.721 1308.32 924.078 1307.06 945.851 1307.12 L 1143.62 1307.03 L 1342.99 1306.91 C 1373.07 1306.9 1403.33 1307.48 1433.39 1307.3 C 1442.25 1306.92 1450.75 1305.8 1458.84 1302.01 C 1474.77 1294.54 1482.56 1284.17 1488.53 1268.17 L 1397.82 1268.25 L 1397.75 1266.49 C 1393.01 1260.42 1389.02 1241.69 1386.99 1233.72 C 1394.3 1233.2 1402.65 1233.35 1410.05 1233.32 L 1409.71 1231.78 L 1409.84 1231.32 C 1420.33 1231.65 1433.17 1230.9 1443.98 1231.05 C 1451.27 1231.15 1467.46 1231.42 1473.84 1230.65 z" fill="rgb(107,96,81)" transform="translate(0,0)"></path>
<path d="M 1473.84 1230.65 L 1475.84 1233.19 C 1495.01 1233.25 1515.06 1233.57 1534.16 1233.16 C 1550.68 1233.12 1567.2 1233.25 1583.71 1233.56 C 1575.59 1248.63 1564.86 1258.43 1548.26 1263.46 C 1543.16 1264.96 1537.89 1265.85 1532.57 1266.1 C 1501.6 1267.59 1467.28 1265.25 1435.89 1265.95 C 1424.78 1266.2 1408.34 1265.27 1397.75 1266.49 C 1393.01 1260.42 1389.02 1241.69 1386.99 1233.72 C 1394.3 1233.2 1402.65 1233.35 1410.05 1233.32 L 1409.71 1231.78 L 1409.84 1231.32 C 1420.33 1231.65 1433.17 1230.9 1443.98 1231.05 C 1451.27 1231.15 1467.46 1231.42 1473.84 1230.65 z" fill="rgb(253,248,236)" transform="translate(0,0)"></path>
<path d="M 1473.84 1230.65 L 1475.84 1233.19 C 1454.34 1233.27 1431.42 1233.57 1410.05 1233.32 L 1409.71 1231.78 L 1409.84 1231.32 C 1420.33 1231.65 1433.17 1230.9 1443.98 1231.05 C 1451.27 1231.15 1467.46 1231.42 1473.84 1230.65 z" fill="rgb(107,96,81)" transform="translate(0,0)"></path>
<path d="M 819.908 1266.12 C 855.061 1265.32 899.134 1265.51 934.359 1266.22 L 933.613 1267.06 L 864.525 1267.12 C 852.523 1267.11 831.008 1267.61 819.908 1266.12 z" fill="rgb(171,168,159)" transform="translate(0,0)"></path>
<path d="M 1149.66 1355.39 C 1153.9 1354.93 1156 1354.5 1160.19 1353.65 C 1157.45 1356.42 1152.48 1358.95 1148.9 1356.38 C 1149.15 1356.05 1149.4 1355.72 1149.66 1355.39 z" fill="rgb(29,25,17)" transform="translate(0,0)"></path>
<path d="M 1204.01 1309.35 C 1237.79 1310.18 1272.77 1309.75 1306.64 1309.77 C 1301.43 1327.33 1294.78 1339.24 1277.82 1348.46 C 1271.33 1351.96 1264.27 1354.26 1256.97 1355.27 C 1250.68 1356.16 1244.26 1356.03 1237.92 1356.07 C 1215.11 1356.2 1192.27 1355.43 1169.47 1355.96 C 1167.33 1355.96 1165.16 1355.72 1163.03 1355.54 L 1162.75 1354.79 L 1165.94 1353.51 C 1183.66 1345.52 1194.32 1335.58 1201.38 1317.03 C 1202.32 1314.49 1203.2 1311.93 1204.01 1309.35 z" fill="rgb(253,248,236)" transform="translate(0,0)"></path>
<path d="M 1103.69 1266.76 C 1112.3 1265.08 1218.78 1265.02 1227.33 1266.55 L 1227.4 1268.27 C 1187.96 1268.11 1142.41 1267.04 1103.45 1268.57 L 1103.69 1266.76 z" fill="rgb(107,96,81)" transform="translate(0,0)"></path>
<path d="M 967.824 1268 L 968.246 1265.12 C 977.124 1267.85 1053.89 1266 1068.58 1266.01 L 1068.66 1267.8 C 1041.07 1269.44 996.274 1268.09 967.824 1268 z" fill="rgb(107,96,81)" transform="translate(0,0)"></path>
<path d="M 551.768 608.613 C 546.091 606.379 543.3 597.915 543.911 592.251 C 544.399 587.498 546.77 583.139 550.494 580.146 C 557.048 574.878 570.666 575.633 579.025 575.87 C 604.601 576.597 632.71 574.005 658.112 576.208 C 666.936 578.988 694.519 578.079 704.887 578.08 L 806.948 577.175 C 845.924 576.958 884.806 577.765 923.775 577.884 C 1069.47 578.833 1215.17 578.73 1360.87 577.574 C 1374.77 577.39 1396.94 577.54 1389.63 600.018 C 1388.44 603.651 1384.19 606.814 1381.13 609.076 C 1366.85 611.095 1326.65 610.047 1309.98 610.017 L 1176.03 610.028 L 702.699 610.192 C 659.276 610.185 615.775 609.607 572.382 610.605 C 567.52 610.717 553.435 608.409 551.768 608.613 z" fill="rgb(107,96,81)" transform="translate(0,0)"></path>
<path d="M 516.073 836.968 L 577.932 836.871 L 577.865 1206.02 C 566.296 1206 523.972 1206.74 514.534 1205.34 C 513.569 1195.89 514.055 1174.64 514.072 1164.39 L 514.188 1089.3 C 514.202 1013.67 513.377 936.936 514.174 861.409 C 514.827 864.436 515.421 866.739 515.568 869.88 L 516.073 836.968 z" fill="rgb(184,58,35)" transform="translate(0,0)"></path>
<path d="M 432.733 748.115 C 467.598 747.317 504.211 747.979 539.26 747.862 L 823.024 747.829 L 1482.02 748.047 C 1482.1 751.801 1482.71 755.841 1480.89 758.864 C 1476.55 760.926 1332.95 759.928 1314.89 759.928 L 786.213 759.941 L 608.995 759.934 C 599.603 759.934 516.011 759.202 513.133 761.066 C 505.498 763.384 443.429 761.855 432.77 761.831 L 432.733 748.115 z" fill="rgb(107,96,81)" transform="translate(0,0)"></path>
<path d="M 1093.07 1234.09 L 1237.88 1234.15 C 1235.76 1241 1230.04 1261.61 1227.33 1266.55 C 1218.78 1265.02 1112.3 1265.08 1103.69 1266.76 C 1099.61 1261.28 1094.94 1241.33 1093.07 1234.09 z" fill="rgb(253,248,236)" transform="translate(0,0)"></path>
<path d="M 1262.17 158.548 C 1270.08 171.893 1280.77 194.932 1287.24 209.108 L 1288.73 209.175 C 1291.56 213.588 1295.68 222.872 1297.36 227.985 C 1296.36 231.258 1306.92 256.327 1308.85 261.179 C 1293.33 278.609 1268.49 314.871 1264.94 337.634 L 1262.94 342.419 L 1262.2 342.419 L 1262.04 335.415 L 1262.17 158.548 z" fill="rgb(107,96,81)" transform="translate(0,0)"></path>
<path d="M 977.429 1233.95 L 1059.32 1233.99 C 1062.36 1244.68 1065.44 1255.35 1068.58 1266.01 C 1053.89 1266 977.124 1267.85 968.246 1265.12 C 971.41 1254.76 974.471 1244.37 977.429 1233.95 z" fill="rgb(253,248,236)" transform="translate(0,0)"></path>
<path d="M 502.862 1230.83 C 503.812 1223.78 502.032 1213.7 503.742 1206.87 C 504.374 1207.33 505.006 1207.79 505.637 1208.24 C 529.06 1208.27 563.645 1208.27 585.96 1208.34 L 586 1231.33 C 558.559 1230.99 530.795 1231.82 503.631 1230.69 C 503.374 1230.74 503.118 1230.78 502.862 1230.83 z" fill="rgb(184,58,35)" transform="translate(0,0)"></path>
<path d="M 1407.86 1206.53 C 1411.3 1207.68 1409.86 1226.92 1409.84 1231.32 L 1409.71 1231.78 C 1405.51 1230.39 1390.86 1231.09 1385.84 1231.12 C 1383.86 1223.4 1381.34 1215.66 1379.15 1207.95 C 1385.31 1207.91 1403.13 1208.51 1407.86 1206.53 z" fill="rgb(184,58,35)" transform="translate(0,0)"></path>
<path d="M 502.89 1233.24 L 775.743 1233.15 L 860.322 1233.22 C 869.729 1233.25 893.586 1232.78 902.018 1233.84 C 885.755 1235.26 854.438 1234.19 836.647 1234.19 L 703.692 1234.02 L 559.286 1234.12 C 531.332 1234.19 496.182 1235.1 468.897 1233.23 C 480.32 1232.79 491.472 1233.05 502.89 1233.24 z" fill="rgb(171,168,159)" transform="translate(0,0)"></path>
<path d="M 851.421 813.856 C 852.81 812.893 856.305 810.14 857.586 810.07 C 872.345 809.263 887.786 809.663 902.594 809.499 C 937.605 808.995 972.621 808.831 1007.64 809.007 L 1310.06 809.108 L 1310.45 1120.08 C 1293.9 1119.96 1249.08 1116.57 1238.75 1126.26 C 1235.39 1129.36 1233.48 1133.72 1233.48 1138.29 C 1233.48 1143.68 1235.74 1148.83 1239.69 1152.49 C 1245.16 1157.59 1251.19 1158.38 1258.34 1158.67 C 1259.94 1162.3 1240.97 1221.76 1238.06 1231.99 C 1190.45 1231.97 1139.49 1231 1092.17 1232.07 C 1085.11 1207.6 1077.43 1181.43 1069.17 1157.38 C 1081.65 1157.6 1099.25 1157.42 1099.2 1139.99 C 1099.16 1134.71 1096.93 1129.68 1093.05 1126.1 C 1085.73 1119.4 1071.76 1120.6 1062.35 1120.57 C 1028.54 1120.45 994.641 1121.48 960.842 1120.18 C 965.635 1116.65 968.246 1114.5 971.969 1109.94 C 999.418 1076.29 982.429 1019.57 937.641 1013 C 936.03 1012.76 934.878 1012.8 933.26 1012.9 C 929.065 1016.74 928.994 1018.76 928.929 1024.35 C 928.628 1050.31 928.767 1076.32 928.914 1102.28 C 928.963 1110.98 927.091 1125.61 933.118 1131.81 L 935.329 1130.82 L 935.96 1131.11 C 944.324 1139.58 930.06 1157.91 964.4 1158.05 C 965.222 1158.05 966.043 1158.05 966.864 1158.03 C 960.528 1179.63 949.851 1211.38 944.92 1231.95 L 933.277 1231.85 L 932.048 1231.86 C 925.068 1232.08 888.696 1232.6 883.039 1231.82 C 884.143 1190.21 883.176 1144.24 883.144 1102.41 L 883.01 859.968 L 839.504 860.031 C 839.515 853.399 838.927 825.198 841.161 821.325 C 840.884 818.15 840.784 816.542 840.956 813.368 L 842.289 812.897 L 846.105 815.334 C 847.884 815.075 849.218 814.726 850.971 815.11 L 851.421 813.856 z" fill="rgb(184,58,35)" transform="translate(0,0)"></path>
<path d="M 935.329 1130.82 L 935.96 1131.11 C 944.324 1139.58 930.06 1157.91 964.4 1158.05 C 965.222 1158.05 966.043 1158.05 966.864 1158.03 C 960.528 1179.63 949.851 1211.38 944.92 1231.95 L 933.277 1231.85 C 934.613 1227.27 934.361 1135.38 933.118 1131.81 L 935.329 1130.82 z" fill="rgb(184,58,35)" transform="translate(0,0)"></path>
<path d="M 850.954 819.961 L 933.839 819.957 L 934.097 957.708 C 934.1 966.432 934.776 1007.23 933.26 1012.9 C 930.761 1009.09 931.84 965.888 931.854 958.571 L 931.604 822.042 C 918.093 822.088 850.521 823.797 841.679 821.088 C 844.57 819.677 847.64 820.005 850.954 819.961 z" fill="rgb(233,167,151)" transform="translate(0,0)"></path>
<path d="M 933.118 1131.81 C 934.361 1135.38 934.613 1227.27 933.277 1231.85 L 932.048 1231.86 L 931.689 1230.96 C 931.551 1219.85 930.684 1135.18 933.118 1131.81 z" fill="rgb(233,167,151)" transform="translate(0,0)"></path>
<path d="M 883.039 1231.82 C 893.322 1230.13 919.868 1231.13 931.689 1230.96 L 932.048 1231.86 C 925.068 1232.08 888.696 1232.6 883.039 1231.82 z" fill="rgb(100,42,28)" transform="translate(0,0)"></path>
<path d="M 1137.33 818.748 C 1218.67 809.816 1291.79 868.623 1300.52 949.977 C 1309.25 1031.33 1250.26 1104.31 1168.88 1112.83 C 1087.79 1121.32 1015.13 1062.59 1006.43 981.524 C 997.739 900.459 1056.29 827.648 1137.33 818.748 z" fill="rgb(233,167,151)" transform="translate(0,0)"></path>
<path d="M 1137.78 824.393 C 1138.1 824.346 1138.41 824.298 1138.73 824.25 C 1177.74 820.378 1216.77 831.356 1248.05 854.995 C 1278.17 877.818 1297.69 911.932 1302.11 949.467 C 1311.98 1030.87 1246.8 1098.71 1168.24 1107.55 C 1134.93 1113.9 1086.47 1097.83 1060.42 1077.26 C 1029.36 1052.73 1010.02 1022.86 1004.93 982.937 C 1000.67 947.249 1010.55 911.309 1032.47 882.822 C 1058.93 848.857 1095.5 829.864 1137.78 824.393 z" fill="rgb(184,58,35)" transform="translate(0,0)"></path>
<path d="M 1237.51 1074.48 C 1177.73 1120.82 1091.76 1110.19 1045.07 1050.69 C 998.385 991.193 1008.5 905.161 1067.72 858.117 C 1126.93 811.073 1213.03 820.675 1260.42 879.609 C 1307.82 938.544 1298.73 1024.69 1240.08 1072.44 C 1239.23 1073.13 1238.37 1073.81 1237.51 1074.48 z" fill="rgb(48,25,15)" transform="translate(0,0)"></path>
<path d="M 1087.37 1082.33 C 1084.24 1080.43 1081.14 1078.49 1078.06 1076.51 C 1046.87 1056.3 1024.99 1027.94 1017.35 991.008 C 1010.64 957.812 1017.47 923.312 1036.33 895.18 C 1057.09 864.461 1089.18 843.223 1125.58 836.119 C 1162.73 828.79 1201.27 836.622 1232.62 857.871 C 1267.16 881.423 1283.29 910.207 1290.81 950.239 L 1290.79 950.744 C 1291.47 959.523 1292.63 972.436 1291.02 980.94 L 1290.98 982.011 C 1286.86 1017.28 1265.23 1049.14 1237.79 1070.89 L 1236.62 1071.81 L 1234.6 1072.4 C 1230.5 1076.65 1222.5 1080.38 1217.05 1082.8 L 1214.27 1084.45 L 1200.19 1090.02 L 1198.74 1090.43 C 1193.65 1092.29 1186.68 1094.44 1181.33 1094.96 L 1180.05 1095.2 C 1155.72 1102.21 1129.1 1096.17 1105.41 1090.4 C 1099.84 1087.75 1095.23 1086.22 1089.59 1083.15 L 1087.37 1082.33 z" fill="rgb(207,107,52)" transform="translate(0,0)"></path>
<path d="M 1067.04 1023.97 C 1066.93 1016.89 1065.87 997.085 1068.55 991.894 C 1077.68 988.856 1203.43 989.281 1217.4 990.772 C 1217.99 999.031 1217.89 1015.8 1216.96 1024.1 L 1186.68 1023.93 C 1191.05 1044.96 1193.96 1069.81 1200.19 1090.02 L 1198.74 1090.43 C 1193.65 1092.29 1186.68 1094.44 1181.33 1094.96 L 1180.05 1095.2 C 1155.72 1102.21 1129.1 1096.17 1105.41 1090.4 C 1099.84 1087.75 1095.23 1086.22 1089.59 1083.15 L 1087.37 1082.33 C 1091.56 1065.43 1097.21 1040.86 1100.06 1023.83 L 1067.04 1023.97 z" fill="rgb(233,167,151)" transform="translate(0,0)"></path>
<path d="M 1120.47 1023.95 C 1135.81 1024.03 1151.16 1024.01 1166.51 1023.88 C 1168.23 1038.65 1174.79 1083 1180.05 1095.2 C 1155.72 1102.21 1129.1 1096.17 1105.41 1090.4 C 1108.52 1087.29 1109.45 1079.97 1110.38 1075.55 L 1111.32 1071.02 C 1114.42 1055.42 1117.71 1039.6 1120.47 1023.95 z" fill="rgb(207,107,52)" transform="translate(0,0)"></path>
<path d="M 1168.61 1023.94 C 1173.88 1023.98 1179.14 1023.98 1184.4 1023.94 C 1186.97 1035.64 1194.09 1083.12 1198.74 1090.43 C 1193.65 1092.29 1186.68 1094.44 1181.33 1094.96 C 1181.11 1091.32 1180.42 1089.15 1179.67 1085.59 C 1175.36 1065.34 1171.32 1044.45 1168.61 1023.94 z" fill="rgb(207,107,52)" transform="translate(0,0)"></path>
<path d="M 1102.28 1024 C 1107.54 1024.03 1112.8 1024.03 1118.06 1023.98 L 1116.78 1031.96 C 1115.47 1040.67 1104.81 1085.46 1105.41 1090.4 C 1099.84 1087.75 1095.23 1086.22 1089.59 1083.15 C 1094.47 1063.98 1097.83 1043.4 1102.28 1024 z" fill="rgb(207,107,52)" transform="translate(0,0)"></path>
<path d="M 1069.15 991.968 C 1085.16 991.961 1211.15 990.498 1215.54 994.168 C 1216.37 1000.24 1215.13 1015.31 1214.73 1022.09 C 1168.15 1022.96 1115.75 1022.79 1069.14 1022.21 L 1069.15 991.968 z" fill="rgb(207,107,52)" transform="translate(0,0)"></path>
<path d="M 1200.44 950.928 C 1210.73 951.649 1283.81 952.361 1290.79 950.744 C 1291.47 959.523 1292.63 972.436 1291.02 980.94 C 1284.89 978.79 1212.84 980.415 1200.59 980.108 C 1200.2 970.386 1200.15 960.653 1200.44 950.928 z" fill="rgb(207,107,52)" transform="translate(0,0)"></path>
<path d="M 1253.28 981.984 L 1290.98 982.011 C 1286.86 1017.28 1265.23 1049.14 1237.79 1070.89 L 1236.62 1071.81 C 1243.08 1042.28 1247.88 1011.74 1253.28 981.984 z" fill="rgb(207,107,52)" transform="translate(0,0)"></path>
<path d="M 1234.81 982.01 L 1250.93 981.996 C 1247.79 1001.53 1244.25 1021 1240.31 1040.39 C 1238.74 1048.48 1235.09 1064.69 1234.6 1072.4 C 1230.5 1076.65 1222.5 1080.38 1217.05 1082.8 C 1222.79 1049.27 1229.44 1015.57 1234.81 982.01 z" fill="rgb(207,107,52)" transform="translate(0,0)"></path>
<path d="M 1198.72 949.653 C 1215.26 948.634 1235.42 949.646 1252.24 949.411 C 1259.68 949.307 1284.64 948.943 1290.81 950.239 L 1290.79 950.744 C 1283.81 952.361 1210.73 951.649 1200.44 950.928 C 1200.15 960.653 1200.2 970.386 1200.59 980.108 C 1212.84 980.415 1284.89 978.79 1291.02 980.94 L 1290.98 982.011 L 1253.28 981.984 C 1247.88 1011.74 1243.08 1042.28 1236.62 1071.81 L 1234.6 1072.4 C 1235.09 1064.69 1238.74 1048.48 1240.31 1040.39 C 1244.25 1021 1247.79 1001.53 1250.93 981.996 L 1234.81 982.01 C 1229.44 1015.57 1222.79 1049.27 1217.05 1082.8 L 1214.27 1084.45 C 1220.97 1053.73 1227.44 1013.46 1232.68 982.106 C 1224.16 982.261 1206.39 984.231 1200.38 979.718 C 1195.86 973.293 1198.15 958.092 1198.72 949.653 z" fill="rgb(233,167,151)" transform="translate(0,0)"></path>
<path d="M 580.388 612.07 L 1358.2 612.078 L 1358.21 623.884 L 1358.18 669.018 L 580.413 668.923 C 580.509 654.851 581.006 638.09 580.603 624.165 L 580.388 612.07 z" fill="rgb(227,160,42)" transform="translate(0,0)"></path>
<path d="M 663.011 862.512 L 708.021 862.541 C 708.018 867.839 708.394 873.017 707.293 878.163 L 707.182 878.56 C 708.633 884.103 708.152 925.344 708.112 934.037 C 707.912 977.222 708.465 1020.81 707.912 1063.97 C 730.038 1049.78 752.013 1035.35 773.833 1020.69 C 786.371 1028.62 798.82 1036.68 811.178 1044.88 C 814.938 1047.35 825.9 1054.2 828.905 1056.66 L 830.176 1057.19 L 830.957 1057.61 C 834.361 1059.48 835.318 1060.24 838.27 1062.74 L 839.598 1062.58 C 839.711 1061.01 839.842 1059.56 839.857 1057.99 L 840.451 1055.28 C 852.139 1054.37 868.789 1055.1 880.807 1055.02 C 880.928 1068.96 880.954 1082.9 880.884 1096.84 L 880.843 1098.11 L 881.066 1193.98 C 864.731 1193.98 845.413 1194.48 829.325 1193.92 L 827.734 1193.85 C 809.38 1194.62 787.961 1194.06 769.242 1194.06 L 662.994 1194.2 C 662.899 1175.08 662.447 1154.33 663.025 1135.35 L 662.918 1133.74 C 662.408 1124.05 662.482 1112.14 662.715 1102.44 C 664.144 1043.11 661.555 982.846 663.173 923.62 L 662.92 921.724 C 663.322 902.358 663.004 881.956 663.011 862.512 z" fill="rgb(207,107,52)" transform="translate(0,0)"></path>
<path d="M 663.025 1135.35 C 673.759 1136.45 688.555 1135.9 699.553 1135.77 C 742.224 1135.27 785.168 1136.08 827.814 1135.22 C 827.826 1143.52 826.936 1189.46 827.734 1193.85 C 809.38 1194.62 787.961 1194.06 769.242 1194.06 L 662.994 1194.2 C 662.899 1175.08 662.447 1154.33 663.025 1135.35 z" fill="rgb(207,107,52)" transform="translate(0,0)"></path>
<path d="M 840.451 1055.28 C 852.139 1054.37 868.789 1055.1 880.807 1055.02 C 880.928 1068.96 880.954 1082.9 880.884 1096.84 L 880.843 1098.11 L 881.066 1193.98 C 864.731 1193.98 845.413 1194.48 829.325 1193.92 C 830.579 1189.32 830.149 1161.6 830.17 1155.25 C 830.356 1122.56 830.358 1089.88 830.176 1057.19 L 830.957 1057.61 C 834.361 1059.48 835.318 1060.24 838.27 1062.74 L 839.598 1062.58 C 839.711 1061.01 839.842 1059.56 839.857 1057.99 L 840.451 1055.28 z" fill="rgb(207,107,52)" transform="translate(0,0)"></path>
<path d="M 840.865 1096.52 C 851.42 1096.39 871.088 1095.69 880.884 1096.84 L 880.843 1098.11 L 842.933 1097.98 C 842.966 1107.41 844.118 1189.92 841.798 1192.18 C 839.393 1185.16 840.532 1108.59 840.865 1096.52 z" fill="rgb(233,167,151)" transform="translate(0,0)"></path>
<path d="M 663.011 862.512 L 708.021 862.541 C 708.018 867.839 708.394 873.017 707.293 878.163 L 707.182 878.56 C 698.248 885.788 668.327 921.172 663.173 923.62 L 662.92 921.724 C 663.322 902.358 663.004 881.956 663.011 862.512 z" fill="rgb(207,107,52)" transform="translate(0,0)"></path>
<path d="M 662.92 921.724 C 676.309 909.016 690.493 890.442 704.733 877.743 C 705.136 877.384 706.85 878.036 707.293 878.163 L 707.182 878.56 C 698.248 885.788 668.327 921.172 663.173 923.62 L 662.92 921.724 z" fill="rgb(233,167,151)" transform="translate(0,0)"></path>
<path d="M 828.905 1056.66 L 830.176 1057.19 C 830.358 1089.88 830.356 1122.56 830.17 1155.25 C 830.149 1161.6 830.579 1189.32 829.325 1193.92 L 827.734 1193.85 C 826.936 1189.46 827.826 1143.52 827.814 1135.22 C 785.168 1136.08 742.224 1135.27 699.553 1135.77 C 688.555 1135.9 673.759 1136.45 663.025 1135.35 L 662.918 1133.74 C 669.309 1132.71 706.625 1133.46 714.816 1133.49 C 752.443 1133.7 790.071 1133.69 827.698 1133.45 C 827.878 1122.08 826.46 1062.2 828.905 1056.66 z" fill="rgb(233,167,151)" transform="translate(0,0)"></path>
<path d="M 709.045 812.249 C 738.986 812.021 768.928 811.997 798.87 812.177 C 805.174 812.19 833.548 812.669 838.803 811.826 C 839.028 828.195 839.099 844.567 839.015 860.938 L 841.208 862.005 L 880.737 862.018 L 880.836 989.205 C 880.859 1007.89 880.025 1034.82 881.024 1052.96 L 880.807 1055.02 C 868.789 1055.1 852.139 1054.37 840.451 1055.28 L 839.857 1057.99 L 838.252 1059.78 C 816.061 1047.46 794.952 1030.74 773.675 1018.54 C 751.736 1033.5 731.365 1047.29 708.842 1061.39 C 711.067 1039.32 709.493 996.106 709.394 972.626 L 709.045 812.249 z" fill="rgb(253,248,236)" transform="translate(0,0)"></path>
<path d="M 841.208 862.005 L 880.737 862.018 L 880.836 989.205 C 880.859 1007.89 880.025 1034.82 881.024 1052.96 L 880.807 1055.02 C 868.789 1055.1 852.139 1054.37 840.451 1055.28 L 839.624 1053.46 C 841.222 1043.22 840.586 1013.34 840.892 1001.3 C 842.055 955.6 839.741 907.523 841.208 862.005 z" fill="rgb(207,107,52)" transform="translate(0,0)"></path>
<path d="M 839.624 1053.46 C 847.175 1052.53 872.149 1052.84 881.024 1052.96 L 880.807 1055.02 C 868.789 1055.1 852.139 1054.37 840.451 1055.28 L 839.624 1053.46 z" fill="rgb(233,167,151)" transform="translate(0,0)"></path>
<path d="M 839.015 860.938 L 841.208 862.005 C 839.741 907.523 842.055 955.6 840.892 1001.3 C 840.586 1013.34 841.222 1043.22 839.624 1053.46 L 840.451 1055.28 L 839.857 1057.99 L 838.252 1059.78 C 839.764 1043.68 838.868 1010.24 838.88 992.73 L 839.015 860.938 z" fill="rgb(184,58,35)" transform="translate(0,0)"></path>
<path d="M 579.768 761.887 L 1398.84 762.008 L 1398.91 806.973 L 1004.42 806.951 C 975.091 806.85 945.76 806.932 916.43 807.198 C 906.142 807.332 864.871 809.449 857.577 806.382 C 856.245 804.699 856.153 804.638 855.274 802.698 L 854.698 802.967 C 849.263 799.692 851.056 800.005 844.566 800.198 C 844.156 800.546 843.746 800.894 843.336 801.242 C 844.154 804.378 845.047 806.088 843.997 808.928 L 843.341 809.5 L 838.803 811.826 C 833.548 812.669 805.174 812.19 798.87 812.177 C 768.928 811.997 738.986 812.021 709.045 812.249 L 708.531 810.824 L 704.788 810.094 L 704.479 810.199 C 695.87 818.747 688.595 808.138 696.233 800.123 L 698.287 797.999 C 694.136 799.369 693.382 800.784 691.337 804.872 C 690.995 805.563 690.662 806.258 690.338 806.957 L 579.968 806.865 L 579.768 761.887 z" fill="rgb(184,58,35)" transform="translate(0,0)"></path>
<path d="M 704.788 810.094 C 704.721 806.693 704.486 805.836 705.691 802.767 C 715.812 799.119 822.06 802.724 843.336 801.242 C 844.154 804.378 845.047 806.088 843.997 808.928 L 843.341 809.5 L 838.803 811.826 C 833.548 812.669 805.174 812.19 798.87 812.177 C 768.928 811.997 738.986 812.021 709.045 812.249 L 708.531 810.824 L 704.788 810.094 z" fill="rgb(253,248,236)" transform="translate(0,0)"></path>
<path d="M 708.531 810.824 C 713.621 809.63 734.066 809.921 740.055 809.932 L 804.741 810.127 C 815.49 810.164 833.411 810.723 843.341 809.5 L 838.803 811.826 C 833.548 812.669 805.174 812.19 798.87 812.177 C 768.928 811.997 738.986 812.021 709.045 812.249 L 708.531 810.824 z" fill="rgb(107,96,81)" transform="translate(0,0)"></path>
<path d="M 698.287 797.999 C 704.354 801.271 703.652 803.307 704.479 810.199 C 695.87 818.747 688.595 808.138 696.233 800.123 L 698.287 797.999 z" fill="rgb(253,248,236)" transform="translate(0,0)"></path>
<path d="M 949.179 464.479 C 972.528 463.83 988.175 476.42 993.057 498.932 C 1019.1 485.588 1053.14 498.212 1066.07 523.833 C 1068.21 528.09 1069.68 532.022 1071.25 536.514 C 1107.78 519.899 1142.17 538.711 1153.92 576.014 C 1088.31 575.219 1021.2 575.962 955.5 575.988 L 749.152 576.016 C 749.64 573.272 750.144 571.115 751.022 568.487 C 755.929 554.25 766.384 542.6 780.01 536.187 C 796.164 528.445 813.394 528.771 830.038 534.598 C 831.364 531.005 832.784 527.191 834.567 523.809 C 841.583 510.297 853.726 500.165 868.277 495.685 C 881.504 491.655 894.941 492.278 907.227 498.726 C 913.438 475.793 925.647 466.743 949.179 464.479 z" fill="rgb(107,96,81)" transform="translate(0,0)"></path>
<path d="M 1312.03 809.157 L 1398.9 809.112 C 1398.97 822.247 1398.93 835.383 1398.79 848.518 C 1399.5 911.782 1398.87 975.823 1398.96 1039.17 L 1312.23 1038.96 C 1312.25 1012.3 1311.64 982.97 1312.35 956.548 C 1310.97 910.048 1312.19 856.42 1312.03 809.157 z" fill="rgb(227,160,42)" transform="translate(0,0)"></path>
<path d="M 1312.03 809.157 L 1398.9 809.112 C 1398.97 822.247 1398.93 835.383 1398.79 848.518 C 1398.15 841.76 1398.15 836.588 1398.17 829.862 C 1373.75 829.795 1336.36 828.503 1312.94 829.793 L 1313.23 913.301 C 1313.25 922.806 1313.78 948.209 1312.35 956.548 C 1310.97 910.048 1312.19 856.42 1312.03 809.157 z" fill="rgb(207,107,52)" transform="translate(0,0)"></path>
<path d="M 590.982 809.005 L 659.989 808.961 L 659.936 830.262 C 659.826 848.713 660.955 865.9 661.053 884.137 L 661.036 1038.99 L 579.834 1039.09 L 579.838 837.053 L 591.351 836.967 C 590.764 828.381 590.977 817.723 590.982 809.005 z" fill="rgb(227,160,42)" transform="translate(0,0)"></path>
<path d="M 590.982 809.005 L 659.989 808.961 L 659.936 830.262 C 649.17 828.873 606.236 830.676 592.625 830.444 C 592.077 830.435 591.532 835.903 591.351 836.967 C 590.764 828.381 590.977 817.723 590.982 809.005 z" fill="rgb(207,107,52)" transform="translate(0,0)"></path>
<path d="M 434.463 729.971 L 1481.59 729.992 C 1481.7 734.244 1482.48 742.675 1480.72 745.874 L 434.494 745.876 L 434.463 729.971 z" fill="rgb(107,96,81)" transform="translate(0,0)"></path>
<path d="M 580.019 1040.97 C 607.004 1040.57 633.992 1040.53 660.977 1040.87 C 660.082 1102.8 661.126 1166.74 661.078 1229.02 L 660.545 1230.2 C 654.611 1232.32 597.971 1231.47 588.19 1231.49 C 588.108 1226.02 589.376 1210.52 586.99 1206.76 C 584.848 1206.38 583.152 1206.17 580.988 1205.95 C 579.298 1203.04 580.019 1056.98 580.019 1040.97 z" fill="rgb(184,58,35)" transform="translate(0,0)"></path>
<path d="M 590.775 1071.51 C 591.525 1070.82 592.592 1070.6 593.556 1070.93 C 594.52 1071.26 595.224 1072.09 595.392 1073.1 C 595.559 1074.1 595.162 1075.12 594.357 1075.75 C 593.182 1076.66 591.496 1076.48 590.535 1075.35 C 589.573 1074.21 589.679 1072.52 590.775 1071.51 z" fill="rgb(253,248,236)" transform="translate(0,0)"></path>
<path d="M 647.032 1052.44 C 647.989 1052 649.118 1052.16 649.915 1052.85 C 650.712 1053.54 651.029 1054.64 650.725 1055.65 C 650.421 1056.66 649.552 1057.4 648.506 1057.53 C 647.194 1057.7 645.954 1056.89 645.586 1055.62 C 645.217 1054.35 645.832 1053 647.032 1052.44 z" fill="rgb(253,248,236)" transform="translate(0,0)"></path>
<path d="M 627.946 1071.5 C 629.068 1070.66 630.65 1070.83 631.567 1071.89 C 632.485 1072.95 632.425 1074.54 631.431 1075.53 C 630.723 1076.23 629.682 1076.48 628.732 1076.18 C 627.783 1075.87 627.082 1075.06 626.917 1074.08 C 626.751 1073.1 627.148 1072.1 627.946 1071.5 z" fill="rgb(253,248,236)" transform="translate(0,0)"></path>
<path d="M 628.236 1052.51 C 629.094 1052.02 630.152 1052.06 630.979 1052.6 C 631.806 1053.13 632.264 1054.09 632.167 1055.07 C 632.07 1056.05 631.433 1056.9 630.516 1057.26 C 629.226 1057.78 627.758 1057.2 627.157 1055.95 C 626.556 1054.7 627.027 1053.2 628.236 1052.51 z" fill="rgb(253,248,236)" transform="translate(0,0)"></path>
<path d="M 646.831 1071.39 C 648.004 1070.62 649.57 1070.93 650.366 1072.08 C 651.162 1073.23 650.899 1074.81 649.773 1075.64 C 649.014 1076.19 648.013 1076.3 647.158 1075.9 C 646.303 1075.51 645.73 1074.68 645.662 1073.74 C 645.594 1072.8 646.042 1071.9 646.831 1071.39 z" fill="rgb(253,248,236)" transform="translate(0,0)"></path>
<path d="M 590.971 1053.52 C 591.595 1052.81 592.558 1052.51 593.475 1052.72 C 594.393 1052.94 595.116 1053.65 595.356 1054.56 C 595.595 1055.47 595.312 1056.44 594.619 1057.08 C 593.621 1058.01 592.074 1057.98 591.102 1057.03 C 590.129 1056.08 590.072 1054.54 590.971 1053.52 z" fill="rgb(253,248,236)" transform="translate(0,0)"></path>
<path d="M 610.195 1052.6 C 611.266 1052.11 612.537 1052.41 613.263 1053.34 C 613.989 1054.27 613.98 1055.58 613.239 1056.5 C 612.582 1057.32 611.49 1057.65 610.49 1057.33 C 609.491 1057.01 608.789 1056.11 608.724 1055.07 C 608.658 1054.02 609.243 1053.04 610.195 1052.6 z" fill="rgb(253,248,236)" transform="translate(0,0)"></path>
<path d="M 609.939 1071.47 C 610.64 1070.88 611.603 1070.72 612.459 1071.04 C 613.316 1071.36 613.932 1072.12 614.072 1073.02 C 614.211 1073.93 613.853 1074.84 613.134 1075.4 C 612.046 1076.26 610.475 1076.08 609.602 1075.01 C 608.73 1073.93 608.88 1072.36 609.939 1071.47 z" fill="rgb(253,248,236)" transform="translate(0,0)"></path>
<path d="M 591.713 1090.39 C 592.547 1090.04 593.507 1090.17 594.217 1090.73 C 594.927 1091.29 595.271 1092.2 595.115 1093.09 C 594.96 1093.98 594.328 1094.72 593.47 1095.01 C 592.212 1095.43 590.844 1094.78 590.372 1093.54 C 589.9 1092.3 590.492 1090.91 591.713 1090.39 z" fill="rgb(253,248,236)" transform="translate(0,0)"></path>
<path d="M 646.493 1091.49 C 647.335 1090.45 648.849 1090.29 649.894 1091.12 C 650.939 1091.94 651.129 1093.45 650.321 1094.51 C 649.786 1095.21 648.915 1095.57 648.042 1095.45 C 647.17 1095.32 646.431 1094.74 646.11 1093.92 C 645.789 1093.1 645.935 1092.17 646.493 1091.49 z" fill="rgb(253,248,236)" transform="translate(0,0)"></path>
<path d="M 609.343 1091.52 C 610.059 1090.59 611.349 1090.32 612.379 1090.88 C 613.41 1091.45 613.871 1092.68 613.465 1093.79 C 613.142 1094.67 612.334 1095.28 611.4 1095.34 C 610.466 1095.41 609.58 1094.92 609.136 1094.1 C 608.693 1093.27 608.774 1092.26 609.343 1091.52 z" fill="rgb(253,248,236)" transform="translate(0,0)"></path>
<path d="M 628.197 1091.56 C 628.866 1090.55 630.192 1090.2 631.268 1090.77 C 632.343 1091.33 632.818 1092.61 632.367 1093.74 C 632.032 1094.58 631.249 1095.15 630.349 1095.22 C 629.449 1095.29 628.589 1094.84 628.132 1094.06 C 627.675 1093.28 627.7 1092.31 628.197 1091.56 z" fill="rgb(253,248,236)" transform="translate(0,0)"></path>
<path d="M 1339.56 368.789 C 1346.39 376.868 1364.04 487.232 1364.51 504.494 C 1364.69 511.135 1366.46 512.156 1356.73 513.167 C 1323.88 516.581 1293.41 534.678 1273.27 561.389 C 1269.46 567.213 1265.73 573.09 1262.09 579.019 C 1262.24 561.01 1259.82 508.161 1263.64 493.375 C 1275.01 449.23 1307.38 400.97 1339.56 368.789 z" fill="rgb(107,96,81)" transform="translate(0,0)"></path>
<path d="M 1179.72 368.251 C 1213.03 395.635 1249.48 454.304 1259.29 496.469 C 1260.52 501.773 1259.98 519.126 1259.98 525.381 L 1259.94 576.12 L 1239.22 576.062 C 1235.65 576.182 1233.27 576.61 1230.03 575.185 C 1226.79 561.551 1227.15 554.243 1221.36 539.569 C 1209.01 508.26 1186.95 491.616 1157.79 478.221 C 1159.15 473.082 1160.03 467.449 1160.8 462.184 C 1165.48 430.343 1172.27 399.547 1179.72 368.251 z" fill="rgb(107,96,81)" transform="translate(0,0)"></path>
<path d="M 1214.08 262.313 C 1215.47 263.453 1216.77 264.684 1218 265.998 C 1236.31 285.881 1254.92 323.014 1258.26 349.911 C 1260.49 367.838 1259.95 395.829 1259.91 414.623 C 1259.87 438.365 1260.44 464.547 1259.61 488.16 C 1256.7 478.933 1254.62 473.555 1250.71 464.704 C 1241.06 440.378 1221.1 410.455 1204.29 390.614 C 1197.12 382.138 1189.18 374.579 1182.38 365.941 C 1179.61 354.511 1207.95 277.73 1214.08 262.313 z" fill="rgb(107,96,81)" transform="translate(0,0)"></path>
<path d="M 1261.97 480.814 C 1262.15 452.99 1262.15 425.165 1261.99 397.341 C 1261.96 387.013 1261.12 358.962 1263.23 350.28 C 1271.22 317.411 1286.86 288.401 1309.29 263.807 C 1318.5 285.047 1332.12 332.665 1337.46 354.418 L 1337.77 356.055 C 1338.59 359.185 1339.62 362.757 1340.3 365.869 C 1308.29 391.411 1279.31 444.169 1264.77 481.846 C 1264.18 483.58 1263.53 486.702 1262.3 487.407 L 1261.97 480.814 z" fill="rgb(107,96,81)" transform="translate(0,0)"></path>
<path d="M 1312.42 1040.15 C 1343.08 1038.99 1369.27 1041.02 1399.21 1040.8 C 1399.75 1095.84 1399.43 1150.89 1398.26 1205.93 C 1386.01 1205.6 1379.82 1210.57 1376.1 1197.74 C 1372.01 1183.77 1368.53 1171.85 1363.52 1158.18 C 1377.36 1158.33 1393.82 1157.51 1393.77 1138.6 C 1393.72 1133.95 1391.75 1129.53 1388.33 1126.38 C 1382.35 1120.84 1373.83 1119.71 1366.02 1119.71 C 1348.18 1119.72 1330.35 1119.93 1312.51 1120.1 C 1312.71 1094.29 1311.39 1065.45 1312.42 1040.15 z" fill="rgb(184,58,35)" transform="translate(0,0)"></path>
<path d="M 1352.42 1052.51 C 1353.79 1051.69 1355.55 1052.09 1356.44 1053.41 C 1357.32 1054.73 1357.01 1056.51 1355.74 1057.46 C 1354.86 1058.12 1353.68 1058.24 1352.68 1057.77 C 1351.69 1057.3 1351.03 1056.32 1350.98 1055.22 C 1350.92 1054.12 1351.48 1053.08 1352.42 1052.51 z" fill="rgb(253,248,236)" transform="translate(0,0)"></path>
<path d="M 1390.22 1071.58 C 1391.58 1071.08 1393.1 1071.73 1393.68 1073.05 C 1394.27 1074.38 1393.72 1075.93 1392.43 1076.6 C 1391.52 1077.07 1390.43 1077 1389.59 1076.41 C 1388.76 1075.82 1388.31 1074.82 1388.44 1073.81 C 1388.58 1072.79 1389.26 1071.94 1390.22 1071.58 z" fill="rgb(253,248,236)" transform="translate(0,0)"></path>
<path d="M 1389.05 1053.51 C 1389.71 1052.64 1390.83 1052.25 1391.89 1052.52 C 1392.96 1052.79 1393.75 1053.66 1393.92 1054.75 C 1394.09 1055.83 1393.59 1056.91 1392.66 1057.48 C 1391.54 1058.18 1390.09 1057.97 1389.2 1057 C 1388.32 1056.03 1388.25 1054.56 1389.05 1053.51 z" fill="rgb(253,248,236)" transform="translate(0,0)"></path>
<path d="M 1389.6 1091.53 C 1390.71 1090.53 1392.42 1090.63 1393.41 1091.75 C 1394.4 1092.87 1394.28 1094.58 1393.16 1095.56 C 1392.04 1096.53 1390.35 1096.42 1389.38 1095.31 C 1388.4 1094.2 1388.5 1092.51 1389.6 1091.53 z" fill="rgb(253,248,236)" transform="translate(0,0)"></path>
<path d="M 1333.27 1072.51 C 1334.19 1071.45 1335.78 1071.29 1336.9 1072.14 C 1338.01 1073 1338.27 1074.57 1337.49 1075.74 C 1336.94 1076.56 1335.97 1077.01 1334.99 1076.9 C 1334 1076.8 1333.16 1076.15 1332.8 1075.23 C 1332.44 1074.3 1332.62 1073.26 1333.27 1072.51 z" fill="rgb(253,248,236)" transform="translate(0,0)"></path>
<path d="M 1370.35 1072.55 C 1371.27 1071.62 1372.74 1071.51 1373.78 1072.3 C 1374.82 1073.09 1375.12 1074.53 1374.47 1075.67 C 1373.97 1076.55 1373.01 1077.06 1372 1076.98 C 1370.99 1076.9 1370.11 1076.24 1369.76 1075.29 C 1369.41 1074.34 1369.64 1073.27 1370.35 1072.55 z" fill="rgb(253,248,236)" transform="translate(0,0)"></path>
<path d="M 1370.36 1053.56 C 1371.06 1052.87 1372.09 1052.63 1373.03 1052.94 C 1373.96 1053.25 1374.64 1054.06 1374.78 1055.03 C 1374.93 1056.01 1374.51 1056.98 1373.7 1057.55 C 1372.59 1058.33 1371.07 1058.13 1370.2 1057.09 C 1369.33 1056.05 1369.4 1054.52 1370.36 1053.56 z" fill="rgb(253,248,236)" transform="translate(0,0)"></path>
<path d="M 1351.85 1072.5 C 1352.48 1071.79 1353.46 1071.49 1354.38 1071.71 C 1355.31 1071.93 1356.04 1072.64 1356.28 1073.56 C 1356.53 1074.48 1356.25 1075.46 1355.56 1076.11 C 1354.55 1077.06 1352.96 1077.05 1351.97 1076.08 C 1350.98 1075.11 1350.92 1073.53 1351.85 1072.5 z" fill="rgb(253,248,236)" transform="translate(0,0)"></path>
<path d="M 1334.07 1052.56 C 1335.16 1051.87 1336.59 1052.1 1337.42 1053.08 C 1338.25 1054.06 1338.23 1055.5 1337.37 1056.46 C 1336.7 1057.22 1335.65 1057.51 1334.69 1057.21 C 1333.72 1056.92 1333.02 1056.08 1332.88 1055.08 C 1332.75 1054.08 1333.22 1053.09 1334.07 1052.56 z" fill="rgb(253,248,236)" transform="translate(0,0)"></path>
<path d="M 1314.41 1091.48 C 1315.32 1090.49 1316.84 1090.36 1317.9 1091.18 C 1318.97 1092 1319.22 1093.5 1318.49 1094.63 C 1317.96 1095.45 1317.02 1095.9 1316.05 1095.8 C 1315.08 1095.7 1314.25 1095.06 1313.9 1094.15 C 1313.56 1093.23 1313.76 1092.2 1314.41 1091.48 z" fill="rgb(253,248,236)" transform="translate(0,0)"></path>
<path d="M 1316.27 1052.48 C 1317.36 1051.97 1318.66 1052.3 1319.38 1053.26 C 1320.1 1054.23 1320.04 1055.56 1319.25 1056.46 C 1318.56 1057.24 1317.48 1057.52 1316.5 1057.18 C 1315.53 1056.84 1314.85 1055.94 1314.8 1054.9 C 1314.75 1053.87 1315.34 1052.91 1316.27 1052.48 z" fill="rgb(253,248,236)" transform="translate(0,0)"></path>
<path d="M 1316.25 1071.57 C 1317.31 1071.03 1318.61 1071.34 1319.31 1072.31 C 1320.02 1073.27 1319.92 1074.6 1319.08 1075.45 C 1318.4 1076.14 1317.38 1076.36 1316.48 1076.02 C 1315.58 1075.67 1314.97 1074.83 1314.92 1073.87 C 1314.87 1072.9 1315.39 1072 1316.25 1071.57 z" fill="rgb(253,248,236)" transform="translate(0,0)"></path>
<path d="M 1333.72 1091.4 C 1334.61 1090.54 1336.01 1090.53 1336.9 1091.38 C 1337.8 1092.22 1337.87 1093.62 1337.07 1094.55 C 1336.51 1095.19 1335.65 1095.48 1334.83 1095.3 C 1334 1095.11 1333.34 1094.49 1333.11 1093.68 C 1332.88 1092.86 1333.11 1091.99 1333.72 1091.4 z" fill="rgb(253,248,236)" transform="translate(0,0)"></path>
<path d="M 1352.37 1091.54 C 1353.03 1090.69 1354.19 1090.41 1355.16 1090.88 C 1356.13 1091.35 1356.63 1092.44 1356.37 1093.48 C 1356.14 1094.37 1355.4 1095.04 1354.49 1095.16 C 1353.57 1095.29 1352.68 1094.86 1352.21 1094.06 C 1351.75 1093.27 1351.81 1092.27 1352.37 1091.54 z" fill="rgb(253,248,236)" transform="translate(0,0)"></path>
<path d="M 1371.24 1091.55 C 1372.31 1090.94 1373.68 1091.31 1374.3 1092.38 C 1374.91 1093.45 1374.56 1094.82 1373.49 1095.45 C 1372.8 1095.86 1371.93 1095.87 1371.23 1095.46 C 1370.52 1095.06 1370.09 1094.31 1370.09 1093.5 C 1370.1 1092.69 1370.53 1091.95 1371.24 1091.55 z" fill="rgb(253,248,236)" transform="translate(0,0)"></path>
<path d="M 662.978 1196.01 L 881.069 1195.76 L 880.925 1231.9 L 662.897 1231.38 L 662.978 1196.01 z" fill="rgb(227,160,42)" transform="translate(0,0)"></path>
<path d="M 1255.33 1122.52 C 1296.52 1122.1 1337.71 1122 1378.91 1122.23 C 1397.88 1132.13 1395.24 1154.79 1373.25 1155.94 L 1292.99 1155.94 C 1280.63 1155.95 1264.26 1156.51 1252.1 1155.54 C 1230.04 1153.78 1228.67 1123.7 1255.33 1122.52 z" fill="rgb(227,160,42)" transform="translate(0,0)"></path>
<path d="M 957.954 1122.39 C 997.462 1124.91 1039.19 1121.24 1078.85 1123.14 C 1100.99 1124.2 1105 1152.53 1079.59 1155.19 C 1059.97 1154.8 955.45 1157.96 947.236 1152.96 C 943.919 1150.94 941.959 1146.6 941.095 1142.98 C 940.118 1138.88 939.876 1134.46 942.464 1130.9 C 946.298 1125.63 951.862 1123.56 957.954 1122.39 z" fill="rgb(138,90,134)" transform="translate(0,0)"></path>
<path d="M 1000.31 1157.51 C 1009.85 1156.85 1027.93 1157.19 1037.87 1157.46 C 1044.48 1181.39 1051.24 1208.02 1058.64 1231.52 C 1049.42 1233.27 989.13 1232.6 978.214 1231.53 C 985.917 1206.96 993.283 1182.28 1000.31 1157.51 z" fill="rgb(184,58,35)" transform="translate(0,0)"></path>
<path d="M 1333.92 1157.94 L 1361.36 1157.89 C 1363.42 1163.47 1365.37 1169.53 1367.32 1175.19 C 1374.07 1198.98 1381.07 1222.7 1388.3 1246.34 C 1390.11 1252.27 1401.04 1281.14 1397.9 1285.89 C 1390.4 1297.23 1378.96 1295.56 1369.78 1286.18 C 1358.97 1250.21 1348.84 1214.04 1339.41 1177.69 C 1337.66 1172.74 1335.4 1163.32 1333.92 1157.94 z" fill="rgb(227,160,42)" transform="translate(0,0)"></path>
<path d="M 1261.63 1158.06 L 1290.65 1158.02 L 1285.69 1176.75 C 1277.23 1208.27 1266.89 1239.15 1258.81 1270.77 C 1257.43 1276.15 1255.09 1286.89 1250.56 1290.08 C 1241.14 1297.43 1223.09 1291.46 1227.08 1277.72 C 1236.94 1243.81 1246.6 1208.45 1257.44 1174.92 C 1259.36 1168.56 1260.57 1164.57 1261.63 1158.06 z" fill="rgb(227,160,42)" transform="translate(0,0)"></path>
<path d="M 968.917 1158.05 C 978.542 1158.15 988.167 1158.14 997.792 1158.01 C 996.586 1162.4 993.533 1171.81 992.799 1175.94 L 970.741 1249.98 C 967.366 1261.32 964.587 1272.96 960.527 1284.04 C 957.267 1292.93 948.252 1294.15 940.095 1292.37 C 936.558 1290.34 935.06 1289.07 933.21 1285.36 L 932.771 1283.61 C 931.707 1281.36 931.602 1281.28 932.188 1278.93 C 943.455 1243.97 954.169 1208.83 964.327 1173.53 C 965.91 1168.39 967.448 1163.22 968.917 1158.05 z" fill="rgb(138,90,134)" transform="translate(0,0)"></path>
<path d="M 968.917 1158.05 C 978.542 1158.15 988.167 1158.14 997.792 1158.01 C 996.586 1162.4 993.533 1171.81 992.799 1175.94 C 990.174 1174.9 971.419 1174.64 964.327 1173.53 C 965.91 1168.39 967.448 1163.22 968.917 1158.05 z" fill="rgb(107,96,81)" transform="translate(0,0)"></path>
<path d="M 933.21 1285.36 C 936.118 1287.99 937.54 1289.35 940.095 1292.37 C 936.558 1290.34 935.06 1289.07 933.21 1285.36 z" fill="rgb(107,96,81)" transform="translate(0,0)"></path>
<path d="M 932.188 1278.93 C 932.637 1280.89 932.669 1281.6 932.771 1283.61 C 931.707 1281.36 931.602 1281.28 932.188 1278.93 z" fill="rgb(71,65,122)" transform="translate(0,0)"></path>
<path d="M 1039.74 1157.98 C 1048.93 1157.98 1058.13 1157.87 1067.32 1157.65 L 1072.77 1175.11 C 1080.33 1199.14 1087.62 1223.24 1094.66 1247.42 C 1097.64 1257.56 1101.6 1268.42 1103.67 1278.66 C 1106.59 1293.05 1091.54 1296.69 1080.71 1290.68 L 1079.59 1289.85 C 1073.53 1284.21 1070.16 1264.68 1067.61 1255.78 C 1059.93 1229.54 1052.48 1203.23 1045.26 1176.85 C 1043.5 1170.94 1041.36 1163.92 1039.74 1157.98 z" fill="rgb(138,90,134)" transform="translate(0,0)"></path>
<path d="M 1039.74 1157.98 C 1048.93 1157.98 1058.13 1157.87 1067.32 1157.65 L 1072.77 1175.11 C 1067.41 1175.12 1048.28 1173.78 1045.26 1176.85 C 1043.5 1170.94 1041.36 1163.92 1039.74 1157.98 z" fill="rgb(107,96,81)" transform="translate(0,0)"></path>
<path d="M 1259.57 160.367 C 1260.49 178.213 1259.85 202.074 1259.86 220.405 L 1259.93 330.654 C 1259.92 333.318 1260.24 337.649 1259.12 339.838 C 1258.56 338.824 1258.22 338.439 1257.93 337.345 C 1251.24 309.876 1234.57 280.052 1215.12 259.542 C 1225.43 228.775 1245.12 189.091 1259.57 160.367 z" fill="rgb(107,96,81)" transform="translate(0,0)"></path>
<path d="M 1271.36 1233.28 L 1353.18 1233.47 C 1355.69 1242.27 1360.24 1256.76 1361.66 1265.31 C 1359.09 1266.86 1358.79 1266.29 1355.25 1266.34 L 1262.16 1266.17 C 1265 1255.14 1268.07 1244.18 1271.36 1233.28 z" fill="rgb(253,248,236)" transform="translate(0,0)"></path>
<path d="M 514.46 762.015 C 535.536 761.954 556.827 761.769 577.893 761.967 C 577.864 771.478 578.512 799.299 577.334 806.884 C 556.902 806.681 536.468 806.706 516.037 806.96 L 515.96 787.026 C 514.676 777.608 514.722 771.443 514.46 762.015 z" fill="rgb(184,58,35)" transform="translate(0,0)"></path>
<path d="M 662.026 809.038 C 665.011 809.031 687.408 808.524 690.778 809.298 C 692.713 809.742 692.641 815.074 697.006 815.212 C 706.933 815.527 708.638 806.768 707.146 820.664 L 707.045 822.003 C 708.027 832.11 707.491 850.523 707.49 861.188 C 692.507 861.009 676.858 861.199 662.023 860.851 L 662.026 809.038 z" fill="rgb(184,58,35)" transform="translate(0,0)"></path>
<path d="M 707.045 822.003 C 700.523 822.116 668.252 822.807 663.375 821.381 L 663.328 821.232 C 664.752 819.279 702.898 819.675 707.146 820.664 L 707.045 822.003 z" fill="rgb(233,167,151)" transform="translate(0,0)"></path>
<path d="M 945.085 1016.55 C 989.014 1032.7 995.799 1086.33 961.791 1117.38 C 957.922 1119.88 950.526 1122.25 945.916 1123.92 L 945.926 1106.75 C 968.68 1085.53 964.923 1057.59 945.004 1036 L 945.085 1016.55 z" fill="rgb(138,90,134)" transform="translate(0,0)"></path>
<path d="M 503.933 809.061 L 589.192 809.048 L 589.057 835.156 L 503.963 835.253 L 503.933 809.061 z" fill="rgb(227,160,42)" transform="translate(0,0)"></path>
<path d="M 1292.52 1158.15 C 1298.5 1158.17 1304.48 1158.14 1310.46 1158.05 L 1310.18 1205.95 C 1306.18 1205.81 1302.19 1205.62 1298.2 1205.36 C 1298.18 1212.79 1298.83 1223.23 1297.72 1230.54 C 1297.61 1231.3 1292.65 1231 1292.25 1230.99 L 1272.03 1230.93 C 1277.21 1214.99 1289.59 1174.36 1292.52 1158.15 z" fill="rgb(184,58,35)" transform="translate(0,0)"></path>
<path d="M 935.329 1130.82 C 931.266 1127 930.365 1123.04 930.962 1117.52 C 932.664 1101.79 928.168 1026.33 932.682 1017.5 C 935.845 1015.32 938.917 1015.3 942.279 1017.37 C 947.795 1036 942.208 1106.13 942.566 1128.26 C 942.595 1130.07 938.372 1131.57 935.96 1131.11 L 935.329 1130.82 z" fill="rgb(138,90,134)" transform="translate(0,0)"></path>
<path d="M 1312.58 1158.14 C 1319.09 1158.19 1325.61 1158.18 1332.13 1158.09 C 1335.84 1173.64 1341.86 1190.61 1344.47 1206.02 C 1333.69 1205.96 1322.91 1205.95 1312.13 1206 C 1312.1 1190.03 1312.59 1174.16 1312.58 1158.14 z" fill="rgb(184,58,35)" transform="translate(0,0)"></path>
<path d="M 1300.74 1207.88 C 1315.52 1207.97 1330.46 1207.57 1345.24 1207.78 C 1347.19 1215.54 1349.37 1222.46 1351.6 1230.09 L 1351.86 1231 C 1334.87 1230.92 1317.88 1230.99 1300.89 1231.22 L 1300.74 1207.88 z" fill="rgb(184,58,35)" transform="translate(0,0)"></path>
<path d="M 945.944 1040.42 C 962.538 1052.41 961.199 1079 953.033 1095.67 L 952.682 1096.39 C 950.31 1099.35 948.23 1102.03 945.781 1104.95 C 946.035 1083.5 945.578 1061.69 945.944 1040.42 z" fill="rgb(184,58,35)" transform="translate(0,0)"></path>
<path d="M 844.566 800.198 C 851.056 800.005 849.263 799.692 854.698 802.967 C 854.715 809.644 855.401 808.438 851.421 813.856 C 839.511 812.315 848.653 813.589 844.566 800.198 z" fill="rgb(253,248,236)" transform="translate(0,0)"></path>
<path d="M 468.897 1233.23 C 452.487 1233.26 436.076 1233.18 419.666 1233 C 431.989 1227.88 485.883 1233.7 502.862 1230.83 L 502.89 1233.24 C 491.472 1233.05 480.32 1232.79 468.897 1233.23 z" fill="rgb(138,90,134)" transform="translate(0,0)"></path>
<metadata><recraft-signature>{"signed_by": "recraft", "signature_b64": "0q7zvXPnQ3uTaO3NyBNq+mNOad8xBF5CTzs6PRcSnrqBrT1NsbyOdROmBUFWCWMM7X5Sxk4Gbm9RO/ncDi00Bg==", "signing_algo": "Ed25519", "generation_timestamp": 1781422936, "identifier": "4c7d7ca4-5fda-4dac-9a4e-1b88d1a079b4"}</recraft-signature></metadata></svg>