<svg xmlns="http://www.w3.org/2000/svg" height="896" preserveAspectRatio="none" style="display: block;" version="1.1" viewBox="0 0 2048 1509" width="1216">
<path d="M 0 0 L 2048 0 L 2048 1509 L 0 1509 L 0 0 z" fill="rgb(253,248,236)" transform="translate(0,0)"></path>
<path d="M 695.175 273.1 L 1368.08 272.871 C 1369.82 380.492 1368.14 490.505 1368.05 598.31 L 1368.18 1240.22 C 1413.15 1240.57 1458.11 1240.53 1503.08 1240.09 L 1503.22 1117.82 L 1798.32 1117.89 L 1798.32 1242.87 L 1136.54 1243.18 L 901.773 1243.17 C 861.788 1243.16 814.25 1244.31 774.687 1242.76 L 773.453 1241.68 L 773.709 1242.28 L 774.33 1240.94 C 775.348 1241.03 774.847 1241.13 775.809 1240.54 L 773.256 1239.27 C 771.264 1238.59 769.918 1238.12 767.862 1237.63 C 732.528 1223.54 713.895 1206.09 700.33 1170.18 C 699.823 1167.58 699.442 1166.45 698.576 1163.98 C 697.777 1162.99 696.415 1162.43 695.223 1161.76 L 695.052 960.665 C 695.048 940.473 696.139 918.607 695.803 898.795 C 690.038 904.335 684.089 910.258 678.039 915.436 C 689.897 935.519 684.672 949.529 666.224 962.196 C 670.062 967.483 671.902 970.264 670.722 977.338 C 670.349 979.464 669.924 981.58 669.447 983.684 C 661.323 989.943 647.874 996.436 638.156 1000.33 C 639.177 1009.08 638.968 1012.04 633.21 1019.19 C 627.283 1026.56 617.463 1033.17 607.877 1033.9 C 596.38 1034.78 592.37 1028.35 586.076 1020.95 L 585.813 1038.26 C 581.394 1042.04 569.563 1052.28 563.34 1049.27 C 547.844 1041.77 547.331 1051.67 533.367 1036.78 C 522.448 1043.18 515.275 1045.86 502.643 1048.13 C 509.186 1054.57 515.603 1061.08 522.622 1066.99 C 512.942 1075.84 503.47 1084.9 494.214 1094.19 C 499.406 1100.85 507.624 1108.78 513.934 1114.32 C 488.725 1138.23 464.018 1162.69 438.695 1186.41 L 320.842 1071.72 C 308.014 1059.22 281.261 1031.32 268.283 1020.77 L 343.364 949.608 L 352.89 959.491 C 362.312 950.233 371.728 940.807 381.545 931.981 C 389 939.847 396.399 946.688 404.338 954.072 C 445.834 919.199 488.604 884.898 531.111 851.279 C 546.544 839.072 570.739 842.708 589.407 842.189 C 618.449 841.381 648.332 843.182 677.351 841.805 C 681.045 838.434 685.678 833.946 689.654 831.166 C 662.682 775.085 663.494 726.074 695.764 672.174 C 694.041 635.023 695.649 592.435 695.437 554.805 L 695.175 273.1 z" fill="rgb(10,7,8)" transform="translate(0,0)"></path>
<path d="M 803.48 1240.18 C 682.285 1241.03 657.171 1073.57 778.12 1046.22 C 793.955 1042.64 822.824 1044.13 839.605 1044.12 L 938.572 1044.14 L 1149.37 1044.13 C 1186.39 1044.13 1223.46 1044.04 1260.45 1044.26 C 1291.28 1044.29 1319.12 1050.59 1341.04 1073.74 C 1379.09 1113.94 1370.16 1175.13 1330.07 1210.36 C 1308.94 1228.93 1280.26 1242.2 1251.52 1240.16 C 1244.13 1241.52 1210.91 1240.98 1201.76 1240.99 L 1094.38 1241.07 L 900.974 1240.97 L 841.198 1240.98 C 829.975 1240.97 814.163 1241.32 803.48 1240.18 z" fill="rgb(107,96,81)" transform="translate(0,0)"></path>
<path d="M 958.744 843.956 L 1182.09 843.891 L 1241.88 843.919 C 1256.27 843.936 1275.63 842.884 1289.2 846.094 C 1334.38 856.782 1364.93 890.981 1365.27 937.919 C 1365.62 987.343 1327.58 1027.31 1281.05 1038.09 C 1256.85 1043.7 1220.6 1041.35 1195.08 1041.34 L 1070.5 1041.33 L 879.158 1041.3 C 868.334 1041.3 857.45 1041.48 846.631 1041.31 C 807.667 1040.69 773.309 1046.5 739.432 1022.31 C 717.794 1007.17 703.312 983.815 699.365 957.7 C 693.838 922.061 705.144 901.202 725.01 874.155 C 774.151 911.419 834.264 921.854 891.614 897.204 C 921.826 884.219 938.082 868.358 958.744 843.956 z" fill="rgb(138,90,134)" transform="translate(0,0)"></path>
<path d="M 673.725 750.223 C 676.662 665.934 749.738 601.341 832.789 604.344 C 875.388 605.845 915.657 624.163 944.781 655.288 C 1002.29 717.457 995.306 810.955 933.305 867.193 C 902.386 895.415 861.41 910.005 819.612 907.675 C 777.771 905.321 738.585 886.421 710.693 855.144 C 689.044 830.989 674.84 796.254 673.716 763.771 C 672.412 761.621 672.488 752.382 673.725 750.223 z" fill="rgb(138,90,134)" transform="translate(0,0)"></path>
<path d="M 673.716 763.771 C 672.412 761.621 672.488 752.382 673.725 750.223 C 673.958 752.71 673.958 761.251 673.716 763.771 z" fill="rgb(50,39,73)" transform="translate(0,0)"></path>
<path d="M 819.43 636.431 C 885.724 631.475 943.432 681.317 948.176 747.626 C 952.92 813.935 902.895 871.484 836.57 876.016 C 770.545 880.528 713.312 830.777 708.59 764.766 C 703.867 698.756 753.435 641.364 819.43 636.431 z" fill="rgb(10,7,8)" transform="translate(0,0)"></path>
<path d="M 836.255 648.501 C 844.336 648.292 854.287 647.936 862.231 647.949 C 879.461 647.976 901.657 663.529 913.265 675.362 C 935.409 697.622 947.441 727.997 946.547 759.382 C 945.917 792.802 932.407 818.991 908.611 841.974 C 879.129 842.068 849.648 841.907 820.169 841.491 C 788.374 841.36 772.606 843.143 741.585 836.024 C 721.726 814.314 710.587 786.032 710.307 756.611 C 710.193 725.576 722.431 695.772 744.321 673.773 C 775.74 642.516 795.354 648.444 836.255 648.501 z" fill="rgb(63,155,120)" transform="translate(0,0)"></path>
<path d="M 873.016 707.713 C 876.065 709.431 885.245 720.457 888.039 723.664 C 868.165 743.618 847.969 763.247 827.459 782.546 C 820.955 776.458 814.074 769.353 807.689 763.033 C 802.876 758.18 797.711 753.363 792.762 748.623 C 798.383 743.83 803.573 738.643 808.861 733.488 C 816.269 739.461 821.607 745.13 827.688 752.297 C 841.791 737.178 858.345 723.005 873.016 707.713 z" fill="rgb(10,7,8)" transform="translate(0,0)"></path>
<path d="M 872.162 712.53 C 875.566 713.489 881.473 720.661 884.164 723.606 C 867.39 740.114 844.899 763.25 827.264 778.168 C 822.323 773.814 815.176 766.355 810.304 761.544 L 797.195 748.609 L 809.283 737.394 C 816.567 743.878 821.573 749.124 827.113 757.112 C 840.455 742.663 857.864 726.644 872.162 712.53 z" fill="rgb(63,155,120)" transform="translate(0,0)"></path>
<path d="M 778.764 843.452 C 818.83 842.257 865.524 844.05 906.317 844.108 C 895.236 853.052 886.659 857.813 873.773 863.402 C 863.482 867.425 852.727 870.142 841.76 871.49 C 808.466 875.381 778.005 866.172 751.883 845.391 C 761.325 844.455 769.275 843.728 778.764 843.452 z" fill="rgb(63,155,120)" transform="translate(0,0)"></path>
<path d="M 796.422 644.3 C 818.128 639.25 833.163 638.433 854.895 643.515 C 856.738 643.891 857.904 644.113 859.689 644.756 L 859.449 644.692 L 860.718 645.431 L 860.745 645.512 C 859.669 646.338 844.923 645.931 842.672 645.87 C 828.854 646.733 812.032 645.29 798.543 646.506 L 796.422 644.3 z" fill="rgb(63,155,120)" transform="translate(0,0)"></path>
<path d="M 744.773 839.201 C 748.61 839.87 756.043 840.291 758.244 842.551 C 750.014 843.502 750.778 845.357 744.773 839.201 z" fill="rgb(63,155,120)" transform="translate(0,0)"></path>
<path d="M 796.422 644.3 L 798.543 646.506 C 797.19 646.692 792.301 647.708 791.373 646.427 C 791.297 645.012 795.487 644.511 796.422 644.3 z" fill="rgb(107,96,81)" transform="translate(0,0)"></path>
<path d="M 943.011 649.067 C 966.431 648.282 994.112 648.914 1017.74 648.919 L 1159.84 648.977 L 1235.21 649.024 C 1250.65 649.035 1274.26 647.784 1288.8 650.965 C 1372.01 669.165 1393.76 775.569 1322.3 824.861 C 1291.87 843.974 1272.14 841.454 1238.05 841.375 L 1176.7 841.266 L 960.594 841.259 C 1001.95 777.61 993.222 704.812 943.011 649.067 z" fill="rgb(63,155,120)" transform="translate(0,0)"></path>
<path d="M 1259.48 713.877 C 1272.14 711.02 1285.35 715.183 1294.08 724.777 C 1302.81 734.371 1305.71 747.917 1301.67 760.244 C 1297.64 772.572 1287.29 781.779 1274.57 784.353 C 1255.22 788.272 1236.32 775.886 1232.18 756.576 C 1228.05 737.266 1240.22 718.226 1259.48 713.877 z" fill="rgb(10,7,8)" transform="translate(0,0)"></path>
<path d="M 1264.21 715.86 C 1282.38 714.093 1298.59 727.255 1300.59 745.396 C 1302.6 763.538 1289.65 779.92 1271.53 782.16 C 1259.6 783.635 1247.8 778.578 1240.64 768.922 C 1233.49 759.266 1232.08 746.505 1236.96 735.52 C 1241.83 724.534 1252.25 717.024 1264.21 715.86 z" fill="rgb(207,107,52)" transform="translate(0,0)"></path>
<path d="M 1086.47 707.748 C 1090.01 708.616 1098.83 719.7 1101.81 723.086 C 1082.4 742.921 1060.4 762.785 1040.39 782.888 C 1034.4 776.428 1028.36 770.011 1022.27 763.637 C 1017.36 758.38 1012.25 753.302 1006.97 748.414 L 1022.63 733.782 C 1029.01 739.359 1035.04 746.246 1040.81 752.512 C 1055.9 738.648 1070.99 722.156 1086.47 707.748 z" fill="rgb(10,7,8)" transform="translate(0,0)"></path>
<path d="M 1086.17 711.536 C 1088.98 712.517 1095.53 720.011 1098.02 722.631 L 1040.38 778.686 C 1035.3 772.798 1028.18 765.801 1022.64 760.081 L 1011.15 748.433 L 1022.83 737.893 L 1040.77 756.515 C 1056.03 741.655 1071.17 726.662 1086.17 711.536 z" fill="rgb(63,155,120)" transform="translate(0,0)"></path>
<path d="M 1194.07 707.568 C 1197.36 709.024 1206.49 719.793 1209.4 723.051 C 1191.78 741.356 1167.02 765.023 1148.26 782.132 L 1131.33 765.277 L 1114.62 748.003 C 1120.71 743.004 1125.61 738.679 1131.37 733.356 C 1137.04 739.861 1143.2 746.021 1149.22 752.205 C 1164.21 737.399 1179.49 722.752 1194.07 707.568 z" fill="rgb(10,7,8)" transform="translate(0,0)"></path>
<path d="M 1193.88 711.867 C 1196.93 714.28 1202.61 720.032 1205.63 722.924 C 1187.05 740.604 1166.94 761.538 1148.07 778.289 C 1142.42 772.088 1135.57 765.372 1129.64 759.331 L 1118.28 747.886 L 1131.19 737.701 L 1149.09 756.483 C 1163.66 741.477 1179.12 726.968 1193.88 711.867 z" fill="rgb(63,155,120)" transform="translate(0,0)"></path>
<path d="M 698.073 458.893 L 1365.82 459.024 L 1365.61 549.069 C 1275.84 547.958 1183.75 549.016 1093.79 549.043 L 698.114 549.088 L 698.073 458.893 z" fill="rgb(227,160,42)" transform="translate(0,0)"></path>
<path d="M 698.286 551.418 C 757.978 550.112 822.592 551.65 882.859 551.542 L 1365.54 551.395 L 1365.33 646.142 L 1325.21 646.113 C 1196.99 646.867 1068.59 644.991 940.324 646.608 C 921.39 630.993 907.752 620.431 884.364 611.884 C 823.323 589.578 764.027 604.568 716.379 646.437 C 710.4 646.135 704.076 646.143 698.064 646.051 L 698.286 551.418 z" fill="rgb(207,107,52)" transform="translate(0,0)"></path>
<path d="M 1024.95 279.431 C 1026.06 279.348 1027.17 279.284 1028.29 279.239 C 1072.05 277.415 1123.08 297.618 1154.44 327.705 C 1192.69 364.403 1207.78 405.141 1209.74 456.794 C 1154.57 455.497 1095 456.717 1039.5 456.804 L 852.953 456.8 C 852.338 413.928 867.859 372.391 896.439 340.428 C 930.66 301.714 973.893 282.529 1024.95 279.431 z" fill="rgb(227,160,42)" transform="translate(0,0)"></path>
<path d="M 1058.61 275.99 C 1160.99 274.934 1263.38 274.734 1365.77 275.389 C 1365.9 335.079 1366.83 397.439 1365.79 456.865 C 1315.27 456.828 1262.58 455.996 1212.29 456.819 C 1211.51 407.351 1194.71 363.14 1158.83 328.292 C 1131.47 302.056 1096.73 284.836 1059.28 278.951 C 1055.28 278.58 1049.13 278.183 1045.39 277.303 L 1046.12 276.378 L 1058.61 275.99 z" fill="rgb(184,58,35)" transform="translate(0,0)"></path>
<path d="M 881.547 275.066 C 899.363 273.354 929.9 275.083 948.745 274.482 C 956.591 274.232 1004.69 274.494 1011 275.799 C 1013.5 276.002 1015.2 275.693 1016.97 276.9 C 1012.17 278.012 1008.29 278.338 1003.4 278.839 C 914.481 294.05 850.342 366.056 849.768 456.909 C 799.865 456.719 747.86 455.729 698.112 456.571 L 698.034 275.193 C 759.151 274.816 820.353 276.006 881.547 275.066 z" fill="rgb(184,58,35)" transform="translate(0,0)"></path>
<path d="M 881.547 275.066 C 899.363 273.354 929.9 275.083 948.745 274.482 C 956.591 274.232 1004.69 274.494 1011 275.799 C 1008.49 276.12 1003.79 276 1001.1 276.018 L 925.039 275.72 C 911.995 275.67 894.253 276.113 881.547 275.066 z" fill="rgb(70,19,6)" transform="translate(0,0)"></path>
<path d="M 552.76 845.232 C 564.605 844.311 584.535 844.887 596.989 844.895 C 622.864 844.957 648.739 844.879 674.614 844.663 C 664.593 854.156 653.324 865.805 641.101 872.074 C 626.126 879.756 609.181 887.095 593.515 893.136 C 589.513 902.564 581.725 913.879 576.059 922.627 C 569.817 924.157 540.802 930.76 537.074 932.633 C 546.491 933.507 560.813 929.065 570.433 926.761 C 589.114 922.289 607.854 918.066 626.647 914.091 C 636.232 912.024 646.063 909.403 655.835 908.587 C 675.475 906.884 687.527 930.44 678.797 946.448 C 670.271 962.084 641.573 966.308 625.244 971.412 C 616.976 974.187 588.033 982.991 582.694 987.356 C 552.195 1012.29 544.491 1040.43 499.328 1044.97 C 490.662 1035.67 477.036 1023.37 467.569 1014.33 L 406.648 956.198 C 429.061 936.177 453.081 917.684 476.34 898.506 C 495.677 882.563 515.482 865.439 536.18 851.254 C 541.421 847.662 546.609 846.436 552.76 845.232 z" fill="rgb(253,248,236)" transform="translate(0,0)"></path>
<path d="M 343.472 953.036 C 392.714 1003.64 448.051 1051.74 497.608 1101.99 C 499.42 1103.05 507.892 1111.67 509.53 1113.73 C 509.397 1115.82 445.665 1176.54 438.488 1182.95 L 271.947 1020.22 C 294.982 1000.03 321.094 974.366 343.472 953.036 z" fill="rgb(138,90,134)" transform="translate(0,0)"></path>
<path d="M 497.608 1101.99 C 499.42 1103.05 507.892 1111.67 509.53 1113.73 C 506.435 1111.53 499.448 1105.13 497.608 1101.99 z" fill="rgb(107,96,81)" transform="translate(0,0)"></path>
<path d="M 381.306 935.89 C 427.321 978.539 472.947 1025.54 518.721 1067.17 C 509.739 1075.37 500.941 1083.76 492.332 1092.35 C 488.416 1089.77 465.315 1066.44 459.954 1061.38 C 424.724 1028.36 389.854 994.967 355.351 961.193 C 363.728 952.482 372.384 944.043 381.306 935.89 z" fill="rgb(227,160,42)" transform="translate(0,0)"></path>
<path d="M 1652.92 1181.47 C 1675.62 1181.31 1700.32 1181.18 1722.91 1181.61 L 1722.92 1240.22 C 1699.31 1240.51 1675.69 1240.51 1652.07 1240.21 C 1652.11 1232.84 1651.65 1184.23 1652.92 1181.47 z" fill="rgb(253,248,236)" transform="translate(0,0)"></path>
<path d="M 1669.25 1211.48 C 1676.03 1210.9 1694.13 1210.82 1701.81 1211.27 C 1702.41 1211.3 1702.55 1213.06 1702.62 1213.52 C 1695 1213.98 1678.34 1214.12 1670.4 1213.38 C 1669.68 1213.31 1669.44 1212.1 1669.25 1211.48 z" fill="rgb(107,96,81)" transform="translate(0,0)"></path>
<path d="M 1578.97 1181.62 L 1649.68 1181.69 L 1649.64 1240.08 C 1627.35 1241.01 1601.36 1240.37 1578.96 1240.36 L 1578.97 1181.62 z" fill="rgb(253,248,236)" transform="translate(0,0)"></path>
<path d="M 1595.22 1211.52 C 1601.8 1210.7 1627.04 1209.92 1632.18 1212.5 C 1626.68 1213.54 1600.16 1214.51 1595.22 1211.52 z" fill="rgb(34,27,24)" transform="translate(0,0)"></path>
<path d="M 1725.45 1181.71 L 1795.8 1181.59 L 1795.82 1240.17 C 1773.63 1240.61 1747.6 1240.87 1725.44 1240.2 C 1725.34 1220.71 1725.35 1201.21 1725.45 1181.71 z" fill="rgb(253,248,236)" transform="translate(0,0)"></path>
<path d="M 1742.53 1211.95 C 1750.6 1209.66 1766.89 1211.62 1775.7 1211.33 C 1776.83 1211.3 1777.64 1214.07 1774.03 1213.84 C 1764.84 1213.24 1751.94 1215.08 1743.07 1213.52 L 1742.53 1211.95 z" fill="rgb(107,96,81)" transform="translate(0,0)"></path>
<path d="M 1652.01 1120.62 C 1674.56 1120.23 1700.33 1120.2 1722.91 1120.6 L 1722.79 1178.94 C 1699.51 1179.35 1675.5 1178.83 1652.08 1179.04 L 1652.01 1120.62 z" fill="rgb(253,248,236)" transform="translate(0,0)"></path>
<path d="M 1669.25 1150.52 C 1675.24 1149.44 1698.26 1149.02 1703.7 1151.53 C 1698.04 1152.71 1673.98 1153.12 1669.25 1150.52 z" fill="rgb(10,7,8)" transform="translate(0,0)"></path>
<path d="M 1579.04 1120.37 L 1649.72 1120.62 L 1649.61 1178.99 C 1626.06 1178.89 1602.51 1178.93 1578.96 1179.11 C 1578.91 1160.88 1578.35 1138.25 1579.04 1120.37 z" fill="rgb(253,248,236)" transform="translate(0,0)"></path>
<path d="M 1597.91 1150.52 C 1604.29 1149.7 1626.75 1148.87 1631.71 1151.53 C 1625.91 1152.84 1603.37 1153.65 1597.91 1150.52 z" fill="rgb(10,7,8)" transform="translate(0,0)"></path>
<path d="M 1505.88 1181.72 C 1528.76 1181.42 1553.47 1181.51 1576.36 1181.71 L 1576.25 1240.28 C 1552.78 1240.45 1529.3 1240.46 1505.83 1240.29 L 1505.88 1181.72 z" fill="rgb(253,248,236)" transform="translate(0,0)"></path>
<path d="M 1524.3 1211.44 C 1528.95 1210.97 1550.96 1210.51 1556.88 1211.53 C 1557.25 1211.6 1557.42 1213.24 1557.46 1213.5 C 1552.13 1213.77 1526.13 1215.55 1524.3 1211.44 z" fill="rgb(107,96,81)" transform="translate(0,0)"></path>
<path d="M 1505.86 1120.28 C 1528.78 1120.15 1553.39 1119.91 1576.26 1120.35 L 1576.19 1179.02 C 1552.77 1178.95 1529.35 1179 1505.93 1179.16 C 1505.86 1160.3 1505.41 1138.93 1505.86 1120.28 z" fill="rgb(253,248,236)" transform="translate(0,0)"></path>
<path d="M 1524.12 1150.46 C 1530.07 1149.84 1549.44 1149.54 1556.31 1150.42 C 1556.64 1150.46 1556.62 1152.7 1556.61 1152.43 C 1548.25 1152.6 1534.01 1153.14 1525.35 1152.37 C 1524.6 1152.31 1524.34 1151.1 1524.12 1150.46 z" fill="rgb(34,27,24)" transform="translate(0,0)"></path>
<path d="M 1725.33 1120.48 L 1795.86 1120.2 C 1795.85 1139.68 1795.98 1159.4 1795.73 1178.87 L 1725.19 1179.09 C 1724.97 1161.17 1724.6 1138.15 1725.33 1120.48 z" fill="rgb(253,248,236)" transform="translate(0,0)"></path>
<path d="M 1743.36 1150.53 C 1748.88 1149.85 1774.11 1148.4 1777.36 1151.94 C 1772.29 1152.81 1746.7 1154.13 1743.36 1150.53 z" fill="rgb(34,27,24)" transform="translate(0,0)"></path>
<path d="M 690.711 833.755 C 692.076 835.159 696.505 841.634 698.002 843.679 C 706.005 854.611 711.026 861.279 721.556 869.985 C 706.888 885.187 691.068 898.974 676.323 914.328 C 673.995 912.435 671.551 910.688 669.005 909.099 C 658.456 902.627 645.156 907.254 633.991 909.962 C 622.687 912.298 611.406 914.745 600.15 917.304 C 629.27 893.865 661.305 857.376 690.711 833.755 z" fill="rgb(138,90,134)" transform="translate(0,0)"></path>
<path d="M 1364.55 965.65 C 1366.9 972.001 1365.66 1094.85 1364.9 1109.3 C 1356.27 1086.78 1349.37 1075.37 1330 1060.62 C 1312.88 1048.86 1296.4 1044.71 1276.3 1042.24 C 1318.68 1032.18 1349.45 1006.78 1364.55 965.65 z" fill="rgb(253,248,236)" transform="translate(0,0)"></path>
<path d="M 700.379 1108.91 L 699.549 1111.71 L 698.557 1111.97 C 697.066 1104.29 696.859 978.291 698.526 969.538 L 699.717 973.227 C 714.757 1012.02 740.583 1033.53 781.197 1042.88 C 751.593 1048.97 728.348 1062.59 711.371 1088.12 C 707.007 1094.66 703.323 1101.62 700.379 1108.91 z" fill="rgb(253,248,236)" transform="translate(0,0)"></path>
<path d="M 1362.24 778.853 L 1364.02 773.569 L 1364.9 773.665 L 1365.42 779.95 L 1365.56 901.945 C 1365.41 904.076 1365.56 908.532 1364.41 909.658 L 1362.07 903.751 C 1348.95 869.388 1319.9 850.288 1285.13 842.553 C 1322.71 833.309 1347.24 815.341 1362.24 778.853 z" fill="rgb(253,248,236)" transform="translate(0,0)"></path>
<path d="M 1364.83 1161.17 C 1366.2 1185.5 1365.48 1215.24 1365.57 1240.02 L 1324.51 1240.15 C 1310.98 1241.75 1295.56 1240.66 1281.86 1240.95 C 1279.96 1240.99 1281.69 1238.57 1285.29 1238.41 L 1289.67 1237.13 C 1328.02 1223.61 1351.54 1199.18 1364.83 1161.17 z" fill="rgb(253,248,236)" transform="translate(0,0)"></path>
<path d="M 1324.51 1240.15 C 1310.98 1241.75 1295.56 1240.66 1281.86 1240.95 C 1279.96 1240.99 1281.69 1238.57 1285.29 1238.41 C 1285.7 1240.92 1289.55 1240.16 1291.87 1240.35 C 1297.33 1239.58 1318.28 1239.83 1324.51 1240.15 z" fill="rgb(107,96,81)" transform="translate(0,0)"></path>
<path d="M 631.424 972.249 C 631.616 973.245 631.736 972.975 631.196 973.901 C 627.288 980.604 559.232 1043.15 554.711 1044.46 C 549.614 1045.94 546.069 1043.71 541.802 1041.29 L 536.137 1035.7 C 555.953 1021.51 567.288 1003.58 584.826 989.491 C 590.769 984.718 622.443 975.258 631.424 972.249 z" fill="rgb(138,90,134)" transform="translate(0,0)"></path>
<path d="M 1303.94 648.836 C 1323.86 649.353 1345.48 648.862 1365.49 648.868 C 1366.28 652.912 1366.44 716.923 1365.59 719.815 L 1365.38 719.99 C 1363.76 719.672 1363.62 716.078 1363.39 714.768 C 1352.88 681.624 1332.89 665.483 1302.16 651.828 L 1301.02 651.464 L 1299.86 651.12 C 1299.05 650.869 1297.11 650.332 1296.67 649.523 C 1297.47 648.719 1302.64 648.864 1303.94 648.836 z" fill="rgb(253,248,236)" transform="translate(0,0)"></path>
<path d="M 1365.49 648.868 C 1366.28 652.912 1366.44 716.923 1365.59 719.815 L 1365.38 719.99 C 1363.76 719.672 1363.62 716.078 1363.39 714.768 C 1363.46 714.754 1364.44 714.598 1364.45 714.484 C 1366.08 702.59 1364.32 658.146 1365.49 648.868 z" fill="rgb(107,96,81)" transform="translate(0,0)"></path>
<path d="M 618.147 990.788 C 620.816 992.315 626.7 1000.12 629.057 999.675 C 636.134 998.332 637.637 1006.01 635.498 1012.27 C 632.809 1020.14 617.132 1028.09 608.39 1031.72 C 587.157 1032.84 585.352 1015.15 601.912 1006.19 C 603.043 1005.58 616.097 992.684 618.147 990.788 z" fill="rgb(253,248,236)" transform="translate(0,0)"></path>
<path d="M 662.124 963.176 C 669.991 964.878 670.11 981.649 663.461 984.957 C 651.772 990.773 642.785 999.35 629.206 997.186 C 625.131 994.236 623.88 992.702 620.574 989.05 C 639.295 969.49 634.926 969.671 662.124 963.176 z" fill="rgb(253,248,236)" transform="translate(0,0)"></path>
<path d="M 639.475 876.077 C 640.266 876.441 640.048 876.267 640.318 876.563 C 640.286 877.511 599.331 914.596 595.477 917.945 C 593.934 919.286 584.68 920.766 581.484 921.326 C 580.792 920.742 580.981 920.973 580.75 920.607 C 580.752 920.569 594.354 897.744 595.582 895.614 C 606.361 890.013 627.543 881.237 639.475 876.077 z" fill="rgb(253,248,236)" transform="translate(0,0)"></path>
<path d="M 583.018 1024.07 C 584.729 1026.19 583.774 1035.14 582.32 1037.28 C 578.366 1043.09 569.96 1046.05 563.489 1047.94 C 563.198 1047.39 561.672 1044.9 562.057 1044.44 C 567.123 1038.31 577.347 1029.14 583.018 1024.07 z" fill="rgb(253,248,236)" transform="translate(0,0)"></path>
<path d="M 712.708 882.551 L 714.096 884.108 C 706.198 896.008 705.195 898.244 700.346 910.852 C 699.857 912.954 699.931 913.483 698.556 915.02 C 697.236 913.36 698.134 898.577 698.834 895.797 C 703.511 890.954 708.049 887.131 712.708 882.551 z" fill="rgb(253,248,236)" transform="translate(0,0)"></path>
<path d="M 698.001 648.907 C 703.368 648.882 708.735 648.943 714.1 649.092 C 711.181 652.572 708.207 656.003 705.177 659.386 C 702.536 662.796 701.005 664.547 698.09 667.839 C 698.012 661.528 697.982 655.218 698.001 648.907 z" fill="rgb(253,248,236)" transform="translate(0,0)"></path>
<path d="M 712.708 882.551 C 715.136 879.112 721.631 872.878 724.687 870.012 C 721.233 875.031 718.167 879.507 714.096 884.108 L 712.708 882.551 z" fill="rgb(181,179,170)" transform="translate(0,0)"></path>
<path d="M 695.223 1161.76 C 696.415 1162.43 697.777 1162.99 698.576 1163.98 C 699.442 1166.45 699.823 1167.58 700.33 1170.18 C 713.895 1206.09 732.528 1223.54 767.862 1237.63 C 769.918 1238.12 771.264 1238.59 773.256 1239.27 L 775.809 1240.54 C 774.847 1241.13 775.348 1241.03 774.33 1240.94 L 773.709 1242.28 L 773.453 1241.68 L 774.687 1242.76 C 760.869 1243.39 741.32 1242.73 727.114 1242.72 L 642.13 1242.97 C 589.429 1243.06 527.675 1244.66 475.96 1242.63 C 474.765 1242.39 474.67 1242.47 473.675 1241.81 L 473.468 1240.85 C 476.288 1239.7 675.645 1240.11 695.662 1240.01 C 695.141 1214.44 695.432 1187.51 695.223 1161.76 z" fill="rgb(253,248,236)" transform="translate(0,0)"></path>
<path d="M 695.223 1161.76 C 696.415 1162.43 697.777 1162.99 698.576 1163.98 C 699.442 1166.45 699.823 1167.58 700.33 1170.18 C 697.088 1176.4 699.916 1226.86 698.594 1239.82 C 710.982 1240.38 743.704 1240.69 755.639 1239.88 C 762.02 1240.16 766.951 1240.42 773.256 1239.27 L 775.809 1240.54 C 774.847 1241.13 775.348 1241.03 774.33 1240.94 L 773.709 1242.28 L 773.453 1241.68 L 774.687 1242.76 C 760.869 1243.39 741.32 1242.73 727.114 1242.72 L 642.13 1242.97 C 589.429 1243.06 527.675 1244.66 475.96 1242.63 C 474.765 1242.39 474.67 1242.47 473.675 1241.81 L 473.468 1240.85 C 476.288 1239.7 675.645 1240.11 695.662 1240.01 C 695.141 1214.44 695.432 1187.51 695.223 1161.76 z" fill="rgb(34,27,24)" transform="translate(0,0)"></path>
<path d="M 698.576 1163.98 C 699.442 1166.45 699.823 1167.58 700.33 1170.18 C 697.088 1176.4 699.916 1226.86 698.594 1239.82 C 697.594 1233.34 697.867 1170.49 698.576 1163.98 z" fill="rgb(181,179,170)" transform="translate(0,0)"></path>
<path d="M 473.675 1241.81 C 474.968 1241.96 474.869 1241.94 475.96 1242.63 C 474.765 1242.39 474.67 1242.47 473.675 1241.81 z" fill="rgb(107,96,81)" transform="translate(0,0)"></path>
<path d="M 1516.52 270.383 C 1518.12 271.543 1517.57 271.135 1518.64 273.003 C 1519.75 291.09 1519.02 314.352 1518.99 332.779 L 1518.92 435.479 L 1518.96 655.484 C 1518.97 667.172 1520.24 737.915 1517.74 745.234 L 1516.63 743.952 C 1515.54 737.773 1515.99 700.238 1515.99 691.771 L 1516 573.354 L 1515.97 367.224 L 1515.99 306.268 C 1516 295.648 1515.58 280.666 1516.52 270.383 z" fill="rgb(34,27,24)" transform="translate(0,0)"></path>
<path d="M 544.64 270.327 C 547.685 273.913 546.421 319.12 546.411 326.81 L 546.289 436.811 C 546.209 538.383 547.505 641.337 546.273 742.748 L 545.732 743.177 L 544.577 742.94 C 543.475 737.95 543.812 700.695 543.795 693.682 L 543.774 563.78 L 543.747 358.632 L 543.732 302.447 C 543.734 294.278 543.323 277.533 544.64 270.327 z" fill="rgb(10,7,8)" transform="translate(0,0)"></path>
<path d="M 1669.8 820.89 C 1670.53 821.887 1670.2 821.581 1670.27 823.243 C 1663 832.096 1646.93 847.077 1638.3 855.689 L 1580.34 913.798 C 1529.98 964.112 1477.37 1018.96 1426.02 1068.05 L 1425.25 1067.14 C 1425.58 1063.16 1458.04 1032.61 1463.2 1027.44 L 1545.19 945.268 C 1585.08 905.292 1629 859.219 1669.8 820.89 z" fill="rgb(10,7,8)" transform="translate(0,0)"></path>
<metadata><recraft-signature>{"signed_by": "recraft", "signature_b64": "GknfcnVMq0C2Ksc95USOmRCBCrQCgfAwY6KAQqu1LaBT9eaUGXtoMjc5botukx4+YzB/iR+ml0+QIpaKyYRjCQ==", "signing_algo": "Ed25519", "generation_timestamp": 1781422940, "identifier": "b2bb49a8-dd24-4cca-b77e-0b99a230ba04"}</recraft-signature></metadata></svg>