<svg xmlns="http://www.w3.org/2000/svg" height="896" preserveAspectRatio="none" style="display: block;" version="1.1" viewBox="0 0 2048 1509" width="1216">
<path d="M 0 0 L 2048 0 L 2048 1509 L 0 1509 L 0 0 z" fill="rgb(253,248,236)" transform="translate(0,0)"></path>
<path d="M 1608.54 405.412 L 1610.65 403.145 C 1614.33 402.231 1614.78 402.527 1618.62 403.34 L 1636.7 407.355 L 1638.06 405.811 C 1652.69 409.925 1668.53 422.648 1677.52 434.818 C 1690.69 453.995 1696.44 473.662 1691.95 497.033 C 1688.01 517.472 1675.94 535.44 1658.52 546.836 C 1652.15 551.055 1645.98 553.812 1638.91 556.551 C 1637.46 560.732 1637.96 568.403 1638.01 573.165 C 1638.63 589.262 1638.04 605.603 1638.24 621.725 C 1638.37 632.165 1639.77 632.765 1629.21 631.876 C 1622.54 632.001 1614.64 631.942 1608.07 632.377 L 1608.2 1078.85 C 1608.16 1159.17 1606.66 1245.03 1608.32 1325 C 1623.16 1324.99 1760.85 1324.15 1764.07 1325.68 C 1754.97 1327.62 1729.82 1326.79 1718.99 1326.77 L 1646.95 1326.95 L 1305.55 1326.82 C 1288.19 1327.79 1261.49 1326.89 1243.55 1326.88 L 1124.13 1327.11 C 1046.97 1328.61 964.891 1327.53 887.58 1326.93 C 800.961 1326.25 713.3 1327.93 627.023 1326.86 C 603.191 1328.14 567.378 1326.89 542.57 1326.76 C 540.389 1326.18 537.307 1325.95 534.975 1325.7 C 530.899 1325.74 521.838 1326.45 518.545 1325.02 C 516.663 1324.21 516.197 1323.59 513.539 1323.33 C 507.968 1321.4 503.929 1319.73 498.897 1316.64 C 492.988 1314.58 482.791 1306.24 478.297 1301.72 C 449.049 1272.27 455.713 1228.35 455.323 1190.45 C 455.038 1162.84 454.718 1134.41 455.417 1106.85 C 450.175 1105.21 444.62 1104.32 439.949 1101.48 C 420.916 1089.92 419.548 1074.19 430.939 1056.63 C 431.955 1055.44 432.98 1054.28 434.097 1053.18 C 437.78 1049.65 442.432 1047.3 447.458 1046.43 C 458.044 1044.49 492.458 1045.23 504.877 1045.25 L 609.621 1045.22 L 609.731 1005.7 C 605.594 1001.39 604.084 997.394 599.433 993.056 L 601.147 991.523 L 609.12 1001.79 C 609.023 989.661 608.276 960.959 609.664 950.651 L 611.518 950.349 C 611.525 966.849 611.2 985.136 611.731 1001.47 C 614.686 997.773 617.668 994.096 620.677 990.441 C 618.375 966.762 640.575 910.369 655.224 889.952 C 693.796 836.188 742.717 796.086 808.22 783.511 C 808.034 712.978 808.282 642.444 808.964 571.914 C 808.978 566.587 808.829 561.261 808.519 555.943 C 781.109 549.722 759.317 522.638 754.297 495.686 C 750.444 474.956 755.16 453.549 767.369 436.358 C 776.655 423.2 794.212 408.377 810.427 405.61 L 811.134 407.48 C 818.085 405.405 827.09 404.395 834.352 404.155 L 835.867 405.854 C 841.627 403.185 871.533 402.668 876.734 404.527 C 877.837 404.927 878.892 405.451 879.879 406.086 L 881.929 404.656 C 885.614 402.491 896.535 405.314 900.725 406.485 L 901.725 404.636 C 916.658 408.835 926.19 414.674 937.87 425.136 L 993.512 424.883 C 1077.43 422.187 1162.77 425.713 1246.86 424.33 C 1262.08 424.079 1278.29 424.043 1293.5 424.763 C 1314.11 425.771 1344.09 424.892 1365.41 424.904 L 1508.96 424.98 C 1517.66 417.548 1533.19 406.672 1544.99 405.853 L 1550.18 405.94 C 1555.39 405.13 1561.7 403.843 1566.82 404.367 L 1569.24 406.315 C 1575.43 402.155 1601.64 402.722 1608.54 405.412 z" fill="rgb(30,22,18)" transform="translate(0,0)"></path>
<path d="M 1295.06 426.409 C 1316.26 427.405 1342.49 426.717 1364.11 426.802 L 1507.01 427.09 C 1497.54 437.423 1491.24 447.728 1487.62 461.4 C 1482.1 482.147 1485.1 504.242 1495.96 522.765 C 1504.39 536.893 1521.44 551.973 1537.48 555.899 L 1539.69 557.249 C 1537.71 579.439 1539.45 609.376 1539.13 632.168 C 1545.35 632.154 1583.92 631.729 1587.53 632.745 C 1588.11 634.056 1588.84 634.9 1587.98 635.739 C 1580.59 642.993 1582.85 647.819 1581.14 656.842 C 1578.66 669.876 1576.52 683.396 1573.28 696.067 L 1600 695.757 L 1602.11 694.689 C 1603.66 686.418 1595.39 653.671 1595.48 643.784 C 1595.5 640.868 1590.81 639.176 1590.14 633.088 C 1592.49 631.814 1601.76 632.376 1605.17 632.393 C 1605.55 653.357 1605.8 674.322 1605.94 695.289 L 1606.2 1324.97 L 1459.63 1324.99 C 1435.04 1324.98 1408.43 1325.46 1384.02 1324.84 C 1358.13 1326.97 1328.57 1324.06 1302.33 1325.23 C 1298.92 1325.38 1297.31 1325.58 1295.05 1323.27 L 1295.09 1322.25 C 1294.38 1313.58 1294.81 1299.8 1294.84 1290.54 C 1294.89 1272.38 1294.76 1252.59 1295.86 1234.49 C 1295.01 1224.79 1295.73 1199.66 1295.75 1189.38 C 1296.02 1156.06 1295.92 1122.75 1295.46 1089.43 C 1311.71 1088.81 1334.86 1085.94 1351.36 1083.96 C 1349.13 1071.93 1347.79 1054.26 1345.96 1041.41 C 1355.27 1038.58 1361.32 1036.4 1370.31 1032.68 L 1372.81 1044.99 L 1398.86 1036 C 1400.76 1042.85 1403.01 1049.57 1405.29 1056.29 C 1419.46 1098.06 1458.2 1117.11 1499.82 1101.63 C 1488.01 1056.33 1473.64 1011.25 1460.68 966.238 C 1455.02 946.57 1449.13 926.619 1442.98 907.111 C 1424.79 912.441 1408.31 916.983 1390.22 922.872 C 1373.95 928.164 1351.67 936.094 1335.32 939.788 C 1334.77 932.696 1333.73 925.867 1332.73 918.836 C 1321.41 923.55 1307.61 928.252 1295.95 932.559 L 1295.06 426.409 z" fill="rgb(184,58,35)" transform="translate(0,0)"></path>
<path d="M 1340 1196.93 C 1413.31 1198.56 1492.43 1197.54 1566.17 1197.57 L 1566.51 1224.4 C 1561.55 1225.09 1554.6 1225.02 1549.55 1225.04 C 1479.73 1225.28 1409.82 1224.26 1340 1225.01 L 1340 1196.93 z" fill="rgb(68,24,17)" transform="translate(0,0)"></path>
<path d="M 1342.32 1199.24 L 1490.68 1199.12 C 1513.17 1199.14 1542.07 1200.26 1563.74 1199.1 C 1563.86 1206.67 1563.71 1214.54 1563.67 1222.14 L 1342.43 1222.67 L 1342.32 1199.24 z" fill="rgb(184,58,35)" transform="translate(0,0)"></path>
<path d="M 1537.31 856.726 C 1556.54 855.137 1573.49 869.227 1575.45 888.415 C 1577.41 907.602 1563.65 924.828 1544.51 927.157 C 1531.79 928.704 1519.23 923.26 1511.66 912.921 C 1504.09 902.582 1502.7 888.962 1508.02 877.307 C 1513.34 865.652 1524.54 857.781 1537.31 856.726 z" fill="rgb(35,11,9)" transform="translate(0,0)"></path>
<path d="M 1533.49 859.702 C 1551.39 855.96 1568.92 867.481 1572.59 885.396 C 1576.25 903.312 1564.66 920.794 1546.73 924.383 C 1528.9 927.951 1511.55 916.44 1507.91 898.632 C 1504.26 880.825 1515.7 863.422 1533.49 859.702 z" fill="rgb(184,58,35)" transform="translate(0,0)"></path>
<path d="M 993.512 424.883 C 1077.43 422.187 1162.77 425.713 1246.86 424.33 C 1262.08 424.079 1278.29 424.043 1293.5 424.763 C 1291.89 541.052 1293.07 661.927 1293.28 778.547 L 1293.74 882.381 C 1293.77 895.799 1294.44 920.594 1293.48 933.01 C 1270.92 941.218 1242.07 949.785 1220.95 958.745 C 1214.27 921.506 1205.82 883.942 1199.48 846.596 C 1197.85 831.963 1191.54 813.014 1190.95 798.712 C 1189.65 767.12 1189.31 733.584 1190.07 701.96 C 1190.94 665.538 1186.8 650.406 1175.91 616.658 C 1170.3 617.094 1165.29 617.53 1159.72 618.286 C 1159.67 610.497 1159.98 593.761 1159.02 586.718 C 1158.75 583.826 1158.79 581.072 1158.69 578.174 C 1164.58 575.442 1175.15 568.719 1177.03 561.65 C 1180.41 548.934 1164.39 535.972 1159.64 524.503 C 1154.57 516.388 1141.89 509.447 1133.18 507.801 C 1103.68 502.223 1078.67 524.664 1073.01 551.948 C 1072.84 554.784 1072.73 559.548 1072.26 562.177 C 1076.5 578.659 1081.13 588.783 1096.39 597.688 C 1102.18 601.064 1104.06 602.35 1111.04 602.134 L 1112.33 603.413 C 1110.51 605.915 1109.41 605.884 1106.25 606.843 C 1102.18 611.749 1105.56 617.513 1102.35 621.384 C 1096.41 628.545 1090.16 635.619 1084.24 642.825 C 1072.28 657.563 1060.54 672.477 1049.03 687.563 C 1045.96 677.587 1026.86 611.798 1022.18 609.121 C 1021.1 608.501 1019.71 608.139 1018.52 607.776 C 1015.19 602.623 1012.37 589.479 1009.39 582.746 C 1008.8 580.388 1008.67 581.501 1009.88 579.311 C 1010.01 576.684 1010.32 573.828 1010.54 571.185 C 1005.52 558.43 1004.21 536.575 994.907 529.164 C 994.896 514.919 995.182 497.217 993.106 483.349 C 992.466 468.73 992.188 445.091 993.058 430.644 C 993.56 429.385 993.465 426.424 993.512 424.883 z" fill="rgb(107,96,81)" transform="translate(0,0)"></path>
<path d="M 807.911 874.762 L 807.991 1324.49 L 700.623 1324.5 C 742.066 1309.38 762.819 1280.57 762.491 1236.27 C 762.253 1204.14 762.726 1171.02 762.552 1138.8 C 762.499 1129 763.375 1115.31 762.162 1105.94 C 760.636 1114.9 762.258 1124.03 761.096 1132.02 L 760.815 1109.74 C 692.927 1109.61 624.955 1105.86 556.293 1106.04 L 556.453 1122.98 L 554.743 1123.3 C 549.881 1122.82 454.588 1106.38 455.417 1106.85 C 450.175 1105.21 444.62 1104.32 439.949 1101.48 C 420.916 1089.92 419.548 1074.19 430.939 1056.63 C 431.955 1055.44 432.98 1054.28 434.097 1053.18 C 437.78 1049.65 442.432 1047.3 447.458 1046.43 C 458.044 1044.49 492.458 1045.23 504.877 1045.25 L 609.621 1045.22 L 609.731 1005.7 C 605.594 1001.39 604.084 997.394 599.433 993.056 L 601.147 991.523 L 609.12 1001.79 C 609.023 989.661 608.276 960.959 609.664 950.651 L 611.518 950.349 C 611.525 966.849 611.2 985.136 611.731 1001.47 C 614.686 997.773 617.668 994.096 620.677 990.441 L 622.723 992.146 C 696.33 991.003 770.827 935.839 807.911 874.762 z" fill="rgb(253,248,236)" transform="translate(0,0)"></path>
<path d="M 609.664 950.651 L 611.518 950.349 C 611.525 966.849 611.2 985.136 611.731 1001.47 C 614.686 997.773 617.668 994.096 620.677 990.441 L 622.723 992.146 C 618.308 995.558 615.494 999.301 612.464 1003.98 C 611.568 1016.96 611.886 1032.27 611.857 1045.45 L 719.763 1045.23 C 738.489 1045.25 774.655 1041.88 788.932 1053.08 L 787.788 1055.05 C 803.326 1072.34 799.439 1088.46 780.614 1100.76 L 782.035 1101.96 C 774.537 1104.96 770.354 1105.86 762.162 1105.94 C 760.636 1114.9 762.258 1124.03 761.096 1132.02 L 760.815 1109.74 C 692.927 1109.61 624.955 1105.86 556.293 1106.04 L 556.453 1122.98 L 554.743 1123.3 C 549.881 1122.82 454.588 1106.38 455.417 1106.85 C 450.175 1105.21 444.62 1104.32 439.949 1101.48 C 420.916 1089.92 419.548 1074.19 430.939 1056.63 C 431.955 1055.44 432.98 1054.28 434.097 1053.18 C 437.78 1049.65 442.432 1047.3 447.458 1046.43 C 458.044 1044.49 492.458 1045.23 504.877 1045.25 L 609.621 1045.22 L 609.731 1005.7 C 605.594 1001.39 604.084 997.394 599.433 993.056 L 601.147 991.523 L 609.12 1001.79 C 609.023 989.661 608.276 960.959 609.664 950.651 z" fill="rgb(227,160,42)" transform="translate(0,0)"></path>
<path d="M 430.939 1056.63 L 432.08 1058.13 C 427.081 1066.4 424.43 1073.26 427.046 1083.38 C 428.833 1090.28 433.373 1096.14 439.605 1099.59 C 452.245 1106.65 578.795 1103.21 605.18 1103.28 L 714.757 1103.83 C 727.164 1103.87 767.773 1104.81 777.013 1102.06 C 778.239 1101.7 779.442 1101.27 780.614 1100.76 L 782.035 1101.96 C 774.537 1104.96 770.354 1105.86 762.162 1105.94 C 760.636 1114.9 762.258 1124.03 761.096 1132.02 L 760.815 1109.74 C 692.927 1109.61 624.955 1105.86 556.293 1106.04 L 556.453 1122.98 L 554.743 1123.3 C 549.881 1122.82 454.588 1106.38 455.417 1106.85 C 450.175 1105.21 444.62 1104.32 439.949 1101.48 C 420.916 1089.92 419.548 1074.19 430.939 1056.63 z" fill="rgb(6,10,8)" transform="translate(0,0)"></path>
<path d="M 609.664 950.651 L 611.518 950.349 C 611.525 966.849 611.2 985.136 611.731 1001.47 C 614.686 997.773 617.668 994.096 620.677 990.441 L 622.723 992.146 C 618.308 995.558 615.494 999.301 612.464 1003.98 C 611.568 1016.96 611.886 1032.27 611.857 1045.45 L 719.763 1045.23 C 738.489 1045.25 774.655 1041.88 788.932 1053.08 L 787.788 1055.05 C 784.581 1052.54 779.272 1048.57 775.295 1048.33 C 758.501 1047.31 740.352 1047.51 723.537 1047.43 C 684.069 1047.16 644.6 1047.2 605.133 1047.55 L 502.59 1047.45 C 484.875 1047.44 465.801 1046.99 448.124 1048.27 C 441.74 1048.73 436.447 1053.68 432.08 1058.13 L 430.939 1056.63 C 431.955 1055.44 432.98 1054.28 434.097 1053.18 C 437.78 1049.65 442.432 1047.3 447.458 1046.43 C 458.044 1044.49 492.458 1045.23 504.877 1045.25 L 609.621 1045.22 L 609.731 1005.7 C 605.594 1001.39 604.084 997.394 599.433 993.056 L 601.147 991.523 L 609.12 1001.79 C 609.023 989.661 608.276 960.959 609.664 950.651 z" fill="rgb(58,52,52)" transform="translate(0,0)"></path>
<path d="M 788.932 1053.08 C 804.54 1068.73 802.906 1092.68 782.035 1101.96 L 780.614 1100.76 C 799.439 1088.46 803.326 1072.34 787.788 1055.05 L 788.932 1053.08 z" fill="rgb(76,52,10)" transform="translate(0,0)"></path>
<path d="M 556.293 1106.04 C 624.955 1105.86 692.927 1109.61 760.815 1109.74 L 761.096 1132.02 C 758.314 1168.62 766.127 1230.46 757.773 1263.52 C 754.666 1276.21 748.435 1287.93 739.645 1297.6 C 725.714 1313.01 703.484 1325.03 682.404 1324.93 C 645.764 1324.65 611.454 1330.63 582.129 1302.74 C 552.674 1274.73 556.796 1242.67 556.736 1206.06 C 556.691 1178.38 557.202 1150.48 556.453 1122.98 L 556.293 1106.04 z" fill="rgb(227,160,42)" transform="translate(0,0)"></path>
<path d="M 908.387 555.933 L 911.423 555.311 C 914.428 559.584 912.698 573.406 912.964 579.679 C 911.567 595.96 912.167 617.355 912.212 633.925 L 912.222 715.131 L 912.545 986.584 L 912.389 1185.76 L 912.57 1240.73 C 912.603 1249.02 912.26 1262.61 912.97 1270.31 C 912.689 1288.62 909.521 1309.53 909.808 1324.95 L 861.946 1324.93 L 861.875 826.996 L 861.827 736.171 C 861.804 729.918 860.946 699.025 863.105 695.348 C 865.538 695.206 866.764 695.103 869.155 694.712 C 872.89 685.716 862.024 656.451 862.306 647.56 C 862.374 645.416 864.522 644.255 862.699 639.916 C 860.38 638.464 859.699 638.193 857.923 636.014 L 858.463 633.604 C 860.267 632.874 860.174 632.994 862.096 633.448 L 862.525 635.493 L 863.732 635.829 L 864.628 632.808 C 867.492 631.304 885.241 632.085 890.286 631.646 L 891.228 631.343 C 894.128 632.066 894.374 632.149 897.416 632.178 C 909.369 631.467 906.361 633.495 906.98 621.326 C 907.756 606.062 905.715 587.781 907.686 572.928 C 908.604 569.807 908.366 559.758 908.387 555.933 z" fill="rgb(253,248,236)" transform="translate(0,0)"></path>
<path d="M 915.018 562.457 C 917.737 564.956 917.617 567.155 918.801 571.211 C 925.361 592.017 933.385 613.468 939.22 634.241 C 934.244 635.992 927.833 638.464 922.886 639.904 C 935.029 661.926 941.819 700.938 952.008 725.072 C 955.573 733.513 959.791 745.607 962.509 754.52 C 963.442 769.462 962.987 788.298 962.92 803.447 L 962.861 895.666 L 963.034 1253.02 C 941.364 1259.67 927.464 1269.65 915.967 1289.64 L 915.816 1290.09 L 914.92 1290.49 C 912.614 1283.63 915.594 1274.38 912.97 1270.31 C 912.26 1262.61 912.603 1249.02 912.57 1240.73 L 912.389 1185.76 L 912.545 986.584 L 912.222 715.131 L 912.212 633.925 C 912.167 617.355 911.567 595.96 912.964 579.679 C 914.994 574.922 914.356 568.34 915.018 562.457 z" fill="rgb(227,160,42)" transform="translate(0,0)"></path>
<path d="M 915.018 562.457 L 915.199 570.082 C 914.424 613.387 914.176 656.7 914.455 700.011 L 914.783 1016.15 C 914.393 1084.2 914.43 1152.25 914.893 1220.29 C 914.919 1228.84 914.429 1284.7 915.967 1289.64 L 915.816 1290.09 L 914.92 1290.49 C 912.614 1283.63 915.594 1274.38 912.97 1270.31 C 912.26 1262.61 912.603 1249.02 912.57 1240.73 L 912.389 1185.76 L 912.545 986.584 L 912.222 715.131 L 912.212 633.925 C 912.167 617.355 911.567 595.96 912.964 579.679 C 914.994 574.922 914.356 568.34 915.018 562.457 z" fill="rgb(123,80,9)" transform="translate(0,0)"></path>
<path d="M 1149.91 1068.21 C 1197.28 1103.68 1238.37 1095.34 1293.36 1089.86 C 1293.68 1121.93 1293.76 1154 1293.6 1186.07 C 1293.58 1209.86 1294.01 1235.76 1293.17 1259.4 C 1286.62 1259.64 1267.92 1259.98 1262.46 1261.05 C 1256.28 1262.53 1149.27 1262.01 1138.55 1261.03 C 1132.51 1260.03 1129.5 1259.98 1123.32 1259.92 C 1123.41 1250.14 1124.52 1231.84 1122.51 1223.15 C 1122.1 1221.35 1108.5 1219.28 1115.15 1204.97 C 1120.02 1203.21 1123.78 1204.01 1128.11 1202.68 C 1168.46 1190.36 1162.39 1153.79 1157.9 1123.21 C 1155.13 1104.89 1152.46 1086.56 1149.91 1068.21 z" fill="rgb(107,96,81)" transform="translate(0,0)"></path>
<path d="M 455.417 1106.85 C 454.588 1106.38 549.881 1122.82 554.743 1123.3 C 555.88 1165.22 553.964 1207.48 555.174 1249.37 C 556.245 1286.47 589.746 1324.03 627.023 1326.86 C 603.191 1328.14 567.378 1326.89 542.57 1326.76 C 540.389 1326.18 537.307 1325.95 534.975 1325.7 C 530.899 1325.74 521.838 1326.45 518.545 1325.02 C 516.663 1324.21 516.197 1323.59 513.539 1323.33 C 507.968 1321.4 503.929 1319.73 498.897 1316.64 C 492.988 1314.58 482.791 1306.24 478.297 1301.72 C 449.049 1272.27 455.713 1228.35 455.323 1190.45 C 455.038 1162.84 454.718 1134.41 455.417 1106.85 z" fill="rgb(66,39,90)" transform="translate(0,0)"></path>
<path d="M 498.897 1316.64 C 502.949 1317.17 503.995 1316.95 507.936 1318.98 C 516.519 1323.41 525.732 1323.79 534.975 1325.7 C 530.899 1325.74 521.838 1326.45 518.545 1325.02 C 516.663 1324.21 516.197 1323.59 513.539 1323.33 C 507.968 1321.4 503.929 1319.73 498.897 1316.64 z" fill="rgb(50,44,61)" transform="translate(0,0)"></path>
<path d="M 835.867 405.854 C 841.627 403.185 871.533 402.668 876.734 404.527 C 877.837 404.927 878.892 405.451 879.879 406.086 C 917.152 437.795 920.419 493.27 899.473 535.612 C 896.572 541.478 889.541 547.97 886.072 553.613 C 881.265 556.929 840.191 554.53 831.868 554.795 C 830.477 554.84 828.341 553.574 827.178 552.674 L 825.348 554.354 C 820.799 555.256 816.578 554.932 811.932 554.843 L 808.519 555.943 C 781.109 549.722 759.317 522.638 754.297 495.686 C 750.444 474.956 755.16 453.549 767.369 436.358 C 776.655 423.2 794.212 408.377 810.427 405.61 L 811.134 407.48 C 818.085 405.405 827.09 404.395 834.352 404.155 L 835.867 405.854 z" fill="rgb(207,107,52)" transform="translate(0,0)"></path>
<path d="M 811.134 407.48 C 818.085 405.405 827.09 404.395 834.352 404.155 L 835.867 405.854 C 797.897 439.037 794.83 490.825 815.916 535.777 C 818.337 540.937 825.458 548.723 827.178 552.674 L 825.348 554.354 C 820.799 555.256 816.578 554.932 811.932 554.843 L 808.519 555.943 C 781.109 549.722 759.317 522.638 754.297 495.686 C 750.444 474.956 755.16 453.549 767.369 436.358 C 776.655 423.2 794.212 408.377 810.427 405.61 L 811.134 407.48 z" fill="rgb(207,107,52)" transform="translate(0,0)"></path>
<path d="M 808.519 555.943 C 781.109 549.722 759.317 522.638 754.297 495.686 C 750.444 474.956 755.16 453.549 767.369 436.358 C 776.655 423.2 794.212 408.377 810.427 405.61 L 811.134 407.48 C 790.467 413.959 774.04 426.662 763.771 445.975 C 754.369 463.727 752.445 484.499 758.428 503.676 C 764.614 523.356 778.46 539.719 796.844 549.077 C 801.185 551.255 807.187 553.841 811.932 554.843 L 808.519 555.943 z" fill="rgb(68,24,17)" transform="translate(0,0)"></path>
<path d="M 825.348 554.354 C 791.937 509.031 789.385 442.737 834.352 404.155 L 835.867 405.854 C 797.897 439.037 794.83 490.825 815.916 535.777 C 818.337 540.937 825.458 548.723 827.178 552.674 L 825.348 554.354 z" fill="rgb(35,11,9)" transform="translate(0,0)"></path>
<path d="M 1608.54 405.412 L 1610.65 403.145 C 1614.33 402.231 1614.78 402.527 1618.62 403.34 L 1636.7 407.355 L 1638.06 405.811 C 1652.69 409.925 1668.53 422.648 1677.52 434.818 C 1690.69 453.995 1696.44 473.662 1691.95 497.033 C 1688.01 517.472 1675.94 535.44 1658.52 546.836 C 1652.15 551.055 1645.98 553.812 1638.91 556.551 L 1638.67 554.54 C 1634.75 555.017 1623.54 557.112 1620.73 554.509 L 1619.02 553.216 C 1618.27 553.725 1617.27 554.41 1616.01 555.269 C 1598.83 556.557 1580.73 555.709 1563.43 555.618 C 1562.49 555.613 1561.03 554.849 1560.46 554.577 L 1559.15 552.863 C 1526.35 509.536 1522.44 441.373 1569.24 406.315 C 1575.43 402.155 1601.64 402.722 1608.54 405.412 z" fill="rgb(207,107,52)" transform="translate(0,0)"></path>
<path d="M 1608.54 405.412 L 1610.65 403.145 C 1614.33 402.231 1614.78 402.527 1618.62 403.34 L 1636.7 407.355 L 1638.06 405.811 C 1652.69 409.925 1668.53 422.648 1677.52 434.818 C 1690.69 453.995 1696.44 473.662 1691.95 497.033 C 1688.01 517.472 1675.94 535.44 1658.52 546.836 C 1652.15 551.055 1645.98 553.812 1638.91 556.551 L 1638.67 554.54 C 1634.75 555.017 1623.54 557.112 1620.73 554.509 L 1619.02 553.216 C 1620.54 551.199 1622.03 549.163 1623.5 547.108 C 1652.08 506.908 1652.02 435.62 1608.54 405.412 z" fill="rgb(207,107,52)" transform="translate(0,0)"></path>
<path d="M 1608.54 405.412 L 1610.65 403.145 C 1614.33 402.231 1614.78 402.527 1618.62 403.34 L 1613.2 404.109 L 1612.73 405.214 C 1616.33 409.859 1621.67 411.872 1626.04 417.896 C 1654.71 457.479 1651.15 517.33 1620.73 554.509 L 1619.02 553.216 C 1620.54 551.199 1622.03 549.163 1623.5 547.108 C 1652.08 506.908 1652.02 435.62 1608.54 405.412 z" fill="rgb(35,11,9)" transform="translate(0,0)"></path>
<path d="M 1677.52 434.818 C 1690.69 453.995 1696.44 473.662 1691.95 497.033 C 1688.01 517.472 1675.94 535.44 1658.52 546.836 C 1652.15 551.055 1645.98 553.812 1638.91 556.551 L 1638.67 554.54 C 1645.42 551.189 1650.79 549.113 1657.23 544.887 C 1673.89 534.182 1685.54 517.225 1689.56 497.835 C 1694.51 473.364 1688.25 454.914 1674.92 434.925 L 1677.52 434.818 z" fill="rgb(35,11,9)" transform="translate(0,0)"></path>
<path d="M 1638.06 405.811 C 1652.69 409.925 1668.53 422.648 1677.52 434.818 L 1674.92 434.925 C 1664.97 422.068 1651.93 412.977 1636.7 407.355 L 1638.06 405.811 z" fill="rgb(35,11,9)" transform="translate(0,0)"></path>
<path d="M 1138.55 1261.03 C 1149.27 1262.01 1256.28 1262.53 1262.46 1261.05 L 1293.12 1261.38 L 1293.15 1325.08 C 1296.96 1326.88 1300.91 1325.63 1305.55 1326.82 C 1288.19 1327.79 1261.49 1326.89 1243.55 1326.88 L 1124.13 1327.11 L 1124.38 1325.26 C 1122.14 1322.13 1123.2 1269.33 1123.23 1261.33 L 1138.55 1261.03 z" fill="rgb(253,248,236)" transform="translate(0,0)"></path>
<path d="M 1293.15 1325.08 C 1296.96 1326.88 1300.91 1325.63 1305.55 1326.82 C 1288.19 1327.79 1261.49 1326.89 1243.55 1326.88 L 1124.13 1327.11 L 1124.38 1325.26 C 1130.55 1324.23 1144.68 1324.52 1151.77 1324.48 L 1201.07 1324.26 L 1259.84 1324.16 C 1267.73 1324.16 1286.31 1323.72 1293.15 1325.08 z" fill="rgb(107,96,81)" transform="translate(0,0)"></path>
<path d="M 1074.63 562.553 C 1078.95 561.633 1088.71 561.067 1087.63 554.581 C 1083.55 557.613 1081.3 560.492 1076.12 559.221 C 1069.7 548.768 1088.86 516.726 1102.42 516.612 C 1108.3 516.563 1112.56 522.991 1116.41 526.884 L 1116.9 525.668 C 1115.03 521.494 1110.09 518.481 1106.54 514.184 C 1114.32 503.134 1146.78 511.753 1154.19 521.018 C 1157.35 524.963 1163.03 530.883 1163.44 536.127 C 1161.14 538.355 1160.02 537.899 1156.39 538.513 C 1159.23 540.634 1163.13 539.375 1164.99 540.538 C 1187.93 554.913 1170.13 570.368 1156.77 576.782 L 1158.69 578.174 C 1158.79 581.072 1158.75 583.826 1159.02 586.718 C 1158.3 589.375 1157.9 591.025 1157.38 593.728 C 1156.67 599.18 1157.1 612.7 1157.16 618.875 C 1144.26 618.939 1117.37 620.838 1104.7 622.448 L 1106.45 611.663 C 1111.36 608.292 1118.81 604.334 1124.13 601.302 C 1095.74 601.244 1081.09 590.564 1074.63 562.553 z" fill="rgb(253,248,236)" transform="translate(0,0)"></path>
<path d="M 1138.63 576.851 C 1145.82 577.182 1149.54 577.451 1156.77 576.782 L 1158.69 578.174 C 1158.79 581.072 1158.75 583.826 1159.02 586.718 C 1158.3 589.375 1157.9 591.025 1157.38 593.728 C 1156.4 583.057 1157.49 588.507 1149.42 584.24 C 1146.77 582.839 1141.47 578.702 1138.63 576.851 z" fill="rgb(6,10,8)" transform="translate(0,0)"></path>
<path d="M 1156.8 549.783 C 1165.12 550.782 1164.18 556.979 1159.52 562.068 C 1154.34 567.723 1151.43 562.736 1145.65 563.156 C 1144.5 563.712 1139.3 566.82 1138.36 566.146 C 1138.05 563.109 1153.73 551.677 1156.8 549.783 z" fill="rgb(6,10,8)" transform="translate(0,0)"></path>
<path d="M 1096.07 524.582 C 1106.94 526.266 1107.48 531.9 1099.58 538.805 C 1086.97 540.153 1090.04 531.266 1096.07 524.582 z" fill="rgb(6,10,8)" transform="translate(0,0)"></path>
<path d="M 1619.02 553.216 L 1620.73 554.509 C 1623.54 557.112 1634.75 555.017 1638.67 554.54 L 1638.91 556.551 C 1637.46 560.732 1637.96 568.403 1638.01 573.165 C 1638.63 589.262 1638.04 605.603 1638.24 621.725 C 1638.37 632.165 1639.77 632.765 1629.21 631.876 C 1629.2 631.06 1629.44 629.675 1628.97 628.97 C 1628.92 628.897 1628.79 628.83 1628.7 628.83 C 1628.23 628.828 1627.62 629.537 1627.42 629.698 C 1623.74 629.89 1623.82 630.526 1621.43 628.885 C 1620.57 619.821 1621.95 583.544 1620.24 579.821 L 1619 579.796 C 1616.84 587.095 1621.33 621.274 1617.35 629.515 C 1616.95 630.342 1613.29 630.726 1611.88 630.9 C 1611.28 627.439 1610.54 616.395 1610.81 612.57 C 1610.74 612.493 1610.68 612.415 1610.62 612.338 L 1610.51 612.371 C 1610.54 612.756 1610.56 613.14 1610.58 613.524 L 1610.32 613.706 C 1610.25 619.964 1610.71 624.085 1609.75 630.427 L 1605.89 629.922 C 1598.37 623.885 1607.38 589.468 1602.69 580.12 L 1601.51 579.841 C 1597.56 587.763 1605.97 626.355 1597.2 629.918 C 1596.68 629.523 1596.17 629.129 1595.65 628.735 C 1594.64 616.782 1596.43 590.979 1593.66 580.459 C 1591.02 594.447 1594.15 614.419 1592.49 626.742 C 1590.35 629.867 1591.51 629.089 1588.24 630.251 C 1583.91 626.533 1587.46 590.476 1585.62 579.632 L 1584.37 579.177 C 1580.63 585.001 1589.52 627.246 1578.94 629.739 C 1575.17 625.351 1580.03 586.71 1576.07 579.37 L 1574.85 580.293 C 1574.39 589.871 1577.52 624.418 1571.99 629.852 L 1570.51 629.712 C 1566.31 620.083 1570.29 583.764 1567.44 579.172 C 1564.54 581.145 1567.14 620.882 1564.96 629.151 L 1563.09 629.71 L 1561.17 628.561 C 1556.06 619.635 1561.33 591.826 1558.62 579.954 L 1557.46 580.05 C 1556.08 590.494 1558.95 624.841 1555.46 629.594 L 1553.51 629.674 C 1552.82 629.117 1552.13 628.559 1551.44 628.001 C 1549.76 615.442 1551.93 591.883 1550.59 580.299 L 1549.18 579.416 C 1545.32 588.889 1553.68 624.209 1544.46 629.791 L 1542.51 629.076 C 1539.06 618.166 1544.31 587.303 1540.89 573.062 C 1539.3 569.815 1540.94 563.058 1539.69 557.249 L 1537.48 555.899 C 1538.66 555.182 1539.45 554.989 1540.75 554.498 C 1547.58 555.011 1551.27 555.429 1558.03 554.479 L 1560.46 554.577 C 1561.03 554.849 1562.49 555.613 1563.43 555.618 C 1580.73 555.709 1598.83 556.557 1616.01 555.269 C 1617.27 554.41 1618.27 553.725 1619.02 553.216 z" fill="rgb(227,160,42)" transform="translate(0,0)"></path>
<path d="M 1619.02 553.216 L 1620.73 554.509 C 1623.54 557.112 1634.75 555.017 1638.67 554.54 L 1638.91 556.551 C 1637.46 560.732 1637.96 568.403 1638.01 573.165 L 1636.09 573.886 C 1604.36 573.433 1572.62 573.159 1540.89 573.062 C 1539.3 569.815 1540.94 563.058 1539.69 557.249 L 1537.48 555.899 C 1538.66 555.182 1539.45 554.989 1540.75 554.498 C 1547.58 555.011 1551.27 555.429 1558.03 554.479 L 1560.46 554.577 C 1561.03 554.849 1562.49 555.613 1563.43 555.618 C 1580.73 555.709 1598.83 556.557 1616.01 555.269 C 1617.27 554.41 1618.27 553.725 1619.02 553.216 z" fill="rgb(6,10,8)" transform="translate(0,0)"></path>
<path d="M 1636.09 573.886 L 1638.01 573.165 C 1638.63 589.262 1638.04 605.603 1638.24 621.725 C 1638.37 632.165 1639.77 632.765 1629.21 631.876 C 1629.2 631.06 1629.44 629.675 1628.97 628.97 C 1628.92 628.897 1628.79 628.83 1628.7 628.83 C 1628.23 628.828 1627.62 629.537 1627.42 629.698 C 1626.77 623.906 1626.05 581.228 1628.45 579.324 L 1628.5 579.433 L 1629.77 579.971 C 1631.33 595.468 1628.08 614.007 1630.59 629.385 C 1630.8 630.682 1635.51 630.011 1635.55 629.341 C 1636.64 611.085 1635.98 592.291 1636.09 573.886 z" fill="rgb(76,52,10)" transform="translate(0,0)"></path>
<path d="M 1609.75 630.427 C 1609.22 624.153 1608.56 582.914 1610.41 579.336 C 1610.44 579.449 1610.47 579.562 1610.5 579.674 L 1611.6 580.109 C 1612.2 583.418 1612.08 625.727 1611.88 630.9 C 1611.28 627.439 1610.54 616.395 1610.81 612.57 C 1610.74 612.493 1610.68 612.415 1610.62 612.338 L 1610.51 612.371 C 1610.54 612.756 1610.56 613.14 1610.58 613.524 L 1610.32 613.706 C 1610.25 619.964 1610.71 624.085 1609.75 630.427 z" fill="rgb(76,52,10)" transform="translate(0,0)"></path>
<path d="M 1566.82 404.367 L 1569.24 406.315 C 1522.44 441.373 1526.35 509.536 1559.15 552.863 L 1560.46 554.577 L 1558.03 554.479 C 1551.27 555.429 1547.58 555.011 1540.75 554.498 C 1535.82 552.95 1531.98 551.474 1527.35 549.097 C 1509.82 540.119 1496.61 524.496 1490.67 505.715 C 1484.91 487.02 1486.23 463.486 1495.89 446.421 C 1509.42 422.542 1525.22 413.333 1550.18 405.94 C 1555.39 405.13 1561.7 403.843 1566.82 404.367 z" fill="rgb(207,107,52)" transform="translate(0,0)"></path>
<path d="M 1566.82 404.367 L 1569.24 406.315 C 1522.44 441.373 1526.35 509.536 1559.15 552.863 L 1560.46 554.577 L 1558.03 554.479 C 1540.32 538.006 1532.45 504.585 1532.27 481.354 C 1532.12 461.971 1537.07 439.027 1548.63 423.089 C 1553.63 416.188 1560.81 410.372 1566.82 404.367 z" fill="rgb(35,11,9)" transform="translate(0,0)"></path>
<path d="M 827.178 552.674 C 828.341 553.574 830.477 554.84 831.868 554.795 C 840.191 554.53 881.265 556.929 886.072 553.613 L 887.83 554.818 C 894.84 555.031 899.29 555.055 906.249 554.51 L 908.387 555.933 C 908.366 559.758 908.604 569.807 907.686 572.928 C 905.715 587.781 907.756 606.062 906.98 621.326 C 906.361 633.495 909.369 631.467 897.416 632.178 C 894.374 632.149 894.128 632.066 891.228 631.343 L 890.286 631.646 C 889.968 621.559 891.757 586.15 889.363 579.557 L 888.443 579.381 C 885.975 591.059 891.827 622.807 884.601 630.088 L 883.089 629.8 C 880.05 621.661 882.111 590.884 881.388 579.344 L 879.574 579.29 C 877.046 588.247 882.412 623.454 876.224 629.838 L 874.177 629.66 C 871.041 624.883 874.391 589.167 872.299 579.901 L 871.182 579.56 C 868.963 592.707 872.205 614.501 869.726 627.482 C 869.35 629.452 867.584 629.617 866.112 630.052 L 864.427 629.002 C 863.203 613.637 865.1 595.021 863.835 579.979 L 862.622 579.323 C 860.366 582.736 863.461 624.117 860.647 629.67 L 858.625 629.98 C 850.714 623.608 857.532 589.867 854.583 579.471 L 853.154 579.975 C 851.228 591.117 856.356 623.192 849.473 629.897 L 847.403 629.641 C 844.595 624.083 846.95 589.753 845.681 580.184 L 844.556 579.836 C 841.327 587.69 847.816 622.23 840.535 629.856 L 838.96 629.2 C 834.496 618.739 838.916 591.235 836.722 580.017 L 835.529 579.744 C 832.21 586.389 839.092 623.719 831.832 629.862 L 830.081 629.645 C 826.757 624.525 831.566 587.323 827.057 579.189 C 824.913 585.289 827.718 622.188 825.61 628.695 C 822.992 630.605 824.3 630.235 820.539 629.652 C 818.655 619.469 821.205 593.928 819.675 580.783 L 818.509 580.318 C 815.95 586.408 821.112 623.469 816.172 629.596 L 814.01 629.382 C 810.945 625.689 811.903 581.714 811.085 572.992 L 808.964 571.914 C 808.978 566.587 808.829 561.261 808.519 555.943 L 811.932 554.843 C 816.578 554.932 820.799 555.256 825.348 554.354 L 827.178 552.674 z" fill="rgb(227,160,42)" transform="translate(0,0)"></path>
<path d="M 827.178 552.674 C 828.341 553.574 830.477 554.84 831.868 554.795 C 840.191 554.53 881.265 556.929 886.072 553.613 L 887.83 554.818 C 894.84 555.031 899.29 555.055 906.249 554.51 L 908.387 555.933 C 908.366 559.758 908.604 569.807 907.686 572.928 C 896.217 572.581 866.812 572.134 855.879 573.161 C 840.948 573.339 826.015 573.282 811.085 572.992 L 808.964 571.914 C 808.978 566.587 808.829 561.261 808.519 555.943 L 811.932 554.843 C 816.578 554.932 820.799 555.256 825.348 554.354 L 827.178 552.674 z" fill="rgb(6,10,8)" transform="translate(0,0)"></path>
<path d="M 855.879 573.161 C 866.812 572.134 896.217 572.581 907.686 572.928 C 905.715 587.781 907.756 606.062 906.98 621.326 C 906.361 633.495 909.369 631.467 897.416 632.178 L 899.151 630.278 C 899.16 630.277 900.809 630.064 900.826 630.078 C 901.045 630.26 904.341 629.812 904.378 629.266 C 905.204 617.076 904.796 584.669 905.116 573.832 C 891.25 573.669 869.092 574.443 855.879 573.161 z" fill="rgb(76,52,10)" transform="translate(0,0)"></path>
<path d="M 891.228 631.343 C 891.936 631.051 895.86 629.845 896.031 629.365 C 898.105 623.533 894.875 581.049 897.471 578.507 C 897.848 578.605 898.678 579.138 898.684 579.262 C 899.271 590.588 898.846 620.501 899.151 630.278 L 897.416 632.178 C 894.374 632.149 894.128 632.066 891.228 631.343 z" fill="rgb(30,22,18)" transform="translate(0,0)"></path>
<path d="M 881.929 404.656 C 885.614 402.491 896.535 405.314 900.725 406.485 C 941.891 418.063 969.432 458.347 957.221 500.747 C 951.377 520.836 937.817 537.795 919.506 547.916 C 915.311 550.19 910.57 552.428 906.249 554.51 C 899.29 555.055 894.84 555.031 887.83 554.818 L 886.072 553.613 C 889.541 547.97 896.572 541.478 899.473 535.612 C 920.419 493.27 917.152 437.795 879.879 406.086 L 881.929 404.656 z" fill="rgb(207,107,52)" transform="translate(0,0)"></path>
<path d="M 881.929 404.656 C 906.846 427.404 915.837 453.322 914.513 487.288 C 913.416 515.399 905.866 533.784 887.83 554.818 L 886.072 553.613 C 889.541 547.97 896.572 541.478 899.473 535.612 C 920.419 493.27 917.152 437.795 879.879 406.086 L 881.929 404.656 z" fill="rgb(35,11,9)" transform="translate(0,0)"></path>
<path d="M 964.786 426.989 C 970.934 426.736 987.535 425.455 992.377 427.808 L 993.058 430.644 C 992.188 445.091 992.466 468.73 993.106 483.349 C 992.488 496.797 992.975 515.772 992.956 529.566 C 989.66 531.084 986.91 532.799 983.801 534.643 C 981.715 527.6 979.704 520.618 977.263 513.668 C 975.265 507.978 971.421 507.056 965.698 504.574 C 963.865 496.513 964.748 438.816 964.786 426.989 z" fill="rgb(253,248,236)" transform="translate(0,0)"></path>
<path d="M 1061.21 799.407 C 1083.7 798.27 1112.93 799.477 1136.41 799.338 C 1144.77 838.876 1165.35 865.467 1203.42 879.834 C 1208.13 906.354 1214.2 933.002 1218.62 959.559 C 1211.7 961.478 1201.38 964.081 1195.58 967.996 C 1203.56 966.322 1209.92 964.258 1217.66 961.82 C 1213.21 969.776 1207.74 978.024 1204.5 986.259 C 1206.95 985.599 1218.49 964.871 1220.43 961.507 C 1229.68 956.965 1251.97 949.965 1262.35 946.385 C 1285.14 938.424 1307.89 930.328 1330.58 922.097 C 1333.28 936.496 1335.29 960.749 1337.02 976.141 L 1348.38 1081.69 C 1339.23 1083.66 1310.3 1086.29 1300.38 1086.97 C 1273.4 1088.85 1236.35 1094.79 1210.38 1091.46 C 1194.35 1089.37 1178.9 1084.05 1164.97 1075.82 C 1115.99 1047.15 1109.18 1003.3 1096.18 954.807 C 1089.48 930.665 1082.94 906.481 1076.56 882.255 C 1074.18 872.925 1071.81 863.653 1069.13 854.399 C 1068.25 851.362 1066.31 847.809 1065.71 845.571 L 1066.23 847.384 L 1065.89 847.962 C 1070.21 871.779 1081.54 911.027 1088.32 934.71 C 1103.15 986.538 1105.83 1028.62 1147.08 1066.02 C 1150.12 1087.43 1159.25 1137.66 1159.54 1156.49 C 1159.84 1169.07 1155.01 1181.23 1146.15 1190.16 C 1136.19 1200.2 1122.68 1202.54 1109.07 1202.21 C 1066.49 1201.18 1023.84 1201.26 981.257 1201.06 C 983.598 1190.69 985.72 1180.28 987.622 1169.83 C 998.782 1169.98 1016.24 1171.27 1027.33 1172.36 C 1029.9 1174.23 1031.05 1175.5 1034.07 1175.74 C 1038.21 1169.23 1038.45 1120.15 1046.5 1114 C 1046.43 1111.66 1045.69 1111.07 1044.29 1109.18 C 1040.48 1107.46 1039.16 1111.24 1037.5 1111.14 C 1026.29 1110.49 1010.04 1108.76 999.359 1107.73 C 1005.83 1080.86 1011.15 1051.31 1016.6 1024.08 L 1048.79 862.395 C 1052.76 842.904 1056.58 817.973 1061.21 799.407 z" fill="rgb(207,107,52)" transform="translate(0,0)"></path>
<path d="M 1318 1013.91 C 1318.32 1013.95 1325.97 1018.6 1320.32 1019.4 C 1319.03 1019.58 1319.23 1033.57 1319.84 1035.5 C 1321.16 1039.7 1317.86 1057.45 1321.98 1058.92 C 1322.98 1059 1326.13 1059.77 1320.97 1061.86 C 1319.36 1062.52 1320.92 1067.17 1319.53 1067.72 C 1317.95 1067.31 1319.09 1062.2 1316.03 1062.47 C 1299.43 1063.92 1282.84 1065.5 1266.29 1067.43 C 1265.28 1067.54 1263.71 1069.5 1263.07 1070.19 C 1261.1 1069.68 1262.54 1067.5 1260.52 1067.54 C 1256.08 1067.62 1259.59 1065.28 1261.21 1064.32 C 1261.8 1063.97 1261.92 1062.02 1261.7 1061.47 C 1260.72 1050.74 1260.87 1039.81 1260.43 1029.02 C 1260.21 1023.55 1257.68 1025.64 1257.43 1023.56 C 1264.23 1019.45 1258.84 1020.52 1261.46 1017.2 C 1262.28 1017.52 1262.63 1021.52 1263.41 1021.53 C 1279.75 1021.78 1296.98 1017.93 1313.53 1016.9 C 1315.82 1016.75 1315.98 1016.74 1317.25 1014.94 L 1318 1013.91 z" fill="rgb(6,10,8)" transform="translate(0,0)"></path>
<path d="M 1309.77 1019.41 C 1310.5 1019.28 1316.53 1018.4 1316.56 1019.53 C 1316.94 1032.54 1317.79 1046.55 1317.94 1059.5 C 1302.42 1061.39 1285.88 1062.84 1270.22 1064.47 C 1269.55 1064.68 1264.72 1065.63 1264.59 1064.59 C 1263.05 1051.66 1263.03 1037.35 1262.95 1024.29 C 1278.52 1023.38 1294.18 1021.1 1309.77 1019.41 z" fill="rgb(66,39,90)" transform="translate(0,0)"></path>
<path d="M 1021.07 610.294 C 1031.48 632.94 1039.88 669.803 1048.54 694.316 C 1053.07 707.133 1054.15 716.801 1061.43 729.154 L 1061.86 728.807 C 1058.27 715.71 1054.31 702.714 1050 689.834 L 1089.49 639.983 C 1095.21 633.762 1092.37 642.319 1091.62 646.268 L 1093.01 647.911 C 1116.83 649.497 1156.57 642.647 1182 643.181 C 1189.61 672.658 1187.41 687.146 1187.65 717.246 C 1187.87 743.398 1187.21 770.973 1188.02 797.025 C 1156.76 797.013 1123.67 797.511 1092.57 796.796 C 1086.96 797.018 1083.23 797.118 1077.65 796.715 L 1077.46 795.91 L 1082.13 794.396 C 1124.12 776.934 1145.96 747.359 1165.09 707.049 C 1166.46 704.157 1168.42 699.906 1167.36 697.247 C 1165.06 699.014 1163.52 703.608 1162.34 706.436 C 1140.75 758.265 1091.8 807.804 1030.87 796.072 C 1019.55 793.892 1003.72 789.212 994.543 781.577 C 991.692 779.975 990.822 779.392 988.229 777.529 C 983.404 774.003 979.095 769.822 975.426 765.106 L 973.203 762.157 C 971.893 761.182 971.312 759.684 970.536 758.287 C 969.841 757.747 969.813 757.815 969.481 757.059 C 955.518 739.779 937.221 667.737 926.482 641.162 C 954.022 631.596 996.588 620.775 1021.07 610.294 z" fill="rgb(63,155,120)" transform="translate(0,0)"></path>
<path d="M 975.426 765.106 C 980.426 768.975 983.479 772.685 988.297 776.523 C 990.475 778.258 992.619 779.608 994.543 781.577 C 991.692 779.975 990.822 779.392 988.229 777.529 C 983.404 774.003 979.095 769.822 975.426 765.106 z" fill="rgb(107,96,81)" transform="translate(0,0)"></path>
<path d="M 1089.49 639.983 C 1095.21 633.762 1092.37 642.319 1091.62 646.268 C 1090.92 643.87 1090.44 642.31 1089.49 639.983 z" fill="rgb(107,96,81)" transform="translate(0,0)"></path>
<path d="M 970.536 758.287 L 971.491 759.285 C 972.376 760.158 972.853 760.959 973.203 762.157 C 971.893 761.182 971.312 759.684 970.536 758.287 z" fill="rgb(107,96,81)" transform="translate(0,0)"></path>
<path d="M 810.011 632.153 C 816.665 632.434 851.088 631.148 854.051 633.507 C 853.947 638.097 850.517 638.274 849.193 642.909 C 848.524 645.251 850.818 649.251 850.656 649.946 C 847.502 663.413 843.815 682.202 841.197 695.221 L 860.131 695.099 L 860.579 1315.67 C 860.56 1318.46 860.997 1322.78 859.47 1324.53 L 855.001 1324.78 C 843.916 1323.94 821.144 1324.35 809.873 1324.82 L 809.905 1028.76 C 809.912 978.41 809.817 927.801 810.156 877.427 C 810.255 862.682 817.518 859.178 822.548 845.753 C 830.847 823.603 831.634 807.313 831.128 784.232 C 824.06 783.549 817.202 783.58 810.114 783.508 L 810.011 632.153 z" fill="rgb(227,160,42)" transform="translate(0,0)"></path>
<path d="M 964.868 754.543 C 970.046 762.644 975.167 768.385 982.315 774.714 C 985.771 777.775 992.152 782.122 994.071 785.909 L 995.536 786.09 C 1019.38 797.462 1032.21 800.988 1058.73 799.84 L 996.385 1112.5 C 995.458 1082.44 996.384 1052.1 995.898 1022.01 C 995.825 1017.47 995.63 1012.04 995.834 1007.53 L 995.68 1006.5 C 994.709 999.733 994.67 991.262 994.464 984.309 L 994.248 1045.47 C 994.25 1056.46 994.714 1071.92 993.804 1082.34 C 993.29 1096.55 994.69 1111.87 993.589 1125.92 C 992.973 1133.8 990.088 1145.54 988.504 1153.58 L 978.913 1203.33 L 993.113 1203.7 L 993.34 1251.63 C 983.723 1251.42 974.379 1251.82 964.772 1252.15 L 964.868 754.543 z" fill="rgb(253,248,236)" transform="translate(0,0)"></path>
<path d="M 993.804 1082.34 C 992.661 1070.25 993.378 1041.71 993.35 1028.59 L 993.098 924.636 L 993.035 830.509 C 993.035 822.837 992.523 791.841 994.071 785.909 L 995.536 786.09 C 1019.38 797.462 1032.21 800.988 1058.73 799.84 L 996.385 1112.5 C 995.458 1082.44 996.384 1052.1 995.898 1022.01 C 995.825 1017.47 995.63 1012.04 995.834 1007.53 L 995.68 1006.5 C 994.709 999.733 994.67 991.262 994.464 984.309 L 994.248 1045.47 C 994.25 1056.46 994.714 1071.92 993.804 1082.34 z" fill="rgb(107,96,81)" transform="translate(0,0)"></path>
<path d="M 1015.26 1224.06 C 1050.51 1223.79 1086.05 1224.4 1121.26 1223.41 C 1120.84 1245.53 1121.21 1268.84 1121.19 1291.07 C 1097.49 1290.81 1064.71 1283.24 1056.05 1310.91 L 1018.5 1311.09 C 983.023 1311.27 947.544 1311.2 912.068 1310.89 C 914.819 1295.21 919.765 1284.56 931.256 1273.14 C 954.628 1249.92 981.31 1253.88 1011.67 1254.02 C 1013.12 1244.34 1014.56 1233.79 1015.26 1224.06 z" fill="rgb(138,90,134)" transform="translate(0,0)"></path>
<path d="M 1412 918.19 C 1417.23 923.98 1419.72 954.534 1425.76 961.841 C 1431.98 969.381 1436.05 969.665 1444.97 971.376 C 1452.16 998.576 1461 1026.57 1468.83 1053.63 C 1473.57 1070.01 1478.26 1088.35 1483.64 1104.34 C 1461.28 1106.32 1445.23 1101.89 1427.72 1088.19 C 1411.41 1072.7 1406.77 1054.09 1400.27 1033.26 L 1374.4 1041.94 C 1367.44 1012.21 1354.63 969.742 1345.95 939.675 C 1367.98 932.414 1390.02 925.783 1412 918.19 z" fill="rgb(138,90,134)" transform="translate(0,0)"></path>
<path d="M 955.615 512.522 C 957.801 518.927 971.042 560.121 973.486 563.484 C 974.052 551.2 955.05 522.702 961.492 511.024 C 965.648 507.421 971.466 507.152 973.827 512.176 C 980.922 527.269 986.028 546.435 990.85 562.278 C 980.873 571.713 978.077 579.254 984.729 592.087 C 984.728 588.308 983.577 585.108 982.872 581.065 C 980.866 569.551 997.115 556.982 1006.38 565.948 C 1009.86 569.319 1007.83 577.499 1006.6 582.017 C 1010.48 591.685 1013.16 600.187 1016.28 610.145 C 994.428 617.592 963.519 627.807 941.38 633.849 C 933.052 608.286 924.049 577.433 915.332 552.706 C 919.676 550.471 923.786 548.411 927.954 545.849 C 929.481 550.021 936.898 571.939 938.681 573.795 L 939.375 572.967 C 938.741 567.107 931.725 551.298 929.144 544.949 C 931.251 543.064 941.371 533.689 943.034 533.056 L 944.024 532.038 C 945.05 528.04 952.919 516.845 955.615 512.522 z" fill="rgb(253,248,236)" transform="translate(0,0)"></path>
<path d="M 944.024 532.038 C 948.792 539.738 953.668 558.428 956.342 567.479 C 956.446 567.831 955.314 568.041 955.125 567.542 C 951.039 556.772 946.123 544.164 943.034 533.056 L 944.024 532.038 z" fill="rgb(107,96,81)" transform="translate(0,0)"></path>
<path d="M 1138.57 799.695 L 1188.47 799.629 C 1191.92 823.919 1198.28 851.39 1202.59 876.282 C 1199.31 876.609 1188.19 871.136 1185.29 869.269 C 1157.83 851.57 1146.41 829.704 1138.57 799.695 z" fill="rgb(207,107,52)" transform="translate(0,0)"></path>
<path d="M 733.193 882.381 C 751.307 882.252 779.122 884.341 797.628 885.302 C 792.071 893.356 772.388 920.476 764.115 923.017 C 741.797 921.994 719.515 920.276 697.304 917.865 C 708.508 907.695 722.221 893.29 733.193 882.381 z" fill="rgb(63,155,120)" transform="translate(0,0)"></path>
<path d="M 998.715 1110.16 C 1012.3 1111.05 1027.74 1112.36 1041.11 1114.42 C 1040.58 1120.02 1033.26 1168.07 1031.7 1171.03 C 1019.48 1168.7 1000.81 1168.01 988.181 1167.26 C 989.778 1151.26 995.44 1126.46 998.715 1110.16 z" fill="rgb(66,39,90)" transform="translate(0,0)"></path>
<path d="M 730.888 818.081 C 732.931 820.86 731.584 873.26 731.49 880.304 C 719.975 891.507 708.356 903.462 696.978 914.867 C 695.142 912.116 695.98 853.966 696.001 845.779 C 707.015 834.926 718.144 826.687 730.888 818.081 z" fill="rgb(63,155,120)" transform="translate(0,0)"></path>
<path d="M 694.473 920.675 C 717.672 921.808 740.404 924.737 763.883 925.522 C 750.918 936.743 740.713 945.313 726.67 955.112 C 716.677 961.326 672.995 956.006 659.028 955.498 C 671.041 944.094 682.858 932.485 694.473 920.675 z" fill="rgb(63,155,120)" transform="translate(0,0)"></path>
<path d="M 671.225 872.868 C 677.96 864.276 685.256 856.14 693.066 848.513 C 693.109 871.629 693.422 895.29 693.149 918.361 C 681.669 930.008 669.981 941.448 658.089 952.674 C 658.102 931.779 657.862 910.306 658.216 889.459 C 662.323 883.862 665.857 879.267 670.325 873.961 C 670.703 873.344 670.684 873.24 671.225 872.868 z" fill="rgb(63,155,120)" transform="translate(0,0)"></path>
<path d="M 772.682 843.104 C 787.535 842.841 805.545 843.726 820.744 843.853 C 816.488 855.037 806.484 873.051 799.861 883.002 C 795.505 883.021 791.601 882.525 787.281 882.061 C 770.379 881.506 752.894 880.437 735.974 879.576 L 772.682 843.104 z" fill="rgb(63,155,120)" transform="translate(0,0)"></path>
<path d="M 769.019 796.885 L 770.663 797.575 C 771.718 806.704 770.912 831.262 770.843 841.499 C 758.966 852.903 747.278 864.5 735.781 876.286 L 734.383 876.07 C 733.222 861.957 734.241 831.305 734.284 815.964 C 746.879 807.441 755.393 803.418 769.019 796.885 z" fill="rgb(63,155,120)" transform="translate(0,0)"></path>
<path d="M 1057.4 1324.76 C 1059.2 1291.5 1070.87 1292.48 1099.99 1293.1 C 1106.96 1293.25 1114.64 1293.09 1121.62 1293.04 C 1122.56 1298.28 1122.62 1319.63 1121.56 1324.7 C 1100.18 1324.49 1078.78 1324.51 1057.4 1324.76 z" fill="rgb(227,160,42)" transform="translate(0,0)"></path>
<path d="M 1121.62 1293.04 C 1122.56 1298.28 1122.62 1319.63 1121.56 1324.7 C 1120.65 1318.25 1120.68 1299.35 1121.62 1293.04 z" fill="rgb(123,80,9)" transform="translate(0,0)"></path>
<path d="M 1169.75 619.502 L 1172.51 619.24 C 1176.51 622.305 1179.37 635.42 1180.94 640.935 C 1156.38 642.039 1131.91 644.187 1107.33 645.223 L 1094.39 645.846 C 1095.5 640.419 1095.72 637.136 1096.09 631.586 L 1104.76 622.967 C 1126.08 622.992 1148.5 621.33 1169.75 619.502 z" fill="rgb(227,160,42)" transform="translate(0,0)"></path>
<path d="M 1455.65 969.224 L 1458.13 969.031 C 1460.05 970.791 1495.62 1090.61 1496.19 1099.28 C 1493.98 1101.85 1491.89 1101.86 1488.23 1103.09 L 1486.36 1103.43 C 1484.28 1101.47 1450.13 983.615 1447.56 972.151 C 1450.29 969.784 1451.81 970.075 1455.65 969.224 z" fill="rgb(227,160,42)" transform="translate(0,0)"></path>
<path d="M 911.386 1324.83 C 910.781 1321.48 910.256 1316.07 911.649 1312.94 C 957.739 1314.08 1009.82 1313.45 1056.05 1312.93 C 1056.07 1316.91 1056.61 1321.02 1054.71 1324.28 C 1048.98 1325.62 1026.4 1325.03 1019.2 1324.99 L 955.9 1324.59 C 941.611 1324.44 925.511 1323.83 911.386 1324.83 z" fill="rgb(227,160,42)" transform="translate(0,0)"></path>
<path d="M 911.386 1324.83 C 910.781 1321.48 910.256 1316.07 911.649 1312.94 C 912.358 1317.63 912.025 1320.3 911.386 1324.83 z" fill="rgb(76,52,10)" transform="translate(0,0)"></path>
<path d="M 1440.2 910.154 C 1443.08 910.913 1443.58 915.839 1444.28 918.432 L 1445.24 921.975 C 1449.48 936.836 1453.86 951.654 1458.39 966.427 C 1448.03 968.389 1446.46 969.274 1436.03 967.285 C 1427.5 963.006 1427.14 962.538 1424.76 953.551 C 1421.57 941.558 1417.9 929.754 1414.87 917.689 C 1423.18 914.779 1431.7 912.467 1440.2 910.154 z" fill="rgb(227,160,42)" transform="translate(0,0)"></path>
<path d="M 1343.09 940.169 C 1345.55 942.914 1366.47 1021.47 1369.01 1031.11 L 1358.24 1035.39 L 1345.84 1039.48 C 1344.13 1019.41 1342.02 999.387 1339.54 979.406 C 1338.24 968.3 1336.15 954.099 1336.04 943.208 C 1338.19 940.954 1339.74 941.111 1343.09 940.169 z" fill="rgb(253,248,236)" transform="translate(0,0)"></path>
<path d="M 1026.44 1203.31 C 1044.72 1202.96 1065.06 1202.79 1083.21 1203.77 C 1092.28 1204.25 1103.45 1206.56 1113.03 1207.53 L 1112.95 1221.67 L 1026.17 1221.9 L 1026.44 1203.31 z" fill="rgb(253,248,236)" transform="translate(0,0)"></path>
<path d="M 655.228 893.899 C 655.156 914.306 655.207 934.713 655.382 955.12 C 652.422 958.232 625.35 986.952 623.007 987.431 C 622.548 984.287 622.52 983.805 622.76 980.632 C 622.936 979.632 622.901 979.764 623.491 978.896 C 623.829 976.154 624.664 972.781 625.254 970.018 C 625.232 969.152 625.105 969.059 625.584 968.422 C 631.296 942.278 640.518 916.398 655.228 893.899 z" fill="rgb(63,155,120)" transform="translate(0,0)"></path>
<path d="M 622.76 980.632 C 622.936 979.632 622.901 979.764 623.491 978.896 C 623.328 980.035 623.468 980.001 622.76 980.632 z" fill="rgb(107,96,81)" transform="translate(0,0)"></path>
<path d="M 625.584 968.422 C 625.574 969.333 625.597 969.162 625.254 970.018 C 625.232 969.152 625.105 969.059 625.584 968.422 z" fill="rgb(107,96,81)" transform="translate(0,0)"></path>
<path d="M 656.643 958.007 C 673.79 959.859 700.118 960.373 717.667 960.498 C 687.39 977.502 663.904 985.527 629.492 989.525 C 627.372 989.995 628.2 989.961 626.038 989.41 L 627.16 987.581 L 656.643 958.007 z" fill="rgb(63,155,120)" transform="translate(0,0)"></path>
<path d="M 827.446 789.793 C 833.302 795.881 824.248 832.284 821.928 841.06 C 807.074 841.013 792.181 840.597 777.354 840.709 C 777.15 840.571 776.946 840.434 776.741 840.297 C 776.644 840.073 776.546 839.849 776.448 839.625 C 788.916 826.864 816.122 800.699 827.446 789.793 z" fill="rgb(63,155,120)" transform="translate(0,0)"></path>
<path d="M 814.248 785.516 C 818.539 785.902 823.138 785.946 827.481 786.142 C 812.027 801.388 795.822 816.173 780.76 831.5 C 778.346 833.978 775.91 836.434 773.451 838.867 C 773.428 824.24 773.606 809.613 773.985 794.99 C 788.29 789.939 798.93 786.36 814.248 785.516 z" fill="rgb(63,155,120)" transform="translate(0,0)"></path>
<path d="M 994.856 1203.8 C 1004.76 1204.01 1014.67 1204.06 1024.58 1203.95 C 1024.52 1208.75 1025.31 1217.52 1023.42 1221.56 C 1022.74 1223 1014.92 1219.83 1013.97 1224 C 1013.05 1227.98 1012.51 1233 1012.19 1237.1 C 1011.18 1242.66 1011.02 1246.4 1010.24 1251.85 L 994.972 1251.85 C 994.655 1235.83 994.616 1219.81 994.856 1203.8 z" fill="rgb(107,96,81)" transform="translate(0,0)"></path>
<path d="M 1591.48 651.123 C 1595.87 651.515 1599.01 687.426 1599.85 693.186 L 1588.53 693.253 L 1581.21 693.394 C 1575.49 693.487 1576.92 691.533 1577.87 686.471 C 1579.98 675.305 1581.64 663.8 1584.53 652.845 C 1584.79 651.839 1590.48 651.302 1591.48 651.123 z" fill="rgb(227,160,42)" transform="translate(0,0)"></path>
<path d="M 852.643 651.834 C 861.308 652.103 861.477 651.85 863.967 663.002 C 865.953 671.895 865.855 681.99 867.626 691.023 C 868.129 693.591 863.501 692.931 862.25 692.883 C 856.249 692.869 850.248 692.824 844.248 692.747 C 847.093 678.931 849.633 665.673 852.643 651.834 z" fill="rgb(227,160,42)" transform="translate(0,0)"></path>
<path d="M 941.586 427.418 C 948.836 427.35 955.591 427.309 962.881 427.106 C 962.949 439.354 963.669 461.663 962.52 473.122 C 958.426 462.589 958.584 451.538 951.427 441.263 C 949.805 438.935 941.858 428.478 941.586 427.418 z" fill="rgb(227,160,42)" transform="translate(0,0)"></path>
<path d="M 991.361 531.729 C 997.025 532.48 1000.52 535.121 1000.37 540.927 C 1000.2 547.61 1009.41 562.179 1000.22 560.585 C 999.129 560.724 992.825 561.965 992.55 561.245 C 989.591 553.51 986.862 544.772 985.657 536.579 C 985.527 535.699 990.763 532.18 991.361 531.729 z" fill="rgb(253,248,236)" transform="translate(0,0)"></path>
<path d="M 854.27 640.594 C 855.809 639.818 857.645 639.93 859.078 640.885 C 860.512 641.841 861.321 643.493 861.197 645.211 C 861.073 646.929 860.035 648.448 858.479 649.188 C 856.112 650.314 853.28 649.325 852.127 646.971 C 850.974 644.617 851.93 641.773 854.27 640.594 z" fill="rgb(227,160,42)" transform="translate(0,0)"></path>
<path d="M 961.716 490.876 C 965.244 497.318 963.837 507.329 957.573 512.331 C 955.478 510.338 960.818 495.19 961.716 490.876 z" fill="rgb(227,160,42)" transform="translate(0,0)"></path>
<path d="M 1586.09 641.473 C 1588.03 640.444 1590.43 641.062 1591.63 642.899 C 1592.84 644.736 1592.44 647.188 1590.72 648.555 C 1589.46 649.56 1587.74 649.763 1586.28 649.082 C 1584.82 648.4 1583.87 646.95 1583.83 645.338 C 1583.79 643.726 1584.66 642.229 1586.09 641.473 z" fill="rgb(227,160,42)" transform="translate(0,0)"></path>
<path d="M 400.988 261.008 L 736.899 260.913 L 737.079 564.926 L 401.575 564.968 C 402.028 533.586 401.115 499.253 401.043 467.611 L 400.988 261.008 z" fill="rgb(50,44,61)" transform="translate(0,0)"></path>
<path d="M 403.562 264.728 C 403.664 264.605 403.748 264.463 403.87 264.359 C 405.623 262.866 713.645 263.742 734.42 263.313 C 735.78 278.77 735.035 316.104 734.823 333.174 C 734.412 366.163 735.849 402.874 734.721 435.347 L 734.803 562.494 L 404.012 562.452 L 403.254 381.167 C 402.334 352.902 403.684 323.914 403.113 295.593 C 402.916 285.818 402.81 274.424 403.562 264.728 z" fill="rgb(138,90,134)" transform="translate(0,0)"></path>
<path d="M 734.42 263.313 C 735.78 278.77 735.035 316.104 734.823 333.174 C 734.412 366.163 735.849 402.874 734.721 435.347 C 732.852 409.698 734.029 371.354 733.944 344.649 C 733.873 322.528 732.818 284.325 734.42 263.313 z" fill="rgb(107,96,81)" transform="translate(0,0)"></path>
<path d="M 403.254 381.167 C 402.334 352.902 403.684 323.914 403.113 295.593 C 402.916 285.818 402.81 274.424 403.562 264.728 C 404.597 287.626 404.029 312.517 404.049 335.571 C 404.059 347.378 404.442 369.951 403.254 381.167 z" fill="rgb(107,96,81)" transform="translate(0,0)"></path>
<path d="M 442.067 299.824 C 456.967 290.817 474.552 293.73 491.644 293.93 L 551.893 294.554 L 642.925 294.388 C 656.468 294.362 674.822 292.231 687.874 295.6 C 693.515 297.056 701.608 301.745 704.478 306.88 C 706.664 310.79 708.458 316.25 708.847 320.699 C 710.351 337.881 710.13 510.508 707.778 517.69 C 704.975 526.248 698.546 532.661 690.389 536.181 C 688.343 537.064 686.203 537.623 684.04 538.139 C 676.104 540.019 641.248 539.121 630.967 539.044 L 532.654 538.542 C 520.572 538.517 466.206 539.781 457.956 538.239 C 447.954 537.437 431.587 527.2 430.529 516.757 C 428.475 496.471 429.436 474.39 429.439 453.839 L 429.494 325.034 C 429.62 312.847 432.511 308.841 440.927 300.585 L 442.067 299.824 z" fill="rgb(50,44,61)" transform="translate(0,0)"></path>
<path d="M 457.956 538.239 L 600.796 538.193 C 628.336 538.244 656.614 538.85 684.04 538.139 C 676.104 540.019 641.248 539.121 630.967 539.044 L 532.654 538.542 C 520.572 538.517 466.206 539.781 457.956 538.239 z" fill="rgb(107,96,81)" transform="translate(0,0)"></path>
<path d="M 454.331 296.225 C 487.002 294.609 520.642 296.447 553.395 296.504 C 594.317 296.575 635.831 295.119 676.691 296.863 C 681.366 297.062 687.634 297.359 691.989 299.24 C 697.822 301.76 703.417 308.911 705.446 314.824 C 708.131 322.649 707.789 490.912 706.584 510.281 C 706.33 514.367 705.593 517.829 703.634 521.465 C 699.298 529.51 692.896 533.238 684.521 535.878 C 645.639 537.83 604.846 536.022 565.736 535.973 C 546.938 535.95 463.352 538.214 452.453 534.797 C 444.839 532.411 437.605 527.282 434.278 519.826 C 432.427 515.676 431.962 510.745 431.752 506.251 C 430.447 478.335 431.95 449.715 431.949 421.736 C 431.948 389.578 430.563 356.993 431.76 324.885 C 431.891 321.349 432.147 317.15 433.558 313.868 C 437.613 304.432 445.163 299.859 454.331 296.225 z" fill="rgb(253,248,236)" transform="translate(0,0)"></path>
<path d="M 624.755 395.369 C 633.224 389.091 645.08 386.2 655.638 387.587 C 664.027 388.689 667.115 391.626 674.267 395.072 L 675.09 395.462 C 692.185 396.728 692.921 405.486 693.08 420.366 C 693.431 448.847 679.814 458.194 651.499 459.948 C 640.955 460.601 634.041 458.177 625.246 452.436 C 606.299 435.991 603.545 411.273 624.755 395.369 z" fill="rgb(253,248,236)" transform="translate(0,0)"></path>
<path d="M 624.755 395.369 C 633.224 389.091 645.08 386.2 655.638 387.587 C 664.027 388.689 667.115 391.626 674.267 395.072 L 675.09 395.462 L 675.015 395.903 C 675.605 396.53 676.117 397.098 676.684 397.74 L 671.98 399.716 C 670.362 398.978 668.857 398.438 667.199 397.815 C 654.716 398.507 643.843 396.542 631.754 397.699 L 631.068 397.76 C 629.897 398.656 628.819 399.402 627.613 400.239 C 614.937 409.344 617.185 428.84 621.752 441.825 C 623.218 445.005 623.538 445.047 625.708 447.817 C 625.543 449.356 625.389 450.895 625.246 452.436 C 606.299 435.991 603.545 411.273 624.755 395.369 z" fill="rgb(236,11,9)" transform="translate(0,0)"></path>
<path d="M 639.755 394.657 C 646.237 395.136 652.734 395.387 659.233 395.409 C 661.188 396.161 664.82 396.336 667.355 396.841 L 667.199 397.815 C 654.716 398.507 643.843 396.542 631.754 397.699 L 631.068 397.76 C 633.505 395.334 636.415 395.081 639.755 394.657 z" fill="rgb(58,52,52)" transform="translate(0,0)"></path>
<path d="M 639.755 394.657 C 646.805 391.497 652.599 392.029 659.233 395.409 C 652.734 395.387 646.237 395.136 639.755 394.657 z" fill="rgb(253,248,236)" transform="translate(0,0)"></path>
<path d="M 667.355 396.841 C 669.961 396.479 672.385 396.128 675.015 395.903 C 675.605 396.53 676.117 397.098 676.684 397.74 L 671.98 399.716 C 670.362 398.978 668.857 398.438 667.199 397.815 L 667.355 396.841 z" fill="rgb(184,58,35)" transform="translate(0,0)"></path>
<path d="M 690.97 416.373 C 691.655 417.714 692.358 419.045 693.08 420.366 C 693.431 448.847 679.814 458.194 651.499 459.948 C 640.955 460.601 634.041 458.177 625.246 452.436 C 625.389 450.895 625.543 449.356 625.708 447.817 L 627.186 448.203 C 641.684 447.564 662.168 447.61 676.858 448.093 C 677.869 447.346 678.89 446.614 679.922 445.896 C 686.747 436.161 686.529 436.526 688.016 424.657 C 691.776 422.983 690.467 420.692 690.97 416.373 z" fill="rgb(184,58,35)" transform="translate(0,0)"></path>
<path d="M 627.186 448.203 C 641.684 447.564 662.168 447.61 676.858 448.093 C 663.488 457.638 640.738 457.838 627.186 448.203 z" fill="rgb(253,248,236)" transform="translate(0,0)"></path>
<path d="M 675.09 395.462 C 692.185 396.728 692.921 405.486 693.08 420.366 C 692.358 419.045 691.655 417.714 690.97 416.373 C 690.467 420.692 691.776 422.983 688.016 424.657 C 684.986 412.605 681.744 407.777 671.98 399.716 L 676.684 397.74 C 676.117 397.098 675.605 396.53 675.015 395.903 L 675.09 395.462 z" fill="rgb(236,11,9)" transform="translate(0,0)"></path>
<path d="M 675.09 395.462 C 692.185 396.728 692.921 405.486 693.08 420.366 C 692.358 419.045 691.655 417.714 690.97 416.373 C 690.939 415.446 690.918 414.624 690.843 413.697 C 685.265 404.83 687.029 405.914 678.557 398.268 L 676.684 397.74 C 676.117 397.098 675.605 396.53 675.015 395.903 L 675.09 395.462 z" fill="rgb(30,22,18)" transform="translate(0,0)"></path>
<path d="M 678.557 398.268 C 688.625 399.05 689.772 405.24 690.843 413.697 C 685.265 404.83 687.029 405.914 678.557 398.268 z" fill="rgb(253,248,236)" transform="translate(0,0)"></path>
<path d="M 621.752 441.825 L 622.927 442.512 C 633.651 448.925 665.902 445.144 679.922 445.896 C 678.89 446.614 677.869 447.346 676.858 448.093 C 662.168 447.61 641.684 447.564 627.186 448.203 L 625.708 447.817 C 623.538 445.047 623.218 445.005 621.752 441.825 z" fill="rgb(107,96,81)" transform="translate(0,0)"></path>
<path d="M 546.268 396.107 C 559.317 395.548 572.573 396.054 585.743 395.757 C 601.009 395.411 609.272 401.198 609.04 417.542 C 608.859 430.253 609.948 441.979 595.884 446.874 C 581.316 447.992 555.192 449.616 541.364 445.969 C 529.326 442.794 530.57 412.781 535.058 403.869 C 537.558 398.904 541.279 397.734 546.268 396.107 z" fill="rgb(107,96,81)" transform="translate(0,0)"></path>
<path d="M 546.131 398.102 C 554.572 397.972 593.805 397.277 598.218 399.243 C 601.506 400.732 604.051 403.487 605.276 406.882 C 606.248 409.559 606.08 416.673 605.897 419.704 C 605.161 431.866 609.167 439.817 595.606 444.896 C 589.246 445.226 581.561 445.857 576.033 445.492 C 556.738 444.103 530.811 454.141 534.824 423.995 C 536.634 410.402 529.397 404.629 546.131 398.102 z" fill="rgb(253,248,236)" transform="translate(0,0)"></path>
<path d="M 459.689 396.175 C 468.969 395.8 521.779 391.513 522.17 404.987 C 522.622 420.563 529.228 440.958 511.039 446.863 C 499.772 447.97 489.993 447.655 479.01 447.831 C 461.004 448.495 447.459 448.939 448.966 425.807 C 449.793 413.122 444.851 403.173 459.689 396.175 z" fill="rgb(107,96,81)" transform="translate(0,0)"></path>
<path d="M 451.054 407.193 C 452.029 405.842 455.91 399.811 458.038 399.462 C 474.857 397.148 495.407 397.724 512.45 398.926 C 524.003 399.741 520.579 421.728 521.033 429.062 C 521.613 438.445 519.026 442.19 510.125 445.316 C 503.879 446.723 492.474 446.365 485.939 445.835 C 447.307 445.069 451.101 447.537 451.054 407.193 z" fill="rgb(253,248,236)" transform="translate(0,0)"></path>
<path d="M 485.939 445.835 C 492.076 445.19 503.936 444.996 510.125 445.316 C 503.879 446.723 492.474 446.365 485.939 445.835 z" fill="rgb(138,90,134)" transform="translate(0,0)"></path>
<path d="M 621.765 373.785 C 614.557 365.966 617.615 362.149 616.834 352.942 C 616.1 344.298 617.039 329.027 628.551 328.026 C 643.888 326.692 663.044 327.687 678.505 327.761 C 697.613 327.853 690.752 353.443 691.932 365.499 C 692.223 368.56 688.965 373.052 686.394 374.836 C 684.169 376.364 681.638 377.39 678.977 377.844 C 667.065 379.87 643.955 377.106 631.086 377.517 C 629.34 377.572 624.809 375.527 623.02 374.77 C 622.052 374.072 622.462 374.411 621.765 373.785 z" fill="rgb(107,96,81)" transform="translate(0,0)"></path>
<path d="M 686.958 333.256 C 690.347 339.13 693.233 370.963 684.291 373.784 C 670.493 378.136 640.393 375.623 627.672 374.413 C 614.8 373.187 616.225 334.089 625.985 330.939 C 633.23 328.601 679.406 329.141 685.241 331.378 C 685.982 332.096 686.23 332.398 686.958 333.256 z" fill="rgb(253,248,236)" transform="translate(0,0)"></path>
<path d="M 632.728 464.497 C 645.095 464.512 675.754 462.349 684.778 466.653 C 694.087 471.094 699.393 511.322 679.25 515.088 C 668.074 515.117 631.772 517.627 623.667 512.498 C 620.869 510.728 618.859 507.071 618.141 503.92 C 616.665 497.438 616.227 475.914 620.007 470.697 C 623.104 466.424 627.777 465.289 632.728 464.497 z" fill="rgb(107,96,81)" transform="translate(0,0)"></path>
<path d="M 631.818 466.703 C 637.589 465.755 674.122 465.515 679.836 466.491 C 695.684 473.663 688.546 486.883 689.792 502.972 C 691.128 520.213 638.75 511.091 629.156 512.404 C 624.989 512.975 620.98 506.826 619.668 503.238 C 618.637 497.363 618.465 480.858 619.596 475.143 C 623.589 469.326 624.384 467.926 631.818 466.703 z" fill="rgb(253,248,236)" transform="translate(0,0)"></path>
<path d="M 631.818 466.703 C 637.589 465.755 674.122 465.515 679.836 466.491 C 670.794 467.261 640.9 467.322 631.818 466.703 z" fill="rgb(138,90,134)" transform="translate(0,0)"></path>
<path d="M 619.596 475.143 C 620.229 482.639 620.212 495.693 619.668 503.238 C 618.637 497.363 618.465 480.858 619.596 475.143 z" fill="rgb(138,90,134)" transform="translate(0,0)"></path>
<path d="M 543.939 465.046 C 560.716 464.369 582.619 464.066 598.993 466.354 C 610.324 467.937 606.641 489.824 607.167 497.502 C 607.868 507.725 606.244 511.487 596.389 515.046 C 578.895 515.282 560.252 515.621 543.042 514.504 C 534.566 512.443 532.102 505.098 532.658 497.907 C 533.788 483.274 528.075 472.423 543.939 465.046 z" fill="rgb(107,96,81)" transform="translate(0,0)"></path>
<path d="M 543.629 467.157 C 559.419 466.653 578.953 466.536 594.93 467.371 C 597.911 467.589 602.22 470.153 603.489 472.745 C 605.207 476.516 605.297 483.105 604.888 487.339 C 603.781 498.828 609.099 507.134 597.142 512.914 C 579.758 513.414 561.473 513.562 544.18 512.625 C 536.271 512.197 534.006 503.357 534.79 496.941 C 536.375 483.99 530.124 474.502 543.629 467.157 z" fill="rgb(253,248,236)" transform="translate(0,0)"></path>
<path d="M 459.792 465.193 C 477.028 464.488 497.928 464.171 514.756 466.246 C 522.098 469.029 523.683 478.825 523.169 484.656 C 521.916 498.871 527.946 508.431 511.98 514.983 C 494.397 515.246 474.794 515.785 457.469 514.244 C 446.192 513.24 449.205 493.029 448.981 485.937 C 448.654 475.552 449.758 469.756 459.792 465.193 z" fill="rgb(58,52,52)" transform="translate(0,0)"></path>
<path d="M 459.516 467.149 C 476.937 467.028 494.93 466.672 512.179 467.526 C 519.007 468.721 521.588 477.524 520.969 483 C 519.506 495.956 525.771 505.733 512.38 512.88 C 495.484 513.616 477.806 513.19 460.998 512.886 C 449.519 511.582 450.804 500.8 451.123 492.739 C 451.603 480.611 448.213 474.539 459.516 467.149 z" fill="rgb(253,248,236)" transform="translate(0,0)"></path>
<path d="M 545.941 377.165 C 542.19 376.81 538.48 375.535 536.095 372.442 C 531.451 366.422 531.86 348.151 533.184 340.567 C 533.9 336.464 536.238 332.016 539.863 329.785 C 544.725 326.793 590.54 326.729 597.599 328.837 C 601.126 329.89 603.888 332.457 605.565 335.696 C 608.29 340.962 608.146 362.468 606.229 368.021 C 604.774 372.235 602.319 374.827 598.28 376.657 C 597.874 376.843 597.466 377.024 597.056 377.201 C 590.634 378.396 553.037 378.297 545.941 377.165 z" fill="rgb(107,96,81)" transform="translate(0,0)"></path>
<path d="M 545.941 377.165 C 556.587 376.533 586.406 376.476 597.056 377.201 C 590.634 378.396 553.037 378.297 545.941 377.165 z" fill="rgb(167,166,166)" transform="translate(0,0)"></path>
<path d="M 548.463 375.172 C 534.955 374 534.677 368.267 534.966 356.001 C 535.073 351.424 534.607 345.985 535.138 341.497 C 535.575 337.747 537.509 334.333 540.502 332.031 C 546.106 327.765 585.793 330.615 595.474 330.155 C 608.584 329.531 604.939 358.777 604.581 366.229 C 604.334 371.378 599.301 374.174 595.334 375.384 C 588.112 376.728 555.47 376.386 548.463 375.172 z" fill="rgb(253,248,236)" transform="translate(0,0)"></path>
<path d="M 548.463 375.172 C 559.11 374.68 584.781 374.616 595.334 375.384 C 588.112 376.728 555.47 376.386 548.463 375.172 z" fill="rgb(138,90,134)" transform="translate(0,0)"></path>
<path d="M 462.653 327.424 C 476.633 326.781 498.476 327.787 512.936 328.11 C 516.906 328.199 520.949 335.2 522.995 338.353 C 523.249 350.902 527.25 374.406 511.25 377.13 C 466.07 377.02 442.795 388.941 449.144 340.501 C 450.279 331.839 455.634 329.203 462.653 327.424 z" fill="rgb(107,96,81)" transform="translate(0,0)"></path>
<path d="M 460.584 375.238 C 444.621 371.261 450.178 333.202 457.621 331.373 C 471.8 327.888 497.006 330.313 512.332 330.227 C 522.164 330.172 527.275 369.582 511.477 375.273 C 504.601 376.611 467.85 376.575 460.584 375.238 z" fill="rgb(253,248,236)" transform="translate(0,0)"></path>
<path d="M 460.584 375.238 C 471.117 374.596 500.686 374.658 511.477 375.273 C 504.601 376.611 467.85 376.575 460.584 375.238 z" fill="rgb(167,166,166)" transform="translate(0,0)"></path>
<path d="M 1219.06 141.075 C 1230.94 151.3 1256.98 168.787 1270.81 178.643 L 1363.43 244.632 C 1369.14 244.681 1374.84 244.785 1380.54 244.942 C 1388.41 244.357 1412.73 244.258 1420.84 245.025 C 1423.33 245.662 1422.41 244.979 1423.78 247.002 C 1423.86 268.501 1426.64 346.616 1421.72 361.119 C 1418.89 369.469 1411.66 376.209 1403.85 379.94 C 1392.76 385.229 1381.97 384.635 1370.64 380.404 C 1360.21 376.51 1354.89 369.996 1350.29 360.077 C 1345.59 369.52 1341.19 375.022 1331.33 379.727 C 1321.41 384.397 1310.03 384.893 1299.74 381.106 C 1288.63 376.95 1283.03 370.383 1278.33 359.998 C 1261.21 391.592 1224.21 392.4 1206 360.749 C 1201.42 368.984 1196.41 374.659 1187.96 379.141 C 1178.49 384.145 1167.4 385.121 1157.2 381.85 C 1145.62 378.109 1139.31 371.246 1133.97 360.794 C 1129.08 369.48 1126.29 374.108 1116.97 379.131 C 1108.39 383.767 1098.29 384.685 1089.02 381.671 C 1078.01 378.197 1072.69 371.423 1067.58 361.636 C 1058.97 375.671 1049.86 383.117 1032.62 383.264 C 1019.14 384.011 1002.71 373.177 1000.12 359.359 C 997.547 345.67 998.302 327.307 998.296 312.976 C 998.241 290.247 998.306 267.518 998.494 244.79 C 1022.99 244.261 1048.89 245.362 1073.22 244.085 C 1119.92 213.411 1173.11 173.814 1219.06 141.075 z" fill="rgb(227,160,42)" transform="translate(0,0)"></path>
<path d="M 1219.06 141.075 C 1230.94 151.3 1256.98 168.787 1270.81 178.643 L 1363.43 244.632 C 1369.14 244.681 1374.84 244.785 1380.54 244.942 C 1363.25 247.782 1324.2 244.442 1302.98 246.869 C 1295.48 247.106 1286.61 246.885 1279.02 246.866 C 1263.07 247.703 1241.69 247.062 1225.41 247.037 L 1124.14 246.894 L 1045.1 246.997 C 1031.71 247.018 1012.92 247.617 1000.05 246.504 L 1000.05 312.891 C 999.998 338.882 994.822 381.387 1032.44 381.157 C 1056.29 381.011 1064.36 367.671 1067.36 346.441 C 1068.68 358.222 1070.06 366.594 1080.2 374.493 C 1087.34 379.989 1096.4 382.336 1105.31 380.989 C 1114.53 379.651 1122.04 375.196 1127.72 367.777 C 1132.79 361.161 1130.95 354.715 1133.5 352.408 C 1135.97 355.594 1135.25 358.877 1136.88 362.089 C 1147.63 383.349 1176.45 387.5 1194.22 372.388 C 1202.52 365.331 1202.48 362.175 1205.22 352.454 L 1206.33 352.895 C 1210.55 365.226 1213.25 372.513 1225.9 378.107 C 1251.79 389.559 1271.6 374.44 1278.39 350.051 C 1280.78 361.408 1282.94 368.506 1293.33 375.423 C 1301.86 381.073 1312.3 383.046 1322.3 380.897 C 1338.91 377.342 1347.44 365.779 1349.82 349.539 C 1352.74 361.356 1355 368.841 1366.15 375.729 C 1375.18 381.314 1386.09 383.013 1396.39 380.44 C 1410.97 376.734 1420.75 365.391 1421.45 350.154 C 1422.42 329.059 1421.74 307.9 1421.93 286.78 C 1421.94 277.932 1422.53 253.982 1421.47 247.023 L 1420.84 245.025 C 1423.33 245.662 1422.41 244.979 1423.78 247.002 C 1423.86 268.501 1426.64 346.616 1421.72 361.119 C 1418.89 369.469 1411.66 376.209 1403.85 379.94 C 1392.76 385.229 1381.97 384.635 1370.64 380.404 C 1360.21 376.51 1354.89 369.996 1350.29 360.077 C 1345.59 369.52 1341.19 375.022 1331.33 379.727 C 1321.41 384.397 1310.03 384.893 1299.74 381.106 C 1288.63 376.95 1283.03 370.383 1278.33 359.998 C 1261.21 391.592 1224.21 392.4 1206 360.749 C 1201.42 368.984 1196.41 374.659 1187.96 379.141 C 1178.49 384.145 1167.4 385.121 1157.2 381.85 C 1145.62 378.109 1139.31 371.246 1133.97 360.794 C 1129.08 369.48 1126.29 374.108 1116.97 379.131 C 1108.39 383.767 1098.29 384.685 1089.02 381.671 C 1078.01 378.197 1072.69 371.423 1067.58 361.636 C 1058.97 375.671 1049.86 383.117 1032.62 383.264 C 1019.14 384.011 1002.71 373.177 1000.12 359.359 C 997.547 345.67 998.302 327.307 998.296 312.976 C 998.241 290.247 998.306 267.518 998.494 244.79 C 1022.99 244.261 1048.89 245.362 1073.22 244.085 C 1119.92 213.411 1173.11 173.814 1219.06 141.075 z" fill="rgb(30,22,18)" transform="translate(0,0)"></path>
<path d="M 1000.05 246.504 C 1006.81 245.273 1027.03 245.661 1034.67 245.653 L 1100.91 245.632 L 1219.88 245.796 C 1232.31 245.847 1267.55 245.345 1279.02 246.866 C 1263.07 247.703 1241.69 247.062 1225.41 247.037 L 1124.14 246.894 L 1045.1 246.997 C 1031.71 247.018 1012.92 247.617 1000.05 246.504 z" fill="rgb(123,80,9)" transform="translate(0,0)"></path>
<path d="M 1217.62 144.833 C 1222.29 144.821 1347.69 236.541 1358.76 244.613 L 1219.5 244.709 L 1077.2 244.46 C 1122.54 210.892 1171.46 177.655 1217.62 144.833 z" fill="rgb(253,248,236)" transform="translate(0,0)"></path>
<path d="M 1380.54 244.942 C 1388.41 244.357 1412.73 244.258 1420.84 245.025 L 1421.47 247.023 C 1383.27 246.92 1340.67 248.021 1302.98 246.869 C 1324.2 244.442 1363.25 247.782 1380.54 244.942 z" fill="rgb(123,80,9)" transform="translate(0,0)"></path>
<path d="M 609.664 950.651 C 536.878 881.949 529.894 720.093 610.815 653 C 649.528 686.585 663.525 727.547 667.717 777.59 C 672.317 832.505 656.731 899.052 619.793 941.402 C 617.095 944.44 614.336 947.423 611.518 950.349 L 609.664 950.651 z" fill="rgb(6,10,8)" transform="translate(0,0)"></path>
<path d="M 662.497 755.205 C 664.297 763.32 664.735 770.028 665.35 778.228 C 666.275 779.808 666.049 779.785 665.756 781.697 C 666.206 790.045 665.969 798.49 665.865 806.856 L 611.973 857.659 L 611.981 803.606 C 628.334 787.023 645.942 771.676 662.497 755.205 z" fill="rgb(63,155,120)" transform="translate(0,0)"></path>
<path d="M 665.35 778.228 C 666.275 779.808 666.049 779.785 665.756 781.697 C 664.893 780.166 665.102 780.126 665.35 778.228 z" fill="rgb(107,96,81)" transform="translate(0,0)"></path>
<path d="M 558.565 756.392 C 575.368 772.609 592.746 788.507 609.43 804.704 L 609.224 858.89 C 592.54 843.236 571.781 824.378 556.334 807.213 C 555.65 806.453 555.633 804.472 555.603 803.424 C 555.554 801.21 555.575 798.994 555.666 796.781 C 554.21 794.153 555.157 791.403 555.726 788.452 C 555.112 778.132 556.979 766.638 558.565 756.392 z" fill="rgb(63,155,120)" transform="translate(0,0)"></path>
<path d="M 555.666 796.781 C 554.21 794.153 555.157 791.403 555.726 788.452 C 555.945 791.85 556.216 793.367 555.666 796.781 z" fill="rgb(107,96,81)" transform="translate(0,0)"></path>
<path d="M 611.935 861.007 L 666.11 809.842 C 665.555 815.255 665.146 820.829 664.684 826.264 C 665.03 827.798 665.136 827.695 664.355 828.952 C 664.256 834.512 663.095 840.476 662.197 845.828 C 657.736 872.415 653.547 875.185 635.183 892.159 C 627.387 899.467 619.674 906.865 612.047 914.351 L 611.935 861.007 z" fill="rgb(63,155,120)" transform="translate(0,0)"></path>
<path d="M 664.355 828.952 C 664.249 827.449 664.088 827.429 664.684 826.264 C 665.03 827.798 665.136 827.695 664.355 828.952 z" fill="rgb(107,96,81)" transform="translate(0,0)"></path>
<path d="M 556.046 815.755 L 556.397 812.655 C 558.342 812.929 603.641 857.339 609.24 862.461 C 609.006 879.992 608.983 897.525 609.173 915.057 C 594.968 902.27 581.141 888.504 567.018 876.037 C 560.801 856.105 560.04 845.963 556.82 825.33 C 555.482 820.927 555.784 820.44 556.046 815.755 z" fill="rgb(63,155,120)" transform="translate(0,0)"></path>
<path d="M 556.046 815.755 C 557.1 820.516 557.133 820.59 556.82 825.33 C 555.482 820.927 555.784 820.44 556.046 815.755 z" fill="rgb(107,96,81)" transform="translate(0,0)"></path>
<path d="M 571.279 710.484 C 578.69 715.702 602.387 739.351 609.562 746.521 L 609.745 801.783 L 602.738 794.766 C 588.594 780.875 573.237 767.396 558.82 753.551 C 561.697 736.503 564.617 726.185 571.279 710.484 z" fill="rgb(63,155,120)" transform="translate(0,0)"></path>
<path d="M 648.943 709.596 L 650.08 710.202 C 655.407 719.416 660.046 740.823 661.944 751.512 C 651.651 763.292 630.852 781.921 618.832 793.27 L 612.031 799.598 L 612.032 746.504 C 624.169 734.025 637.167 722.391 648.943 709.596 z" fill="rgb(63,155,120)" transform="translate(0,0)"></path>
<path d="M 608.561 657.876 C 610.497 659.878 609.577 733.755 609.559 742.973 L 591.82 725.5 L 572.547 707.47 C 580.645 688.48 592.566 671.043 608.561 657.876 z" fill="rgb(63,155,120)" transform="translate(0,0)"></path>
<path d="M 612.264 656.874 C 619.8 663.714 628.294 672.347 633.731 680.849 C 634.404 681.365 634.959 682.476 635.392 683.186 C 636.367 684.182 636.912 685.373 637.617 686.603 C 638.219 687.222 638.229 687.131 638.507 687.883 C 642.122 693.123 646.05 700.421 649.294 706.065 C 636.762 718.431 624.465 730.118 612.105 742.766 L 612.264 656.874 z" fill="rgb(63,155,120)" transform="translate(0,0)"></path>
<path d="M 569.891 882.816 C 580.321 890.789 597.583 908.291 609.566 918.41 C 609.239 927.918 609.611 938.106 609.176 947.201 C 594.62 935.695 575.607 900.554 569.891 882.816 z" fill="rgb(63,155,120)" transform="translate(0,0)"></path>
<path d="M 649.942 882.064 C 651.575 884.132 647.532 890.612 646.5 893.086 C 638.578 912.092 627.252 930.112 613.26 945.26 C 610.859 942.925 611.905 923.049 611.906 918.218 C 624.362 906.047 637.37 894.292 649.942 882.064 z" fill="rgb(63,155,120)" transform="translate(0,0)"></path>
<path d="M 599.433 993.056 C 568.825 994.247 532.438 980.92 506.052 966.205 C 457.467 939.111 409.835 889.92 395.03 835.095 C 392.566 825.972 387.073 798.35 391.391 788.107 C 391.926 786.837 394.025 786.301 395.393 786.222 C 426.781 784.399 465.292 801.32 490.025 818.466 C 529.168 845.603 564.828 884.316 583.889 927.863 C 591.118 944.379 598.053 974.095 601.147 991.523 L 599.433 993.056 z" fill="rgb(6,10,8)" transform="translate(0,0)"></path>
<path d="M 475.715 883.433 L 486.795 883.029 C 498.389 893.527 511.958 907.386 522.981 918.526 C 505.563 919.855 488.158 921.351 470.769 923.014 C 465.471 923.853 460.056 924.436 454.722 925.065 C 442.427 913.599 432.029 900.562 422.14 887.038 C 440.009 885.997 457.868 884.795 475.715 883.433 z" fill="rgb(63,155,120)" transform="translate(0,0)"></path>
<path d="M 517.078 921.425 C 518.144 921.268 521.716 921.202 522.976 921.151 C 529.762 923.861 554.14 949.612 560.609 955.974 C 540.663 957.119 520.71 958.15 500.752 959.067 C 491.873 958.542 463.892 933.52 457.018 927.464 C 475.807 924.417 497.679 923.227 517.078 921.425 z" fill="rgb(63,155,120)" transform="translate(0,0)"></path>
<path d="M 488.225 880.59 C 487.875 868.988 487.186 831.18 488.281 821.104 L 489.057 820.861 L 493.126 823.463 C 493.884 823.867 493.889 823.937 494.56 824.544 L 496.974 826.439 C 497.815 826.789 497.819 826.857 498.586 827.437 L 501.032 829.436 C 501.841 829.844 501.836 829.911 502.554 830.544 L 504.96 832.471 C 506.362 833.158 506.346 833 507.16 834.147 L 511.117 837.52 C 511.78 837.883 511.766 837.9 512.293 838.442 L 516.656 842.218 C 520.34 845.108 521.028 845.617 523.856 849.229 C 524.442 852.313 524.164 865.649 524.151 869.788 L 523.909 915.816 C 513.243 904.52 499.483 891.629 488.225 880.59 z" fill="rgb(63,155,120)" transform="translate(0,0)"></path>
<path d="M 516.656 842.218 C 520.34 845.108 521.028 845.617 523.856 849.229 C 520.596 846.873 519.135 845.321 516.656 842.218 z" fill="rgb(107,96,81)" transform="translate(0,0)"></path>
<path d="M 504.96 832.471 C 506.362 833.158 506.346 833 507.16 834.147 C 505.64 833.709 505.735 833.811 504.96 832.471 z" fill="rgb(107,96,81)" transform="translate(0,0)"></path>
<path d="M 526.948 851.676 C 535.43 860.475 543.035 868.222 550.65 877.85 C 551.265 878.365 551.181 878.376 551.615 879.061 L 555.822 884.841 C 556.411 885.29 556.516 885.454 557.013 886.005 L 558.582 888.71 C 559.521 889.741 559.484 889.613 560.081 890.764 C 563.134 898.861 561.204 941.746 561.128 953.221 L 526.497 918.757 L 526.948 851.676 z" fill="rgb(63,155,120)" transform="translate(0,0)"></path>
<path d="M 400.55 845.257 C 416.709 845.429 432.869 845.338 449.025 844.984 C 460.656 857.618 472.877 868.454 484.559 880.526 C 475.622 881.015 424.534 885.12 420.041 883.386 L 418.877 882 C 418.204 881.221 417.897 881.02 417.497 880.097 C 410.309 869.297 404.609 857.579 400.55 845.257 z" fill="rgb(63,155,120)" transform="translate(0,0)"></path>
<path d="M 449.385 798.917 C 462.05 804.779 473.505 809.897 485.093 817.772 C 485.303 837.525 485.35 857.279 485.232 877.032 L 484.38 877.095 C 473.093 865.417 461.519 854.116 450.244 842.493 C 449.67 827.975 449.384 813.447 449.385 798.917 z" fill="rgb(63,155,120)" transform="translate(0,0)"></path>
<path d="M 502.257 961.204 C 522.626 960.98 543.767 958.704 563.538 958.932 C 573.539 968.854 584.827 979.607 594.265 989.915 L 593.944 990.777 L 590.983 991.285 C 588.786 991.215 587.166 991.526 585.243 990.366 C 556.21 987.82 527.262 975.672 502.257 961.204 z" fill="rgb(63,155,120)" transform="translate(0,0)"></path>
<path d="M 585.243 990.366 C 588.197 990.067 588.152 990.364 590.983 991.285 C 588.786 991.215 587.166 991.526 585.243 990.366 z" fill="rgb(107,96,81)" transform="translate(0,0)"></path>
<path d="M 564.031 896.177 C 567.334 901.342 570.578 906.545 573.764 911.783 C 574.803 912.798 574.778 913.023 575.43 914.413 L 576.83 917.631 C 577.387 918.265 577.384 918.157 577.607 918.913 C 588.137 941.962 594.311 965.444 598.346 990.492 C 587.886 978.894 575.166 966.689 564.035 955.543 L 564.031 896.177 z" fill="rgb(63,155,120)" transform="translate(0,0)"></path>
<path d="M 573.764 911.783 C 574.803 912.798 574.778 913.023 575.43 914.413 C 574.078 913.432 574.243 913.464 573.764 911.783 z" fill="rgb(107,96,81)" transform="translate(0,0)"></path>
<path d="M 393.066 790.611 C 396.788 792.764 443.639 838.915 445.662 842.127 C 430.181 842.301 415.391 842.997 399.826 842.907 C 395.05 825.344 390.637 809.18 393.066 790.611 z" fill="rgb(63,155,120)" transform="translate(0,0)"></path>
<path d="M 395.268 788.124 C 416.4 787.803 427.502 791.563 446.956 797.921 C 446.858 811.802 446.964 825.684 447.271 839.561 C 434.157 827.573 421.957 813.613 408.847 801.54 C 404.058 797.13 399.683 792.939 395.268 788.124 z" fill="rgb(63,155,120)" transform="translate(0,0)"></path>
<path d="M 485.232 877.032 C 490.857 880.53 484.746 885.948 484.38 877.095 L 485.232 877.032 z" fill="rgb(6,10,8)" transform="translate(0,0)"></path>
<path d="M 854.859 381.868 L 857.007 382.256 C 871.659 382.072 886.313 382.083 900.965 382.289 C 900.92 386.929 900.368 400.997 901.725 404.636 L 900.725 406.485 C 896.535 405.314 885.614 402.491 881.929 404.656 L 879.879 406.086 C 878.892 405.451 877.837 404.927 876.734 404.527 C 871.533 402.668 841.627 403.185 835.867 405.854 L 834.352 404.155 C 827.09 404.395 818.085 405.405 811.134 407.48 L 810.427 405.61 C 811.088 400.539 810.676 387.64 810.643 381.983 C 825.381 382.096 840.121 382.058 854.859 381.868 z" fill="rgb(6,10,8)" transform="translate(0,0)"></path>
<path d="M 1590.17 382.356 C 1604.95 382.394 1619.74 382.357 1634.53 382.243 C 1634.44 387.614 1633.79 399.866 1635.11 404.296 C 1636.3 404.983 1636.78 405.365 1638.06 405.811 L 1636.7 407.355 L 1618.62 403.34 C 1614.78 402.527 1614.33 402.231 1610.65 403.145 L 1608.54 405.412 C 1601.64 402.722 1575.43 402.155 1569.24 406.315 L 1566.82 404.367 C 1561.7 403.843 1555.39 405.13 1550.18 405.94 L 1544.99 405.853 C 1544.95 402.126 1544.27 385.036 1545.77 382.559 C 1551.55 383.469 1585.09 384.315 1590.17 382.356 z" fill="rgb(6,10,8)" transform="translate(0,0)"></path>
<path d="M 1588.04 382.259 L 1587.97 216.191 C 1587.97 204.783 1586.79 132.95 1589.69 127.628 C 1591.6 152.523 1590.3 193.69 1590.26 220.135 L 1590.17 382.356 C 1585.09 384.315 1551.55 383.469 1545.77 382.559 C 1557.69 381.525 1575.65 382.117 1588.04 382.259 z" fill="rgb(30,22,18)" transform="translate(0,0)"></path>
<path d="M 854.859 381.868 C 854.807 353.288 854.044 129.886 856.002 127.369 C 858.83 134.301 856.989 353.579 857.007 382.256 L 854.859 381.868 z" fill="rgb(30,22,18)" transform="translate(0,0)"></path>
<path d="M 513.539 1323.33 C 516.197 1323.59 516.663 1324.21 518.545 1325.02 C 521.838 1326.45 530.899 1325.74 534.975 1325.7 C 537.307 1325.95 540.389 1326.18 542.57 1326.76 C 522.379 1327.65 310.372 1328.42 303.316 1326.16 L 303.339 1325.29 C 311.578 1324.19 345.716 1324.72 355.662 1324.68 L 466.534 1324.31 C 478.544 1324.28 502.402 1325.36 513.539 1323.33 z" fill="rgb(107,96,81)" transform="translate(0,0)"></path>
<metadata><recraft-signature>{"signed_by": "recraft", "signature_b64": "ACPnOcqqT9X3JjKoUJMY84kiUob9wXmU1gELTsnKpJFa8yqE/qAbSUxQ6e2p/9oMSmYKB5tCt5DC1W3z9iRrCw==", "signing_algo": "Ed25519", "generation_timestamp": 1781421507, "identifier": "740f5faa-a8d3-4a7e-b0b2-78d6cc80ef92"}</recraft-signature></metadata></svg>