<svg xmlns="http://www.w3.org/2000/svg" height="896" preserveAspectRatio="none" style="display: block;" version="1.1" viewBox="0 0 2048 1509" width="1216">
<defs>
	<linearGradient gradientUnits="userSpaceOnUse" id="Gradient1" x1="716.472" x2="727.633" y1="497.482" y2="556.069">
		<stop class="stop0" offset="0" stop-color="rgb(201,116,33)" stop-opacity="1"></stop>
		<stop class="stop1" offset="1" stop-color="rgb(220,148,44)" stop-opacity="1"></stop>
	</linearGradient>
	<linearGradient gradientUnits="userSpaceOnUse" id="Gradient2" x1="932.831" x2="942.283" y1="695.279" y2="693.147">
		<stop class="stop0" offset="0" stop-color="rgb(37,14,8)" stop-opacity="1"></stop>
		<stop class="stop1" offset="1" stop-color="rgb(68,23,11)" stop-opacity="1"></stop>
	</linearGradient>
</defs>
<path d="M 0 0 L 2048 0 L 2048 1509 L 0 1509 L 0 0 z" fill="rgb(253,248,236)" transform="translate(0,0)"></path>
<path d="M 1025.17 135.415 C 1024.89 115.895 1022.57 76.832 1024.09 59.1181 C 1026.26 64.2388 1026.08 86.7052 1026.12 92.9175 C 1027.08 99.3963 1027.06 106.06 1026.79 112.596 L 1027.08 134.747 C 1027.84 138.992 1028.09 139.981 1027.65 144.194 C 1028.88 194.967 1035.38 252.775 1037.9 304.704 C 1043.16 422.224 1047.53 539.782 1051.01 657.368 C 1051.1 660.473 1050.65 663.525 1052.01 665.882 C 1053.53 662.328 1053.58 660.117 1054.03 656.318 L 1125.34 168.148 C 1126.9 156.767 1139.04 64.8197 1140.36 63.2592 C 1141.9 66.2852 1132.84 127.538 1131.7 135.673 L 1112.59 269.133 L 1068.73 574.985 C 1063.68 608.794 1056.47 645.895 1052.44 679.512 C 1049.69 702.498 1053.11 741.441 1052.2 766.356 C 1053.05 768.681 1052.8 774.579 1052.83 777.392 C 1052.89 779.774 1053.07 781.93 1053.26 784.299 C 1054.52 782.334 1055.46 778.631 1056.18 776.287 L 1199.24 287.919 L 1227.84 188.992 C 1232.05 174.025 1251.86 96.178 1257.65 87.9094 C 1243.72 142.508 1226.54 200.317 1210.87 254.659 L 1127.08 540.636 L 1074.98 718.082 C 1069.15 738.27 1063.54 759 1057.31 779.028 C 1049.92 802.778 1053.98 823.524 1052.85 848.012 C 1052.94 850.387 1052.59 854.866 1053.87 856.111 C 1054.73 854.184 1055.35 852.726 1056.05 850.708 C 1081.04 781.743 1111.68 713.355 1139.38 645.269 L 1279.6 300.931 C 1287.56 281.323 1349.78 122.125 1355.57 116.265 C 1356.1 120.707 1153.1 617.132 1134.77 661.529 L 1084.58 782.405 C 1073.88 808.369 1062.27 837.48 1054.15 864.363 C 1052.35 870.333 1053.19 896.137 1053.23 903.714 C 1058.21 893.839 1063.63 880.464 1068.3 870.105 C 1076.99 851.115 1085.96 832.254 1095.2 813.526 C 1113.75 776.54 1137.99 735.151 1157.93 697.809 C 1152.25 691.296 1149.61 681.59 1163.39 681.127 C 1168.14 680.968 1163.79 683.649 1168.62 677.566 C 1172.46 670.682 1176.45 663.414 1179.98 656.365 C 1204.46 607.55 1234.64 559.125 1257.47 509.737 C 1264.16 514.35 1266.73 516.142 1274.2 519.471 C 1271.29 520.554 1270.8 520.489 1267.8 519.722 C 1267.68 521.474 1267.63 522.247 1267.74 523.993 C 1275.64 531.529 1289.87 542.709 1300.39 545.908 L 1301.96 545.045 L 1303.68 545.809 L 1303.97 547.27 L 1303.55 547.857 C 1317.05 555.613 1333.74 558.734 1349.09 560.127 C 1354.74 555.813 1362.85 558.954 1373.87 556.543 L 1373.7 558.9 C 1369.64 561.807 1347.8 590.573 1342.96 596.454 L 1265.99 688.359 C 1200.15 766.088 1133.59 843.871 1066.53 920.619 C 1061.33 926.573 1053.7 934.921 1049.97 941.672 C 1062.26 934.205 1088.91 909.543 1101.27 899.194 C 1153.61 855.368 1202.27 807.786 1251.88 761.048 C 1301.19 714.59 1355.23 668.745 1402.76 620.462 C 1402.56 622.236 1402.4 622.975 1402 624.681 L 1258.54 757.641 C 1228.85 785.37 1200.19 813.283 1170.13 840.868 C 1137.52 870.538 1104.42 899.658 1070.84 928.216 C 1069.3 930.36 1068.55 930.81 1068.35 933.484 C 1070.42 932.473 1073.87 929.991 1075.91 928.618 C 1076.49 927.957 1076.35 928.054 1077.13 927.665 C 1123.96 895.348 1172.27 865.582 1219.34 832.864 C 1259.56 804.349 1299.48 775.413 1339.09 746.06 C 1385.8 711.916 1432.27 677.454 1478.5 642.678 L 1663.99 502.575 C 1683.22 487.997 1702.35 473.3 1721.4 458.485 C 1732.92 449.509 1751.21 434.639 1763.49 427.108 L 1764.71 427.461 C 1762.73 429.761 1733.53 451.557 1728.22 455.633 C 1691.2 484.428 1653.89 512.846 1616.29 540.882 C 1526.67 609.307 1436.44 676.937 1345.61 743.766 C 1296.85 780.115 1247.44 815.608 1197.43 850.228 C 1183.01 860.052 1064.64 936.698 1063.17 941.37 C 1071.76 943.275 1116.09 917.709 1126.14 912.296 C 1154.22 896.913 1182.45 881.776 1210.8 866.887 L 1211.61 868.997 C 1206.06 870.806 1073.29 943.064 1073.77 942.417 L 1074.71 943.429 C 1086.7 945.948 1297.86 858.506 1328.33 848.975 C 1329.03 847.428 1329.03 846.727 1330.61 847.578 C 1344.82 842.843 1362.69 835.431 1376.98 829.957 L 1465.24 795.955 L 1723.75 694.822 C 1762.25 679.756 1800.29 663.329 1838.89 648.453 C 1843.47 646.689 1847.46 645.222 1852.28 644.098 L 1852.36 644.622 C 1837.72 651.953 1819.62 657.544 1804.32 664.091 C 1754.55 685.389 1703.51 704.046 1653.41 724.306 C 1465.17 798.485 1276.5 871.574 1087.41 943.57 C 1119.37 945.663 1155.19 932.341 1186.02 924.179 L 1289.65 896.498 L 1590.3 818.217 C 1590.13 813.021 1590.42 811.69 1591.39 806.658 C 1598.2 782.448 1621.49 783.043 1641.63 783.665 C 1663.43 784.338 1674.43 781.764 1689.1 800.303 C 1697.48 795.802 1862.64 751.477 1864.82 751.955 C 1861.4 755.798 1853.01 755.371 1848.23 757.021 C 1834.81 761.647 1820.94 765.16 1807.25 768.942 L 1690.01 801.06 C 1693.19 814.606 1691.56 826.633 1693.74 839.978 C 1695.23 849.056 1709.68 848.442 1716.4 848.284 C 1727.26 847.943 1738.13 847.7 1748.99 847.553 C 1769.99 847.361 1783.05 847.398 1792.79 868.24 C 1813.01 866.034 1833.01 862.924 1853.23 860.8 C 1856.68 860.437 1860.03 859.732 1863.4 858.898 L 1864.91 859.414 C 1862.35 863.202 1803.63 867.907 1794.04 871.027 C 1793.03 872.686 1793.09 872.156 1792.76 873.95 C 1794.63 880.296 1795.86 885.325 1802.1 888.703 C 1811.63 893.857 1848.81 891.489 1861.3 891.898 C 1855.94 910.278 1843.52 944.086 1834.58 961.164 C 1829.26 973.34 1820.86 987.99 1814.15 999.527 C 1709.55 1179.29 1495.2 1295.37 1299.3 1347.01 C 1031.33 1417.64 730.948 1381.33 490.636 1241.92 C 415.659 1198.43 327.48 1128.81 274.562 1060.18 C 249.033 1026.93 227.571 990.738 210.631 952.387 C 204.478 938.745 190.393 905.378 186.638 890.982 C 192.006 890.956 197.375 891.022 202.74 891.18 C 232.475 891.785 218.233 887.804 236.893 870.242 L 237.811 869.389 C 224.36 868.558 198.68 863.863 184.795 861.324 L 185.358 860.81 C 209.426 859.986 229.348 872.541 253.462 864.684 C 261.822 864.417 273.047 865.762 281.06 864.387 C 303.635 860.515 287.828 821.533 315.181 818.952 C 333.993 817.177 360.225 816.164 377.957 818.277 C 402.816 821.237 399.396 842.742 405.861 859.031 C 414.157 870.434 469.201 861.837 485.735 864.687 C 519.804 870.559 506.914 885.74 517.937 903.031 C 523.424 911.637 581.285 905.235 594.316 907.3 C 607.638 909.411 611.537 910.367 620.932 921.418 C 652.612 927.186 689.659 929.631 720.08 936.242 C 722.84 924.838 725.411 914.108 727.606 902.591 C 694.137 892.394 658.508 884.174 624.591 874.737 L 359.843 802.144 L 250.823 772.339 C 229.401 766.435 205.739 760.701 184.918 753.487 C 194.504 753.939 230.922 764.948 241.965 768.097 L 337.597 794.381 L 614.751 869.985 C 649.665 879.691 694.788 889.919 728.097 901.003 C 730.702 889.052 733.805 876.773 736.657 864.843 C 722.438 857.657 701.286 849.796 685.882 843.542 L 596.323 807.335 L 301.855 689.631 L 225.067 658.757 C 219.327 656.434 197.167 647.872 194.054 645.477 L 195.519 644.933 C 240.89 662.124 289.752 682.774 335.145 700.876 L 554.069 788.13 L 667.726 834.008 C 689.97 842.967 715.301 852.6 736.81 862.699 C 738.135 856.719 742.606 840.256 743.617 833.344 C 742.519 832.547 741.42 831.749 740.322 830.951 C 739.98 828.832 739.14 825.649 738.596 823.7 C 737.979 825.05 737.33 826.385 736.65 827.704 C 731.769 837.074 724.525 837.255 715.933 832.416 L 714.971 831.867 L 712.899 830.389 C 706.835 818.367 704.21 813.121 710.032 799.797 C 710.802 798.035 711.185 796.961 711.474 795.101 L 712.198 794.399 C 716.197 792.829 718.305 790.098 721.36 786.989 C 712.159 783.213 702.883 779.623 693.537 776.222 C 695.474 768.179 707.129 734.485 705.66 730.009 L 706.286 728.678 C 708.069 727.404 726.566 674.169 729.017 668.365 C 709.712 648.905 687.89 629.13 667.901 610.121 L 669.708 609.03 C 688.652 625.719 711.679 648.666 729.936 666.301 C 737.055 648.06 745.282 632.905 757.258 617.475 L 716.374 570.202 C 715.532 569.421 715.527 569.525 715.003 568.627 C 714.098 567.468 710.82 562.951 709.422 563.18 C 700.945 564.573 658.34 576.951 656.27 565.385 C 659.151 559.607 680.008 545.755 686.525 541.053 C 678.401 530.221 670.26 520.489 661.593 510.125 C 660.913 509.611 661.01 509.737 660.57 509.022 C 648.743 494.679 636.367 480.316 624.357 466.086 C 623.245 465.345 623.363 465.306 622.574 464.04 C 610.624 450.242 599.469 435.586 587.143 422.011 L 590 422.001 C 623.087 461.048 655.963 500.273 688.629 539.672 C 703.871 527.839 719.35 515.505 735.038 504.328 L 734.582 503.389 C 730.389 494.863 720.7 480.323 715.417 471.92 C 701.799 450.25 687.97 428.714 673.932 407.315 L 564.376 236.69 C 558.846 228.011 535.206 193.842 533.697 187.023 C 540.25 194.276 547.618 207.718 553.029 216.105 L 599.915 288.816 C 646.259 359.796 691.958 431.194 737.008 503.002 C 743.861 497.967 750.639 492.831 757.34 487.595 C 762.688 472.267 765.863 455.968 770.673 440.759 C 767.58 439.807 747.478 441.786 755.192 424.978 C 758.862 416.98 767.909 420.293 774.148 425.012 C 790.138 433.66 809.086 447.068 823.883 454.62 L 741.133 244.372 C 727.077 208.563 712.686 172.887 697.962 137.347 C 696.361 133.564 691.39 121.42 691.884 118.405 C 694.794 121.814 699.658 136.389 701.701 141.413 C 739.859 235.243 777.24 329.491 814.07 423.852 C 817.542 432.748 823.42 450.996 828.779 458.162 C 848.909 455.839 871.337 454.555 891.69 453.221 C 867.496 361.166 839.23 269.007 813.852 176.945 L 796.542 114.837 C 794.691 108.146 791.478 98.7786 790.061 92.5119 C 789.545 90.2862 789.477 87.9804 789.859 85.728 C 793.068 92.1891 799.479 118.568 801.676 126.559 L 825.847 213.514 L 893.73 453.061 L 959.64 449.106 C 953.047 415.519 900.201 68.2407 901.307 64.3537 C 906.055 74.8312 909.034 110.087 911.119 123.046 C 928.545 231.37 943.015 340.33 961.553 448.477 C 961.687 449.261 965.841 450.662 966.697 450.941 C 967.621 454.369 964.628 456.862 962.164 459.058 C 965.092 470.713 967.275 487.741 969.246 499.924 L 980.697 568.265 L 1014.32 756.585 L 1014.84 756.555 C 1016.21 754.813 1016.1 685.687 1016.8 675.641 L 1020.3 370.65 C 1021.83 298.091 1026.3 221.402 1025.84 149.351 C 1025 143.726 1025.02 141.117 1025.17 135.415 z" fill="rgb(44,40,36)" transform="translate(0,0)"></path>
<path d="M 1689.1 800.303 C 1697.48 795.802 1862.64 751.477 1864.82 751.955 C 1861.4 755.798 1853.01 755.371 1848.23 757.021 C 1834.81 761.647 1820.94 765.16 1807.25 768.942 L 1690.01 801.06 C 1693.19 814.606 1691.56 826.633 1693.74 839.978 C 1695.23 849.056 1709.68 848.442 1716.4 848.284 C 1727.26 847.943 1738.13 847.7 1748.99 847.553 C 1769.99 847.361 1783.05 847.398 1792.79 868.24 C 1813.01 866.034 1833.01 862.924 1853.23 860.8 C 1856.68 860.437 1860.03 859.732 1863.4 858.898 L 1864.91 859.414 C 1862.35 863.202 1803.63 867.907 1794.04 871.027 C 1793.03 872.686 1793.09 872.156 1792.76 873.95 C 1794.63 880.296 1795.86 885.325 1802.1 888.703 C 1811.63 893.857 1848.81 891.489 1861.3 891.898 C 1855.94 910.278 1843.52 944.086 1834.58 961.164 C 1817.12 966.96 1748.81 960.854 1727.1 961.644 C 1717.08 962.009 1726.53 920.112 1707.82 913.609 C 1674.45 902.006 1634.96 909.123 1598.98 907.739 C 1568.21 906.555 1563.33 930.079 1563.89 955.942 C 1561.94 958.609 1560.7 960.494 1558.22 962.783 C 1519.72 963.692 1481.2 961.554 1442.7 964.195 C 1411.33 966.346 1428.66 1003.43 1404.02 1003.58 C 1384.28 1003.7 1372.98 996.7 1360.9 1018.57 C 1355.24 1015.81 1297.04 990.137 1296.6 988.814 C 1295.34 985.039 1295.63 981.068 1294.26 977.417 C 1295.46 970.672 1298.22 967.881 1302.58 962.972 C 1302.41 962.391 1302.24 961.811 1302.07 961.231 L 1307.12 959.969 C 1333.71 947.731 1354.76 962.371 1377.91 950.026 C 1386.71 945.33 1385.95 929.587 1388.05 918.73 L 1387.8 916.819 C 1393.47 914.903 1398.68 903.271 1412.34 900.819 C 1430.77 897.512 1467.52 904.456 1482.61 896.765 C 1499.29 888.266 1484.03 857.264 1513.09 849.224 C 1532.45 843.87 1570.06 853.74 1586.43 843.908 C 1591.22 841.037 1590.56 826.353 1590.65 820.141 L 1591.6 826.351 L 1592.32 826.562 C 1593.13 821.254 1592.89 811.811 1591.39 806.658 C 1598.2 782.448 1621.49 783.043 1641.63 783.665 C 1663.43 784.338 1674.43 781.764 1689.1 800.303 z" fill="rgb(107,96,81)" transform="translate(0,0)"></path>
<path d="M 1029.75 213.04 C 1035.99 300.568 1040.35 388.221 1042.81 475.937 L 1047.71 636.393 C 1048.28 650.568 1048.18 668.837 1049.09 682.352 C 1048.5 688.022 1049.18 716.301 1049.84 722.149 C 1049.82 730.534 1049.74 738.891 1050.06 747.271 C 1050.54 748.619 1050.69 760.239 1052.2 766.356 C 1053.05 768.681 1052.8 774.579 1052.83 777.392 C 1052.89 779.774 1053.07 781.93 1053.26 784.299 C 1053.09 784.584 1052.92 785.11 1052.55 785.259 L 1052.57 785.163 C 1052.19 784.741 1051.28 781.249 1050.93 780.311 C 1049.76 799.294 1050.82 831.909 1050.81 851.856 L 1051.07 1004.75 C 1040.84 1004.74 1030.62 1004.84 1020.4 1005.08 L 1020.2 536.02 C 1020.68 531.193 1021.44 477.61 1020.9 473.35 L 1024.24 301.922 C 1024.88 280.225 1024.86 246.655 1026.96 226.06 C 1028.28 219.958 1027.05 216.987 1029.75 213.04 z" fill="rgb(227,160,42)" transform="translate(0,0)"></path>
<path d="M 1050.06 747.271 C 1050.54 748.619 1050.69 760.239 1052.2 766.356 C 1053.05 768.681 1052.8 774.579 1052.83 777.392 C 1052.89 779.774 1053.07 781.93 1053.26 784.299 C 1053.09 784.584 1052.92 785.11 1052.55 785.259 L 1052.57 785.163 C 1052.19 784.741 1051.28 781.249 1050.93 780.311 C 1050.27 775.566 1049.56 751.722 1050.06 747.271 z" fill="rgb(79,49,16)" transform="translate(0,0)"></path>
<path d="M 1257.47 509.737 C 1264.16 514.35 1266.73 516.142 1274.2 519.471 C 1271.29 520.554 1270.8 520.489 1267.8 519.722 C 1267.68 521.474 1267.63 522.247 1267.74 523.993 C 1275.64 531.529 1289.87 542.709 1300.39 545.908 C 1299.18 552.42 1254.36 619.448 1247.42 630.128 L 1053.34 925.039 C 1052.96 902.449 1064.6 883.635 1073.5 863.315 C 1093.37 817.936 1118.39 775.363 1142 731.92 C 1145.85 724.87 1157.02 705.608 1159.84 699.016 L 1157.93 697.809 C 1152.25 691.296 1149.61 681.59 1163.39 681.127 C 1168.14 680.968 1163.79 683.649 1168.62 677.566 C 1172.46 670.682 1176.45 663.414 1179.98 656.365 C 1204.46 607.55 1234.64 559.125 1257.47 509.737 z" fill="rgb(253,248,236)" transform="translate(0,0)"></path>
<path d="M 1257.47 509.737 C 1264.16 514.35 1266.73 516.142 1274.2 519.471 C 1271.29 520.554 1270.8 520.489 1267.8 519.722 C 1267.68 521.474 1267.63 522.247 1267.74 523.993 C 1264.51 520.63 1261.34 517.202 1258.24 513.713 C 1236.65 552.709 1216.68 593.034 1195.11 632.093 C 1187.05 646.683 1178.73 664.198 1170.19 678.181 L 1168.62 677.566 C 1172.46 670.682 1176.45 663.414 1179.98 656.365 C 1204.46 607.55 1234.64 559.125 1257.47 509.737 z" fill="rgb(44,40,36)" transform="translate(0,0)"></path>
<path d="M 1168.62 677.566 L 1170.19 678.181 C 1169.11 680.211 1166.66 682.473 1167.44 684.654 C 1169.99 691.715 1166.76 696.515 1159.84 699.016 L 1157.93 697.809 C 1152.25 691.296 1149.61 681.59 1163.39 681.127 C 1168.14 680.968 1163.79 683.649 1168.62 677.566 z" fill="rgb(107,96,81)" transform="translate(0,0)"></path>
<path d="M 1303.55 547.857 C 1317.05 555.613 1333.74 558.734 1349.09 560.127 L 1368.71 560.017 C 1352.71 584.613 1316.33 624.805 1296.4 648.954 C 1244.29 711.076 1191.83 772.898 1139.01 834.416 C 1112.55 864.95 1084.63 894.858 1059.11 926.042 C 1057.01 928.528 1057.09 928.513 1054.37 930.239 C 1054.01 928.082 1055.55 926.376 1056.85 924.051 C 1062.29 913.42 1083.04 884.463 1090.42 873.497 C 1112.7 840.431 1134.76 807.222 1156.61 773.871 L 1259.97 614.291 C 1273.4 593.733 1289.39 567.014 1303.55 547.857 z" fill="rgb(253,248,236)" transform="translate(0,0)"></path>
<path d="M 1110.36 945.451 L 1439.04 859.814 C 1487.56 847.138 1542.32 831.011 1590.65 820.141 C 1590.56 826.353 1591.22 841.037 1586.43 843.908 C 1570.06 853.74 1532.45 843.87 1513.09 849.224 C 1484.03 857.264 1499.29 888.266 1482.61 896.765 C 1467.52 904.456 1430.77 897.512 1412.34 900.819 C 1398.68 903.271 1393.47 914.903 1387.8 916.819 L 1228.04 938.08 C 1201.55 941.859 1172.83 948.015 1146.56 949.963 C 1141.65 950.328 1119.52 946.008 1110.36 945.451 z" fill="rgb(253,248,236)" transform="translate(0,0)"></path>
<path d="M 1155.06 951.963 C 1176.13 946.935 1210.18 942.559 1231.92 939.472 L 1388.05 918.73 C 1385.95 929.587 1386.71 945.33 1377.91 950.026 C 1354.76 962.371 1333.71 947.731 1307.12 959.969 L 1302.07 961.231 C 1302.24 961.811 1302.41 962.391 1302.58 962.972 L 1244.26 962.827 C 1235.26 962.8 1218.89 962.226 1210.74 963.513 C 1207.99 962.504 1207.66 962.419 1205.31 960.734 C 1199.65 961.169 1163.85 953.381 1155.06 951.963 z" fill="rgb(253,248,236)" transform="translate(0,0)"></path>
<path d="M 1205.31 960.734 C 1207.24 959.655 1296.73 960.041 1307.12 959.969 L 1302.07 961.231 C 1302.24 961.811 1302.41 962.391 1302.58 962.972 L 1244.26 962.827 C 1235.26 962.8 1218.89 962.226 1210.74 963.513 C 1207.99 962.504 1207.66 962.419 1205.31 960.734 z" fill="rgb(138,90,134)" transform="translate(0,0)"></path>
<path d="M 715.432 828.816 C 706.074 820.069 707.268 802.779 716.432 794.436 C 718.963 792.131 721.202 790.106 723.809 787.883 C 732.278 791.41 741.144 794.826 749.446 798.726 C 748.359 804.221 747.493 808.571 746.796 814.497 C 746.464 817.319 745.405 826.344 743.795 828.864 C 743.36 829.544 742.487 829.002 742.293 827.976 C 741.222 822.325 745.193 813.594 742.851 808.591 C 742.741 808.436 742.112 808.35 741.984 808.507 C 735.989 815.829 738.358 835.3 722.817 833.547 C 720.706 833.309 718.185 831.633 716.317 830.151 L 715.432 828.816 z" fill="rgb(253,248,236)" transform="translate(0,0)"></path>
<path d="M 1210.74 963.513 C 1218.89 962.226 1235.26 962.8 1244.26 962.827 L 1302.58 962.972 C 1298.22 967.881 1295.46 970.672 1294.26 977.417 L 1292.8 988.823 C 1264.54 979.415 1239.49 971.112 1210.74 963.513 z" fill="rgb(253,248,236)" transform="translate(0,0)"></path>
<path d="M 770.673 440.759 C 767.58 439.807 747.478 441.786 755.192 424.978 C 758.862 416.98 767.909 420.293 774.148 425.012 C 773.667 431.844 772.844 434.263 770.673 440.759 z" fill="rgb(207,107,52)" transform="translate(0,0)"></path>
<path d="M 1014.32 756.585 L 1014.84 756.555 C 1016.21 754.813 1016.1 685.687 1016.8 675.641 C 1017.03 707.029 1017.07 738.418 1016.92 769.806 C 1015.37 764.472 1015.03 762.105 1014.32 756.585 z" fill="rgb(210,195,168)" transform="translate(0,0)"></path>
<path d="M 1020.9 473.35 C 1021.44 477.61 1020.68 531.193 1020.2 536.02 C 1019.55 528.442 1019.22 478.188 1020.9 473.35 z" fill="rgb(79,49,16)" transform="translate(0,0)"></path>
<path d="M 1026.92 202.698 L 1028.85 200.195 L 1029.24 204.113 C 1029.12 205.686 1029.02 205.631 1029.75 206.942 C 1029.83 209.168 1029.84 210.825 1029.75 213.04 C 1027.05 216.987 1028.28 219.958 1026.96 226.06 C 1026.85 218.508 1027.42 210.064 1026.92 202.698 z" fill="rgb(207,107,52)" transform="translate(0,0)"></path>
<path d="M 1049.09 682.352 C 1050.45 686.147 1050.35 717.316 1049.84 722.149 C 1049.18 716.301 1048.5 688.022 1049.09 682.352 z" fill="rgb(79,49,16)" transform="translate(0,0)"></path>
<path d="M 1070.84 928.216 C 1069.3 930.36 1068.55 930.81 1068.35 933.484 C 1066.79 934.811 1061.12 938.563 1058.85 940.138 L 1058.26 939.981 L 1058.21 940.456 C 1057.82 940.483 1057.77 940.423 1057.52 940.127 C 1057.63 939.316 1069.31 929.464 1070.84 928.216 z" fill="rgb(205,206,185)" transform="translate(0,0)"></path>
<path d="M 1026.92 202.698 C 1026.85 200.835 1026.53 189.446 1028.31 188.882 C 1029.94 190.767 1029.05 197.795 1028.85 200.195 L 1026.92 202.698 z" fill="rgb(79,49,16)" transform="translate(0,0)"></path>
<path d="M 1026.12 92.9175 C 1027.08 99.3963 1027.06 106.06 1026.79 112.596 C 1024.91 105.823 1025.5 99.9319 1026.12 92.9175 z" fill="rgb(138,90,134)" transform="translate(0,0)"></path>
<path d="M 1025.17 135.415 C 1026.78 141.647 1026.39 142.813 1025.84 149.351 C 1025 143.726 1025.02 141.117 1025.17 135.415 z" fill="rgb(107,96,81)" transform="translate(0,0)"></path>
<path d="M 1027.08 134.747 C 1027.84 138.992 1028.09 139.981 1027.65 144.194 C 1026 140.907 1026.74 138.529 1027.08 134.747 z" fill="rgb(107,96,81)" transform="translate(0,0)"></path>
<path d="M 715.432 828.816 L 716.317 830.151 L 714.971 831.867 L 712.899 830.389 L 715.432 828.816 z" fill="rgb(138,90,134)" transform="translate(0,0)"></path>
<path d="M 1029.24 204.113 C 1030 205.335 1029.86 205.329 1029.75 206.942 C 1029.02 205.631 1029.12 205.686 1029.24 204.113 z" fill="rgb(107,96,81)" transform="translate(0,0)"></path>
<path d="M 622.574 464.04 C 623.809 464.662 623.59 464.625 624.357 466.086 C 623.245 465.345 623.363 465.306 622.574 464.04 z" fill="rgb(138,90,134)" transform="translate(0,0)"></path>
<path d="M 1053.31 943.782 C 1072.41 945.888 1094.55 946.584 1113.97 948.068 C 1116 948.165 1118.91 948.094 1120.63 948.799 C 1305.55 970.692 1484.69 1077.69 1627.12 1193.11 C 1619.85 1199.25 1609.33 1206.07 1601.17 1211.49 C 1472.63 1296.89 1322.18 1349.02 1169.69 1369.93 C 1159.32 1371.35 1149.17 1372.61 1138.81 1373.39 L 1137.02 1373.59 C 1128.23 1375.24 1116.01 1375.75 1106.81 1376.41 L 1105.02 1376.6 C 1080.84 1379.43 1038.46 1380.43 1013.01 1379.78 C 1004.37 1380.23 989.434 1379.93 980.977 1379.07 C 968.454 1378.8 953.398 1377.96 941.006 1376.61 L 939.192 1376.41 C 879.279 1371.78 819.854 1362.18 761.527 1347.73 C 737.484 1341.75 708.874 1332.04 686.426 1327.02 C 720.69 1298.88 761.226 1259.64 794.786 1229.06 L 978.353 1063.82 C 997.902 1046.39 1021.26 1023.37 1040.75 1007.37 L 1053.47 1007.07 L 1053.31 943.782 z" fill="rgb(107,96,81)" transform="translate(0,0)"></path>
<path d="M 960.881 946.089 C 979.668 945.171 996.854 944.795 1015.69 944.525 C 1019.25 949.083 1017.91 997.268 1017.9 1005.65 L 746.701 1179.61 L 634.101 1251.87 C 618.735 1261.8 595.646 1275.69 581.319 1286.12 C 525.776 1260.1 464.179 1227.1 415.458 1189.48 C 514.083 1114.28 644.002 1025.46 762.264 986.192 L 769.969 991.618 L 771.256 992.422 C 791.022 1002.65 813.241 1012.76 833.478 1022.87 C 825.209 1014.88 807.591 996.891 801.829 987.727 C 802.006 982.667 802.603 979.451 803.462 974.48 C 810.848 972.853 818.212 971.129 825.553 969.309 L 825.777 974.02 C 825.942 978.349 825.547 979.284 827.969 982.925 L 830.141 984.303 C 836.675 987.998 850.162 993.608 857.524 996.91 C 871.132 1002.94 884.587 1009.31 897.879 1016 C 886.234 1004.71 876.403 992.254 864.989 980.857 C 865.21 972.706 865.411 966.827 866.426 958.674 C 891.934 956.544 925.525 950.676 951.352 946.873 C 953.997 946.145 958.027 946.188 960.881 946.089 z" fill="rgb(107,96,81)" transform="translate(0,0)"></path>
<path d="M 317.491 820.855 C 318.524 820.472 318.54 820.417 319.6 820.347 C 347.506 819.738 397.28 809.648 399.4 847.201 C 399.715 848.007 399.58 848.196 399.481 849.1 C 400.187 852.278 400.717 855.573 402.091 858.489 C 404.725 860.672 405.826 861.526 407.817 864.336 C 427.608 873.583 484.818 859.101 502.742 873.029 C 503.903 873.981 503.936 873.965 504.74 875.209 L 506.653 877.725 C 507.399 878.454 506.99 878.027 507.852 879.032 C 511.79 888.429 509.879 894.357 514.517 902.944 C 515.163 903.31 515.177 903.486 515.69 904.149 L 518.027 906.535 C 518.777 906.836 518.694 906.838 519.195 907.546 C 538.805 915.694 595.878 902.68 612.159 915.549 C 615.383 918.112 616.189 919.04 618.778 922.345 C 622.219 928.716 622.821 931.948 623.349 939.247 C 623.705 940.133 623.572 940.828 623.566 941.831 C 624.708 946.043 624.918 947.347 627.448 951.091 C 628.706 951.525 628.903 952.037 629.832 953.099 C 631.049 953.51 630.972 953.48 631.926 954.317 L 638.738 956.49 C 644.616 956.116 666.621 955.67 671.707 956.835 C 695.079 965.762 686.508 970.225 694.426 988.041 C 695.503 988.431 695.367 988.445 696.093 989.474 C 703.952 994.937 708.118 994.217 717.491 994.27 C 719.628 994.182 719.985 994.232 722.069 994.487 L 725.404 996.411 C 725.251 996.562 655.125 1029.63 647.415 1033.9 C 645.118 992.104 589.326 1011.36 560.432 1007.67 C 531.934 1004.03 549.352 985.355 534.803 972.426 C 517.885 957.39 473.328 967.941 451.668 965.226 C 426.465 965.18 441.036 938.152 426.323 924.47 C 413.067 912.143 385.59 915.839 368.457 915.914 L 322.95 915.721 C 269.949 915.972 293.037 947.541 278.426 961.041 C 271.07 967.839 231.424 964.807 219.17 964.839 C 209.572 944.799 196.917 914.728 189.794 893.423 C 199.223 893.731 209.336 894.565 218.677 892.914 C 227.948 891.599 228.148 884.376 232.862 878.264 C 252.445 852.866 283.494 883.603 297.614 851.953 C 297.053 846.477 296.9 844.395 297.643 838.886 C 300.126 832.8 301.716 830.86 306.256 826.566 C 309.145 823.88 311.307 821.753 315.428 821.259 L 317.491 820.855 z" fill="rgb(138,90,134)" transform="translate(0,0)"></path>
<path d="M 638.738 956.49 C 644.616 956.116 666.621 955.67 671.707 956.835 C 663.36 957.047 646.346 957.431 638.738 956.49 z" fill="rgb(107,96,81)" transform="translate(0,0)"></path>
<path d="M 297.643 838.886 C 297.963 843.783 298.252 847.035 297.614 851.953 C 297.053 846.477 296.9 844.395 297.643 838.886 z" fill="rgb(107,96,81)" transform="translate(0,0)"></path>
<path d="M 306.256 826.566 C 309.145 823.88 311.307 821.753 315.428 821.259 C 313.202 822.74 309.009 824.876 306.256 826.566 z" fill="rgb(107,96,81)" transform="translate(0,0)"></path>
<path d="M 612.159 915.549 C 615.383 918.112 616.189 919.04 618.778 922.345 C 615.538 919.766 614.718 918.837 612.159 915.549 z" fill="rgb(107,96,81)" transform="translate(0,0)"></path>
<path d="M 402.091 858.489 C 404.725 860.672 405.826 861.526 407.817 864.336 C 404.827 862.065 404.483 861.541 402.091 858.489 z" fill="rgb(107,96,81)" transform="translate(0,0)"></path>
<path d="M 1588.27 911.298 C 1621.26 908.768 1659.41 912.138 1692.83 910.934 C 1705.07 910.493 1718.54 926.339 1718.21 938.456 C 1718.07 943.769 1717.93 957.8 1722.15 962.102 C 1730.69 968.135 1755.87 966.086 1766.05 966.058 C 1787.1 965.933 1808.15 965.977 1829.19 966.189 C 1815.87 993.912 1799.87 1020.27 1781.42 1044.88 L 1604.5 1044.85 L 1476.04 1044.97 C 1462.01 1045.02 1425.82 1045.91 1414.12 1044.02 C 1409.29 1043.24 1370.36 1023.39 1362.97 1019.77 C 1363.85 1018.44 1364.78 1017.14 1365.73 1015.86 C 1377.74 999.835 1391.41 1007.33 1407.99 1005.68 C 1429.29 1003.55 1415.54 974.738 1437.08 967.98 C 1448.03 964.545 1464.42 966.273 1476.21 966.081 C 1503.01 965.644 1530.3 967.155 1557.07 965.715 C 1560.63 965.532 1565.06 958.699 1566.89 955.804 C 1567.66 934.645 1564.32 921.008 1588.27 911.298 z" fill="rgb(107,96,81)" transform="translate(0,0)"></path>
<path d="M 312.745 918.492 C 332.341 918.472 401.34 915.912 415.543 920.689 C 440.87 929.207 424.05 961.686 443.872 966.771 C 464.932 972.173 510.589 961.095 527.832 970.508 C 544.144 979.413 534.635 1004.25 551.612 1009.35 C 556.705 1010.88 563.169 1010.13 568.483 1010.07 C 585.183 1009.88 627.132 1005.86 638.822 1016.39 C 642.68 1019.86 644.502 1024.95 644.772 1030.07 C 644.876 1032.04 644.81 1033.48 643.308 1034.92 C 638.729 1039.32 631.539 1042.66 625.355 1043.99 C 609.809 1047.34 573.162 1045.19 555.5 1045.13 L 365.287 1044.81 C 339.372 1044.81 290.635 1046.26 267.296 1044.18 C 257.014 1037.32 226.372 979.901 220.349 967.429 C 231.883 967.309 243.505 967.768 255.037 967.716 C 269.383 967.65 277.463 968.701 286.003 955.93 C 286.173 935.365 288.712 921.466 312.745 918.492 z" fill="rgb(107,96,81)" transform="translate(0,0)"></path>
<path d="M 841.685 597.355 C 845.195 600.794 847.571 603.631 850.714 607.385 C 852.723 609.753 855.039 612.543 856.722 615.12 L 859.569 615.417 C 863.011 619.449 869.694 630.175 871.875 635.047 L 870.763 637.156 C 898.347 688.778 891.129 756.163 890.83 811.871 C 891.363 818.818 891.499 820.321 890.081 827.07 C 888.809 863.801 887.173 900.518 885.174 937.217 C 868.069 953.287 837.332 958.319 814.736 957.603 C 808.911 957.385 803.088 957.086 797.271 956.706 C 795.03 955.842 785.376 954.635 782.688 954.491 C 779.215 953.867 777.903 954.015 775.565 951.656 C 774.457 948.531 780.198 909.982 781.005 903.74 C 787.238 856.183 792.939 808.557 798.107 760.872 L 803.954 701.828 C 804.961 691.686 806.388 668.134 810.408 659.894 C 820.503 639.204 831.945 618.341 841.685 597.355 z" fill="rgb(207,107,52)" transform="translate(0,0)"></path>
<path d="M 859.569 615.417 C 863.011 619.449 869.694 630.175 871.875 635.047 L 870.763 637.156 C 865.922 629.307 862.393 622.665 856.722 615.12 L 859.569 615.417 z" fill="rgb(92,36,21)" transform="translate(0,0)"></path>
<path d="M 890.83 811.871 C 891.363 818.818 891.499 820.321 890.081 827.07 C 889.946 821.402 889.89 817.517 890.83 811.871 z" fill="rgb(92,36,21)" transform="translate(0,0)"></path>
<path d="M 1020.23 1007.51 L 1036.19 1007.24 C 965.314 1073.92 889.444 1140.52 816.953 1205.71 L 726.777 1287.26 C 712.99 1299.69 698.149 1313.8 684.109 1325.55 C 658.627 1317.65 640.077 1309.4 615.861 1300.55 C 614.604 1300.34 614.48 1300.49 613.857 1299.66 C 603.651 1295.56 593.402 1291.57 583.112 1287.69 C 628.59 1258.91 673.849 1229.79 718.886 1200.33 L 876.515 1099.58 L 973.052 1037.68 C 985.019 1030.03 1008.69 1013.83 1020.23 1007.51 z" fill="rgb(100,78,10)" transform="translate(0,0)"></path>
<path d="M 1449.25 1047.96 C 1479.09 1047.05 1509.8 1048.26 1539.68 1047.76 C 1619.15 1046.42 1700.29 1048.79 1779.56 1047.43 C 1756.75 1077.76 1741.89 1095.71 1714.09 1121.98 L 1535.86 1121.86 C 1514.51 1106.7 1492.59 1092.34 1470.17 1078.8 C 1455.2 1069.67 1437.59 1059.94 1423.22 1050.44 C 1422.62 1050.17 1420.86 1048.93 1420.21 1048.5 C 1422.86 1046.53 1444.35 1047.81 1449.25 1047.96 z" fill="rgb(207,107,52)" transform="translate(0,0)"></path>
<path d="M 267.774 1047.42 C 300.229 1047.98 334.559 1047.38 367.159 1047.36 L 511.472 1047.8 C 539.373 1047.85 569.985 1047.16 597.666 1048.03 C 603.701 1047.82 612.94 1047.18 618.655 1048.03 L 619.16 1049 L 618.073 1050.03 C 581.824 1068.38 538.383 1099.88 503.893 1121.73 C 456.618 1122.6 409.097 1121.48 361.8 1121.94 C 352.914 1122.02 344.231 1121.74 335.369 1122.68 C 307.537 1097.13 290.582 1076.59 267.774 1047.42 z" fill="rgb(207,107,52)" transform="translate(0,0)"></path>
<path d="M 904.479 491.015 C 924.655 482.595 943.358 473.565 960.384 459.705 C 962.792 468.63 965.721 489.892 967.432 500.221 L 980.827 580.57 C 988.167 623.18 995.807 665.737 1003.75 708.239 C 1011.17 748.621 1019.61 786.201 1017.03 827.359 C 1016.37 837.895 1016.99 850.782 1017.05 861.55 C 1017.01 863.929 1017.41 869.356 1016.29 870.78 C 1015.36 868.354 1014.79 866.842 1014.13 864.336 C 994.377 784.788 970.422 705.603 948.284 626.553 C 960.042 609.039 957.047 601.472 939.494 596.482 C 938.8 596.284 934.64 584.825 933.969 582.868 C 923.592 552.572 915.706 520.965 904.479 491.015 z" fill="rgb(253,248,236)" transform="translate(0,0)"></path>
<path d="M 777.364 612.281 C 816.659 609.346 804.555 673.183 802.225 696.379 L 794.298 773.297 C 781.929 767.822 769.532 762.409 757.108 757.06 C 741.492 750.539 724.354 741.597 708.295 734.568 C 718.848 700.513 731.379 660.569 750.658 630.355 C 757.795 619.17 764.63 614.632 777.364 612.281 z" fill="rgb(207,107,52)" transform="translate(0,0)"></path>
<path d="M 904.435 636.631 L 917.227 627.761 C 918.733 636.835 921.866 649.483 923.873 658.699 C 928.745 651.471 920.684 647.694 929.081 643.133 C 934.139 645.114 933.048 655.935 936.157 660.363 L 937.118 660.141 C 935.996 653.33 934.817 646.529 933.583 639.738 C 938.339 635.852 941.966 632.807 946.36 628.54 L 991.043 784.445 C 997.562 806.956 1003.63 829.595 1009.23 852.349 C 1016.61 881.3 1017.88 885.139 1017.43 915.185 C 1008.58 889.049 998.22 865.358 988.482 839.725 C 976.745 808.315 965.589 776.691 955.021 744.869 L 953.28 745.769 L 949.838 748.125 C 946.107 746.582 946.756 744.158 944.068 744.806 L 943.232 749.095 C 943.153 750.285 943.085 751.475 943.029 752.666 L 942.503 752.927 C 941.836 752.45 940.997 751.806 940.271 751.415 C 937.674 752.855 934.934 754.567 932.087 754.076 C 930.448 750.671 925.818 730.838 924.741 725.691 C 919.251 699.452 907.836 662.77 904.435 636.631 z" fill="rgb(253,248,236)" transform="translate(0,0)"></path>
<path d="M 904.435 636.631 L 917.227 627.761 C 918.733 636.835 921.866 649.483 923.873 658.699 C 928.745 651.471 920.684 647.694 929.081 643.133 C 934.139 645.114 933.048 655.935 936.157 660.363 L 937.118 660.141 C 943.333 687.311 948.581 718.939 955.021 744.869 L 953.28 745.769 L 949.838 748.125 C 946.107 746.582 946.756 744.158 944.068 744.806 L 943.232 749.095 C 943.153 750.285 943.085 751.475 943.029 752.666 L 942.503 752.927 C 941.836 752.45 940.997 751.806 940.271 751.415 C 937.674 752.855 934.934 754.567 932.087 754.076 C 930.448 750.671 925.818 730.838 924.741 725.691 C 919.251 699.452 907.836 662.77 904.435 636.631 z" fill="rgb(184,58,35)" transform="translate(0,0)"></path>
<path d="M 923.873 658.699 C 928.745 651.471 920.684 647.694 929.081 643.133 C 934.139 645.114 933.048 655.935 936.157 660.363 L 937.118 660.141 C 943.333 687.311 948.581 718.939 955.021 744.869 L 953.28 745.769 L 949.838 748.125 C 946.107 746.582 946.756 744.158 944.068 744.806 C 941.599 741.981 925.846 667.65 923.873 658.699 z" fill="url(#Gradient2)" transform="translate(0,0)"></path>
<path d="M 943.232 749.095 C 943.153 750.285 943.085 751.475 943.029 752.666 L 942.503 752.927 C 941.836 752.45 940.997 751.806 940.271 751.415 C 941.249 750.63 942.236 749.857 943.232 749.095 z" fill="rgb(92,36,21)" transform="translate(0,0)"></path>
<path d="M 749.634 811.386 L 751.712 800.323 C 764.067 805.499 776.534 810.4 789.106 815.024 C 785.551 846.852 781.707 878.646 777.576 910.405 C 776.332 919.876 773.716 943.792 771.657 951.999 C 755.214 946.916 738.824 941.668 722.487 936.254 C 728.75 910.878 734.759 885.44 740.512 859.944 C 743.463 846.567 746.942 833.197 748.486 819.625 C 748.482 818.665 748.443 818.846 748.791 817.958 L 749.411 813.068 C 749.372 812.228 749.249 812.072 749.634 811.386 z" fill="rgb(184,58,35)" transform="translate(0,0)"></path>
<path d="M 1539.5 1124.19 C 1556.63 1123.45 1580 1124.16 1597.57 1124.17 L 1711.57 1124.11 C 1699.71 1135.51 1687.99 1145.76 1675.61 1156.58 C 1660.96 1169.01 1645.29 1180.4 1629.84 1191.83 C 1605.28 1171.36 1565.99 1142.65 1539.5 1124.19 z" fill="rgb(227,160,42)" transform="translate(0,0)"></path>
<path d="M 337.057 1124.14 C 391.551 1124.46 446.046 1124.42 500.539 1124.02 C 489.093 1132.88 475.378 1142.25 463.5 1150.78 C 446.13 1162.75 429.792 1175.33 412.769 1187.74 C 385.569 1166.36 362.444 1147.55 337.057 1124.14 z" fill="rgb(227,160,42)" transform="translate(0,0)"></path>
<path d="M 901.982 492.176 C 908.589 501.073 931.12 581.111 936.936 597.912 C 931.373 602.975 928.417 606.964 923.817 612.819 C 923.946 607.306 924.449 601.478 922.781 596.268 L 921.585 596.275 C 914.626 604.456 912.346 629.78 906.005 631.475 C 901.284 623.663 893.298 606.078 889.298 597.372 C 882.043 581.583 872.877 562.75 866.919 546.596 C 869.494 541.403 871.926 537.214 874.886 532.219 L 868.849 518.269 C 870.515 517.783 872.173 517.27 873.823 516.731 C 877.476 515.514 879.018 514.968 880.528 511.894 C 878.898 508.017 876.669 507.219 872.996 504.286 L 901.982 492.176 z" fill="rgb(253,248,236)" transform="translate(0,0)"></path>
<path d="M 623.172 924.05 C 661.052 930.564 700.967 931.323 737.433 943.968 C 746.473 947.102 756.406 949.723 765.602 952.35 C 765.238 958.696 764.371 965.011 763.59 971.321 C 746.003 970.807 706.187 968.202 689.729 965.313 C 674.609 946.785 649.664 958.389 631.675 951.157 C 625.34 948.61 625.291 932.881 623.172 924.05 z" fill="rgb(253,248,236)" transform="translate(0,0)"></path>
<path d="M 707.534 736.973 C 733.147 746.794 766.687 764.47 794.06 775.924 C 793.173 782.382 791.232 808.84 788.422 811.557 L 785.82 811.015 C 759.521 802.083 724.762 785.117 696.786 774.38 C 699.856 761.77 703.442 749.29 707.534 736.973 z" fill="rgb(184,58,35)" transform="translate(0,0)"></path>
<path d="M 944.068 744.806 C 946.756 744.158 946.107 746.582 949.838 748.125 L 953.28 745.769 C 962.875 777.84 976.491 811.256 987.571 842.818 C 996.929 869.475 1016.96 908.479 1018.28 935.562 C 1003.65 910.823 989.84 880.564 975.92 854.972 C 971.73 847.269 955.696 816.841 953.715 810.789 L 952.569 809.613 L 927.121 758.627 C 933.391 756.727 936.569 755.625 942.503 752.927 L 943.029 752.666 C 943.085 751.475 943.153 750.285 943.232 749.095 L 944.068 744.806 z" fill="rgb(253,248,236)" transform="translate(0,0)"></path>
<path d="M 944.068 744.806 C 946.756 744.158 946.107 746.582 949.838 748.125 C 946.933 750.548 946.201 750.839 943.029 752.666 C 943.085 751.475 943.153 750.285 943.232 749.095 L 944.068 744.806 z" fill="rgb(10,7,5)" transform="translate(0,0)"></path>
<path d="M 894.322 760.91 C 905.493 761.023 913.717 760.863 924.639 758.611 C 932.957 776.077 942.396 793.11 950.677 810.784 L 952.569 809.613 L 953.715 810.789 L 951.864 812.189 C 970.418 848.834 989.221 885.352 1008.27 921.742 C 1010.03 924.899 1014.13 931.832 1015.35 934.846 L 1014.46 933.118 L 1013.34 934.037 L 1015.92 936.86 C 1012.97 934.93 1008.23 927.321 1005.96 924.057 C 980.421 892.358 954.095 850.806 930.946 817.163 C 922.89 805.454 899.982 772.332 894.322 760.91 z" fill="rgb(253,248,236)" transform="translate(0,0)"></path>
<path d="M 952.569 809.613 L 953.715 810.789 L 951.864 812.189 L 950.677 810.784 L 952.569 809.613 z" fill="rgb(107,96,81)" transform="translate(0,0)"></path>
<path d="M 844.218 564.439 C 853.949 559.397 857.749 556.921 865.249 549.001 C 877.896 577.986 892.253 605.693 904.508 633.505 C 895.879 638.746 887.614 644.563 879.769 650.917 C 877.438 646.058 874.551 639.566 871.875 635.047 C 869.694 630.175 863.011 619.449 859.569 615.417 L 856.722 615.12 C 855.039 612.543 852.723 609.753 850.714 607.385 L 852.971 606.626 C 850.033 603.072 847.151 599.444 843.963 596.119 C 843.796 585.558 843.881 574.995 844.218 564.439 z" fill="rgb(253,248,236)" transform="translate(0,0)"></path>
<path d="M 852.971 606.626 C 854.852 608.426 858.103 613.217 859.569 615.417 L 856.722 615.12 C 855.039 612.543 852.723 609.753 850.714 607.385 L 852.971 606.626 z" fill="rgb(92,36,21)" transform="translate(0,0)"></path>
<path d="M 900.238 638.822 L 901.194 639.114 C 903.537 644.952 908.833 669.91 910.541 677.196 C 916.825 703.308 922.893 729.47 928.746 755.682 C 921.404 757.091 916.11 757.689 908.755 758.407 C 904.235 758.622 899.497 758.68 894.955 758.805 C 895.821 721.257 891.16 688.643 880.936 652.733 C 886.394 648.104 894.226 642.99 900.238 638.822 z" fill="rgb(207,107,52)" transform="translate(0,0)"></path>
<path d="M 894.681 849.209 C 890.289 844.979 891.997 811.259 893.946 809.023 L 897.009 811.8 L 898.686 811.261 C 901.092 813.521 901.764 814.364 903.632 817.064 L 902.992 818.948 C 907.315 823.814 911.721 828.923 916.11 833.697 C 917.054 834.218 917.059 834.137 917.46 835.098 L 923.563 842.051 C 924.168 842.342 924.142 842.496 924.579 843.132 L 932.589 852.024 C 933.81 852.671 933.595 852.636 934.347 854.107 C 943.859 865.25 953.76 877.259 963.565 888.055 C 964.183 888.351 964.171 888.552 964.569 889.16 L 970.551 896.075 C 971.177 896.357 971.161 896.557 971.564 897.167 C 982.349 909.888 993.292 922.474 1004.39 934.922 C 1005.1 935.423 1004.99 935.287 1005.42 936.022 C 1007.9 939.343 1008.22 938.576 1007.92 941.642 L 1006.23 942.472 C 1003 941.36 945.963 891.515 937.59 885.052 C 936.077 883.225 930.864 878.919 928.755 877.591 C 922.759 872.596 913.498 864.21 907.403 859.87 C 905.518 857.56 897.265 850.854 894.681 849.209 z" fill="rgb(253,248,236)" transform="translate(0,0)"></path>
<path d="M 898.686 811.261 C 901.092 813.521 901.764 814.364 903.632 817.064 C 902.294 816.54 900.952 816.026 899.607 815.521 L 897.009 811.8 L 898.686 811.261 z" fill="rgb(107,96,81)" transform="translate(0,0)"></path>
<path d="M 899.607 815.521 C 900.952 816.026 902.294 816.54 903.632 817.064 L 902.992 818.948 C 901.835 817.834 900.707 816.691 899.607 815.521 z" fill="rgb(138,90,134)" transform="translate(0,0)"></path>
<path d="M 932.589 852.024 C 933.81 852.671 933.595 852.636 934.347 854.107 C 933.248 853.339 933.364 853.301 932.589 852.024 z" fill="rgb(138,90,134)" transform="translate(0,0)"></path>
<path d="M 814.693 535.199 L 813.688 529.167 C 814.994 527.156 842.534 516.971 846.687 515.849 C 847.261 518.416 847.125 518.703 848.823 520.781 C 852.415 521.378 850.683 521.52 854.195 520.182 C 855.979 516.964 855.165 516.967 854.228 512.605 C 856.456 508.972 859.962 508.393 864.173 507.435 C 870.926 505.898 870.069 505.544 874.973 508.503 C 876.004 509.15 876.43 509.784 877.262 510.703 L 877.326 512.722 C 874.257 515.088 870.323 515.604 866.438 516.539 C 868.294 521.338 870.436 526.563 871.995 531.419 C 872.056 531.408 860.794 534.133 863.775 534.132 L 863.826 533.246 L 863 533.979 C 865.555 534.394 868.76 534.349 869.932 535.971 C 863.053 555.059 842.804 566.588 822.98 563.55 C 817.46 562.704 815.503 562.679 811.833 558.238 C 806.075 557.422 803.731 558.046 799.845 554.916 C 797.847 550.462 797.127 546.583 798.755 541.892 C 805.407 536.3 809.58 543.131 815.534 540.807 L 815.66 538.731 L 814.693 535.199 z" fill="rgb(253,248,236)" transform="translate(0,0)"></path>
<path d="M 894.891 766.352 C 919.933 806.393 948.332 846.164 975.017 885.19 C 984.55 899.131 1002.17 920.929 1010.02 933.754 L 1008.07 936.024 C 997.747 922.326 979.058 903.09 967.467 889.474 C 946.766 865.156 925.287 840.522 903.632 817.064 C 901.764 814.364 901.092 813.521 898.686 811.261 C 896.92 809.179 894.503 806.504 892.933 804.367 C 893.5 791.691 894.153 779.019 894.891 766.352 z" fill="rgb(253,248,236)" transform="translate(0,0)"></path>
<path d="M 804.462 470.681 C 807.455 465.719 812.888 469.577 816.501 471.75 L 817.74 472.062 C 833.945 482.763 852.391 492.178 869.384 503.222 C 863.461 505.677 835.763 518.075 831.85 517.312 L 830.225 518.519 C 826.023 522.16 810.913 526.518 804.783 528.864 L 804.035 529.157 C 803.308 524.235 800.982 511.919 801.236 507.494 C 801.616 500.875 792.078 468.031 802.667 471.466 L 804.462 470.681 z" fill="rgb(227,160,42)" transform="translate(0,0)"></path>
<path d="M 804.035 529.157 C 803.308 524.235 800.982 511.919 801.236 507.494 C 801.616 500.875 792.078 468.031 802.667 471.466 L 804.462 470.681 L 804.831 471.312 C 811.755 483.427 818.282 495.744 825.694 507.602 C 827.762 510.909 830.195 513.832 831.85 517.312 L 830.225 518.519 C 826.023 522.16 810.913 526.518 804.783 528.864 L 804.035 529.157 z" fill="rgb(227,160,42)" transform="translate(0,0)"></path>
<path d="M 804.462 470.681 L 804.831 471.312 C 811.755 483.427 818.282 495.744 825.694 507.602 C 827.762 510.909 830.195 513.832 831.85 517.312 L 830.225 518.519 C 823.856 509.964 806.792 481.318 802.667 471.466 L 804.462 470.681 z" fill="rgb(79,49,16)" transform="translate(0,0)"></path>
<path d="M 711.921 561.964 C 731.373 557.375 746.901 552.134 765.515 545.128 C 769.488 553.294 772.727 556.377 779.022 563 C 783.169 564.757 789.322 566.845 792.187 569.979 L 791.724 570.994 C 786.357 570.918 782.799 569.797 778.608 566.391 C 771.411 582.166 764.297 597.978 757.268 613.828 C 742.197 597.343 726.701 578.938 711.921 561.964 z" fill="rgb(253,248,236)" transform="translate(0,0)"></path>
<path d="M 890.221 872.641 C 903.888 881.97 988.625 935.496 989.85 941.811 C 986.44 943.253 980.243 940.073 976.996 938.459 L 976.029 940.667 L 977.418 941.536 C 970.073 943.055 900.388 914.209 888.886 909.654 C 888.998 904.629 889.592 899.108 890.031 894.056 L 891.016 892.522 C 889.047 889.075 890.059 877.298 890.221 872.641 z" fill="rgb(253,248,236)" transform="translate(0,0)"></path>
<path d="M 891.016 892.522 L 943.343 920.694 C 954.007 926.38 966.709 932.498 976.996 938.459 L 976.029 940.667 L 977.418 941.536 C 970.073 943.055 900.388 914.209 888.886 909.654 C 888.998 904.629 889.592 899.108 890.031 894.056 L 891.016 892.522 z" fill="rgb(253,248,236)" transform="translate(0,0)"></path>
<path d="M 891.016 892.522 L 943.343 920.694 C 954.007 926.38 966.709 932.498 976.996 938.459 L 976.029 940.667 C 973.243 938.44 952.589 927.837 948.139 925.493 C 928.577 915.374 909.205 904.893 890.031 894.056 L 891.016 892.522 z" fill="rgb(107,96,81)" transform="translate(0,0)"></path>
<path d="M 776.119 428.473 C 792.603 438.403 810.928 450.194 827.788 458.906 C 816.637 461.549 805.783 465.318 795.393 470.155 C 790.162 472.53 784.861 474.751 779.5 476.815 C 771.97 479.709 768.055 481.56 761.073 484.969 L 760.267 485.354 C 766.214 466.581 770.486 446.462 776.119 428.473 z" fill="rgb(227,160,42)" transform="translate(0,0)"></path>
<path d="M 889.004 911.934 C 916.41 922.035 942.339 933.085 970.164 942.79 C 962.94 943.554 954.031 944.936 947.108 942.952 C 945.197 945.445 945.426 945.859 942.422 945.707 C 936.852 946.11 925.074 948.222 920.442 948.112 C 916.141 948.01 884.833 945.167 882.774 943.442 C 882.851 941.413 887.945 939.703 887.627 935.499 C 887.501 933.842 887.928 931.896 888.536 930.284 L 888.965 928.918 C 887.131 924.324 888.349 916.983 889.004 911.934 z" fill="rgb(253,248,236)" transform="translate(0,0)"></path>
<path d="M 888.536 930.284 L 938.307 942.632 C 940.078 943.082 941.886 943.434 943.474 944.398 L 943.551 944.545 L 942.422 945.707 C 936.852 946.11 925.074 948.222 920.442 948.112 C 916.141 948.01 884.833 945.167 882.774 943.442 C 882.851 941.413 887.945 939.703 887.627 935.499 C 887.501 933.842 887.928 931.896 888.536 930.284 z" fill="rgb(253,248,236)" transform="translate(0,0)"></path>
<path d="M 888.965 928.918 C 895.733 929.424 937.993 940.459 947.108 942.952 C 945.197 945.445 945.426 945.859 942.422 945.707 L 943.551 944.545 L 943.474 944.398 C 941.886 943.434 940.078 943.082 938.307 942.632 L 888.536 930.284 L 888.965 928.918 z" fill="rgb(107,96,81)" transform="translate(0,0)"></path>
<path d="M 894.681 849.209 C 897.265 850.854 905.518 857.56 907.403 859.87 C 913.498 864.21 922.759 872.596 928.755 877.591 C 930.864 878.919 936.077 883.225 937.59 885.052 L 937.126 887.077 C 938.925 888.119 939.233 888.085 940.377 889.775 L 942.684 891.546 C 944.286 892.36 944.304 892.138 944.974 893.435 L 949.025 896.712 C 950.009 897.214 950.021 897.127 950.472 898.085 L 955.987 902.74 C 956.994 903.221 957.006 903.131 957.473 904.089 L 963.999 909.735 C 965.006 910.223 965.016 910.131 965.451 911.107 L 970.958 915.763 C 971.983 916.227 971.997 916.133 972.461 917.098 L 977.969 921.744 C 978.986 922.221 979 922.129 979.467 923.093 L 984.819 927.612 C 985.919 927.993 985.787 927.943 986.375 929.001 C 992.442 934.266 996.777 938.168 1002.42 943.993 C 990.395 938.951 960.818 916.741 948.699 908.629 C 929.399 895.712 909.863 883.243 890.335 870.621 C 890.541 866.069 890.555 853.248 892.347 849.954 L 894.681 849.209 z" fill="rgb(253,248,236)" transform="translate(0,0)"></path>
<path d="M 907.403 859.87 C 913.498 864.21 922.759 872.596 928.755 877.591 L 925.901 878.007 C 924.423 876.662 922.918 875.348 921.387 874.064 C 920.535 873.481 920.602 873.577 919.949 872.79 C 918.422 871.555 916.907 870.306 915.402 869.043 C 914.504 868.441 914.619 868.586 913.979 867.737 C 912.625 866.606 911.249 865.5 909.853 864.422 C 909.051 862.897 908.234 861.38 907.403 859.87 z" fill="rgb(44,40,36)" transform="translate(0,0)"></path>
<path d="M 894.681 849.209 C 897.265 850.854 905.518 857.56 907.403 859.87 C 908.234 861.38 909.051 862.897 909.853 864.422 C 907.361 862.403 904.849 860.155 902.382 858.063 C 901.55 857.5 901.597 857.577 900.946 856.822 C 898.496 854.87 894.665 851.633 892.347 849.954 L 894.681 849.209 z" fill="rgb(107,96,81)" transform="translate(0,0)"></path>
<path d="M 928.755 877.591 C 930.864 878.919 936.077 883.225 937.59 885.052 L 937.126 887.077 C 934.177 885.328 928.463 880.457 925.901 878.007 L 928.755 877.591 z" fill="rgb(138,90,134)" transform="translate(0,0)"></path>
<path d="M 942.684 891.546 C 944.286 892.36 944.304 892.138 944.974 893.435 C 943.675 892.632 943.671 892.701 942.684 891.546 z" fill="rgb(138,90,134)" transform="translate(0,0)"></path>
<path d="M 937.126 887.077 C 938.925 888.119 939.233 888.085 940.377 889.775 C 938.64 888.671 938.562 888.586 937.126 887.077 z" fill="rgb(138,90,134)" transform="translate(0,0)"></path>
<path d="M 767.673 952.908 C 772.376 954.204 778.248 955.646 783.082 956.527 L 782.688 954.491 C 785.376 954.635 795.03 955.842 797.271 956.706 L 798.668 958.848 C 805.942 963.946 795.111 985.5 800.836 991.971 C 807.245 999.216 814.092 1006.12 820.577 1013.39 C 809.33 1008.6 772.921 991.582 765.052 984.824 C 765.233 975.015 766.474 962.799 767.673 952.908 z" fill="rgb(253,248,236)" transform="translate(0,0)"></path>
<path d="M 782.688 954.491 C 785.376 954.635 795.03 955.842 797.271 956.706 L 798.668 958.848 C 793.625 957.948 788.17 957.209 783.082 956.527 L 782.688 954.491 z" fill="rgb(92,36,21)" transform="translate(0,0)"></path>
<path d="M 846.688 458.971 C 870.449 457.215 894.22 455.606 918.001 454.146 C 931.822 453.197 952.747 451.195 966.209 451.973 C 958.59 459.893 944.949 468.357 935.386 474.133 C 906.308 469.774 875.642 466.181 846.414 462.421 L 846.688 458.971 z" fill="rgb(227,160,42)" transform="translate(0,0)"></path>
<path d="M 691.759 967.785 C 707.907 969.55 723.825 970.599 740.001 971.92 C 742.61 972.132 762.784 972.844 762.922 973.975 C 764.265 985.023 763.465 982.712 755.8 985.834 C 747.523 988.521 738.752 992.185 730.279 995.153 C 719.63 991.125 716.088 992.466 705.387 991.352 C 693.175 990.081 694.038 977.303 691.759 967.785 z" fill="rgb(253,248,236)" transform="translate(0,0)"></path>
<path d="M 862.245 953.162 C 865.215 953.912 862.68 977.972 862.417 982.529 C 870.195 990.725 878.158 998.791 885.865 1007.01 C 877.57 1003.41 869.674 999.761 861.442 996.063 C 854.82 993.119 837.588 985.994 832.179 982.699 L 829.08 980.815 C 828.691 973.238 828.915 966.784 828.953 959.237 C 840.786 958.676 850.951 956.412 862.245 953.162 z" fill="rgb(253,248,236)" transform="translate(0,0)"></path>
<path d="M 823.231 462.56 C 831.399 461.592 852.233 465.578 861.718 466.787 L 932.595 475.518 L 919.465 482.02 C 913.934 484.636 908.21 486.833 902.523 489.095 C 892.96 486.871 827.589 467.275 821.506 463.829 L 823.231 462.56 z" fill="rgb(227,160,42)" transform="translate(0,0)"></path>
<path d="M 793.082 474.691 C 793.166 474.719 794.615 475.16 794.642 475.339 C 796.344 486.553 798.079 503.255 799.81 514.007 C 801.073 521.856 800.94 524.618 801.586 530.005 C 794.938 532.565 788.862 534.781 782.102 537.047 C 778.869 538 775.615 539.222 772.424 540.106 C 776.86 520.743 780.254 500.525 785.741 481.414 C 787.117 476.622 788.55 476.901 793.082 474.691 z" fill="rgb(227,160,42)" transform="translate(0,0)"></path>
<path d="M 774.1 481.512 L 775.902 482.532 C 765.168 505.28 749.732 525.968 740.124 551.681 C 730.64 554.693 721.922 557.536 712.222 559.809 L 710.481 559.595 L 710.392 557.952 C 719.693 546.034 766.065 486.543 774.1 481.512 z" fill="rgb(227,160,42)" transform="translate(0,0)"></path>
<path d="M 938.488 600.081 C 939.495 600.007 943.349 599.684 944.016 599.981 C 970.818 611.928 932.183 638.391 923.654 643.825 C 923.478 643.192 923.302 642.559 923.126 641.926 C 921.671 637.043 920.532 632.072 919.717 627.043 C 919.495 621.191 914.492 628.404 913.19 626.538 C 913.03 625.022 918.992 601.887 920.634 601.766 C 922.817 603.046 920.49 620.197 920.22 623.413 C 926.286 613.744 929.533 607.627 938.488 600.081 z" fill="rgb(253,248,236)" transform="translate(0,0)"></path>
<path d="M 782.103 478.564 C 781.931 478.508 783.688 479.027 783.642 479.222 C 780.425 493.054 776.353 507.816 773.992 522.009 C 773.603 524.466 773.128 526.909 772.568 529.333 C 771.728 533.021 771.031 536.84 770.149 540.529 C 762.19 544.309 753.1 547.09 744.81 550.295 C 744.045 550.024 744.106 550.204 743.596 549.636 C 743.096 544.299 776.716 485.46 782.103 478.564 z" fill="rgb(227,160,42)" transform="translate(0,0)"></path>
<path d="M 816.417 581.534 C 826.342 586.069 831.411 589.145 840.366 595.518 C 838.781 598.913 828.986 622.434 825.48 621.143 C 816.941 616.032 807.374 610.238 798.684 605.488 C 805.491 597.035 810.231 590.341 816.417 581.534 z" fill="rgb(207,107,52)" transform="translate(0,0)"></path>
<path d="M 812.967 466.284 C 819.544 464.21 838.959 472.747 846.901 475.098 C 864.172 480.209 881.648 485.457 898.753 491.092 C 889.541 495.103 880.632 498.554 871.256 502.163 C 854.554 489.667 836.718 480.118 818.321 470.336 L 817.74 472.062 L 816.501 471.75 C 816.615 471.05 816.728 470.35 816.841 469.65 L 812.96 466.86 L 812.967 466.284 z" fill="rgb(227,160,42)" transform="translate(0,0)"></path>
<path d="M 816.841 469.65 C 817.625 469.87 817.82 469.819 818.321 470.336 L 817.74 472.062 L 816.501 471.75 C 816.615 471.05 816.728 470.35 816.841 469.65 z" fill="rgb(79,49,16)" transform="translate(0,0)"></path>
<path d="M 762.855 488.193 L 763.403 488.637 C 743.743 512.175 723.861 537.333 704.69 561.348 C 698.602 563.328 689.186 565.152 682.732 566.602 L 682.388 566.339 L 682.635 564.757 C 702.994 545.406 722.387 524.876 742.821 505.565 C 749.526 499.229 755.12 493.275 762.855 488.193 z" fill="url(#Gradient1)" transform="translate(0,0)"></path>
<path d="M 779.403 570.423 C 792.051 574.701 801.638 577.21 814.369 580.802 C 809.909 587.279 804.628 593.83 799.948 600.366 C 799.628 600.748 799.315 601.135 799.008 601.527 C 798.638 602.009 797.451 603.751 796.899 603.647 C 791.744 602.674 774.047 593.789 770.13 591.75 C 773.525 584.206 776.394 578.353 779.403 570.423 z" fill="rgb(184,58,35)" transform="translate(0,0)"></path>
<path d="M 733.59 508.376 L 735.117 510.23 C 722.781 522.006 710.603 533.947 698.587 546.049 C 692.7 551.891 681.303 563.822 674.886 567.927 C 670.09 568.154 663.079 569.176 659.456 566.364 C 660.137 562.215 724.641 514.907 733.59 508.376 z" fill="rgb(227,160,42)" transform="translate(0,0)"></path>
<path d="M 812.025 562.131 C 821.016 566.598 832.293 565.899 841.943 564.819 C 841.791 574.437 841.693 584.057 841.65 593.677 C 838.931 591.824 836.463 589.971 833.808 588.144 C 816.323 577.46 813.237 578.152 794.497 572.464 C 802.063 568.405 804.785 566.733 812.025 562.131 z" fill="rgb(253,248,236)" transform="translate(0,0)"></path>
<path d="M 797.113 534.627 L 797.109 536.121 C 796.787 540.268 795.969 544.427 796.105 548.487 C 796.325 555.043 797.477 559.78 804.992 560.34 C 811.744 560.376 806.845 563.446 803.992 564.989 C 794.841 569.939 781.405 563.073 775.609 555.708 C 771.307 550.241 764.095 544.262 774.986 542.126 C 782.22 540.708 790.126 536.923 797.113 534.627 z" fill="rgb(107,96,81)" transform="translate(0,0)"></path>
<path d="M 797.588 607.917 C 807.036 613.471 816.462 618.507 825.875 624.354 C 822.773 631.14 818.215 639.604 814.632 646.321 C 812.511 650.486 810.331 654.32 808.188 658.406 C 807.988 646.52 808.752 630.918 801.132 620.996 C 794.758 612.698 791.65 617.405 797.588 607.917 z" fill="rgb(207,107,52)" transform="translate(0,0)"></path>
<path d="M 768.344 594.526 C 771.794 595.705 796.304 604.817 794.498 608.199 C 791.374 614.047 789.331 611.501 784.341 609.329 C 771.218 609.877 770.28 610.453 758.722 615.781 C 761.463 609.123 765.302 601.401 768.344 594.526 z" fill="rgb(184,58,35)" transform="translate(0,0)"></path>
<path d="M 878.389 945.243 C 888.907 946.705 899.269 947.742 909.686 949.765 C 903.389 950.817 897.549 951.735 891.25 952.634 C 888.688 953.069 863.327 958.405 865.811 952.866 C 866.797 950.67 875.16 947.164 878.389 945.243 z" fill="rgb(253,248,236)" transform="translate(0,0)"></path>
<path d="M 803.146 958.999 C 810.582 959.668 817.577 960.203 825.047 960.295 C 825.564 960.302 828.515 965.753 823.603 967.12 L 803.101 971.77 C 803.037 967.513 803.052 963.255 803.146 958.999 z" fill="rgb(253,248,236)" transform="translate(0,0)"></path>
<path d="M 811.298 529.1 C 811.427 529.502 811.556 529.905 811.685 530.307 L 812.484 533.36 C 812.899 534.92 812.778 534.988 813.599 536.199 C 814.103 536.125 814.331 535.614 814.693 535.199 L 815.66 538.731 C 813.752 538.865 799.931 536.583 797.109 536.121 L 797.113 534.627 C 801.009 532.761 807.087 530.734 811.298 529.1 z" fill="rgb(92,36,21)" transform="translate(0,0)"></path>
<path d="M 830.107 460.088 C 836.008 459.532 840.727 459.135 846.688 458.971 L 846.414 462.421 C 839.53 461.313 837.29 460.841 830.107 460.088 z" fill="rgb(207,107,52)" transform="translate(0,0)"></path>
<path d="M 733.59 508.376 C 736.163 505.904 742.973 501.435 745.993 499.542 C 742.356 503.21 738.953 506.744 735.117 510.23 L 733.59 508.376 z" fill="rgb(184,58,35)" transform="translate(0,0)"></path>
<path d="M 1010.02 933.754 C 1017.1 943.576 1014.35 943.908 1008.07 936.024 L 1010.02 933.754 z" fill="rgb(210,195,168)" transform="translate(0,0)"></path>
<path d="M 812.96 466.86 C 808.425 466.442 809.738 464.937 812.967 466.284 L 812.96 466.86 z" fill="rgb(10,7,5)" transform="translate(0,0)"></path>
<path d="M 1422.75 338.328 C 1429.52 324.473 1450.94 292.084 1460.06 277.492 L 1495.47 221.648 C 1501.71 211.835 1508.83 199.749 1515.55 190.501 L 1515.47 191.704 L 1516.98 189.15 C 1511.34 202.04 1491.89 231.07 1483.37 244.572 C 1463.64 276.245 1443.73 307.8 1423.62 339.235 C 1427.36 342.313 1431.47 345.449 1435.15 348.447 C 1450.43 360.875 1472.61 388.99 1474.55 409.178 L 1473.13 409.72 C 1473.39 412.442 1473.29 412.948 1474.81 415.305 L 1475.53 415.025 C 1480.23 422.243 1479.01 441.21 1478.55 450.137 C 1475.93 500.665 1432.23 549.754 1381.93 557.69 L 1373.7 558.9 L 1373.87 556.543 C 1362.85 558.954 1354.74 555.813 1349.09 560.127 C 1333.74 558.734 1317.05 555.613 1303.55 547.857 L 1303.97 547.27 L 1303.68 545.809 L 1301.96 545.045 L 1300.39 545.908 C 1289.87 542.709 1275.64 531.529 1267.74 523.993 C 1267.63 522.247 1267.68 521.474 1267.8 519.722 C 1270.8 520.489 1271.29 520.554 1274.2 519.471 C 1283.17 522.173 1289.43 523.358 1298.15 525.625 L 1312.67 525.864 C 1317.35 515.038 1331.52 495.052 1338.04 484.026 C 1356.64 452.588 1381.34 417.618 1398.61 385.901 C 1387.21 362.068 1363.99 344.58 1339.51 336.076 C 1333.56 334.011 1326.74 333.351 1320.65 331.488 L 1320.08 331.308 C 1312.9 330.775 1306.79 330.8 1299.68 330.618 C 1305.94 328.05 1310.16 326.231 1316.76 324.546 C 1321.93 322.199 1329.93 320.707 1335.64 320.332 C 1350.9 318.327 1358.14 318.285 1373.36 320.34 C 1387.41 322.378 1396.32 325.741 1409.04 331.983 C 1411.62 333.251 1420.51 337.677 1422.75 338.328 z" fill="rgb(107,96,81)" transform="translate(0,0)"></path>
<path d="M 1398.61 385.901 L 1400.68 385.471 C 1402.71 388.043 1402.3 386.63 1402.06 389.817 L 1401.31 390.67 C 1410.47 424.242 1412.25 445.605 1394.46 478.435 C 1393.76 479.72 1390.25 485.311 1389.87 486.21 C 1386.58 489.997 1381.97 494.28 1379.97 498.52 C 1376.41 499.737 1374.75 501.937 1371.88 504.58 C 1351.19 517.111 1350.66 519.075 1325.81 524.562 L 1325.41 526.792 L 1322.53 527.739 L 1313.04 528.301 C 1308.52 528.501 1303.55 528.281 1298.98 528.178 L 1298.15 525.625 L 1312.67 525.864 C 1317.35 515.038 1331.52 495.052 1338.04 484.026 C 1356.64 452.588 1381.34 417.618 1398.61 385.901 z" fill="rgb(253,248,236)" transform="translate(0,0)"></path>
<path d="M 1398.61 385.901 L 1400.68 385.471 C 1402.71 388.043 1402.3 386.63 1402.06 389.817 L 1401.31 390.67 L 1399.35 390.303 C 1391.12 399.887 1367.26 441.048 1358.88 454.519 L 1331.12 498.817 C 1327.86 504.032 1317.86 519.493 1316.06 524.573 C 1319.37 525.599 1322.3 524.934 1325.81 524.562 L 1325.41 526.792 L 1322.53 527.739 L 1313.04 528.301 C 1308.52 528.501 1303.55 528.281 1298.98 528.178 L 1298.15 525.625 L 1312.67 525.864 C 1317.35 515.038 1331.52 495.052 1338.04 484.026 C 1356.64 452.588 1381.34 417.618 1398.61 385.901 z" fill="rgb(44,40,36)" transform="translate(0,0)"></path>
<path d="M 1335.64 320.332 C 1350.9 318.327 1358.14 318.285 1373.36 320.34 C 1368.65 322.167 1339.54 322.535 1335.64 320.332 z" fill="rgb(44,40,36)" transform="translate(0,0)"></path>
<path d="M 1299.68 330.618 C 1305.94 328.05 1310.16 326.231 1316.76 324.546 L 1316.2 328.068 C 1315.4 328.119 1314.68 328.045 1314.33 328.359 C 1315.04 328.959 1318.6 329.174 1319.65 329.28 C 1320.59 330.202 1320.5 330.125 1320.08 331.308 C 1312.9 330.775 1306.79 330.8 1299.68 330.618 z" fill="rgb(10,7,5)" transform="translate(0,0)"></path>
<path d="M 1389.87 486.21 L 1389.77 487.528 C 1389.59 490.645 1383.17 497.063 1379.97 498.52 C 1381.97 494.28 1386.58 489.997 1389.87 486.21 z" fill="rgb(10,7,5)" transform="translate(0,0)"></path>
<path d="M 1371.88 504.58 C 1374.75 501.937 1376.41 499.737 1379.97 498.52 C 1378.56 502.24 1375.79 504.229 1371.88 504.58 z" fill="rgb(10,7,5)" transform="translate(0,0)"></path>
<path d="M 1211.49 866.319 C 1273.39 833.166 1338.24 793.272 1398.87 757.252 L 1625.84 622.842 C 1665.63 598.874 1705.54 575.121 1745.59 551.582 C 1757 544.877 1784.04 527.542 1793.95 523.345 L 1794.1 524.283 C 1789.77 528.684 1733.89 560.69 1724.84 566.02 C 1654.4 607.492 1583.85 650.853 1513.13 691.696 C 1512.72 692.224 1512.55 692.186 1511.86 692.505 C 1487.71 706.87 1458.19 725.792 1434.13 738.694 C 1433.72 739.224 1433.55 739.188 1432.86 739.512 C 1421.57 746.229 1406.5 755.826 1395.12 761.674 C 1394.72 762.214 1394.56 762.175 1393.86 762.507 C 1358.45 783.838 1322.87 804.902 1287.14 825.698 C 1286.72 826.225 1286.56 826.188 1285.86 826.507 C 1282.78 828.332 1278.21 831.21 1275.15 832.725 C 1274.63 833.276 1274.63 833.19 1273.88 833.546 C 1265.37 838.427 1255.75 844.24 1247.16 848.746 C 1246.62 849.305 1246.59 849.226 1245.89 849.591 L 1240.15 852.716 C 1239.73 853.226 1239.61 853.17 1238.86 853.525 L 1214.29 867.308 L 1211.61 868.997 L 1210.8 866.887 L 1211.49 866.319 z" fill="rgb(107,96,81)" transform="translate(0,0)"></path>
<path d="M 536.738 693.456 C 515.734 680.78 492.722 668.095 471.357 655.753 L 340.93 580.658 C 315.814 566.324 290.676 552.024 265.625 537.588 C 259.628 534.133 254.443 530.807 248.859 526.652 L 248.895 526.062 C 284.606 544.221 330.916 572.405 366.36 592.877 L 538.998 692.25 L 545.542 695.88 C 585.269 718.85 624.872 742.034 664.349 765.431 C 671.261 769.49 708.478 790.482 712.198 794.399 L 711.474 795.101 C 703.897 792.015 668.695 770.501 659.847 765.289 C 621.264 742.48 582.566 719.866 543.753 697.449 L 536.738 693.456 z" fill="rgb(107,96,81)" transform="translate(0,0)"></path>
<path d="M 1410.5 613.243 C 1474.37 547.852 1538.62 482.828 1603.24 418.174 C 1623.21 397.785 1643.35 377.569 1663.66 357.527 C 1670.46 350.722 1686.84 332.808 1694.09 328.317 L 1694.47 328.692 C 1675.26 349.329 1653.84 369.946 1633.83 389.98 L 1556.51 468.112 L 1411.95 614.644 L 1410.5 613.243 z" fill="rgb(107,96,81)" transform="translate(0,0)"></path>
<path d="M 428.04 529.929 C 444.821 540.223 471.888 561.08 488.682 573.19 C 524.967 598.802 561.08 624.657 597.018 650.753 C 609.521 659.733 633.031 677.738 645.339 685.241 L 646.27 683.77 C 647.361 685.01 648.789 685.905 650.381 686.346 L 649.751 688.268 L 655.544 692.384 L 653.563 693.841 C 598.574 655.264 542.298 612.346 487.001 574.799 C 468.232 561.005 446.486 545.119 427.204 532.264 L 428.04 529.929 z" fill="rgb(107,96,81)" transform="translate(0,0)"></path>
<path d="M 646.27 683.77 C 647.361 685.01 648.789 685.905 650.381 686.346 L 649.751 688.268 C 647.996 687.201 646.964 686.495 645.339 685.241 L 646.27 683.77 z" fill="rgb(205,206,185)" transform="translate(0,0)"></path>
<path d="M 1474.55 409.178 L 1476.45 409.196 C 1492.75 390.076 1600.41 248.146 1606.35 246.366 C 1604.33 251.762 1578.37 283.317 1573.62 289.133 C 1550.54 317.283 1527.89 345.791 1505.7 374.649 C 1498.87 383.462 1480.7 406.072 1475.53 415.025 L 1474.81 415.305 C 1473.29 412.948 1473.39 412.442 1473.13 409.72 L 1474.55 409.178 z" fill="rgb(44,40,36)" transform="translate(0,0)"></path>
<path d="M 647.992 252.534 C 651.634 250.716 655.975 251.016 659.331 253.318 C 662.688 255.62 664.531 259.562 664.146 263.614 C 663.76 267.666 661.207 271.19 657.477 272.818 C 651.911 275.248 645.423 272.799 642.851 267.298 C 640.279 261.796 642.559 255.248 647.992 252.534 z" fill="rgb(207,107,52)" transform="translate(0,0)"></path>
<path d="M 1386.21 256.568 C 1391.92 255.607 1397.37 259.36 1398.51 265.045 C 1399.65 270.731 1396.08 276.295 1390.43 277.615 C 1386.61 278.506 1382.62 277.25 1380 274.336 C 1377.38 271.423 1376.56 267.315 1377.85 263.617 C 1379.14 259.919 1382.34 257.217 1386.21 256.568 z" fill="rgb(207,107,52)" transform="translate(0,0)"></path>
<path d="M 454.813 410.805 C 457.876 413.557 464.139 418.804 466.193 421.91 C 474.767 428.096 494.779 447.336 502.91 455.086 C 518.711 468.479 534.587 484.728 550.126 498.666 C 553.395 501.599 571.359 518.273 573.222 520.827 L 571.69 521.483 C 550.645 504.049 520.397 474.276 499.928 454.951 C 490.63 446.919 480.995 437.747 471.888 429.391 C 466.785 425.374 457.055 415.731 451.93 410.951 L 454.813 410.805 z" fill="rgb(107,96,81)" transform="translate(0,0)"></path>
<path d="M 444.336 681.696 C 449.201 679.273 455.111 681.196 457.619 686.018 C 460.126 690.839 458.308 696.781 453.531 699.374 C 450.366 701.092 446.519 700.968 443.47 699.05 C 440.422 697.131 438.646 693.717 438.826 690.119 C 439.005 686.522 441.112 683.301 444.336 681.696 z" fill="rgb(207,107,52)" transform="translate(0,0)"></path>
<path d="M 375.996 495.345 C 352.122 477.718 327.743 460.778 303.794 443.254 C 296.93 438.232 289.901 433.384 283.731 427.502 C 286.639 427.643 367.517 485.249 373.391 491.158 C 374.271 492.546 375.14 493.942 375.996 495.345 z" fill="rgb(107,96,81)" transform="translate(0,0)"></path>
<path d="M 494.726 309.516 C 500.615 314.785 506.19 322.069 511.374 328.165 C 532.945 353.532 553.733 379.819 575.643 404.886 L 576.25 405.875 L 575.026 407.509 L 572.723 405.071 C 568.169 398.189 552.681 380.64 546.649 373.479 L 494.995 312.148 L 494.726 309.516 z" fill="rgb(107,96,81)" transform="translate(0,0)"></path>
<path d="M 1083.51 249.626 C 1087.97 247.878 1093.01 249.983 1094.91 254.384 C 1096.8 258.785 1094.86 263.894 1090.52 265.929 C 1087.59 267.305 1084.14 266.973 1081.52 265.064 C 1078.9 263.154 1077.53 259.97 1077.95 256.756 C 1078.36 253.542 1080.49 250.809 1083.51 249.626 z" fill="rgb(207,107,52)" transform="translate(0,0)"></path>
<path d="M 941.875 137.436 C 946.261 135.808 951.147 137.945 952.929 142.27 C 954.711 146.595 952.749 151.554 948.49 153.489 C 945.598 154.803 942.219 154.433 939.679 152.524 C 937.139 150.615 935.844 147.472 936.301 144.328 C 936.759 141.184 938.897 138.541 941.875 137.436 z" fill="rgb(138,90,134)" transform="translate(0,0)"></path>
<path d="M 1328.33 848.975 C 1322.9 845.421 1315.96 840.439 1321.16 833.949 C 1328.43 824.869 1343.7 832.704 1331.22 846.868 L 1330.61 847.578 C 1329.03 846.727 1329.03 847.428 1328.33 848.975 z" fill="rgb(107,96,81)" transform="translate(0,0)"></path>
<path d="M 558.825 416.422 C 561.726 415.32 564.997 415.879 567.367 417.884 C 569.737 419.888 570.832 423.021 570.226 426.065 C 569.621 429.109 567.41 431.584 564.454 432.529 C 560.049 433.936 555.326 431.58 553.8 427.215 C 552.275 422.85 554.503 418.065 558.825 416.422 z" fill="rgb(138,90,134)" transform="translate(0,0)"></path>
<path d="M 646.27 683.77 C 643.481 680.601 643.441 675.866 646.175 672.649 C 648.909 669.433 653.589 668.71 657.166 670.952 C 660.743 673.194 662.133 677.72 660.43 681.583 C 658.728 685.446 654.449 687.474 650.381 686.346 C 648.789 685.905 647.361 685.01 646.27 683.77 z" fill="rgb(107,96,81)" transform="translate(0,0)"></path>
<path d="M 585.729 826.309 C 588.531 824.929 591.865 825.203 594.404 827.021 C 596.943 828.84 598.275 831.907 597.871 835.004 C 597.467 838.101 595.392 840.724 592.471 841.83 C 588.243 843.431 583.504 841.429 581.703 837.283 C 579.901 833.136 581.674 828.306 585.729 826.309 z" fill="rgb(107,96,81)" transform="translate(0,0)"></path>
<path d="M 1284.27 447.438 C 1286.9 445.918 1290.15 445.937 1292.77 447.488 C 1295.39 449.039 1296.96 451.881 1296.9 454.922 C 1296.83 457.963 1295.12 460.73 1292.44 462.161 C 1288.38 464.323 1283.34 462.835 1281.11 458.816 C 1278.88 454.798 1280.29 449.734 1284.27 447.438 z" fill="rgb(107,96,81)" transform="translate(0,0)"></path>
<path d="M 1642.28 460.505 C 1646.72 459.211 1651.37 461.782 1652.64 466.235 C 1653.91 470.687 1651.31 475.321 1646.85 476.562 C 1642.42 477.792 1637.84 475.22 1636.58 470.805 C 1635.32 466.39 1637.87 461.788 1642.28 460.505 z" fill="rgb(207,107,52)" transform="translate(0,0)"></path>
<path d="M 1614.37 678.626 C 1618.7 677.673 1623 680.314 1624.1 684.6 C 1625.21 688.886 1622.72 693.279 1618.48 694.537 C 1615.6 695.391 1612.48 694.604 1610.35 692.483 C 1608.21 690.363 1607.41 687.247 1608.25 684.36 C 1609.09 681.473 1611.44 679.274 1614.37 678.626 z" fill="rgb(107,96,81)" transform="translate(0,0)"></path>
<path d="M 309.411 619.478 C 313.713 618.701 317.865 621.451 318.827 625.716 C 319.79 629.981 317.222 634.247 313.003 635.393 C 310.106 636.18 307.012 635.314 304.944 633.139 C 302.876 630.963 302.169 627.829 303.102 624.976 C 304.034 622.123 306.457 620.012 309.411 619.478 z" fill="rgb(138,90,134)" transform="translate(0,0)"></path>
<path d="M 1140.94 363.377 C 1143.67 362.32 1146.76 362.816 1149.02 364.673 C 1151.29 366.53 1152.38 369.462 1151.87 372.347 C 1151.37 375.231 1149.35 377.621 1146.59 378.602 C 1142.41 380.091 1137.8 377.941 1136.26 373.777 C 1134.71 369.613 1136.8 364.979 1140.94 363.377 z" fill="rgb(107,96,81)" transform="translate(0,0)"></path>
<path d="M 417.746 521.839 C 423.724 520.683 427.434 524.118 428.04 529.929 L 427.204 532.264 C 417.089 542.455 407.134 532.847 414.86 523.035 C 415.827 522.648 416.789 522.249 417.746 521.839 z" fill="rgb(207,107,52)" transform="translate(0,0)"></path>
<path d="M 613.357 557.556 C 623.941 566.114 636.266 578.777 646.815 588.048 C 653.82 594.205 663.852 602.553 669.708 609.03 L 667.901 610.121 C 658.399 601.473 649.93 593.93 640.404 584.97 C 638.896 584.196 637.859 583.03 636.945 581.625 C 634.253 579.259 631.672 576.869 629.006 574.505 C 626.946 573.148 625.967 572.257 624.64 570.178 C 621.854 567.696 618.721 564.49 615.778 562.411 C 614.382 560.239 614.083 559.966 613.357 557.556 z" fill="rgb(44,40,36)" transform="translate(0,0)"></path>
<path d="M 624.64 570.178 C 626.709 571.18 627.671 572.652 629.006 574.505 C 626.946 573.148 625.967 572.257 624.64 570.178 z" fill="rgb(138,90,134)" transform="translate(0,0)"></path>
<path d="M 636.945 581.625 C 638.909 582.618 639.327 583.047 640.404 584.97 C 638.896 584.196 637.859 583.03 636.945 581.625 z" fill="rgb(107,96,81)" transform="translate(0,0)"></path>
<path d="M 480.668 295.103 C 474.512 287.945 449.947 258.625 443.21 249.148 C 443.286 249.005 443.361 248.861 443.436 248.718 C 444.58 248.321 447.491 251.923 448.106 252.726 C 455.901 262.914 466.094 273.518 473.663 283.619 C 478.12 289.567 492.287 304.042 494.726 309.516 L 494.995 312.148 C 493.559 310.575 492.279 309.268 490.906 307.598 C 488.283 303.969 485.232 300.537 482.371 297.039 C 481.258 296.369 481.401 296.357 480.668 295.103 z" fill="rgb(107,96,81)" transform="translate(0,0)"></path>
<path d="M 490.906 307.598 C 492.55 308.588 493.002 308.817 494.726 309.516 L 494.995 312.148 C 493.559 310.575 492.279 309.268 490.906 307.598 z" fill="rgb(138,90,134)" transform="translate(0,0)"></path>
<path d="M 1410.5 613.243 L 1411.95 614.644 C 1422.27 627.041 1409.65 631.696 1402 624.681 C 1402.4 622.975 1402.56 622.236 1402.76 620.462 C 1404.33 617.156 1407.21 614.747 1410.5 613.243 z" fill="rgb(207,107,52)" transform="translate(0,0)"></path>
<path d="M 1324.74 374.407 C 1327.13 373.624 1329.75 374.205 1331.58 375.922 C 1333.41 377.639 1334.15 380.217 1333.52 382.646 C 1332.9 385.075 1330.99 386.967 1328.56 387.579 C 1324.97 388.481 1321.32 386.383 1320.29 382.834 C 1319.26 379.285 1321.23 375.559 1324.74 374.407 z" fill="rgb(207,107,52)" transform="translate(0,0)"></path>
<path d="M 655.544 692.384 C 671.678 704.398 687.848 715.583 704.356 727.073 C 705.179 727.646 705.556 728.017 706.286 728.678 L 705.66 730.009 C 691.08 722.172 667.104 704.137 653.563 693.841 L 655.544 692.384 z" fill="rgb(138,90,134)" transform="translate(0,0)"></path>
<path d="M 911.665 287.403 C 913.828 286.24 916.454 286.355 918.507 287.703 C 920.561 289.051 921.71 291.415 921.503 293.862 C 921.296 296.309 919.766 298.446 917.515 299.43 C 914.225 300.868 910.387 299.454 908.816 296.225 C 907.245 292.996 908.503 289.103 911.665 287.403 z" fill="rgb(207,107,52)" transform="translate(0,0)"></path>
<path d="M 1490.14 721.402 C 1493.55 720.11 1497.36 721.846 1498.62 725.268 C 1499.89 728.689 1498.12 732.483 1494.69 733.717 C 1491.3 734.937 1487.56 733.194 1486.31 729.813 C 1485.06 726.432 1486.77 722.678 1490.14 721.402 z" fill="rgb(207,107,52)" transform="translate(0,0)"></path>
<path d="M 534.224 549.345 C 537.635 548.131 541.385 549.909 542.604 553.318 C 543.823 556.727 542.051 560.48 538.643 561.704 C 535.229 562.931 531.467 561.154 530.245 557.738 C 529.023 554.321 530.805 550.562 534.224 549.345 z" fill="rgb(207,107,52)" transform="translate(0,0)"></path>
<path d="M 470.125 341.489 C 473.674 341.192 476.808 343.787 477.18 347.328 C 477.551 350.87 475.023 354.058 471.491 354.505 C 469.138 354.802 466.809 353.803 465.402 351.894 C 463.995 349.986 463.73 347.465 464.71 345.306 C 465.691 343.146 467.762 341.686 470.125 341.489 z" fill="rgb(207,107,52)" transform="translate(0,0)"></path>
<path d="M 1204.3 142.347 C 1206.53 141.36 1209.12 141.708 1211 143.246 C 1212.89 144.784 1213.75 147.252 1213.24 149.631 C 1212.72 152.01 1210.91 153.896 1208.55 154.511 C 1205.29 155.361 1201.93 153.568 1200.82 150.389 C 1199.71 147.211 1201.22 143.711 1204.3 142.347 z" fill="rgb(207,107,52)" transform="translate(0,0)"></path>
<path d="M 533.64 735.485 C 536.796 733.954 540.596 735.221 542.202 738.339 C 543.807 741.458 542.631 745.287 539.552 746.966 C 537.494 748.089 534.989 748.008 533.008 746.755 C 531.027 745.503 529.879 743.275 530.011 740.934 C 530.142 738.594 531.531 736.508 533.64 735.485 z" fill="rgb(207,107,52)" transform="translate(0,0)"></path>
<path d="M 696.051 329.598 C 699.333 328.368 702.994 330.002 704.27 333.267 C 705.546 336.531 703.963 340.215 700.717 341.536 C 698.576 342.408 696.132 342.059 694.32 340.624 C 692.508 339.189 691.61 336.89 691.968 334.606 C 692.326 332.323 693.886 330.409 696.051 329.598 z" fill="rgb(207,107,52)" transform="translate(0,0)"></path>
<path d="M 1560.23 372.349 C 1563.49 371.785 1566.64 373.796 1567.5 376.989 C 1568.36 380.181 1566.65 383.503 1563.55 384.65 C 1561.27 385.492 1558.72 384.975 1556.95 383.315 C 1555.18 381.656 1554.5 379.139 1555.2 376.816 C 1555.89 374.493 1557.84 372.764 1560.23 372.349 z" fill="rgb(207,107,52)" transform="translate(0,0)"></path>
<path d="M 573.222 520.827 C 576.726 522.71 582.26 528.277 585.291 531.282 C 589.653 535.017 610.343 553.886 613.357 557.556 C 614.083 559.966 614.382 560.239 615.778 562.411 C 611.849 559.136 605.702 553.037 601.836 549.362 C 599.588 547.583 598.2 546.606 596.64 544.199 C 594.196 542.079 591.889 540.084 589.529 537.853 C 584.538 534.01 581.749 530.34 576.72 526.471 C 574.778 524.757 573.339 523.531 571.69 521.483 L 573.222 520.827 z" fill="rgb(107,96,81)" transform="translate(0,0)"></path>
<path d="M 596.64 544.199 C 598.851 545.228 600.311 547.442 601.836 549.362 C 599.588 547.583 598.2 546.606 596.64 544.199 z" fill="rgb(138,90,134)" transform="translate(0,0)"></path>
<path d="M 573.222 520.827 C 574.416 523.591 574.94 524.05 576.72 526.471 C 574.778 524.757 573.339 523.531 571.69 521.483 L 573.222 520.827 z" fill="rgb(138,90,134)" transform="translate(0,0)"></path>
<path d="M 373.391 491.158 C 386.755 499.378 405.085 514.807 417.746 521.839 C 416.789 522.249 415.827 522.648 414.86 523.035 C 410.442 519.373 380.795 498.127 375.996 495.345 C 375.14 493.942 374.271 492.546 373.391 491.158 z" fill="rgb(44,40,36)" transform="translate(0,0)"></path>
<path d="M 413.809 373.184 L 413.98 373.63 C 416.91 375.339 438.66 395.012 440.174 397.953 C 442.411 401.496 443.33 402.174 445.889 405.349 C 439.133 400.183 424.814 385.801 417.803 379.399 C 415.134 377.233 413.398 375.417 410.969 372.988 L 413.809 373.184 z" fill="rgb(107,96,81)" transform="translate(0,0)"></path>
<path d="M 413.809 373.184 L 413.98 373.63 C 415.208 376.137 415.447 376.411 417.195 378.619 L 417.803 379.399 C 415.134 377.233 413.398 375.417 410.969 372.988 L 413.809 373.184 z" fill="rgb(138,90,134)" transform="translate(0,0)"></path>
<path d="M 365.182 328.883 C 369.582 332.103 387.658 348.839 391.866 353.199 L 388.975 352.981 L 382.413 346.955 C 381.259 346.397 381.414 346.392 380.641 345.185 L 371.229 336.729 C 368.594 333.225 367.676 332.944 365.182 328.883 z" fill="rgb(44,40,36)" transform="translate(0,0)"></path>
<path d="M 380.641 345.185 C 381.883 345.774 381.677 345.657 382.413 346.955 C 381.259 346.397 381.414 346.392 380.641 345.185 z" fill="rgb(138,90,134)" transform="translate(0,0)"></path>
<path d="M 391.866 353.199 L 392.549 353.53 C 398.203 358.132 408.909 367.983 413.809 373.184 L 410.969 372.988 C 406.205 368.681 398.419 361.217 393.791 357.6 C 391.999 356.064 390.621 354.637 388.975 352.981 L 391.866 353.199 z" fill="rgb(107,96,81)" transform="translate(0,0)"></path>
<path d="M 391.866 353.199 L 392.549 353.53 C 392.672 355.84 392.664 355.666 393.791 357.6 C 391.999 356.064 390.621 354.637 388.975 352.981 L 391.866 353.199 z" fill="rgb(138,90,134)" transform="translate(0,0)"></path>
<path d="M 576.25 405.875 C 579.202 408.974 587.525 418.785 590 422.001 L 587.143 422.011 C 583.286 417.023 579.061 412.385 575.026 407.509 L 576.25 405.875 z" fill="rgb(44,40,36)" transform="translate(0,0)"></path>
<path d="M 440.174 397.953 C 445.696 401.829 449.768 406.316 454.813 410.805 L 451.93 410.951 C 449.971 409.025 447.957 407.157 445.889 405.349 C 443.33 402.174 442.411 401.496 440.174 397.953 z" fill="rgb(44,40,36)" transform="translate(0,0)"></path>
<path d="M 371.229 336.729 C 369.477 335.494 357.506 325.027 358.008 323.21 C 360.302 322.65 364.263 327.008 365.182 328.883 C 367.676 332.944 368.594 333.225 371.229 336.729 z" fill="rgb(138,90,134)" transform="translate(0,0)"></path>
<metadata><recraft-signature>{"signed_by": "recraft", "signature_b64": "9M060eaK+kKtq/gwxXrdR5Ir35q8mNY8Z4NUU9THC6TDSJzbvDn/dUn3dmVDKB5zmdGBnJginbYUakUqRlroAg==", "signing_algo": "Ed25519", "generation_timestamp": 1781418425, "identifier": "f38f4cdf-a347-4c61-9cce-59d0566fe428"}</recraft-signature></metadata></svg>