<svg xmlns="http://www.w3.org/2000/svg" height="896" preserveAspectRatio="none" style="display: block;" version="1.1" viewBox="0 0 2048 1509" width="1216">
<path d="M 0 0 L 2048 0 L 2048 1509 L 0 1509 L 0 0 z" fill="rgb(253,248,236)" transform="translate(0,0)"></path>
<path d="M 1106.71 610.141 C 1110.89 559.535 1137.25 512.236 1175.74 479.564 C 1219.4 442.722 1275.92 424.769 1332.83 429.669 C 1388.97 434.137 1441.07 460.599 1477.79 503.295 C 1504.35 534.677 1518.96 569.553 1524.41 610.016 L 1450.97 609.999 C 1450.93 645.54 1438.66 675.456 1413.44 700.581 C 1403.95 710.022 1393.27 718.194 1381.68 724.893 C 1430.81 724.968 1480.84 725.48 1529.9 724.86 L 1529.71 873.196 C 1529.45 962.267 1535.81 1031 1465.44 1100.25 C 1438.82 1126.19 1406.24 1145.22 1370.57 1155.66 C 1370.56 1207.56 1369.28 1263.77 1370.38 1315.13 L 1312.55 1315.11 C 1302.72 1315.1 1286.46 1315.51 1277.04 1314.38 C 1306.89 1305.07 1336.91 1296.33 1367.08 1288.14 C 1368.87 1247.99 1367.25 1197.55 1367.29 1156.64 C 1327.38 1164.99 1298.45 1165.6 1258.9 1155.44 C 1259.31 1208.67 1259.31 1261.89 1258.88 1315.11 C 1236.6 1315.16 1210.02 1315.87 1188.15 1315.06 C 1180.39 1315.86 1171.79 1315.37 1164.03 1314.58 C 1172.1 1311.8 1178.86 1310.37 1186.97 1308.04 C 1208.97 1302.04 1234.11 1294.27 1255.93 1287.46 L 1255.96 1155.28 C 1232.76 1146.66 1216.04 1140.12 1194.96 1126.01 C 1153.09 1097.99 1116.38 1048.4 1106.36 998.651 C 1065.07 990.699 1016.3 985.61 975.86 975.459 L 976.503 971.269 C 977.289 965.665 977.873 959.723 978.524 954.075 L 978.85 950.059 C 979.221 940.572 979.033 929.569 979.11 919.956 L 979.077 915.878 C 979.05 908.387 979.171 900.815 979.231 893.316 L 979.358 889.523 C 978.842 882.114 979.166 870.943 979.194 863.201 L 979.211 858.62 L 1099.28 825.267 C 1099.18 793.617 1098.29 755.972 1099.55 724.879 L 1248.32 725.172 C 1204.99 700.915 1179.79 660.384 1178.94 610.365 C 1154.97 610.31 1130.66 610.455 1106.71 610.141 z" fill="rgb(49,17,17)" transform="translate(0,0)"></path>
<path d="M 1099.55 724.879 C 1101.49 747.189 1099.13 777.921 1100.06 801.047 C 1100.24 805.511 1100.27 837.992 1099.8 840.715 L 1099.95 866.438 L 1099.95 871.092 L 1100.02 907.698 L 1100.02 911.987 C 1100.04 923.165 1099.6 938.861 1100.29 949.673 L 1100.14 952.88 C 1100.42 964.375 1102.13 983.848 1105.56 994.791 L 1106.36 998.651 C 1065.07 990.699 1016.3 985.61 975.86 975.459 L 976.503 971.269 C 977.289 965.665 977.873 959.723 978.524 954.075 L 978.85 950.059 C 979.221 940.572 979.033 929.569 979.11 919.956 L 979.077 915.878 C 979.05 908.387 979.171 900.815 979.231 893.316 L 979.358 889.523 C 978.842 882.114 979.166 870.943 979.194 863.201 L 979.211 858.62 L 1099.28 825.267 C 1099.18 793.617 1098.29 755.972 1099.55 724.879 z" fill="rgb(253,248,236)" transform="translate(0,0)"></path>
<path d="M 979.11 919.956 C 1017.07 917.893 1063.61 912.538 1100.02 911.987 C 1100.04 923.165 1099.6 938.861 1100.29 949.673 L 1100.14 952.88 C 1100.42 964.375 1102.13 983.848 1105.56 994.791 L 1106.36 998.651 C 1065.07 990.699 1016.3 985.61 975.86 975.459 L 976.503 971.269 C 977.289 965.665 977.873 959.723 978.524 954.075 L 978.85 950.059 C 979.221 940.572 979.033 929.569 979.11 919.956 z" fill="rgb(253,248,236)" transform="translate(0,0)"></path>
<path d="M 979.11 919.956 C 1017.07 917.893 1063.61 912.538 1100.02 911.987 C 1100.04 923.165 1099.6 938.861 1100.29 949.673 L 978.85 950.059 C 979.221 940.572 979.033 929.569 979.11 919.956 z" fill="rgb(253,248,236)" transform="translate(0,0)"></path>
<path d="M 976.503 971.269 C 980.166 974.5 1089.25 991.816 1105.56 994.791 L 1106.36 998.651 C 1065.07 990.699 1016.3 985.61 975.86 975.459 L 976.503 971.269 z" fill="rgb(207,107,52)" transform="translate(0,0)"></path>
<path d="M 1100.29 949.673 L 1100.14 952.88 C 1059.61 953.814 1019.07 954.212 978.524 954.075 L 978.85 950.059 L 1100.29 949.673 z" fill="rgb(227,160,42)" transform="translate(0,0)"></path>
<path d="M 979.231 893.316 C 1016.08 885.448 1062.69 876.924 1099.95 871.092 L 1100.02 907.698 L 1100.02 911.987 C 1063.61 912.538 1017.07 917.893 979.11 919.956 L 979.077 915.878 C 979.05 908.387 979.171 900.815 979.231 893.316 z" fill="rgb(253,248,236)" transform="translate(0,0)"></path>
<path d="M 979.077 915.878 C 1014.56 915.33 1063.41 910.129 1100.02 907.698 L 1100.02 911.987 C 1063.61 912.538 1017.07 917.893 979.11 919.956 L 979.077 915.878 z" fill="rgb(227,160,42)" transform="translate(0,0)"></path>
<path d="M 1099.55 724.879 C 1101.49 747.189 1099.13 777.921 1100.06 801.047 C 1100.24 805.511 1100.27 837.992 1099.8 840.715 C 1099.42 836.45 1099.36 834.404 1099.45 830.116 C 1075.72 835.818 1050.53 843.1 1026.93 849.582 C 1014.25 853.063 991.176 858.781 979.194 863.201 L 979.211 858.62 L 1099.28 825.267 C 1099.18 793.617 1098.29 755.972 1099.55 724.879 z" fill="rgb(207,107,52)" transform="translate(0,0)"></path>
<path d="M 979.358 889.523 C 984.419 888.691 989.44 887.492 994.467 886.47 C 1029.54 879.336 1064.89 873.662 1099.95 866.438 L 1099.95 871.092 C 1062.69 876.924 1016.08 885.448 979.231 893.316 L 979.358 889.523 z" fill="rgb(227,160,42)" transform="translate(0,0)"></path>
<path d="M 1193.54 1309.13 C 1210.67 1303.25 1238.26 1295.88 1255.96 1291.11 L 1255.91 1311.93 L 1196.65 1312.07 L 1193.37 1312.6 C 1192.45 1312.45 1191.52 1312.31 1190.59 1312.19 C 1183.9 1311.22 1190.11 1309.79 1192.65 1308.86 L 1193.54 1309.13 z" fill="rgb(253,248,236)" transform="translate(0,0)"></path>
<path d="M 1164.03 1314.58 C 1172.1 1311.8 1178.86 1310.37 1186.97 1308.04 C 1188.87 1308.3 1190.76 1308.57 1192.65 1308.86 C 1190.11 1309.79 1183.9 1311.22 1190.59 1312.19 C 1191.52 1312.31 1192.45 1312.45 1193.37 1312.6 C 1190.62 1313.43 1190.6 1313.41 1188.15 1315.06 C 1180.39 1315.86 1171.79 1315.37 1164.03 1314.58 z" fill="rgb(81,36,24)" transform="translate(0,0)"></path>
<path d="M 1102.79 956.925 L 1249.81 956.997 C 1250.87 970.084 1253.22 980.117 1260.84 991.173 C 1270.58 1005.13 1285.45 1014.66 1302.2 1017.68 C 1342.34 1024.93 1374.94 995.774 1381.66 957.191 L 1525.6 957.155 C 1525.02 993.283 1513.21 1033.18 1492.4 1062.87 C 1433.1 1157.96 1298.68 1190.72 1204.78 1128.42 C 1199.04 1124.62 1192.26 1121.51 1186.78 1117.38 C 1182.71 1114.32 1180.17 1109.37 1175.15 1106.84 C 1165.27 1098.93 1153.86 1085.69 1146.08 1075.53 C 1115.89 1036.08 1108.4 1005.04 1102.79 956.925 z" fill="rgb(107,96,81)" transform="translate(0,0)"></path>
<path d="M 1307.74 1049.23 C 1326.18 1046.38 1343.41 1059.08 1346.14 1077.53 C 1348.87 1095.99 1336.05 1113.13 1317.58 1115.74 C 1299.28 1118.31 1282.34 1105.64 1279.64 1087.37 C 1276.93 1069.09 1289.49 1052.06 1307.74 1049.23 z" fill="rgb(49,17,17)" transform="translate(0,0)"></path>
<path d="M 1307.98 1052.36 C 1318.82 1050.53 1329.81 1054.65 1336.76 1063.17 C 1343.72 1071.69 1345.56 1083.28 1341.59 1093.54 C 1337.62 1103.79 1328.45 1111.12 1317.58 1112.74 C 1301 1115.2 1285.53 1103.86 1282.89 1087.3 C 1280.26 1070.75 1291.45 1055.16 1307.98 1052.36 z" fill="rgb(107,96,81)" transform="translate(0,0)"></path>
<path d="M 1297.76 432.371 C 1344 425.195 1405.99 446.275 1442.82 474.073 C 1485.67 506.376 1513.95 554.358 1521.46 607.49 C 1495.74 607.674 1470.02 607.578 1444.31 607.205 C 1436.41 543.113 1392.33 505.104 1330.55 495.046 C 1275.71 489.852 1225.19 512.972 1198.45 562.198 C 1189.93 577.873 1187.41 590.764 1184.49 607.895 L 1108.75 607.992 C 1115.77 568.431 1126.83 536.911 1153.54 505.886 C 1189.79 463.004 1241.76 436.51 1297.76 432.371 z" fill="rgb(138,90,134)" transform="translate(0,0)"></path>
<path d="M 1379.13 725.972 C 1381.61 728.677 1380.42 768.458 1380.38 775.244 L 1380.15 858.216 L 1380.19 915.76 C 1380.2 930.415 1380.83 944.685 1378.54 959.219 C 1370.57 1009.91 1308.61 1035.57 1270.35 998.01 C 1262.09 990.028 1256.47 979.704 1254.26 968.432 C 1251.37 954.101 1252.36 906.443 1252.34 889.384 L 1252.16 733.75 C 1252.11 731.533 1251.8 730.114 1252.98 728.275 C 1263.13 730.616 1272.49 736.365 1288.37 739.616 C 1282.33 747.458 1277.81 753.312 1275.13 763.027 C 1272.17 774.069 1273.77 785.838 1279.56 795.694 C 1287.4 808.839 1298.43 813.096 1312.36 816.609 C 1297.11 821.025 1282.01 829.5 1276.53 844.965 C 1268.07 868.847 1281.74 892.26 1304.62 900.688 C 1327.03 908.945 1351.07 893.077 1357.76 872.046 C 1361.06 861.48 1359.98 850.031 1354.77 840.263 C 1347.01 825.556 1335.59 821.017 1320.78 816.501 C 1331.66 814.818 1339.07 813.032 1347.78 805.533 C 1356.41 798.103 1361.7 787.524 1362.47 776.163 C 1363.61 759.77 1356.54 749.833 1346.54 738.189 C 1359.14 735.04 1367.57 731.505 1379.13 725.972 z" fill="rgb(138,90,134)" transform="translate(0,0)"></path>
<path d="M 1316.48 904.252 C 1340.12 903.579 1359.98 921.895 1361.21 945.511 C 1362.45 969.128 1344.61 989.414 1321.03 991.21 C 1305.27 992.41 1290.1 984.976 1281.38 971.788 C 1272.67 958.6 1271.79 941.727 1279.08 927.702 C 1286.37 913.677 1300.68 904.702 1316.48 904.252 z" fill="rgb(24,8,9)" transform="translate(0,0)"></path>
<path d="M 1312.69 907.142 C 1335.15 904.315 1355.64 920.276 1358.39 942.749 C 1361.14 965.222 1345.11 985.652 1322.62 988.325 C 1300.25 990.985 1279.94 975.048 1277.2 952.684 C 1274.47 930.32 1290.34 909.955 1312.69 907.142 z" fill="rgb(138,90,134)" transform="translate(0,0)"></path>
<path d="M 1310.73 936.346 C 1315.03 934.449 1320.02 935.034 1323.77 937.874 C 1327.52 940.714 1329.43 945.363 1328.77 950.018 C 1328.1 954.672 1324.97 958.602 1320.58 960.282 C 1314.02 962.791 1306.65 959.612 1303.98 953.116 C 1301.31 946.621 1304.3 939.179 1310.73 936.346 z" fill="rgb(49,17,17)" transform="translate(0,0)"></path>
<path d="M 1311.03 938.355 C 1314.55 936.544 1318.77 936.781 1322.07 938.976 C 1325.37 941.17 1327.22 944.977 1326.9 948.924 C 1326.59 952.872 1324.17 956.34 1320.57 957.989 C 1315.17 960.459 1308.79 958.17 1306.2 952.834 C 1303.61 947.498 1305.75 941.068 1311.03 938.355 z" fill="rgb(138,90,134)" transform="translate(0,0)"></path>
<path d="M 1102.59 802.734 C 1151.68 802.98 1200.76 802.905 1249.84 802.51 L 1249.84 954.224 L 1102.88 954.45 C 1101.59 905.331 1102.54 852.17 1102.59 802.734 z" fill="rgb(138,90,134)" transform="translate(0,0)"></path>
<path d="M 1115.71 833.423 C 1127.14 832.103 1162.91 833.197 1176.33 832.998 C 1186.63 832.846 1230.31 832.404 1238.29 833.732 L 1239.67 835.806 L 1238.98 835.831 C 1212.05 836.71 1148.02 835.697 1117.55 835.153 C 1116.94 834.576 1116.32 834 1115.71 833.423 z" fill="rgb(24,8,9)" transform="translate(0,0)"></path>
<path d="M 1117.22 895.462 C 1132.08 894.734 1234.28 894.158 1239.97 896.489 C 1231.93 901.032 1142.16 896.412 1127.14 898.054 C 1123.58 898.443 1119.77 898.17 1117.22 895.462 z" fill="rgb(24,8,9)" transform="translate(0,0)"></path>
<path d="M 1212.57 927.497 C 1219.97 927.513 1231.77 926.12 1237.94 929.034 C 1234.67 930.734 1155.4 930.024 1145.5 930.021 C 1135.93 930.135 1129.19 930.394 1119.7 928.987 L 1119.95 928.416 C 1146.14 926.39 1185.43 927.531 1212.57 927.497 z" fill="rgb(24,8,9)" transform="translate(0,0)"></path>
<path d="M 1117.5 864.493 C 1120.33 864.284 1123.16 864.149 1125.99 864.089 C 1153.21 863.677 1208.22 863.635 1237.88 864.381 C 1238.41 864.893 1238.93 865.404 1239.46 865.916 C 1233.14 866.18 1226.57 866.173 1220.24 866.1 C 1186.42 865.707 1152.27 866.838 1118.48 866.029 L 1117.5 864.493 z" fill="rgb(24,8,9)" transform="translate(0,0)"></path>
<path d="M 1522.74 802.582 C 1524.68 802.434 1524.17 802.565 1526.2 803.321 C 1527.94 807.425 1526.98 941.423 1526.68 954.938 L 1387.75 954.725 L 1383.92 954.595 C 1382.26 952.277 1383.11 927.285 1383.13 922.481 L 1383.3 802.635 C 1429.78 802.941 1476.26 802.923 1522.74 802.582 z" fill="rgb(138,90,134)" transform="translate(0,0)"></path>
<path d="M 1391.13 864.462 C 1400.04 863.435 1429.56 863.833 1439.48 863.963 C 1462.98 864.272 1490.16 863.217 1513.36 864.344 L 1513.63 866.351 C 1495.55 867.989 1468.63 866.206 1449.42 866.754 C 1432.2 867.245 1412.7 866.411 1395.4 866.459 C 1392.28 866.468 1392.57 866.218 1391.13 864.462 z" fill="rgb(49,17,17)" transform="translate(0,0)"></path>
<path d="M 1392.56 927.5 C 1431.69 926.916 1471.68 927.313 1510.86 927.644 C 1512.47 927.657 1512.25 928.198 1513.37 929.543 C 1503.49 930.727 1473.91 930.277 1462.33 930.051 C 1441.13 929.637 1413.74 930.932 1393.26 929.656 L 1392.56 927.5 z" fill="rgb(24,8,9)" transform="translate(0,0)"></path>
<path d="M 1390.82 896.482 C 1394.08 895.787 1408.61 895.325 1411.95 895.654 C 1425.76 897.015 1507.39 893.145 1513.87 897.496 C 1504.39 899.329 1472.72 898.058 1461.18 898.208 C 1450.31 898.35 1395.53 899.129 1390.82 896.482 z" fill="rgb(24,8,9)" transform="translate(0,0)"></path>
<path d="M 1391.54 833.507 C 1404.96 832.187 1507.56 831.29 1514.08 834.501 C 1511.77 834.952 1501.79 835.448 1499.56 835.22 C 1483.82 833.605 1400.05 838.283 1391.54 833.507 z" fill="rgb(24,8,9)" transform="translate(0,0)"></path>
<path d="M 1301.72 497.404 C 1369.21 491.435 1435.61 536.761 1441.39 607.033 L 1371.84 606.954 C 1367.84 580.007 1353.31 562.896 1326.44 557.05 C 1324.64 556.709 1322.82 556.449 1320.99 556.27 C 1305.78 554.818 1290.63 559.518 1278.91 569.32 C 1266.93 579.513 1260.75 592.427 1259.44 607.928 L 1187.53 607.935 C 1192.66 546.36 1242.32 504.43 1301.72 497.404 z" fill="rgb(138,90,134)" transform="translate(0,0)"></path>
<path d="M 1408.59 558.963 C 1409.71 558.965 1410.65 558.786 1410.94 560.021 C 1410.5 561.296 1388.19 569.728 1384.29 571.924 L 1381.53 573.494 C 1380.25 573.599 1380.13 573.705 1379.13 572.802 C 1379.21 569.419 1404.23 560.695 1408.59 558.963 z" fill="rgb(24,8,9)" transform="translate(0,0)"></path>
<path d="M 1220.77 559.15 C 1225.18 560.564 1248.82 574.342 1251.22 578.403 C 1246.15 577.181 1220.82 563.228 1220.77 559.15 z" fill="rgb(49,17,17)" transform="translate(0,0)"></path>
<path d="M 1237.81 539.646 C 1244.19 540.908 1262.09 558.22 1264.52 564.137 C 1260.95 562.357 1240.42 543.099 1237.81 539.646 z" fill="rgb(49,17,17)" transform="translate(0,0)"></path>
<path d="M 1359.35 516.625 C 1362.61 519.658 1349.65 541.571 1347.21 546.776 L 1346.87 547.52 C 1346.54 547.232 1345.18 546.162 1345.3 545.872 C 1347.95 539.46 1356.46 521.571 1359.35 516.625 z" fill="rgb(24,8,9)" transform="translate(0,0)"></path>
<path d="M 1413.82 578.392 C 1415.01 578.192 1417.08 577.633 1417.9 578.919 C 1417.2 581.028 1392.66 583.994 1388.71 584.746 C 1388.45 584.814 1384.36 585.966 1385.17 583.752 C 1385.45 582.989 1388.29 582.31 1389.03 582.152 C 1397.19 580.429 1405.53 579.391 1413.82 578.392 z" fill="rgb(24,8,9)" transform="translate(0,0)"></path>
<path d="M 1393.35 542.75 C 1393.32 542.741 1395.89 543.298 1395.09 544.02 C 1387.75 550.611 1379.21 555.599 1371.81 562.53 C 1367.07 560.493 1373.14 557.782 1375.38 555.968 C 1381.13 551.301 1387.27 546.986 1393.35 542.75 z" fill="rgb(49,17,17)" transform="translate(0,0)"></path>
<path d="M 1282.91 514.468 C 1288.17 516.494 1293.98 539.483 1295.31 545.491 C 1291.01 542.887 1284.95 520.9 1282.91 514.468 z" fill="rgb(49,17,17)" transform="translate(0,0)"></path>
<path d="M 1213.34 583.833 C 1214.26 583.559 1241.06 590.739 1243.06 591.642 C 1237.51 592.818 1212.6 588.311 1213.34 583.833 z" fill="rgb(24,8,9)" transform="translate(0,0)"></path>
<path d="M 1397.17 592.564 C 1404.64 591.998 1412.44 591.683 1419.93 591.757 C 1420.97 591.767 1421.15 593.366 1420.59 593.565 C 1417.67 594.608 1412.15 594.187 1409.04 594.247 C 1406.33 594.441 1389.03 596.217 1388.29 593.984 C 1389.07 592.351 1394.49 592.812 1396.5 592.629 L 1397.17 592.564 z" fill="rgb(24,8,9)" transform="translate(0,0)"></path>
<path d="M 1258.61 523.6 C 1263.55 525.657 1275.91 546.874 1278.57 552.522 C 1274.33 550.992 1260.36 528.127 1258.61 523.6 z" fill="rgb(49,17,17)" transform="translate(0,0)"></path>
<path d="M 1312.19 512.394 C 1316.49 514.931 1315.39 536.12 1315.59 542.019 C 1315.17 541.937 1313.35 541.675 1313.32 541.334 C 1312.71 533.885 1312.03 519.158 1312.19 512.394 z" fill="rgb(24,8,9)" transform="translate(0,0)"></path>
<path d="M 1378.82 529.903 C 1380.77 532.961 1363.9 549.03 1360.52 554.283 C 1360.25 553.951 1358.85 552.348 1359.1 551.955 C 1362.3 546.815 1375.04 533.39 1378.82 529.903 z" fill="rgb(24,8,9)" transform="translate(0,0)"></path>
<path d="M 1337.88 513.327 C 1338.35 513.701 1339.28 514.278 1339.64 514.804 C 1340.44 515.965 1334.84 532.866 1334.21 535.522 C 1333.61 538.005 1332.94 540.42 1332.23 542.875 C 1327.44 538.466 1335.86 526.463 1336.02 519.847 C 1336.04 518.755 1337.48 514.521 1337.88 513.327 z" fill="rgb(24,8,9)" transform="translate(0,0)"></path>
<path d="M 1102.55 727.57 C 1148.53 727.163 1204.06 726.283 1249.51 727.99 L 1249.56 799.849 C 1234.86 800.44 1216.57 799.961 1201.65 799.983 L 1102.57 799.963 C 1102.77 775.832 1102.76 751.7 1102.55 727.57 z" fill="rgb(138,90,134)" transform="translate(0,0)"></path>
<path d="M 1123.83 737.472 C 1124.02 737.624 1125.47 738.704 1125.48 738.816 C 1126.3 748.22 1126.36 779.731 1125.53 786.895 C 1121.28 782.69 1123.16 745.232 1123.83 737.472 z" fill="rgb(24,8,9)" transform="translate(0,0)"></path>
<path d="M 1185.9 738.55 C 1186.19 738.767 1187.48 739.725 1187.49 739.822 C 1188.43 747.731 1188.24 779.826 1187.52 785.968 C 1187.32 785.787 1185.67 784.37 1185.66 784.239 C 1184.99 776.314 1184.67 744.889 1185.9 738.55 z" fill="rgb(24,8,9)" transform="translate(0,0)"></path>
<path d="M 1220 739.516 C 1220.2 739.669 1221.59 740.705 1221.6 740.822 C 1222.2 749.648 1222.5 780.468 1221.4 786.667 C 1218.02 781.862 1219.04 746.328 1220 739.516 z" fill="rgb(49,17,17)" transform="translate(0,0)"></path>
<path d="M 1156.37 737.672 C 1157.72 741.73 1157.3 780.37 1156.52 785.951 C 1153.88 781.256 1154.19 742.929 1156.37 737.672 z" fill="rgb(24,8,9)" transform="translate(0,0)"></path>
<path d="M 1387.57 727.233 C 1416.23 726.981 1444.89 726.932 1473.54 727.084 C 1490.07 727.087 1511.16 726.429 1527.12 727.179 C 1526.21 749.479 1526.98 777.146 1526.97 799.868 L 1383.34 799.926 C 1383.28 791.332 1382.12 730.274 1384.26 727.425 L 1387.57 727.233 z" fill="rgb(138,90,134)" transform="translate(0,0)"></path>
<path d="M 1387.57 727.233 C 1416.23 726.981 1444.89 726.932 1473.54 727.084 C 1490.07 727.087 1511.16 726.429 1527.12 727.179 C 1506.45 729.451 1470.53 727.704 1448.51 727.965 C 1433.5 728.143 1401.02 728.654 1387.57 727.233 z" fill="rgb(107,96,81)" transform="translate(0,0)"></path>
<path d="M 1502.06 738.414 C 1506.54 741.645 1505.22 781.29 1504.58 787.898 C 1504.41 787.808 1502.88 787.038 1502.86 786.882 C 1501.71 778.162 1501.89 745.59 1502.06 738.414 z" fill="rgb(49,17,17)" transform="translate(0,0)"></path>
<path d="M 1447.2 738.526 C 1450.91 741.361 1449.84 778.849 1449.55 785.311 C 1449.1 785.171 1447.48 784.706 1447.45 784.522 C 1446.44 776.26 1446.69 744.978 1447.2 738.526 z" fill="rgb(24,8,9)" transform="translate(0,0)"></path>
<path d="M 1475.21 737.717 C 1478.22 740.795 1477.35 781.337 1476.52 787.491 C 1473.53 781.671 1473.91 744.281 1475.21 737.717 z" fill="rgb(24,8,9)" transform="translate(0,0)"></path>
<path d="M 1414.84 738.376 C 1418.87 741.371 1416.99 751.369 1417.11 757.001 C 1417.31 766.357 1417.3 776.231 1417.04 785.56 C 1416.85 785.418 1415.28 784.319 1415.26 784.155 C 1414.35 775.774 1414.56 744.517 1414.84 738.376 z" fill="rgb(24,8,9)" transform="translate(0,0)"></path>
<path d="M 1426.08 610.056 L 1447.91 610.222 C 1447.86 622.347 1447.14 629.554 1444.31 641.522 C 1443.34 645.437 1442.37 649.374 1440.89 653.077 C 1396.44 763.752 1241.96 769.917 1191.93 660.256 C 1187.47 650.485 1178.96 622.452 1182.75 612.485 C 1185.89 609.923 1186.07 610.705 1190.73 610.49 L 1204.84 610.397 C 1204.61 634.237 1212.8 654.745 1227.83 673.091 C 1247.12 696.844 1275.12 711.868 1305.58 714.795 C 1334.9 717.284 1364.02 708.126 1386.64 689.303 C 1411.9 668.209 1423.11 642.031 1426.08 610.056 z" fill="rgb(138,90,134)" transform="translate(0,0)"></path>
<path d="M 1312.43 557.516 C 1340.91 555.66 1365.53 577.184 1367.5 605.66 C 1369.47 634.136 1348.05 658.845 1319.58 660.928 C 1290.95 663.024 1266.07 641.451 1264.09 612.813 C 1262.11 584.175 1283.78 559.382 1312.43 557.516 z" fill="rgb(138,90,134)" transform="translate(0,0)"></path>
<path d="M 1310.11 579.027 C 1326.27 576.139 1341.72 586.899 1344.61 603.063 C 1347.5 619.227 1336.75 634.676 1320.58 637.571 C 1304.41 640.467 1288.96 629.706 1286.07 613.537 C 1283.17 597.369 1293.94 581.917 1310.11 579.027 z" fill="rgb(24,8,9)" transform="translate(0,0)"></path>
<path d="M 1308.21 582.042 C 1322.71 578.028 1337.73 586.553 1341.71 601.069 C 1345.7 615.584 1337.14 630.578 1322.62 634.536 C 1308.14 638.483 1293.19 629.958 1289.22 615.481 C 1285.24 601.005 1293.74 586.044 1308.21 582.042 z" fill="rgb(138,90,134)" transform="translate(0,0)"></path>
<path d="M 1399.36 610.023 L 1423.12 610.026 C 1422.67 619.649 1420.97 629.173 1418.07 638.358 C 1388.43 730.783 1259.69 738.571 1215.44 648.613 C 1209.53 634.682 1208.21 625.16 1207.15 610.525 L 1230.4 610.587 C 1230.72 626.408 1236.94 641.835 1246.34 654.426 C 1260.5 673.393 1281.65 685.913 1305.09 689.199 C 1346.71 694.882 1387.98 665.162 1397.07 624.397 C 1398.12 619.698 1398.74 614.796 1399.36 610.023 z" fill="rgb(138,90,134)" transform="translate(0,0)"></path>
<path d="M 1341.76 739.442 L 1343.39 739.304 C 1356.79 749.107 1363.25 769.211 1358.08 785.131 C 1354.67 795.646 1347.14 804.327 1337.21 809.179 C 1324.25 815.537 1312.23 814.576 1299.03 810.09 C 1268.9 792.94 1271.35 764.719 1291.11 740.166 C 1308.51 743.923 1324.55 742.079 1341.76 739.442 z" fill="rgb(138,90,134)" transform="translate(0,0)"></path>
<path d="M 1314.36 758.956 C 1331.93 760.785 1337.32 777.194 1318.59 785.525 C 1298.63 783.311 1295.94 766.176 1314.36 758.956 z" fill="rgb(49,17,17)" transform="translate(0,0)"></path>
<path d="M 1312.96 761.255 C 1318.97 759.544 1325.25 762.973 1327.06 768.96 C 1328.87 774.948 1325.55 781.281 1319.59 783.192 C 1315.65 784.457 1311.33 783.498 1308.3 780.682 C 1305.26 777.866 1303.98 773.632 1304.94 769.606 C 1305.91 765.58 1308.97 762.387 1312.96 761.255 z" fill="rgb(138,90,134)" transform="translate(0,0)"></path>
<path d="M 1371.58 610.054 L 1396.45 610.034 C 1396.36 611.861 1396.18 613.684 1395.94 615.497 C 1392.83 637.667 1380.96 657.662 1362.98 670.999 C 1345.9 683.855 1324.39 689.353 1303.23 686.27 C 1277.64 682.404 1259.68 667.929 1244.8 647.724 C 1236.98 634.473 1234.39 625.891 1232.69 610.809 L 1259.1 610.567 C 1261.2 623.826 1264.89 633.891 1274.01 644.084 C 1283.92 655.35 1297.96 662.146 1312.94 662.935 C 1328.38 663.606 1343.43 658.067 1354.75 647.556 C 1366.34 636.833 1371.03 625.479 1371.58 610.054 z" fill="rgb(138,90,134)" transform="translate(0,0)"></path>
<path d="M 1309.54 820.752 C 1331.15 816.707 1351.96 830.908 1356.08 852.508 C 1360.19 874.108 1346.06 894.967 1324.47 899.152 C 1302.79 903.356 1281.81 889.144 1277.68 867.444 C 1273.54 845.745 1287.82 824.815 1309.54 820.752 z" fill="rgb(138,90,134)" transform="translate(0,0)"></path>
<path d="M 1310.76 848.251 C 1315.09 846.518 1320.02 847.252 1323.66 850.172 C 1327.3 853.093 1329.08 857.747 1328.32 862.352 C 1327.57 866.957 1324.39 870.798 1320.01 872.404 C 1313.37 874.836 1306.01 871.489 1303.48 864.888 C 1300.95 858.287 1304.19 850.878 1310.76 848.251 z" fill="rgb(49,17,17)" transform="translate(0,0)"></path>
<path d="M 1311.07 850.376 C 1314.66 848.707 1318.87 849.13 1322.05 851.478 C 1325.24 853.827 1326.89 857.727 1326.35 861.648 C 1325.82 865.569 1323.18 868.886 1319.49 870.296 C 1314.04 872.372 1307.93 869.765 1305.67 864.398 C 1303.4 859.032 1305.79 852.833 1311.07 850.376 z" fill="rgb(138,90,134)" transform="translate(0,0)"></path>
<path d="M 1305.86 1309.27 C 1325.41 1302.79 1347.46 1297.17 1367.43 1291.38 C 1367.47 1298.2 1367.44 1305.03 1367.34 1311.86 C 1347.97 1312.22 1328.73 1311.89 1309.51 1312.18 C 1308.43 1312.18 1293.26 1311.71 1303.43 1309.78 L 1305.86 1309.27 z" fill="rgb(253,248,236)" transform="translate(0,0)"></path>
<path d="M 551.511 610.909 C 556.927 558.398 583.266 510.283 624.583 477.425 C 670.051 440.578 728.526 423.759 786.623 430.818 C 841.811 436.959 892.276 464.847 926.84 508.308 C 950.958 538.767 962.779 572.022 967.181 610.207 C 943.412 611.578 915.281 610.981 891.142 610.95 C 890.589 648.877 878.964 679.591 851.318 706.359 C 849.896 707.734 848.456 709.092 846.999 710.431 C 846.901 715.268 846.769 720.104 846.603 724.94 C 856.511 724.859 867.688 724.538 877.46 725.063 C 887.01 724.477 911.868 726.577 919.648 724.48 C 929.359 724.805 971.013 726.129 978.917 724.467 C 978.839 733.923 978.47 745.534 978.951 754.799 C 979.167 756.462 979.097 757.698 979.085 759.382 C 978.214 768.521 978.718 783.904 978.769 793.53 L 978.992 798.592 L 979.109 827.898 L 979.136 831.802 C 979.15 840.562 978.995 849.915 979.211 858.62 L 979.194 863.201 C 979.166 870.943 978.842 882.114 979.358 889.523 L 979.231 893.316 C 979.171 900.815 979.05 908.387 979.077 915.878 L 979.11 919.956 C 979.033 929.569 979.221 940.572 978.85 950.059 L 978.524 954.075 C 977.873 959.723 977.289 965.665 976.503 971.269 L 975.86 975.459 C 974.061 983.216 971.809 994.175 969.532 1001.53 L 968.436 1004.82 C 964.397 1016.35 957.161 1035.63 950.566 1045.93 C 924.882 1097.22 866.584 1141.62 811.35 1155.78 L 808.025 1156.92 C 767.082 1165.91 737.429 1164.36 696.981 1155.39 L 693.183 1154.83 C 690.998 1153.4 674.015 1146.77 670.485 1145.31 C 655.63 1139.19 644.282 1132.82 631.087 1123.61 C 588.673 1094.03 555.203 1046.43 546.204 995.018 C 543.582 984.004 542.53 975.359 541.828 964.174 C 542.144 951.055 542.156 937.931 541.864 924.811 C 542.136 917.433 542.25 912.315 541.815 904.863 L 541.857 894.214 L 541.792 889.858 C 541.885 880.841 541.769 871.641 541.748 862.607 C 542.116 848.155 542.201 833.698 542.001 819.243 C 541.663 814.979 541.839 807.926 541.817 803.445 C 542.643 793.782 542.467 765.225 541.84 755.961 L 541.747 753.157 L 541.778 747.266 L 541.978 723.989 C 547.593 724.062 553.42 723.941 559.054 723.905 C 561.067 723.789 562.256 723.851 564.25 723.942 C 573.209 724.886 587.94 724.391 597.385 724.325 L 603.268 724.477 C 612.395 724.42 622.383 724.564 631.433 724.265 C 642.154 725.752 660.218 725.496 671.216 724.715 C 670.643 718.316 667.562 711.007 667.333 706.556 L 667.224 705.096 C 665.348 702.445 662.946 700.847 660.383 698.819 C 639.026 674.601 627.44 643.307 627.875 611.021 L 551.511 610.909 z" fill="rgb(184,58,35)" transform="translate(0,0)"></path>
<path d="M 667.224 705.096 C 676.816 713.616 683.421 718.014 693.772 724.957 C 687.175 724.99 677.592 725.322 671.216 724.715 C 670.643 718.316 667.562 711.007 667.333 706.556 L 667.224 705.096 z" fill="rgb(253,248,236)" transform="translate(0,0)"></path>
<path d="M 842.008 714.239 C 843.779 712.814 845.133 711.739 846.999 710.431 C 846.901 715.268 846.769 720.104 846.603 724.94 C 845.403 724.959 844.203 724.963 843.003 724.95 C 837.707 724.912 832.412 724.91 827.116 724.945 C 832.775 721.226 836.794 718.553 842.008 714.239 z" fill="rgb(253,248,236)" transform="translate(0,0)"></path>
<path d="M 842.008 714.239 C 843.779 712.814 845.133 711.739 846.999 710.431 C 846.901 715.268 846.769 720.104 846.603 724.94 C 845.403 724.959 844.203 724.963 843.003 724.95 C 843.022 720.727 843.615 717.859 842.008 714.239 z" fill="rgb(207,107,52)" transform="translate(0,0)"></path>
<path d="M 747.762 432.398 C 755.468 431.172 768.177 431.725 776.03 432.326 C 817.217 435.177 856.668 450.024 889.516 475.035 C 933.878 508.893 956.966 553.335 964.251 607.848 C 939.841 608.488 913.832 608.165 889.323 608.173 C 886.974 584.875 877.942 562.753 863.312 544.47 C 839.705 514.384 808.551 499.737 771.234 495.254 C 743.311 492.772 707.089 502.906 684.758 519.399 C 650.911 544.397 638.424 568.063 631.592 608.349 C 607.398 607.435 579.211 608.053 554.706 607.98 C 559.84 567.143 574.861 532.912 602.354 502.142 C 639.524 460.355 691.907 435.229 747.762 432.398 z" fill="rgb(227,160,42)" transform="translate(0,0)"></path>
<path d="M 829.196 802.11 L 976.536 802.119 C 976.808 852.526 976.791 902.934 976.483 953.34 C 968.429 956.084 849.26 954.009 829.885 953.928 C 830.351 903.891 829.196 852.412 829.196 802.11 z" fill="rgb(227,160,42)" transform="translate(0,0)"></path>
<path d="M 845.009 833.501 C 869.459 833.143 894.575 833.517 919.059 833.341 C 927.884 833.277 955.273 832.429 961.971 834.213 L 961.534 835.37 L 958.25 835.92 L 886.768 836.018 C 876.994 836.072 849.541 836.623 841.541 835.051 L 841.544 833.98 L 845.009 833.501 z" fill="rgb(184,58,35)" transform="translate(0,0)"></path>
<path d="M 862.08 927.493 C 878.716 927.488 949.536 925.47 960.463 928.168 L 960.531 929.068 C 955.929 930.503 949.242 930.069 944.25 930.017 L 881.466 930.052 C 869.691 930.051 853.647 930.468 842.315 929.195 L 842.692 928.715 C 849.53 927.113 855.114 927.442 862.08 927.493 z" fill="rgb(184,58,35)" transform="translate(0,0)"></path>
<path d="M 840.022 896.441 C 848.186 895.4 957.897 895.498 961.205 896.595 L 961.452 898.238 C 922.951 899.384 883.613 898.028 845.047 898.515 C 841.929 898.554 841.966 898.634 840.022 896.441 z" fill="rgb(184,58,35)" transform="translate(0,0)"></path>
<path d="M 839.036 865.468 C 847.434 864.344 957.511 864.229 961.278 865.435 L 961.494 867.077 C 925.569 867.668 889.453 866.978 853.509 867.568 C 849.272 867.637 841.79 868.426 839.036 865.468 z" fill="rgb(184,58,35)" transform="translate(0,0)"></path>
<path d="M 544.169 802.203 C 592.968 802.479 641.769 802.444 690.568 802.1 L 690.704 954.009 L 544.068 953.904 L 544.169 802.203 z" fill="rgb(227,160,42)" transform="translate(0,0)"></path>
<path d="M 554.198 896.501 C 578.674 894.078 648.969 896.829 677.445 896.366 C 678.085 896.886 678.725 897.406 679.365 897.927 C 678.983 897.993 677.249 898.322 676.376 898.334 C 636.548 898.871 596.045 899.492 556.272 898.313 C 555.581 897.709 554.889 897.105 554.198 896.501 z" fill="rgb(184,58,35)" transform="translate(0,0)"></path>
<path d="M 553.714 834.51 C 556.015 834.079 565.22 833.589 567.226 833.806 C 583.864 835.605 669.882 830.626 679.077 835.495 C 676.757 835.915 667.176 836.437 665.11 836.217 C 649.253 834.526 562.322 839.245 553.714 834.51 z" fill="rgb(184,58,35)" transform="translate(0,0)"></path>
<path d="M 554.469 928.501 C 560.944 927.294 594.678 927.406 602.94 927.787 C 615.766 928.378 671.536 926.022 678.499 929.499 C 671.75 930.757 639.779 930.674 631.391 930.237 C 617.92 929.536 561.709 932.073 554.469 928.501 z" fill="rgb(184,58,35)" transform="translate(0,0)"></path>
<path d="M 553.174 866.51 C 563.436 865.288 674.979 865.317 679.394 867.018 C 672.599 869.398 628.363 867.95 617.084 868.207 C 606.367 868.452 558.564 869.036 553.174 866.51 z" fill="rgb(184,58,35)" transform="translate(0,0)"></path>
<path d="M 819.437 610.467 L 888.857 610.798 C 889.531 638.14 880.301 666.81 863.575 688.288 C 816.175 749.151 736.892 754.682 677.31 709.915 C 645.887 685.987 630.912 649.908 630.045 611.139 C 653.513 610.418 680.088 611.021 703.801 611.009 C 705.849 623.983 709.041 633.651 717.457 644.049 C 726.949 655.931 740.825 663.493 755.955 665.031 C 771.519 666.51 787.026 661.692 799.011 651.655 C 811.988 640.928 817.963 626.93 819.437 610.467 z" fill="rgb(227,160,42)" transform="translate(0,0)"></path>
<path d="M 810.8 670.404 C 811.319 670.125 811.913 669.691 812.454 669.722 C 815.347 671.553 835.087 695.35 837.578 699.428 C 833.461 698.225 811.295 673.268 810.8 670.404 z" fill="rgb(184,58,35)" transform="translate(0,0)"></path>
<path d="M 828.032 639.061 C 833.04 639.049 863.432 649.448 865.432 652.407 C 860.09 653.076 832.443 642.819 828.032 639.061 z" fill="rgb(184,58,35)" transform="translate(0,0)"></path>
<path d="M 712.167 667.879 C 712.485 668.115 714.447 669.296 713.83 670.018 C 706.764 678.275 696.797 688.107 688.734 695.22 C 688.697 695.231 687.816 695.586 687.533 695.458 C 687.332 695.366 687.221 695.257 687.162 695.03 C 686.716 693.336 709.11 671.525 712.167 667.879 z" fill="rgb(184,58,35)" transform="translate(0,0)"></path>
<path d="M 744.225 685.605 C 744.394 685.756 745.801 686.954 745.754 687.123 C 743.97 693.552 738.031 714.723 736.286 719.908 C 735.922 719.544 734.398 718.12 734.447 717.786 C 735.49 710.694 741.842 690.905 744.225 685.605 z" fill="rgb(184,58,35)" transform="translate(0,0)"></path>
<path d="M 689.837 638.018 C 689.964 638.287 691.031 640.321 690.522 640.696 C 682.241 646.797 668.916 650.541 659.29 654.429 C 656.539 650.763 659.991 651.067 663.521 649.89 C 672.933 646.753 681.622 643.657 689.837 638.018 z" fill="rgb(184,58,35)" transform="translate(0,0)"></path>
<path d="M 833.963 620.43 C 840.834 619.714 867.795 622.589 873.164 625.653 C 867.251 626.667 839.048 623.255 833.963 620.43 z" fill="rgb(184,58,35)" transform="translate(0,0)"></path>
<path d="M 821.264 656.065 C 825.864 657.223 851.598 671.9 853.394 676.236 C 847.691 674.156 822.935 660.553 821.264 656.065 z" fill="rgb(184,58,35)" transform="translate(0,0)"></path>
<path d="M 777.524 685.554 C 780.859 688.475 788.471 714.744 785.802 719.932 C 782.96 709.553 780.048 698.56 776.333 688.436 C 776.082 687.753 777.183 686.157 777.524 685.554 z" fill="rgb(184,58,35)" transform="translate(0,0)"></path>
<path d="M 697.493 654.793 C 698.197 655.295 699.049 655.598 699.096 656.518 C 697.228 659.512 675.992 673.422 671.962 675.843 C 670.161 672.948 693.893 657.477 697.493 654.793 z" fill="rgb(184,58,35)" transform="translate(0,0)"></path>
<path d="M 795.273 680.68 C 799.62 683.23 812.412 704.711 813.849 709.296 C 809.431 707.417 795.391 684.953 795.273 680.68 z" fill="rgb(184,58,35)" transform="translate(0,0)"></path>
<path d="M 727.372 678.55 C 727.745 678.882 728.987 679.897 728.868 680.145 C 726.207 685.688 714.441 704.111 711.251 708.316 C 710.726 707.81 710.211 707.481 710.031 706.861 C 710.871 704.138 724.995 681.965 727.372 678.55 z" fill="rgb(184,58,35)" transform="translate(0,0)"></path>
<path d="M 761.322 687.389 C 761.533 687.484 763.479 688.244 763.505 688.472 C 764.133 694.053 763.433 715.313 763.587 719.467 C 763.564 719.471 761.523 719.832 761.468 719.28 C 760.483 709.431 760.759 697.342 761.322 687.389 z" fill="rgb(139,11,6)" transform="translate(0,0)"></path>
<path d="M 673.52 623.39 C 675.427 623.096 684.18 622.118 685.188 623.828 C 684.577 625.636 665.547 626.773 661.874 627.334 C 660.447 627.432 653.487 628.687 653.225 628.537 C 647.056 624.995 670.987 623.667 673.52 623.39 z" fill="rgb(184,58,35)" transform="translate(0,0)"></path>
<path d="M 692.922 723.878 C 706.184 731.156 716.284 734.883 730.749 738.439 C 723.067 745.788 717.675 752.516 715.357 763.2 C 712.941 774.73 715.273 786.748 721.825 796.539 C 729.293 807.769 739.797 813.274 752.652 815.984 L 754.757 817.803 C 743.859 818.792 732.61 824.878 725.578 833.232 C 718.049 842.267 714.417 853.922 715.481 865.634 C 716.706 877.643 722.733 888.647 732.192 896.147 C 740.123 902.539 746.99 904.691 756.703 906.781 C 742.278 909.47 731.084 914.676 722.531 927.292 C 716.08 936.703 713.782 948.353 716.179 959.508 C 718.606 971.278 725.655 981.583 735.744 988.113 C 745.692 994.485 757.809 996.523 769.295 993.756 C 794.177 987.973 809.668 965.267 802.888 940.077 C 799.762 928.456 792.026 918.617 781.471 912.839 C 774.969 909.217 769.909 908.152 762.673 906.679 C 778.341 902.876 791.018 897.277 799.722 882.656 C 805.388 873.104 806.884 861.645 803.86 850.958 C 798.613 831.722 784.691 822.788 766.566 817.696 L 766.293 816.996 C 806.202 805.297 820.497 769.396 789.175 738.862 C 804.582 734.915 812.011 731.787 826.593 725.513 L 826.799 871.454 C 826.899 889.338 828.309 944.483 825.448 959.05 C 822.79 972.215 816.536 984.386 807.38 994.211 C 766.59 1037.59 694.102 1009.13 693.245 949.599 C 692.164 874.516 694.538 798.915 692.922 723.878 z" fill="rgb(227,160,42)" transform="translate(0,0)"></path>
<path d="M 749.276 498.372 C 749.687 498.303 750.097 498.233 750.508 498.163 C 809.689 492.607 867.634 531.869 882.983 589.433 C 884.682 595.808 885.542 601.794 886.51 607.968 L 819.706 608.043 C 817.001 577.99 800.034 562.664 771.695 555.476 C 734.753 550.52 709.724 572.327 703.992 608.068 L 634.176 608.102 C 644.602 544.345 686.091 506.752 749.276 498.372 z" fill="rgb(227,160,42)" transform="translate(0,0)"></path>
<path d="M 856.888 554.002 C 857.112 554.446 857.531 555.07 857.544 555.6 C 856.437 557.064 831.145 571.434 827.121 573.985 C 823.218 569.928 852.921 555.932 856.888 554.002 z" fill="rgb(184,58,35)" transform="translate(0,0)"></path>
<path d="M 815.518 516.797 C 818.262 519.673 803.132 542.318 800.465 546.43 C 800.158 546.146 798.898 545.115 799.001 544.863 C 801.174 539.509 812.771 520.441 815.518 516.797 z" fill="rgb(184,58,35)" transform="translate(0,0)"></path>
<path d="M 710.709 519.736 C 714.169 522.504 725.183 543.961 725.493 548.208 C 720.018 545.108 715.252 529.43 710.473 524.019 C 709.598 523.029 710.389 521.037 710.709 519.736 z" fill="rgb(184,58,35)" transform="translate(0,0)"></path>
<path d="M 656.435 581.105 C 660.964 581.509 687.103 589.456 691.048 591.764 C 684.925 592.053 659.715 586.18 656.435 581.105 z" fill="rgb(184,58,35)" transform="translate(0,0)"></path>
<path d="M 666.843 557.073 C 674.732 556.678 694.412 570.302 699.839 575.156 C 695.48 574.774 671.53 560.371 666.843 557.073 z" fill="rgb(184,58,35)" transform="translate(0,0)"></path>
<path d="M 789.681 509.509 C 789.878 509.62 791.559 510.438 791.489 510.708 C 789.423 518.66 785.396 530.709 782.816 538.524 C 777.511 538.767 788.217 512.834 789.681 509.509 z" fill="rgb(184,58,35)" transform="translate(0,0)"></path>
<path d="M 865.153 579.074 C 865.81 579.005 868.829 578.972 867.583 579.819 C 862.321 583.397 841.846 588.774 836.731 589.841 C 835.736 589.96 834.795 590.25 833.984 589.567 C 833.542 587.85 839.019 586.944 839.83 586.738 C 848.383 584.564 856.734 581.705 865.153 579.074 z" fill="rgb(184,58,35)" transform="translate(0,0)"></path>
<path d="M 837.297 534.782 C 837.863 535.239 838.394 535.496 838.569 536.163 C 837.159 538.724 818.224 556.04 815.37 558.155 C 815.167 557.874 814.227 556.656 814.416 556.457 C 819.117 551.51 833.254 537.949 837.297 534.782 z" fill="rgb(184,58,35)" transform="translate(0,0)"></path>
<path d="M 686.255 535.633 C 691.013 537.139 707.855 555.981 710.866 560.32 C 705.1 558.454 689.023 541.139 686.255 535.633 z" fill="rgb(184,58,35)" transform="translate(0,0)"></path>
<path d="M 734.46 509.405 C 740.109 512.668 744.277 534.152 744.817 541.266 C 742.007 539.242 735.563 514.216 734.46 509.405 z" fill="rgb(184,58,35)" transform="translate(0,0)"></path>
<path d="M 762.762 507.505 C 766.146 511.314 764.522 532.277 763.666 537.193 C 760.484 534.382 761.839 511.677 762.762 507.505 z" fill="rgb(184,58,35)" transform="translate(0,0)"></path>
<path d="M 544.558 726.789 L 690.543 727.203 C 690.695 751.223 690.601 775.245 690.26 799.263 C 677.055 800.226 654.786 799.751 640.917 799.809 L 544.176 799.845 C 544.74 775.497 544.867 751.142 544.558 726.789 z" fill="rgb(227,160,42)" transform="translate(0,0)"></path>
<path d="M 655.848 738.494 C 656.217 738.767 657.782 739.846 657.788 740.145 C 657.959 748.86 658.928 780.019 657.042 786.383 C 653.881 783.338 654.757 744.116 655.848 738.494 z" fill="rgb(184,58,35)" transform="translate(0,0)"></path>
<path d="M 629.038 738.644 C 628.843 738.47 630.336 739.723 630.359 739.959 C 631.134 747.808 631.441 781.431 630.157 787.452 C 629.853 787.187 628.359 785.951 628.355 785.716 C 628.178 776.998 627.274 745.07 629.038 738.644 z" fill="rgb(184,58,35)" transform="translate(0,0)"></path>
<path d="M 598.875 738.58 C 602.412 741.924 601.449 779.267 600.517 785.815 C 600.134 785.49 598.433 784.134 598.428 783.808 C 598.28 775.391 597.371 744.989 598.875 738.58 z" fill="rgb(184,58,35)" transform="translate(0,0)"></path>
<path d="M 564.293 738.53 C 567.925 741.312 566.611 782.603 565.692 788.238 C 562.618 785.57 563.876 745.304 564.293 738.53 z" fill="rgb(184,58,35)" transform="translate(0,0)"></path>
<path d="M 829.49 727.329 C 878.334 726.958 927.18 726.894 976.025 727.137 L 976.106 799.595 C 928.483 798.517 877.622 799.623 829.411 799.221 C 829.84 775.669 829.474 750.974 829.49 727.329 z" fill="rgb(227,160,42)" transform="translate(0,0)"></path>
<path d="M 855.611 737.439 C 855.893 737.704 857.281 738.971 857.289 739.084 C 857.929 748.661 858.343 780.371 857.315 787.539 C 857.006 787.293 855.58 786.186 855.569 786.085 C 854.681 777.416 854.569 744.238 855.611 737.439 z" fill="rgb(184,58,35)" transform="translate(0,0)"></path>
<path d="M 958.25 737.67 C 961.565 740.352 960.466 782.387 959.113 787.419 C 955.948 784.048 957.331 744.432 958.25 737.67 z" fill="rgb(184,58,35)" transform="translate(0,0)"></path>
<path d="M 925.185 738.297 C 925.603 738.467 927.531 739.176 927.549 739.415 C 928.255 748.663 928.203 779.189 927.809 786.526 C 927.604 786.374 926.103 785.301 926.093 785.184 C 925.283 775.761 925.066 746.264 925.185 738.297 z" fill="rgb(184,58,35)" transform="translate(0,0)"></path>
<path d="M 890.152 740.575 C 892.135 744.801 891.279 782.365 890.511 788.011 C 887.603 782.974 888.164 745.885 890.152 740.575 z" fill="rgb(184,58,35)" transform="translate(0,0)"></path>
<path d="M 750.516 557.401 C 779.587 551.02 808.287 569.553 814.433 598.674 C 820.579 627.795 801.816 656.345 772.646 662.255 C 743.807 668.099 715.652 649.595 709.575 620.804 C 703.499 592.014 721.776 563.71 750.516 557.401 z" fill="rgb(227,160,42)" transform="translate(0,0)"></path>
<path d="M 757.613 580.078 C 773.837 576.363 790.021 586.426 793.867 602.618 C 797.713 618.811 787.783 635.076 771.623 639.054 C 755.274 643.079 738.779 633.008 734.888 616.628 C 730.997 600.248 741.202 583.835 757.613 580.078 z" fill="rgb(184,58,35)" transform="translate(0,0)"></path>
<path d="M 760.064 582.062 C 775.216 579.765 789.37 590.162 791.709 605.308 C 794.048 620.454 783.689 634.636 768.549 637.016 C 753.351 639.405 739.102 628.997 736.755 613.793 C 734.407 598.589 744.853 584.368 760.064 582.062 z" fill="rgb(227,160,42)" transform="translate(0,0)"></path>
<path d="M 753.668 820.338 C 776.559 816.735 798.028 832.397 801.584 855.296 C 805.141 878.194 789.434 899.631 766.528 903.14 C 743.689 906.64 722.328 890.988 718.782 868.156 C 715.236 845.324 730.843 823.931 753.668 820.338 z" fill="rgb(227,160,42)" transform="translate(0,0)"></path>
<path d="M 755.981 849.213 C 762.975 847.246 770.251 851.268 772.306 858.236 C 774.361 865.205 770.433 872.531 763.491 874.675 C 758.921 876.086 753.946 874.93 750.466 871.648 C 746.987 868.367 745.542 863.467 746.684 858.823 C 747.825 854.179 751.377 850.507 755.981 849.213 z" fill="rgb(184,58,35)" transform="translate(0,0)"></path>
<path d="M 756.138 851.423 C 761.959 849.567 768.197 852.701 770.182 858.48 C 772.166 864.258 769.17 870.564 763.437 872.675 C 759.614 874.083 755.328 873.311 752.236 870.659 C 749.144 868.006 747.73 863.888 748.54 859.895 C 749.35 855.903 752.257 852.661 756.138 851.423 z" fill="rgb(227,160,42)" transform="translate(0,0)"></path>
<path d="M 751.599 910.446 C 774.004 905.895 795.876 920.302 800.541 942.685 C 805.205 965.067 790.909 987.011 768.55 991.789 C 746.032 996.601 723.895 982.179 719.197 959.637 C 714.499 937.094 729.032 915.03 751.599 910.446 z" fill="rgb(227,160,42)" transform="translate(0,0)"></path>
<path d="M 757.147 938.564 C 764.305 937.25 771.188 941.938 772.586 949.079 C 773.985 956.22 769.38 963.158 762.256 964.642 C 757.571 965.617 752.724 963.999 749.566 960.405 C 746.407 956.811 745.425 951.796 746.994 947.276 C 748.563 942.756 752.441 939.428 757.147 938.564 z" fill="rgb(184,58,35)" transform="translate(0,0)"></path>
<path d="M 758.511 940.726 C 764.386 940.18 769.648 944.361 770.444 950.208 C 771.24 956.054 767.288 961.49 761.481 962.535 C 757.497 963.253 753.441 961.727 750.917 958.562 C 748.393 955.398 747.808 951.103 749.394 947.379 C 750.98 943.655 754.48 941.1 758.511 940.726 z" fill="rgb(227,160,42)" transform="translate(0,0)"></path>
<path d="M 733.424 738.976 C 752.827 743.448 766.538 742.674 785.819 739.747 C 809.654 760.451 809.323 789.684 782.585 807.523 C 776.609 811.113 767.744 813.494 760.784 813.729 C 749.477 814.16 738.475 810.007 730.273 802.211 C 722.113 794.483 717.43 783.78 717.291 772.543 C 717.189 757.806 723.766 748.972 733.424 738.976 z" fill="rgb(227,160,42)" transform="translate(0,0)"></path>
<path d="M 757.922 759.327 C 765.277 758.35 772.033 763.516 773.019 770.869 C 774.005 778.223 768.847 784.986 761.495 785.98 C 754.13 786.977 747.353 781.809 746.366 774.443 C 745.378 767.076 750.554 760.306 757.922 759.327 z" fill="rgb(184,58,35)" transform="translate(0,0)"></path>
<path d="M 754.607 762.685 C 758.212 760.792 762.559 761.003 765.964 763.236 C 769.368 765.469 771.293 769.373 770.991 773.434 C 770.69 777.494 768.21 781.071 764.513 782.777 C 758.996 785.324 752.455 783.009 749.768 777.559 C 747.082 772.109 749.228 765.511 754.607 762.685 z" fill="rgb(227,160,42)" transform="translate(0,0)"></path>
<path d="M 754.48 1049.01 C 772.969 1047.89 788.861 1061.98 789.973 1080.47 C 791.086 1098.95 776.997 1114.84 758.508 1115.95 C 740.026 1117.06 724.144 1102.98 723.032 1084.49 C 721.92 1066.01 735.999 1050.13 754.48 1049.01 z" fill="rgb(139,11,6)" transform="translate(0,0)"></path>
<path d="M 753.227 1051.27 C 770.474 1049.37 785.998 1061.8 787.902 1079.05 C 789.806 1096.3 777.371 1111.82 760.125 1113.73 C 742.873 1115.64 727.34 1103.2 725.435 1085.95 C 723.53 1068.7 735.974 1053.17 753.227 1051.27 z" fill="rgb(227,160,42)" transform="translate(0,0)"></path>
<path d="M 752.652 815.984 L 755.993 816.017 C 756.703 816.031 758.299 815.934 758.794 816.677 L 758.771 816.719 C 758.602 816.67 758.434 816.621 758.265 816.572 L 757.8 817.477 C 756.361 817.806 756.23 817.849 754.757 817.803 L 752.652 815.984 z" fill="rgb(207,107,52)" transform="translate(0,0)"></path>
<path d="M 766.566 817.696 C 766.028 817.665 764.508 817.63 764.058 817.477 C 764.326 817.272 765.884 817.066 766.293 816.996 L 766.566 817.696 z" fill="rgb(207,107,52)" transform="translate(0,0)"></path>
<path d="M 809.128 202.365 C 836.744 201.07 860.714 216.72 862.039 245.835 C 872.103 246.356 879.754 246.873 888.456 252.625 C 895.739 257.379 900.77 264.895 902.389 273.44 C 903.911 281.142 902.22 289.13 897.71 295.555 C 892.316 303.276 884.069 308.531 874.792 310.157 C 863.496 312.169 854.042 309.135 844.831 302.739 C 828.644 331.694 798.943 341.255 768.825 327.205 C 757.447 320.417 753.847 316.877 748.823 304.917 C 723.898 308.708 718.235 302.585 697.784 288.363 C 689.366 282.509 673.574 279.247 663.233 276.421 L 662.68 275.017 C 664.873 273.342 690.204 275.174 699.1 271.438 C 728.024 259.291 728.851 231.229 766.134 240.322 C 771.934 214.66 782.637 204.896 809.128 202.365 z" fill="rgb(107,96,81)" transform="translate(0,0)"></path>
<path d="M 809.365 205.338 C 817.638 204.866 828.96 207.207 836.404 210.81 C 847.377 216.001 855.134 226.212 857.191 238.176 C 857.893 242.51 857.664 246.431 859.085 250.474 L 864.311 249.783 C 877.569 248.002 890.973 254.781 896.875 266.914 C 900.128 273.518 900.557 281.16 898.064 288.086 C 895.433 295.165 890.118 300.921 883.27 304.107 C 868.508 311.07 847.303 306.516 841.131 290.757 C 835.264 271.354 852.261 256.153 871.134 265.102 C 883.188 270.817 880.325 286.528 869.7 289.891 C 861.501 288.939 862.255 283.38 857.41 280.402 C 856.141 283.821 857.443 289.882 860.755 290.788 C 883.736 297.074 891.764 271.095 869.699 260.774 C 856.808 254.745 844.296 260.303 839.18 273.395 C 835.412 283.037 838.398 291.106 842.425 299.887 C 841.415 302.205 840.24 304.447 838.908 306.597 C 830.392 320.619 816.82 326.366 801.532 330.012 C 780.823 330.772 760.407 324.289 751.611 303.989 C 764.794 295.449 768.801 292.234 769.167 275.751 C 785.486 264.587 806.354 265.183 805.967 291.925 C 805.886 297.543 796.35 302.238 791.29 300.347 C 786.248 298.463 786.497 292.062 784.641 287.673 L 782.99 288.762 C 776.841 304.627 802.087 308.172 807.497 295.512 C 814.614 278.859 802.749 262.513 783.975 266.617 C 778.249 267.869 774.089 270.101 768.611 271.687 C 762.431 263.118 757.891 256.407 745.163 258.247 C 733.599 259.918 735.947 272.624 731.42 278.601 C 731.128 278.481 729.542 277.875 729.294 277.569 C 713.1 257.578 734.831 243.169 753.612 242.27 C 762.78 241.83 770.155 244.085 776.871 250.418 L 777.689 251.197 L 779.192 250.575 L 779.085 248.935 C 776.533 245.56 773.238 243.886 769.627 241.581 C 774.979 217.389 784.137 208.196 809.365 205.338 z" fill="rgb(253,248,236)" transform="translate(0,0)"></path>
<path d="M 742.685 262.094 C 747.283 261.392 751.652 261.223 755.929 263.287 C 760.113 265.303 763.255 268.986 764.588 273.434 C 766.25 279.143 765.383 285.291 762.207 290.318 C 758.246 296.714 750.769 300.953 743.489 302.254 C 726.957 305.208 716.248 297.533 703.578 288.854 C 697.529 284.351 690.942 281.377 684.118 278.337 C 700.892 275.002 706.461 272.297 720.504 263.025 C 721.27 270.504 725.954 284.927 735.84 280.548 C 740.312 272.007 733.012 270.193 742.685 262.094 z" fill="rgb(253,248,236)" transform="translate(0,0)"></path>
<path d="M 1163.02 158.219 C 1180.38 157.415 1195.05 161.354 1205.95 175.99 C 1211.7 183.717 1211.22 188.249 1213.18 197.053 C 1229.25 199.088 1243.81 200.136 1249.71 218.693 C 1252.05 226.042 1251.31 234.023 1247.66 240.817 C 1237.16 260.502 1215.68 261.729 1197.72 251.694 C 1182.61 276.74 1158.4 285.785 1131.68 271.84 C 1123.42 264.821 1122.41 262.053 1117.48 252.065 C 1089.76 260.604 1080.38 246.02 1058.21 234.464 C 1051.36 230.898 1040.69 229.35 1032.95 228.248 L 1032.3 227.176 C 1035.34 224.512 1063.14 227.621 1073.63 220.134 C 1097.5 203.1 1095.61 192.382 1127.63 194.063 C 1131.8 171.244 1140.17 162.347 1163.02 158.219 z" fill="rgb(107,96,81)" transform="translate(0,0)"></path>
<path d="M 1161.29 161.205 C 1180.88 159.831 1201.23 165.57 1206.82 186.646 C 1207.89 190.68 1207.77 199.709 1210.04 202.476 C 1221.53 198.556 1232.46 200.095 1240.44 209.365 C 1266.92 240.145 1219.15 270.84 1197.28 244.751 C 1174.86 218.019 1230.82 195.315 1228.46 230.259 C 1228.16 234.694 1219.73 239.318 1214.09 237.009 C 1210.16 232.435 1213.89 230.711 1208.96 228.548 L 1207.74 229.397 C 1206.2 236.698 1212.37 242.493 1219.78 240.765 C 1224.07 239.733 1227.78 237.038 1230.1 233.274 C 1235.04 225.116 1229.45 215.193 1221.56 211.496 C 1215.96 208.918 1209.55 208.762 1203.83 211.065 C 1198.17 213.282 1193.68 217.752 1191.44 223.406 C 1187.69 232.89 1191.04 239.968 1194.96 248.234 C 1189.01 261.708 1184.1 266.236 1170.99 272.398 C 1148.79 279.203 1129.13 273.97 1121.55 250.583 C 1131.37 241.644 1128.26 240.877 1132.81 229.477 C 1140.25 210.867 1177 223.223 1166.23 242.936 C 1163.08 248.703 1154.55 251.091 1148.88 247.694 C 1146.96 242.256 1150.3 242.705 1149.24 236.563 L 1147.97 235.737 C 1145.19 238.481 1144.22 241.513 1145.05 245.358 C 1157.61 263.947 1177.93 239.93 1170.55 228.795 C 1161.63 215.328 1144.03 215.528 1130.78 223.117 C 1130.35 222.37 1129.91 221.629 1129.45 220.897 C 1126.47 216.057 1120.05 210.787 1114.48 209.802 C 1102.48 207.682 1101.06 224.992 1095.76 228.624 C 1093.75 227.242 1093.35 226.898 1092.42 224.467 C 1084.94 204.876 1105.86 196.512 1121.47 196.49 C 1129.03 196.479 1133.72 200.44 1140.51 203.285 L 1140.51 201.225 C 1137.96 197.917 1134.44 196.522 1130.71 194.644 C 1134.39 174.614 1140.8 165.17 1161.29 161.205 z" fill="rgb(253,248,236)" transform="translate(0,0)"></path>
<path d="M 1108.72 213.96 C 1118.47 213.951 1126.11 216.512 1128.51 227.513 C 1133.26 249.29 1103.55 255.972 1088.28 248.597 C 1081.8 245.471 1077.46 242.332 1071.48 238.363 C 1064.12 233.851 1063.47 233.41 1055.2 229.692 C 1071.49 225.247 1073.29 225.613 1086.96 215.569 C 1088.03 219.63 1090.16 231.254 1096.01 231.861 C 1113.03 233.624 1093.84 223.666 1108.72 213.96 z" fill="rgb(253,248,236)" transform="translate(0,0)"></path>
<path d="M 1330.53 263.206 C 1331.87 263.085 1333.21 262.975 1334.56 262.876 C 1361.52 260.917 1380.59 275.019 1382.34 302.598 C 1397.18 302.646 1411.68 306.076 1417.37 321.837 C 1419.88 328.859 1419.47 336.592 1416.25 343.315 C 1405.93 365.139 1384.19 362.42 1365.92 353.838 C 1361.35 362.139 1354.22 368.741 1345.59 372.661 C 1331.92 379.015 1318.21 378.203 1304.34 373.255 C 1291.84 367.18 1288.24 362.233 1282.79 349.885 C 1279.97 350.379 1277.11 350.666 1274.24 350.745 C 1253.47 351.411 1245.06 337.325 1227.68 329.531 C 1222.77 327.326 1208.79 324.947 1206.32 322.661 C 1208.15 319.877 1219.69 321.747 1223.72 321.587 C 1269.7 319.766 1252.28 287.156 1303.63 292.644 C 1307.83 274.842 1313.05 268.85 1330.53 263.206 z" fill="rgb(107,96,81)" transform="translate(0,0)"></path>
<path d="M 1336.28 265.28 C 1350.9 264.495 1366.74 269.383 1374.14 282.714 C 1378.17 289.972 1378.34 297.12 1378.89 305.167 C 1381.55 306.788 1390.5 305.126 1393.12 305.978 C 1445.22 322.921 1398.28 382.324 1364.35 346.438 C 1358.17 339.899 1362.31 323.99 1371.31 319.298 C 1387.05 311.095 1409.62 329.722 1389.24 341.173 C 1387.32 342.213 1384.86 340.917 1383.18 340.015 C 1380.17 335.789 1381.86 333.891 1379.5 331.246 C 1366.03 347.149 1408.53 350.965 1398.46 325.608 C 1396.49 320.629 1392.51 316.715 1387.49 314.833 C 1382.12 312.866 1375.15 313.825 1370.2 316.472 C 1354.99 324.603 1357.34 339.508 1364 351.687 C 1353.97 366.571 1343.34 372.42 1325.57 374.349 C 1306.27 373.848 1294.51 366.558 1285.73 349.405 C 1297.49 341.799 1297.31 339.838 1303.18 327.267 C 1308.64 316.98 1319.23 317.829 1327.84 323.018 C 1344.19 332.864 1329.02 356.526 1316.24 345.837 C 1314.9 342.204 1315.25 341.57 1316.29 337.365 L 1316.65 335.922 L 1314.22 335.858 C 1306.56 343.608 1315.06 351.464 1323.76 349.967 C 1346.1 346.126 1340.88 327.962 1326.15 318.698 C 1315.48 311.981 1310.45 320.398 1301.52 322.461 C 1294.62 313.635 1281.62 297.455 1272.51 315.823 C 1270.82 319.231 1272.05 321.279 1269.34 325.463 L 1266.59 324.779 C 1249.47 298.923 1291.57 287.1 1307.88 299.361 L 1313.17 303.299 C 1312.86 299.608 1306.76 295.096 1306.94 291.375 C 1307.67 276.571 1324.12 267.357 1336.28 265.28 z" fill="rgb(253,248,236)" transform="translate(0,0)"></path>
<path d="M 1280.09 311.993 C 1290 311.673 1295.83 315.355 1298.23 326.004 C 1300.89 337.762 1289.86 345.135 1279.51 347.162 C 1264.77 350.046 1255.63 343.976 1243.93 336.031 C 1237.32 331.166 1233.9 329.381 1226.87 325.662 C 1242.38 321.909 1244.87 321.718 1258.7 313.471 C 1259.89 318.141 1259.97 321.465 1263.68 325.277 C 1266.02 327.684 1271.64 329.237 1274.51 327.245 C 1275.09 326.842 1274.7 324.359 1274.47 323.98 C 1272.36 317.59 1275.72 315.479 1280.09 311.993 z" fill="rgb(253,248,236)" transform="translate(0,0)"></path>
<path d="M 595.538 327.303 C 614.607 325.713 632.895 338.165 634.435 357.993 C 698.065 364.366 659.927 436.605 618.366 406.013 C 605.776 424.263 589.819 427.759 569.008 423.232 C 564.926 421.338 562.931 420.413 559.498 417.735 C 556.982 415.773 549.466 405.216 547.5 405.161 C 543.81 405.057 539.322 405.718 534.335 403.975 C 524.357 400.487 517.697 393.707 507.96 388.932 C 500.613 385.328 494.288 385.718 488.89 383.136 C 495.497 380.182 515.519 383.105 522.095 378.43 C 541.07 364.939 538.198 352.049 565.801 356.921 C 570.209 337.942 575.508 330.056 595.538 327.303 z" fill="rgb(107,96,81)" transform="translate(0,0)"></path>
<path d="M 593.773 330.213 C 614.674 328.418 627.35 338.139 631.518 358.67 C 632.681 364.401 655.663 357.681 663.753 377.66 C 666.042 383.268 666.001 389.558 663.638 395.135 C 661.013 401.307 655.964 406.126 649.677 408.46 C 631.99 415.179 608.489 403.484 616.726 382.026 C 622.468 367.07 653.182 374.128 642.86 393.871 C 637.199 397.784 633.095 392.924 628.803 389.046 L 626.821 389.207 L 626.269 390.616 C 633.585 409.07 653.259 391.639 646.737 381.166 C 632.012 357.52 602.585 376.874 615.923 404.258 C 608.651 415.321 605.116 417.55 592.489 421.603 C 573.22 424.124 563.05 420.239 551.635 404.736 C 566.622 396.227 561.244 392.996 571.057 380.439 C 575.127 375.231 586.733 377.401 591.021 382.706 C 593.318 385.535 594.26 389.228 593.599 392.812 C 592.473 398.649 587.605 401.387 582.03 400.158 C 579.104 399.513 577.366 394.189 576.415 391.73 C 573.927 394.772 574.292 396.023 575.944 399.264 C 584.524 405.568 598.893 399.525 597.495 392.098 C 593.611 371.471 582.261 374.284 567.115 378.806 C 563.472 379.894 560.843 369.245 552.82 369.263 C 539.869 369.292 543.638 378.619 538.309 383.641 L 536.469 382.626 C 532.032 376.178 534.14 370.127 539.681 364.904 C 556.835 348.734 569.703 366.546 580.953 367.132 C 579.49 363.358 572.516 359.707 569.01 358.071 C 572.515 341.199 575.419 334.261 593.773 330.213 z" fill="rgb(253,248,236)" transform="translate(0,0)"></path>
<path d="M 549.039 371.99 C 570.46 373.556 566.742 398.654 548.992 401.65 C 536.582 403.745 528.682 398.247 518.856 391.876 C 514.2 388.852 510.768 387.141 505.788 384.684 C 512.468 383.923 514.41 384.535 520.958 381.538 C 522.855 380.67 530.803 375.452 531.263 375.367 C 530.915 375.034 534.127 391.033 542.662 386.603 C 546.181 384.777 536.943 380.067 549.039 371.99 z" fill="rgb(253,248,236)" transform="translate(0,0)"></path>
<path d="M 962.535 1184.51 C 962.572 1180.83 963.13 1170.89 961.703 1168.22 C 959.222 1166.56 955.972 1164.96 955.042 1162.32 C 955.878 1157.94 959.389 1154.96 963.897 1155.69 C 966.988 1158.95 969.891 1161.97 975.114 1161.27 C 979.697 1160.67 1022.88 1161.71 1023.68 1159.7 C 1027.38 1150.48 1029.29 1142.23 1042.72 1149.3 C 1047.49 1152.1 1042.9 1163.26 1054.63 1161.34 C 1071.15 1161.33 1088.54 1161.96 1105 1160.52 C 1104.51 1160.56 1117.18 1149.09 1119.91 1161.91 C 1118.94 1166.61 1113.76 1167.06 1113.07 1170.47 C 1112.39 1173.81 1112.73 1180.88 1112.84 1184.43 C 1126.12 1189.52 1135.56 1198.88 1129.29 1214.48 C 1119.73 1238.27 1076.5 1218.81 1092.42 1195.19 C 1095.73 1190.09 1101.16 1187.08 1106.77 1184.86 L 1108.07 1184.34 C 1108.33 1184.23 1108.59 1184.13 1108.86 1184.03 C 1108.83 1178.78 1109.24 1171.14 1107.5 1166.46 C 1103.83 1163.94 1073.64 1165.1 1065.67 1164.2 C 1061.44 1164.53 1050.35 1164.45 1046.59 1163.21 C 1043.57 1164.99 1040.98 1166.7 1037.69 1167.91 C 1036.58 1190.7 1036.64 1224.94 1037.87 1247.85 C 1055.53 1269.75 1075.27 1295.38 1093.78 1315.99 C 1055.59 1316.39 1017.41 1316.39 979.229 1315.98 C 990.347 1298.61 1020.13 1265.37 1033.83 1248.06 C 1034.02 1221.34 1033.98 1194.61 1033.72 1167.88 C 1020.25 1160.8 982.607 1164.32 966.272 1164.93 C 966.088 1171.33 965.784 1178.03 965.724 1184.41 C 972.611 1187.25 980.052 1190.71 982.731 1198.11 C 986.502 1208.54 983.225 1220.33 972.297 1223.93 C 966.351 1225.87 959.882 1225.38 954.292 1222.58 C 945 1217.81 938.837 1206.83 945.268 1197.1 C 949.785 1190.27 955.236 1187.6 962.535 1184.51 z" fill="rgb(107,96,81)" transform="translate(0,0)"></path>
<path d="M 1029.56 334.964 C 1040.98 378.823 1038.91 383.768 1085.49 393.553 L 1086.14 394.346 C 1040.18 402.204 1039.56 409.684 1029.5 452.444 C 1020.84 407.346 1017.17 403.353 973.845 394.472 L 973.709 393.688 C 986.618 389.98 1010.3 386.793 1017.56 374.789 C 1024.13 363.948 1025.76 347.106 1029.56 334.964 z" fill="rgb(107,96,81)" transform="translate(0,0)"></path>
<path d="M 693.183 1154.83 L 696.981 1155.39 C 695.885 1161.15 696.438 1190.28 696.504 1197.86 C 696.76 1227.08 696.139 1256.96 696.649 1286.11 C 715.713 1291.44 754.128 1301.64 771.881 1308.22 C 778.267 1309.8 783.436 1311.11 789.653 1313.2 L 789.571 1314.05 C 781.177 1315.92 774.049 1315.4 765.431 1315.24 C 741.97 1315.29 716.3 1314.8 693.016 1315.61 C 693.086 1262.79 691.965 1207.46 693.183 1154.83 z" fill="rgb(207,107,52)" transform="translate(0,0)"></path>
<path d="M 696.463 1290.08 C 719.107 1295.96 741.598 1302.41 763.916 1309.43 C 765.468 1309.67 767.016 1309.94 768.556 1310.25 L 769.418 1312.49 C 763.009 1311.73 756.338 1312.14 749.74 1311.87 C 733.702 1312.67 712.635 1312.1 696.384 1311.88 C 696.26 1304.61 696.287 1297.35 696.463 1290.08 z" fill="rgb(253,248,236)" transform="translate(0,0)"></path>
<path d="M 808.025 1156.92 L 811.35 1155.78 C 811.167 1180.28 811.121 1204.77 811.213 1229.26 C 811.217 1237.54 811.716 1257.8 810.898 1265.35 L 811.015 1288.36 C 822.059 1291.44 890.3 1309.9 896.67 1313.75 L 896.865 1314.9 C 894.219 1316.5 817.089 1315.83 807.365 1315.95 L 807.459 1291.1 L 808.025 1156.92 z" fill="rgb(207,107,52)" transform="translate(0,0)"></path>
<path d="M 810.964 1292.18 C 829.697 1297.29 850.455 1303.1 868.957 1308.86 C 869.955 1309.11 880.421 1310.96 878.114 1312.54 L 877.723 1311.79 L 876.982 1312.75 C 875.148 1312.71 872.81 1312.52 870.988 1312.36 C 851.182 1311.98 830.802 1312.56 810.924 1312.41 C 810.886 1305.67 810.899 1298.92 810.964 1292.18 z" fill="rgb(253,248,236)" transform="translate(0,0)"></path>
<path d="M 541.815 904.863 C 542.25 912.315 542.136 917.433 541.864 924.811 C 542.156 937.931 542.144 951.055 541.828 964.174 C 541.353 960.999 541.169 956.309 540.931 952.988 C 507.9 953.232 474.867 953.292 441.835 953.169 C 435.629 953.145 411.976 953.664 407.537 952.426 L 406.803 950.687 L 408.091 949.259 C 414.926 948.274 441.25 949.101 449.983 949.124 L 541.159 949.193 L 541.168 924.611 C 536.029 922.812 507.649 921.143 500.396 920.529 C 474.099 918.302 447.534 916.362 421.253 913.729 C 417.466 913.35 409.877 912.938 407.465 909.961 L 408.602 908.516 C 417.086 908.412 441.688 911.233 451.693 912.129 C 481.155 914.768 512.066 916.702 541.352 920.081 C 541.356 914.895 541.569 910.042 541.815 904.863 z" fill="rgb(227,160,42)" transform="translate(0,0)"></path>
<path d="M 541.25 828.899 C 528.843 824.227 438.447 787.349 436.157 783.56 L 437.091 781.881 C 443.7 781.025 534.756 825.235 541.018 822.965 L 542.001 819.243 C 542.201 833.698 542.116 848.155 541.748 862.607 C 528.072 859.201 424.798 828.843 420.118 824.617 L 420.211 823.428 L 419.995 824.458 L 421.071 823.221 C 423.263 823.137 428.959 824.007 430.959 824.735 C 466.916 837.838 504.533 847.284 541.125 858.505 L 541.25 828.899 z" fill="rgb(227,160,42)" transform="translate(0,0)"></path>
<path d="M 514.699 976.789 L 514.388 975.36 C 513.537 971.358 512.842 969.833 514.403 966.109 L 515.839 965.415 C 517.613 968.482 521.839 997.809 523.453 1004.59 C 526.739 1018.42 531.26 1031.94 536.962 1044.96 C 558.933 1095.4 597.15 1136.46 646.177 1161.36 C 651.865 1164.25 666.712 1169.73 670.283 1173.06 C 666.337 1175.81 647.554 1165.31 642.681 1162.8 C 605.725 1143.75 577.617 1118.43 554.528 1083.87 C 538.963 1060.49 527.568 1034.59 520.849 1007.32 L 519.946 1004.26 C 518.154 997.924 516.611 987.492 515.407 980.737 L 514.699 976.789 z" fill="rgb(107,96,81)" transform="translate(0,0)"></path>
<path d="M 919.648 724.48 C 928.305 713.547 971.092 656.006 977.227 651.525 L 978.084 652.201 C 974.111 662.169 934.452 712.561 925.34 724.042 C 938.227 724.225 951.116 724.334 964.004 724.369 C 980.151 711.256 996.217 693.177 1012.01 681.033 L 1013.65 681.393 L 1014.61 683.198 C 1011.95 686.809 1005.97 691.366 1002.61 694.7 C 993.442 703.785 981.012 713.93 972.459 723.271 C 975.265 724.478 975.784 724.348 978.917 724.467 C 971.013 726.129 929.359 724.805 919.648 724.48 z" fill="rgb(207,107,52)" transform="translate(0,0)"></path>
<path d="M 631.433 724.265 L 596.793 649.285 C 594.766 644.793 587.613 633.446 590.075 629.5 C 594.958 633.21 631.095 712.504 636.776 724.252 L 667.766 724.428 C 665.48 715.842 663.018 707.304 660.383 698.819 C 662.946 700.847 665.348 702.445 667.224 705.096 L 667.333 706.556 C 667.562 711.007 670.643 718.316 671.216 724.715 C 660.218 725.496 642.154 725.752 631.433 724.265 z" fill="rgb(207,107,52)" transform="translate(0,0)"></path>
<path d="M 541.857 894.214 C 527.071 889.402 418.065 873.085 412.968 866.52 C 424.817 864.848 522.699 886.117 541.792 889.858 L 541.857 894.214 z" fill="rgb(207,107,52)" transform="translate(0,0)"></path>
<path d="M 969.532 1001.53 C 983.871 1004.92 1103.83 1037.33 1106.92 1041.61 C 1095.04 1042.41 1011.28 1015.68 993.684 1011.97 C 988.34 1010.85 974.447 1005.53 968.436 1004.82 L 969.532 1001.53 z" fill="rgb(227,160,42)" transform="translate(0,0)"></path>
<path d="M 877.46 725.063 C 886.67 721.962 925.907 639.772 938.126 629.652 L 939.655 630.381 L 938.929 629.252 L 939.656 629.992 C 938.987 635.894 891.709 714.129 885.84 724.085 C 897.11 724.102 908.381 724.234 919.648 724.48 C 911.868 726.577 887.01 724.477 877.46 725.063 z" fill="rgb(207,107,52)" transform="translate(0,0)"></path>
<path d="M 979.109 827.898 C 993.106 821.64 1078.23 783.473 1087.04 783.636 C 1083.9 789.123 990.43 827.592 979.136 831.802 L 979.109 827.898 z" fill="rgb(227,160,42)" transform="translate(0,0)"></path>
<path d="M 978.769 793.53 C 990.117 787.03 1064.05 743.385 1070.39 744.319 L 1070.45 745.818 L 1069.04 744.179 L 1070.15 746.289 C 1065.52 751.684 1055.19 754.251 1049.59 758.229 C 1030.4 771.869 996.751 784.523 978.992 798.592 L 978.769 793.53 z" fill="rgb(207,107,52)" transform="translate(0,0)"></path>
<path d="M 541.817 803.445 C 541.742 801.533 541.703 794.071 540.064 792.711 C 523.977 779.357 468.717 756.226 457.114 742.912 L 457.414 741.872 C 464.793 743.444 529.053 781.104 541.172 787.858 C 541.244 777.322 541.164 766.447 541.84 755.961 C 542.467 765.225 542.643 793.782 541.817 803.445 z" fill="rgb(227,160,42)" transform="translate(0,0)"></path>
<path d="M 514.699 976.789 L 515.407 980.737 C 483.255 987.956 445.348 989.04 412.553 994.9 C 410.533 995.261 409.232 993.993 407.91 992.794 L 408.727 991.625 C 415.783 989.51 438.76 987.471 447.714 986.368 C 470.093 983.539 492.424 980.345 514.699 976.789 z" fill="rgb(227,160,42)" transform="translate(0,0)"></path>
<path d="M 520.849 1007.32 C 506.574 1011.41 423.37 1036.8 415.052 1035.52 C 418.146 1031.15 507.602 1007.54 519.946 1004.26 L 520.849 1007.32 z" fill="rgb(207,107,52)" transform="translate(0,0)"></path>
<path d="M 548.834 643.195 C 558.073 651.168 591.642 708.729 603.268 724.477 L 597.385 724.325 C 587.406 708.805 552.905 657.775 548.834 643.195 z" fill="rgb(227,160,42)" transform="translate(0,0)"></path>
<path d="M 993.032 224.424 C 1004.1 223.743 1009.83 223.491 1020.79 224.94 L 1021.03 225.618 C 1007.67 226.681 994.378 226.877 981.014 227.958 C 957.209 229.902 933.552 233.359 910.186 238.307 C 904.006 239.538 890.712 244.673 886.424 244.01 C 894.647 233.518 977.31 225.485 993.032 224.424 z" fill="rgb(107,96,81)" transform="translate(0,0)"></path>
<path d="M 1396.36 367.756 C 1406.86 371.313 1453.86 437.516 1454.58 448.534 C 1450.84 447.026 1419.46 394.85 1411.72 388.789 C 1409.1 386.735 1397 371.117 1396.36 367.756 z" fill="rgb(107,96,81)" transform="translate(0,0)"></path>
<path d="M 978.951 754.799 C 998.859 739.512 1021.36 724.569 1042.48 711.198 C 1043.03 710.847 1045.13 712.741 1044.41 713.289 C 1023.47 729.369 1000.31 743.373 979.085 759.382 C 979.097 757.698 979.167 756.462 978.951 754.799 z" fill="rgb(207,107,52)" transform="translate(0,0)"></path>
<path d="M 541.747 753.157 C 523.838 737.218 504.452 723.261 485.869 708.172 C 485.112 707.558 485.222 706.261 485.327 705.419 L 486.72 704.474 C 493.25 706.041 532.781 741.721 541.778 747.266 L 541.747 753.157 z" fill="rgb(227,160,42)" transform="translate(0,0)"></path>
<path d="M 740.303 314.87 C 748.909 315.377 733.196 323.669 731.439 324.974 C 713.088 338.604 694.887 354.863 680.186 372.399 C 679.824 372.282 676.615 371.334 677.569 370.216 C 694.824 349.987 717.766 328.863 740.303 314.87 z" fill="rgb(107,96,81)" transform="translate(0,0)"></path>
<path d="M 559.054 723.905 C 544.732 708.742 531.393 692.752 517.286 677.397 C 515.199 675.125 518.087 672.926 518.967 673.88 C 534.129 690.312 549.716 706.886 564.25 723.942 C 562.256 723.851 561.067 723.789 559.054 723.905 z" fill="rgb(207,107,52)" transform="translate(0,0)"></path>
<path d="M 1242.24 263.025 L 1243.42 263.526 C 1250.74 266.669 1273.56 278.392 1276.33 285.383 C 1270.29 283.355 1250.8 268.953 1242.68 265.861 C 1242.19 265.678 1242.26 263.511 1242.24 263.025 z" fill="rgb(107,96,81)" transform="translate(0,0)"></path>
<path d="M 973.845 394.472 C 973.254 394.49 971.425 394.851 971.153 393.997 C 971.687 393.252 972.915 393.616 973.709 393.688 L 973.845 394.472 z" fill="rgb(183,181,171)" transform="translate(0,0)"></path>
<path d="M 1085.49 393.553 C 1086.31 393.527 1087.96 393.271 1088.43 394.217 C 1087.73 394.647 1086.95 394.374 1086.14 394.346 L 1085.49 393.553 z" fill="rgb(183,181,171)" transform="translate(0,0)"></path>
<metadata><recraft-signature>{"signed_by": "recraft", "signature_b64": "1415+Y/hOkGcrc3N7TwUg4LgX6x0/SrmAtz5K4YWChUNOtXrm181ec+SYMnJIzcLBC468/ReFocnGhGJ/SNIBQ==", "signing_algo": "Ed25519", "generation_timestamp": 1781418676, "identifier": "c792bdef-b712-4fb2-82ff-a3454bf56b18"}</recraft-signature></metadata></svg>