<svg xmlns="http://www.w3.org/2000/svg" height="896" preserveAspectRatio="none" style="display: block;" version="1.1" viewBox="0 0 2048 1509" width="1216">
<defs>
	<linearGradient gradientUnits="userSpaceOnUse" id="Gradient1" x1="914.489" x2="866.429" y1="460.156" y2="453.251">
		<stop class="stop0" offset="0" stop-color="rgb(92,8,4)" stop-opacity="1"></stop>
		<stop class="stop1" offset="1" stop-color="rgb(34,11,10)" stop-opacity="1"></stop>
	</linearGradient>
	<linearGradient gradientUnits="userSpaceOnUse" id="Gradient2" x1="1168.27" x2="1064.27" y1="541.547" y2="711.01">
		<stop class="stop0" offset="0" stop-color="rgb(253,126,45)" stop-opacity="1"></stop>
		<stop class="stop1" offset="1" stop-color="rgb(253,113,74)" stop-opacity="1"></stop>
	</linearGradient>
</defs>
<path d="M 0 0 L 350.154 0 L 361.223 0 L 378.4 0 L 388.183 0 L 2048 0 L 2048 1005.76 L 2048 1007.18 L 2048 1100.28 L 2048 1238.84 L 2048 1243.19 L 2048 1509 L 491.299 1509 L 179.818 1509 L 0 1509 L 0 1243.05 L 0 1239.27 L 0 1235.74 L 0 1232.23 L 0 0 z" fill="rgb(253,248,236)" transform="translate(0,0)"></path>
<path d="M 1360.63 1232.18 C 1361.61 1226.69 1360.53 1218.2 1361.73 1214.2 C 1362.54 1215.76 1363.84 1234.61 1363.45 1237.72 C 1427.94 1238.98 2042.29 1235.67 2048 1238.84 L 2048 1243.19 L 2048 1509 L 491.299 1509 C 523.562 1485.81 562.392 1461.88 596.038 1440.09 L 736.087 1348.63 C 743.574 1347.48 757.998 1346.33 761.299 1338.7 C 771.584 1314.93 727.201 1320.45 715.961 1314.25 C 710.262 1311.1 707.135 1297.18 705.226 1290.97 C 722.214 1284.98 733.327 1279.05 749.254 1270.85 L 748.469 1243.21 L 748.014 1239.6 L 747.893 1235.81 L 747.995 1232.03 L 1360.63 1232.18 z" fill="rgb(253,248,236)" transform="translate(0,0)"></path>
<path d="M 1360.63 1232.18 C 1361.61 1226.69 1360.53 1218.2 1361.73 1214.2 C 1362.54 1215.76 1363.84 1234.61 1363.45 1237.72 C 1361.38 1239.99 1360.98 1240.5 1359.4 1243.12 C 1343.84 1244.3 1311.32 1243.25 1294.79 1243.24 L 1160.2 1243.13 L 748.469 1243.21 L 748.014 1239.6 L 747.893 1235.81 L 747.995 1232.03 L 1360.63 1232.18 z" fill="rgb(253,70,12)" transform="translate(0,0)"></path>
<path d="M 747.893 1235.81 C 905.662 1235.72 1192.45 1235.84 1359.19 1235.73 C 1359.58 1236.07 1359.97 1236.42 1360.36 1236.76 L 1359.97 1238.73 C 1354 1241.24 1173.67 1239.18 1150.91 1239.18 L 748.014 1239.6 L 747.893 1235.81 z" fill="rgb(253,248,236)" transform="translate(0,0)"></path>
<path d="M 1359.4 1243.12 C 1360.98 1240.5 1361.38 1239.99 1363.45 1237.72 C 1427.94 1238.98 2042.29 1235.67 2048 1238.84 L 2048 1243.19 L 1359.4 1243.12 z" fill="rgb(184,58,35)" transform="translate(0,0)"></path>
<path d="M 1018.14 227.452 L 1067.77 227.586 C 1075.35 227.617 1089.8 227.336 1096.63 228.298 C 1101.63 228.214 1123.5 228.229 1128.02 228.888 C 1139.37 228.878 1166.47 229.52 1176.77 228.203 L 1177.93 228.753 C 1180.34 229.796 1179.1 231.469 1179.97 234.047 L 1254.2 233.915 L 1254.34 279 L 1254.78 279 C 1255.48 267.501 1253.66 241.667 1255.5 233.03 C 1262.1 226.32 1319.16 230.105 1333.65 228.941 L 1334.71 228.85 L 1335.98 229.043 C 1339.85 227.327 1408.61 227.159 1416.13 228.002 C 1442.44 228.635 1468.79 228.344 1495.11 228.542 C 1504.71 228.481 1569.69 227.72 1575.39 228.982 C 1579.19 227.497 1645.01 228.43 1654.21 228.678 C 1654.15 258.505 1654.33 288.72 1653.92 318.515 L 1653.92 321.282 C 1653.57 340.791 1653.41 360.302 1653.45 379.814 C 1653.47 384.591 1653.97 405.139 1653.52 408.938 L 1654.28 414.501 L 1654.18 498.848 L 1653.96 504.803 L 1653.87 560.605 C 1653.87 567.322 1653.57 585.129 1654.64 591.139 L 1654.53 592.667 C 1655.92 621.341 1654.68 655.541 1654.95 684.807 L 1654.92 778.09 L 1649.76 778.24 C 1626.46 778.35 1600.48 777.497 1577.44 778.527 L 1573.78 778.556 C 1548.1 779.182 1519.77 778.38 1493.87 778.127 C 1470.88 778.375 1437.62 779.517 1415 777.934 C 1411.63 777.766 1408.06 777.925 1404.68 777.999 L 1398.79 780.103 C 1381.94 780.062 1365.08 780.034 1348.23 779.942 C 1343.42 779.916 1341.43 779.749 1337.91 782.91 L 1338.05 783.948 C 1339.73 797.098 1336.11 864.039 1340.42 869.4 L 1342.75 870.384 C 1339.49 870.673 1339.21 870.805 1336.17 869.841 C 1336.85 861.94 1336.39 846.536 1336.37 838.044 L 1336.46 780.009 L 1267.66 779.802 C 1266.66 779.531 1256.72 779.178 1255.01 779.101 C 1255.74 778.862 1257.37 777.96 1258.03 777.623 C 1259.78 774.599 1260.49 754.877 1261.87 747.92 C 1261.85 755.731 1261.99 764.167 1261.79 771.922 C 1260.65 775.578 1260.29 774.682 1261.51 777.341 C 1267.04 779.342 1326.35 777.982 1336.46 777.915 C 1335.13 753.12 1335.15 709.409 1336.28 684.51 C 1311.29 684.364 1285.3 686 1261.03 685.34 L 1259.16 684.725 L 1258.46 685.563 C 1233.04 686.456 1204.33 685.869 1178.81 685.255 L 1176.11 685.275 C 1151.21 684.347 1122.66 684.997 1097.49 684.987 C 1071.2 685.373 1042.37 684.108 1016.69 685.012 C 1014.41 677.442 1016.56 607.064 1015.02 591.433 C 1015.91 562.915 1013.54 526.074 1015.6 499.086 C 1017.9 471.91 1015.43 432.974 1016.91 403.251 L 1017.19 326.876 C 1017.08 322.66 1017.05 320.622 1017.57 316.313 C 1018.58 300.742 1017.9 278.073 1018.17 261.738 C 1017.56 252.173 1018.09 237.403 1018.14 227.452 z" fill="rgb(227,160,42)" transform="translate(0,0)"></path>
<path d="M 1416.13 228.002 C 1442.44 228.635 1468.79 228.344 1495.11 228.542 C 1504.71 228.481 1569.69 227.72 1575.39 228.982 C 1579.19 227.497 1645.01 228.43 1654.21 228.678 C 1654.15 258.505 1654.33 288.72 1653.92 318.515 L 1653.92 321.282 C 1653.57 340.791 1653.41 360.302 1653.45 379.814 C 1653.47 384.591 1653.97 405.139 1653.52 408.938 L 1654.28 414.501 L 1654.18 498.848 L 1653.96 504.803 L 1653.87 560.605 C 1653.87 567.322 1653.57 585.129 1654.64 591.139 C 1628.32 591.013 1602.01 591.083 1575.69 591.352 C 1550.52 590.634 1519.45 590.764 1494.26 591.385 C 1466.5 591.15 1440.87 590.923 1413.07 592.13 C 1413.58 581.192 1415.77 502.997 1412.4 498.22 L 1409.35 499.163 C 1387.45 497.765 1360 499.858 1336.84 498.71 C 1337.66 487.277 1337.48 475.05 1337.49 463.523 C 1337.55 454.648 1337.54 446.487 1337.16 437.612 C 1337.72 434.011 1337.68 415.706 1337.75 411.061 C 1363.17 411.435 1389.39 411.029 1414.87 410.938 C 1414.03 384.363 1413.68 348.306 1414.48 321.85 C 1422.06 322.376 1486.02 322.072 1492.93 320.966 C 1487.5 319.552 1478.23 320.328 1472.55 320.066 C 1457.26 319.36 1428.04 321.852 1413.79 319.42 C 1414.92 291.337 1413.39 262.794 1414.53 234.669 C 1414.6 233.162 1415.68 229.652 1416.13 228.002 z" fill="rgb(207,107,52)" transform="translate(0,0)"></path>
<path d="M 1575.39 228.982 C 1579.19 227.497 1645.01 228.43 1654.21 228.678 C 1654.15 258.505 1654.33 288.72 1653.92 318.515 L 1653.92 321.282 L 1649.95 321.411 C 1649.01 322.993 1648.55 323.909 1647.78 325.581 C 1632.92 325.353 1592.05 326.872 1579.52 324.777 C 1579.51 323.554 1579.33 323.561 1578.86 322.337 C 1573.78 320.679 1565.48 322 1560.42 321.787 C 1548.94 321.302 1504.53 323.669 1496 321.101 L 1494.92 319.981 C 1494.85 314.628 1494.65 308.626 1495.9 303.464 C 1495.7 280.786 1496.8 250.445 1495.11 228.542 C 1504.71 228.481 1569.69 227.72 1575.39 228.982 z" fill="rgb(227,160,42)" transform="translate(0,0)"></path>
<path d="M 1568.16 233.453 C 1568.47 260.562 1568.5 287.673 1568.27 314.783 C 1560.11 314.809 1502.7 315.581 1499.89 314.065 C 1499.66 312.58 1499.41 311.098 1499.15 309.618 C 1499.94 285.728 1499.3 258.206 1499.34 234.026 C 1516.06 234.083 1552.41 235.12 1568.16 233.453 z" fill="rgb(184,58,35)" transform="translate(0,0)"></path>
<path d="M 1579.19 234.12 L 1648.1 233.975 C 1648.22 260.787 1648.17 287.6 1647.96 314.412 C 1624.95 314.531 1601.94 314.48 1578.94 314.258 L 1579.19 234.12 z" fill="rgb(184,58,35)" transform="translate(0,0)"></path>
<path d="M 1574.17 499.273 C 1591.38 497.471 1635.05 498.798 1654.18 498.848 L 1653.96 504.803 L 1653.87 560.605 C 1653.87 567.322 1653.57 585.129 1654.64 591.139 C 1628.32 591.013 1602.01 591.083 1575.69 591.352 C 1550.52 590.634 1519.45 590.764 1494.26 591.385 C 1495.49 562.179 1494.9 528.551 1495.22 498.955 C 1513.85 498.856 1532.61 498.636 1551.22 498.675 C 1555.54 498.684 1570.99 498.687 1574.17 499.273 z" fill="rgb(227,160,42)" transform="translate(0,0)"></path>
<path d="M 1578.83 503.98 C 1598.7 504.031 1629.02 504.984 1648.17 503.585 L 1648.02 586.291 C 1625.27 586.365 1601.29 586.841 1578.64 586.451 C 1578.71 567.157 1579.15 546.429 1578.68 527.25 L 1578.83 503.98 z" fill="rgb(107,96,81)" transform="translate(0,0)"></path>
<path d="M 1499.61 505.797 C 1521.89 506.122 1544.73 505.846 1567.04 505.817 L 1567.04 585.937 C 1544.67 585.802 1522.3 585.823 1499.92 586 L 1499.61 505.797 z" fill="rgb(184,58,35)" transform="translate(0,0)"></path>
<path d="M 1579.52 324.777 C 1592.05 326.872 1632.92 325.353 1647.78 325.581 C 1647.9 351.109 1646.99 379.001 1647.85 404.091 C 1644.43 405.431 1640.53 405.039 1636.76 405.014 C 1621.99 404.906 1592.7 404.017 1578.91 405.331 C 1579.99 379.132 1578.13 350.826 1579.52 324.777 z" fill="rgb(138,90,134)" transform="translate(0,0)"></path>
<path d="M 1578.07 416.337 C 1593.45 416.449 1628.82 417.7 1643.2 416.449 C 1645.45 416.605 1645.83 416.419 1647.7 417.706 C 1649.16 436.66 1648.04 471.549 1648.03 492.079 L 1577.75 492.11 C 1577.65 467.444 1577.33 440.869 1578.07 416.337 z" fill="rgb(184,58,35)" transform="translate(0,0)"></path>
<path d="M 1648.81 409.347 L 1653.52 408.938 L 1654.28 414.501 L 1649.82 417.34 C 1645.74 415.409 1647.5 415.615 1643.2 416.449 C 1628.82 417.7 1593.45 416.449 1578.07 416.337 L 1572.78 413.098 C 1573.23 411.437 1573.17 411.847 1574.16 410.347 C 1576.51 409.916 1578.43 409.674 1580.8 409.406 C 1597.36 408.857 1619.69 408.454 1636.26 409.179 L 1646.23 409.057 L 1648.81 409.347 z" fill="rgb(227,160,42)" transform="translate(0,0)"></path>
<path d="M 1417.01 411.562 C 1427.13 409.272 1480.47 409.651 1493.54 410.033 C 1494.5 436.686 1494.53 470.283 1493.89 497.084 L 1487.28 496.341 C 1473.34 495.207 1428.6 495.567 1415.31 496.781 C 1414.41 470.29 1415.95 440.18 1416.13 413.172 L 1417.01 411.562 z" fill="rgb(227,160,42)" transform="translate(0,0)"></path>
<path d="M 1420.09 416.207 C 1434.03 416.243 1476.11 417.163 1488.59 415.328 C 1486.82 429.679 1486.73 478.591 1488.35 492.299 C 1467.08 491.428 1441.65 492.095 1420.07 492.115 L 1420.09 416.207 z" fill="rgb(107,96,81)" transform="translate(0,0)"></path>
<path d="M 1498.16 324.896 L 1568.77 324.902 L 1568.35 405.12 L 1498.08 405.122 L 1498.16 324.896 z" fill="rgb(184,58,35)" transform="translate(0,0)"></path>
<path d="M 1420.28 503.128 C 1443.04 503.311 1465.79 503.347 1488.55 503.236 C 1488.76 530.85 1488.76 558.465 1488.55 586.079 L 1420.41 586.201 L 1420.28 503.128 z" fill="rgb(138,90,134)" transform="translate(0,0)"></path>
<path d="M 1421.09 233.606 C 1442.6 234.36 1466.53 233.818 1488.09 233.702 L 1488.2 314.92 C 1465.91 314.653 1443.31 314.88 1420.99 314.923 L 1421.09 233.606 z" fill="rgb(138,90,134)" transform="translate(0,0)"></path>
<path d="M 1420.13 326.259 C 1442.75 326.023 1465.38 325.973 1488 326.108 L 1488.02 405.195 L 1420.05 405.233 L 1420.13 326.259 z" fill="rgb(184,58,35)" transform="translate(0,0)"></path>
<path d="M 1340.57 414.74 C 1363.47 414.611 1386.37 414.63 1409.27 414.799 L 1409.3 491.807 L 1340.19 491.914 C 1339.95 468.141 1341.34 437.654 1340.04 415.161 L 1340.57 414.74 z" fill="rgb(184,58,35)" transform="translate(0,0)"></path>
<path d="M 1498.68 416.243 C 1521.2 416.41 1543.72 416.453 1566.23 416.373 C 1565.78 441.746 1566.29 468.474 1566.22 493.982 C 1543.59 494.186 1520.96 494.201 1498.34 494.027 C 1498 468.099 1498.12 442.168 1498.68 416.243 z" fill="rgb(227,160,42)" transform="translate(0,0)"></path>
<path d="M 1579.3 593.16 C 1603.62 592.951 1627.95 592.949 1652.28 593.155 L 1654.53 592.667 C 1655.92 621.341 1654.68 655.541 1654.95 684.807 L 1654.92 778.09 L 1649.76 778.24 C 1626.46 778.35 1600.48 777.497 1577.44 778.527 L 1573.78 778.556 C 1548.1 779.182 1519.77 778.38 1493.87 778.127 C 1470.88 778.375 1437.62 779.517 1415 777.934 L 1414.88 775.984 C 1413.95 752.369 1414.86 728.383 1414.72 704.735 C 1414.68 698.892 1415.19 692.487 1414.21 686.768 L 1414.57 686.49 L 1414.86 684.127 C 1413.24 677.892 1413.97 605.912 1414 594.269 L 1415.24 594.079 C 1416.49 595.632 1417.44 597.064 1418.99 598.27 C 1441.93 598.34 1464.87 598.25 1487.81 597.998 C 1491.77 593.834 1492.85 594.218 1498.54 593.299 C 1523.52 592.937 1554.35 592.35 1579.3 593.16 z" fill="rgb(207,107,52)" transform="translate(0,0)"></path>
<path d="M 1576.29 685.491 C 1602.51 685.429 1628.73 685.201 1654.95 684.807 L 1654.92 778.09 L 1649.76 778.24 C 1626.46 778.35 1600.48 777.497 1577.44 778.527 L 1573.78 778.556 L 1574.1 716.129 C 1574.1 711.15 1573.72 689.818 1574.55 686.027 L 1576.29 685.491 z" fill="rgb(227,160,42)" transform="translate(0,0)"></path>
<path d="M 1578.86 695.977 L 1579.16 691.945 C 1581.99 689.616 1640.2 690.681 1648.76 690.71 C 1648.56 709 1648.51 727.291 1648.64 745.582 C 1648.67 751.55 1648.46 767.396 1649.29 772.771 C 1630.05 773.827 1599.52 772.518 1579 772.814 C 1579.15 747.202 1579.11 721.589 1578.86 695.977 z" fill="rgb(107,96,81)" transform="translate(0,0)"></path>
<path d="M 1415.71 684.027 C 1441.15 684.945 1468.12 683.988 1493.72 684.292 C 1493.57 714.771 1494.55 748.074 1493.87 778.127 C 1470.88 778.375 1437.62 779.517 1415 777.934 L 1414.88 775.984 C 1413.95 752.369 1414.86 728.383 1414.72 704.735 C 1414.68 698.892 1415.19 692.487 1414.21 686.768 L 1414.57 686.49 L 1414.86 684.127 L 1415.71 684.027 z" fill="rgb(227,160,42)" transform="translate(0,0)"></path>
<path d="M 1419.78 689.988 C 1440.17 690.027 1469.21 690.943 1489.1 689.716 C 1488.52 717.291 1488.92 745.067 1488.65 772.674 C 1482.17 771.05 1430.03 771.948 1419.81 772.022 C 1419.54 744.678 1419.53 717.332 1419.78 689.988 z" fill="rgb(107,96,81)" transform="translate(0,0)"></path>
<path d="M 1487.81 597.998 L 1487.91 678.592 L 1478.13 678.87 C 1469.55 677.605 1430.21 678.147 1419.29 678.134 C 1418.74 651.756 1419.32 624.781 1418.99 598.27 C 1441.93 598.34 1464.87 598.25 1487.81 597.998 z" fill="rgb(184,58,35)" transform="translate(0,0)"></path>
<path d="M 1577.43 597.669 C 1600.57 597.037 1623.89 597.987 1647.17 597.442 C 1647.57 597.963 1647.97 598.484 1648.38 599.005 C 1648.67 625.677 1648.08 652.381 1648.11 679.051 L 1577.26 679.014 L 1577.43 597.669 z" fill="rgb(184,58,35)" transform="translate(0,0)"></path>
<path d="M 1497.67 691.508 L 1566.91 691.722 C 1566.16 717.858 1566.87 746.617 1566.56 773.118 C 1544.79 773.832 1519.9 773.045 1497.91 772.82 C 1497.63 745.717 1497.55 718.612 1497.67 691.508 z" fill="rgb(227,160,42)" transform="translate(0,0)"></path>
<path d="M 1498.85 598.02 C 1521.1 598.333 1543.89 598.117 1566.19 598.155 L 1566.17 677.855 L 1498.9 677.794 C 1499.18 651.356 1498.89 624.49 1498.85 598.02 z" fill="rgb(138,90,134)" transform="translate(0,0)"></path>
<path d="M 1015.6 499.086 L 1097.02 498.778 C 1099.94 499.545 1102.03 500.282 1105.05 500.25 L 1104.46 501.164 C 1100.69 501.005 1099.64 500.29 1096.95 502.077 C 1096.01 524.4 1097.06 546.919 1095.8 569.268 C 1095.38 576.628 1094.96 584.864 1098.1 591.672 C 1102.7 594.694 1157.29 591.399 1167.3 593.166 C 1175.08 594.54 1192.83 595.022 1200.98 595.033 L 1239.05 594.938 C 1243.72 594.896 1255.2 594.33 1259.27 594.952 C 1258.76 617.059 1257.87 658.704 1259.29 680.294 L 1259.16 684.725 L 1258.46 685.563 C 1233.04 686.456 1204.33 685.869 1178.81 685.255 L 1176.11 685.275 C 1151.21 684.347 1122.66 684.997 1097.49 684.987 C 1071.2 685.373 1042.37 684.108 1016.69 685.012 C 1014.41 677.442 1016.56 607.064 1015.02 591.433 C 1015.91 562.915 1013.54 526.074 1015.6 499.086 z" fill="url(#Gradient2)" transform="translate(0,0)"></path>
<path d="M 1024.33 504.451 C 1047.19 504.214 1070.05 504.19 1092.91 504.379 C 1092.93 514.226 1093.93 584.125 1091.76 588.372 L 1089.25 588.762 L 1020.05 588.784 C 1019.83 579.698 1018.91 508.389 1020.98 504.881 L 1024.33 504.451 z" fill="rgb(227,160,42)" transform="translate(0,0)"></path>
<path d="M 1184.34 597.476 C 1207.1 597.293 1230.26 597.581 1253.06 597.645 C 1253.02 606.349 1254.08 675.874 1251.93 678.619 L 1248.25 678.922 C 1225.3 678.867 1202.35 678.688 1179.4 678.384 C 1179.4 668.681 1178.49 601.044 1181 597.648 L 1184.34 597.476 z" fill="rgb(184,58,35)" transform="translate(0,0)"></path>
<path d="M 1021.18 598.443 C 1043.27 599.495 1070.74 598.828 1093.24 598.901 C 1093.5 625.404 1093.61 651.909 1093.57 678.414 C 1069.48 678.143 1044.99 678.412 1020.87 678.459 C 1020.8 654.889 1019.74 621.092 1021.18 598.443 z" fill="rgb(138,90,134)" transform="translate(0,0)"></path>
<path d="M 1102.29 597.24 C 1124.76 596.692 1148.26 597.134 1170.81 597.265 C 1169.68 622.983 1170.2 651.874 1170.12 677.831 C 1148.06 678.033 1123.65 678.214 1101.76 677.503 C 1101.83 651.564 1101.37 622.989 1102.29 597.24 z" fill="rgb(227,160,42)" transform="translate(0,0)"></path>
<path d="M 1018.14 227.452 L 1067.77 227.586 C 1075.35 227.617 1089.8 227.336 1096.63 228.298 C 1096.58 229.249 1096.35 234.036 1096.16 234.651 C 1095.64 251.62 1094.87 299.187 1096.28 315.311 L 1096.95 319.89 C 1087.59 321.01 1022.48 322.456 1017.93 319.277 L 1017.57 316.313 C 1018.58 300.742 1017.9 278.073 1018.17 261.738 C 1017.56 252.173 1018.09 237.403 1018.14 227.452 z" fill="rgb(207,107,52)" transform="translate(0,0)"></path>
<path d="M 1022.01 233.546 C 1037.13 233.688 1079.87 234.999 1093.62 233.267 C 1092.32 240.31 1092.83 255.062 1092.87 262.997 C 1093.07 280.026 1093.12 297.056 1093 314.085 C 1079.3 314.08 1032.1 313.208 1021.31 314.589 L 1021.28 303.385 C 1022.18 280.76 1021.89 256.314 1022.01 233.546 z" fill="rgb(184,58,35)" transform="translate(0,0)"></path>
<path d="M 1337.64 688.65 L 1338.26 687.616 C 1346.27 685.404 1403.07 686.829 1414.21 686.768 C 1415.19 692.487 1414.68 698.892 1414.72 704.735 C 1414.86 728.383 1413.95 752.369 1414.88 775.984 L 1415 777.934 C 1411.63 777.766 1408.06 777.925 1404.68 777.999 C 1394.93 777.583 1342.13 779.154 1337.61 776.472 L 1337.52 773.551 C 1338.35 764.492 1337.96 749.756 1337.97 740.262 C 1338.1 723.057 1337.99 705.852 1337.64 688.65 z" fill="rgb(184,58,35)" transform="translate(0,0)"></path>
<path d="M 1337.64 688.65 L 1338.26 687.616 C 1346.27 685.404 1403.07 686.829 1414.21 686.768 C 1415.19 692.487 1414.68 698.892 1414.72 704.735 C 1414.86 728.383 1413.95 752.369 1414.88 775.984 L 1415 777.934 C 1411.63 777.766 1408.06 777.925 1404.68 777.999 C 1394.93 777.583 1342.13 779.154 1337.61 776.472 L 1337.52 773.551 C 1361.27 773.798 1385.01 773.876 1408.76 773.785 L 1408.56 689.715 C 1396.78 689.592 1345.15 690.976 1337.64 688.65 z" fill="rgb(207,107,52)" transform="translate(0,0)"></path>
<path d="M 1361.43 594.493 C 1378.29 594.473 1397.31 594.846 1414 594.269 C 1413.97 605.912 1413.24 677.892 1414.86 684.127 C 1391.57 682.79 1363.3 685.343 1339.04 683.729 C 1337.24 681.855 1337.85 681.823 1337.64 678.391 C 1338.5 671.831 1338.31 650.822 1338.19 643.52 C 1337.98 629.937 1338.81 610.274 1337.54 597.133 L 1338.61 594.842 C 1344.73 593.857 1354.93 594.374 1361.43 594.493 z" fill="rgb(207,107,52)" transform="translate(0,0)"></path>
<path d="M 1361.43 594.493 C 1378.29 594.473 1397.31 594.846 1414 594.269 C 1413.97 605.912 1413.24 677.892 1414.86 684.127 C 1391.57 682.79 1363.3 685.343 1339.04 683.729 C 1337.24 681.855 1337.85 681.823 1337.64 678.391 C 1360.58 678.531 1385.19 679.05 1408.02 678.489 L 1408 596.821 C 1403.14 598.542 1343.5 598.634 1337.54 597.133 L 1338.61 594.842 C 1344.73 593.857 1354.93 594.374 1361.43 594.493 z" fill="rgb(227,160,42)" transform="translate(0,0)"></path>
<path d="M 1179.97 234.047 L 1254.2 233.915 L 1254.34 279 L 1254.35 314.393 C 1230.12 314.82 1204.88 314.474 1180.56 314.49 C 1180.58 302.372 1180.76 289.94 1180.11 277.867 C 1180.92 272.44 1180.56 239.13 1179.97 234.047 z" fill="rgb(138,90,134)" transform="translate(0,0)"></path>
<path d="M 1331.66 598.344 C 1329.82 616.53 1331 658.613 1331.04 678.794 C 1320.91 678.835 1269.59 678.315 1263.16 679.709 L 1263.18 675.513 C 1263.7 663.587 1263.57 646.014 1263.18 634.138 C 1263.96 623.052 1263.65 610.417 1263.62 599.179 C 1276.25 599.101 1321.94 600.338 1331.66 598.344 z" fill="rgb(107,96,81)" transform="translate(0,0)"></path>
<path d="M 1160.52 414.999 C 1163.65 414.883 1167.13 414.844 1170.22 414.549 L 1170.06 491.879 L 1103.57 491.892 C 1102.75 467.841 1103.41 440.379 1103.24 415.892 C 1118.1 415.83 1147.01 416.447 1160.52 414.999 z" fill="rgb(184,58,35)" transform="translate(0,0)"></path>
<path d="M 1575.69 591.352 C 1602.01 591.083 1628.32 591.013 1654.64 591.139 L 1654.53 592.667 L 1652.28 593.155 C 1627.95 592.949 1603.62 592.951 1579.3 593.16 C 1554.35 592.35 1523.52 592.937 1498.54 593.299 C 1492.85 594.218 1491.77 593.834 1487.81 597.998 C 1464.87 598.25 1441.93 598.34 1418.99 598.27 C 1417.44 597.064 1416.49 595.632 1415.24 594.079 L 1414 594.269 C 1397.31 594.846 1378.29 594.473 1361.43 594.493 C 1354.93 594.374 1344.73 593.857 1338.61 594.842 L 1337.54 597.133 C 1338.81 610.274 1337.98 629.937 1338.19 643.52 C 1338.31 650.822 1338.5 671.831 1337.64 678.391 C 1337.85 681.823 1337.24 681.855 1339.04 683.729 C 1363.3 685.343 1391.57 682.79 1414.86 684.127 L 1414.57 686.49 L 1414.21 686.768 C 1403.07 686.829 1346.27 685.404 1338.26 687.616 L 1337.64 688.65 C 1337.99 705.852 1338.1 723.057 1337.97 740.262 C 1337.96 749.756 1338.35 764.492 1337.52 773.551 L 1337.61 776.472 C 1342.13 779.154 1394.93 777.583 1404.68 777.999 L 1398.79 780.103 C 1381.94 780.062 1365.08 780.034 1348.23 779.942 C 1343.42 779.916 1341.43 779.749 1337.91 782.91 L 1338.05 783.948 C 1339.73 797.098 1336.11 864.039 1340.42 869.4 L 1342.75 870.384 C 1339.49 870.673 1339.21 870.805 1336.17 869.841 C 1336.85 861.94 1336.39 846.536 1336.37 838.044 L 1336.46 780.009 L 1267.66 779.802 C 1266.66 779.531 1256.72 779.178 1255.01 779.101 C 1255.74 778.862 1257.37 777.96 1258.03 777.623 C 1259.78 774.599 1260.49 754.877 1261.87 747.92 C 1261.85 755.731 1261.99 764.167 1261.79 771.922 C 1260.65 775.578 1260.29 774.682 1261.51 777.341 C 1267.04 779.342 1326.35 777.982 1336.46 777.915 C 1335.13 753.12 1335.15 709.409 1336.28 684.51 C 1311.29 684.364 1285.3 686 1261.03 685.34 L 1259.16 684.725 L 1259.29 680.294 C 1261.76 678.37 1262.04 678.309 1263.18 675.513 L 1263.16 679.709 C 1264.81 680.095 1268.15 680.492 1269.96 680.759 L 1265.56 681.048 C 1275 684.18 1305.54 681.593 1316.79 682.271 C 1322.98 682.643 1328.96 685.717 1335.33 683.807 C 1335.84 680.366 1335.75 676.957 1335.74 673.489 C 1335.69 649.559 1334.76 625.59 1335.32 601.664 C 1335.66 598.588 1335.69 598.601 1335.18 595.572 C 1331.17 593.125 1270.63 595.124 1260.66 595.153 L 1259.87 594.989 L 1259.69 592.853 C 1277.26 592.065 1321.93 594.192 1336.41 591.933 L 1337.55 591.817 C 1360.97 591.843 1388.68 592.625 1411.72 591.843 L 1413.07 592.13 C 1440.87 590.923 1466.5 591.15 1494.26 591.385 C 1519.45 590.764 1550.52 590.634 1575.69 591.352 z" fill="rgb(241,195,123)" transform="translate(0,0)"></path>
<path d="M 1415.24 594.079 C 1443.5 593.727 1470.05 593.153 1498.54 593.299 C 1492.85 594.218 1491.77 593.834 1487.81 597.998 C 1464.87 598.25 1441.93 598.34 1418.99 598.27 C 1417.44 597.064 1416.49 595.632 1415.24 594.079 z" fill="rgb(227,160,42)" transform="translate(0,0)"></path>
<path d="M 1096.63 228.298 C 1101.63 228.214 1123.5 228.229 1128.02 228.888 L 1126.8 228.986 C 1118.15 229.648 1107.69 228.534 1100.08 229.553 C 1098.94 230.95 1099.2 230.347 1098.71 232.03 C 1098.79 234.799 1099 238.271 1098.93 240.975 C 1097.26 259.381 1098.19 298.632 1098.24 318.476 L 1098.15 321.09 C 1098.13 350.532 1097.83 380.633 1098.26 410.023 C 1124.56 410.857 1147.99 411.626 1174.46 411.535 L 1174.8 413.684 L 1172.67 414.78 L 1170.22 414.549 C 1167.13 414.844 1163.65 414.883 1160.52 414.999 C 1146.63 413.302 1130.13 415.599 1115.98 413.877 C 1109.63 413.105 1104.28 412.485 1097.87 412.535 C 1094.83 402.47 1097.09 333.547 1096.95 319.89 L 1096.28 315.311 C 1094.87 299.187 1095.64 251.62 1096.16 234.651 C 1096.35 234.036 1096.58 229.249 1096.63 228.298 z" fill="rgb(247,177,114)" transform="translate(0,0)"></path>
<path d="M 1176.77 228.203 L 1177.93 228.753 C 1180.34 229.796 1179.1 231.469 1179.97 234.047 C 1180.56 239.13 1180.92 272.44 1180.11 277.867 C 1178.84 281.962 1176.16 303.043 1176.34 302.708 C 1175.66 297.304 1176.06 233.068 1176.77 228.203 z" fill="rgb(207,107,52)" transform="translate(0,0)"></path>
<path d="M 1180.76 592.186 C 1179.09 583.735 1178.71 513.006 1180.18 504.613 L 1253.78 504.833 C 1253.82 529.317 1252.85 562.064 1254.07 585.848 C 1254.71 591.278 1253.6 591.885 1259.32 592.584 C 1240.25 593.065 1198.06 593.872 1180.76 592.186 z" fill="rgb(138,90,134)" transform="translate(0,0)"></path>
<path d="M 1180.76 592.186 C 1179.09 583.735 1178.71 513.006 1180.18 504.613 C 1181.4 512.62 1181.03 525.685 1181.03 534.23 L 1180.98 586.113 L 1254.07 585.848 C 1254.71 591.278 1253.6 591.885 1259.32 592.584 C 1240.25 593.065 1198.06 593.872 1180.76 592.186 z" fill="rgb(207,107,52)" transform="translate(0,0)"></path>
<path d="M 1336.56 319.401 L 1337.24 320.209 L 1337.81 325.101 L 1409.4 324.931 C 1409.14 351.671 1409.04 378.412 1409.07 405.153 L 1337.72 404.997 L 1337.5 407.654 C 1337.33 409.054 1337.15 409.145 1336.6 410.485 L 1336.09 404.937 C 1335.55 389.903 1334.27 331.664 1336.56 319.401 z" fill="rgb(207,107,52)" transform="translate(0,0)"></path>
<path d="M 1336.56 319.401 L 1337.24 320.209 L 1337.81 325.101 C 1337.93 346.671 1339.2 384.844 1337.72 404.997 L 1337.5 407.654 C 1337.33 409.054 1337.15 409.145 1336.6 410.485 L 1336.09 404.937 C 1335.55 389.903 1334.27 331.664 1336.56 319.401 z" fill="rgb(253,248,236)" transform="translate(0,0)"></path>
<path d="M 1180.91 324.906 L 1253.67 324.894 C 1253.94 351.442 1253.99 377.993 1253.83 404.542 C 1230.69 405.335 1204.15 404.687 1180.75 404.664 L 1180.91 324.906 z" fill="rgb(184,58,35)" transform="translate(0,0)"></path>
<path d="M 1340.21 503.627 C 1361.96 502.632 1387.49 503.132 1409.38 503.102 L 1409.34 514.745 C 1409.2 531.493 1407.84 571.946 1409.29 586.855 C 1394.57 588.191 1356.34 587.098 1340.25 587.122 C 1340.36 577.02 1340.27 566.916 1339.97 556.817 C 1340.85 542.008 1340.18 519.047 1340.21 503.627 z" fill="rgb(107,96,81)" transform="translate(0,0)"></path>
<path d="M 1340.51 232.906 L 1409.36 232.924 C 1409.3 243.451 1409.42 253.978 1409.73 264.5 C 1409.37 277.535 1410.3 304.612 1408.94 315.884 C 1398.78 315.803 1388.2 316.726 1378.2 316.647 C 1366.09 316.55 1353.09 315.851 1340.93 315.282 L 1340.51 232.906 z" fill="rgb(107,96,81)" transform="translate(0,0)"></path>
<path d="M 1020.05 326.837 L 1021.14 324.794 C 1026.39 323.864 1039.19 324.241 1044.93 324.247 L 1091.93 324.478 C 1092.06 350.912 1091.96 377.346 1091.63 403.778 C 1068 403.935 1044.37 403.95 1020.74 403.825 C 1020.76 383.216 1021.83 346.232 1020.05 326.837 z" fill="rgb(107,96,81)" transform="translate(0,0)"></path>
<path d="M 1101.29 504.077 C 1124.46 503.929 1147.63 503.993 1170.79 504.269 C 1170.44 531.733 1170.3 559.201 1170.36 586.668 L 1101.25 586.143 C 1101.38 559.06 1101.84 531.089 1101.29 504.077 z" fill="rgb(184,58,35)" transform="translate(0,0)"></path>
<path d="M 1331.96 414.415 L 1334.87 415.23 C 1336.67 419.889 1335.32 423.044 1335.67 427.685 C 1332.48 442.144 1337.92 477.708 1335.32 492.673 C 1333.01 492.77 1333.13 492.828 1330.94 492.114 C 1309.34 491.294 1284.39 491.919 1262.55 491.971 C 1262.64 483.222 1262.56 474.472 1262.3 465.727 C 1263.24 453.667 1262.58 428.118 1262.69 414.991 L 1294.53 414.872 C 1302.32 415.015 1324.7 415.742 1331.96 414.415 z" fill="rgb(107,96,81)" transform="translate(0,0)"></path>
<path d="M 1331.96 414.415 L 1334.87 415.23 C 1336.67 419.889 1335.32 423.044 1335.67 427.685 C 1332.48 442.144 1337.92 477.708 1335.32 492.673 C 1333.01 492.77 1333.13 492.828 1330.94 492.114 C 1332.31 470.967 1329.5 433.427 1331.96 414.415 z" fill="rgb(175,173,80)" transform="translate(0,0)"></path>
<path d="M 1180.17 415.628 C 1204.09 415.269 1229.03 415.671 1253.03 415.704 L 1253.05 492.131 C 1228.85 492.372 1204.14 492.078 1179.89 492.046 L 1180.17 415.628 z" fill="rgb(184,58,35)" transform="translate(0,0)"></path>
<path d="M 1021.02 414.477 L 1091.56 414.3 C 1091.75 440.289 1091.73 466.278 1091.5 492.266 C 1086.16 493.483 1030.23 492.645 1020.71 492.566 L 1021.02 414.477 z" fill="rgb(107,96,81)" transform="translate(0,0)"></path>
<path d="M 1262.96 324.992 L 1331.18 324.954 L 1331.13 404.195 C 1309.32 403.575 1285.14 404.198 1262.91 403.983 L 1262.96 324.992 z" fill="rgb(107,96,81)" transform="translate(0,0)"></path>
<path d="M 1102.83 234.402 C 1117.97 232.939 1153.93 233.966 1170.1 233.977 L 1170.01 314.79 C 1156.6 314.662 1114.22 313.248 1102.44 314.521 C 1103.33 298.402 1103.02 275.674 1102.87 259.354 C 1103.16 250.443 1103.14 243.307 1102.83 234.402 z" fill="rgb(184,58,35)" transform="translate(0,0)"></path>
<path d="M 1103.15 324.884 C 1125.4 324.75 1147.65 324.762 1169.9 324.92 L 1169.84 404.069 C 1148.45 404.66 1124.61 404.097 1103.02 404.05 L 1103.15 324.884 z" fill="rgb(184,58,35)" transform="translate(0,0)"></path>
<path d="M 883.556 509.747 C 889.327 508.03 887.791 507.234 889.949 502.043 C 892.731 495.353 895.399 485.982 902.619 482.996 C 912.968 483.87 912.891 491.803 912.778 500.035 L 912.026 505.523 C 907.855 527.804 899.226 538.79 880.469 551.898 L 870.045 585.195 L 868.035 590.813 L 867.61 593.176 L 866.287 597.031 L 863.897 605.257 L 876.773 619.974 C 877.856 620.814 877.753 620.782 878.373 622.03 C 885.665 630.213 897.971 647.379 902.338 657.312 C 899.993 665.757 898.35 669.672 894.902 677.613 L 891.441 684.157 L 887.865 690.53 C 880.262 701.027 873.777 711.791 864.955 721.415 C 862.96 723.593 860.047 726.788 858.291 729.106 C 856.35 731.42 854.382 733.43 852.422 735.701 C 847.009 741.46 841.673 747.011 836.3 752.885 C 835.053 753.675 821.78 767.065 820.946 768.326 C 819.058 770.131 817.454 771.767 815.666 773.653 C 813.208 775.407 811.814 777.616 809.292 779.824 C 806.867 781.791 805.481 782.958 803.294 785.173 C 799.818 788.256 783.596 802.392 781.722 804.883 L 775.699 809.816 L 769.801 815.037 C 757.167 825.832 744.68 835.569 731.807 845.931 L 731.932 846.698 C 733.084 853.461 733.707 859.073 734.398 865.922 L 736.482 877.913 L 737.329 884.4 C 737.437 885.72 737.219 886.074 737.806 886.857 C 740.374 903.093 742.84 919.345 745.201 935.612 C 745.834 939.88 748.159 956.743 749.343 960.038 L 750.064 965.607 C 752.152 985.169 756.04 1006.78 758.921 1026.51 C 763.12 1055.27 767.025 1086.33 772.428 1114.84 C 762.982 1120.55 754.745 1126.6 745.637 1132.39 C 746.236 1165.04 747.856 1199.71 747.995 1232.03 L 747.893 1235.81 L 748.014 1239.6 L 748.469 1243.21 L 749.254 1270.85 C 733.327 1279.05 722.214 1284.98 705.226 1290.97 C 707.135 1297.18 710.262 1311.1 715.961 1314.25 C 727.201 1320.45 771.584 1314.93 761.299 1338.7 C 757.998 1346.33 743.574 1347.48 736.087 1348.63 C 730.111 1347.81 722.082 1348.25 715.979 1348.67 C 696.661 1349.97 678.019 1349.49 658.726 1348.23 C 657.428 1348.14 633.786 1349.77 633.989 1349.62 L 627.312 1350.88 C 610.501 1348.79 584.495 1351.44 572.281 1339.89 C 568.299 1329.95 575.011 1308.02 577.383 1295.97 C 564.952 1292.71 551.863 1288.71 539.47 1285.1 C 541.961 1271.16 543.724 1257.16 546.332 1243.11 L 546.998 1239.68 L 547.758 1235.48 L 548.291 1232.22 C 548.094 1225.35 549.833 1217.6 550.864 1210.8 C 553.189 1195.49 556.127 1180.02 557.556 1164.59 C 558.065 1159.11 552.338 1164.67 553.244 1154.11 C 554.531 1139.12 570.681 1058.48 565.724 1050.69 C 564.797 1049.23 564.582 1049.48 563.058 1049.04 C 562.388 1049.36 561.717 1049.69 561.047 1050.02 C 558.178 1063.41 561.905 1082.65 551.82 1093.51 C 551.59 1093.75 551.359 1094 551.129 1094.25 C 551.329 1098 552.106 1107.61 551.236 1110.6 C 543.981 1133.94 528.578 1113.69 521.213 1103.37 C 506.498 1082.74 515.841 1058.48 520.901 1034.95 C 510.428 1029.74 499.141 1024.98 488.389 1020.26 C 503.129 960.815 520.676 901.006 551.372 847.65 C 575.297 806.062 598.454 776.342 643.717 757.107 C 638.461 749.662 635.254 744.245 630.751 736.378 C 608.707 732.881 590.835 723.74 590.769 698.434 C 590.685 687.809 594.955 677.612 602.586 670.217 C 610.896 662.133 622.114 657.739 633.704 658.031 C 650.495 658.462 659.442 666.521 670.225 677.712 C 675.637 678.736 681.455 678.941 684.814 682.723 C 685.371 686.441 683.298 689.631 681.633 693.237 C 693.652 711.155 685.155 722.637 670.591 733.64 C 672.072 738.371 674.05 743.608 675.717 748.333 C 687.594 745.221 692.62 742.727 702.995 736.093 C 703.022 723.799 703.517 699.476 702.511 687.89 C 702.491 686.322 702.514 685.392 702.658 683.854 L 702.516 681.529 C 700.76 677.341 701.784 631.326 701.841 624.204 C 702.575 617.434 702.22 602.462 702.231 595.082 C 722.33 595.159 762.248 594.17 780.569 595.803 L 782.023 595.959 C 792.234 595.765 803.151 596.063 813.413 596.114 L 813.948 595.474 L 829.093 568.771 L 836.293 575.237 C 845.861 541.612 832.111 526.508 858.408 497.856 L 860.844 498.934 C 864.598 495.754 873.399 488.985 878.389 489.33 L 878.248 490.932 C 874.145 506.044 870.375 514.257 865.051 528.15 L 865.273 530.635 C 869.369 532.248 871.528 532.271 875.134 530.927 C 878.261 527.435 879.17 522.033 880.452 517.3 L 879.917 516.834 C 880.29 513.822 880.995 511.359 881.744 508.45 L 883.556 509.747 z" fill="rgb(55,24,20)" transform="translate(0,0)"></path>
<path d="M 702.231 595.082 C 722.33 595.159 762.248 594.17 780.569 595.803 L 782.023 595.959 C 782.096 604.464 781.641 614.609 782.181 622.961 C 782.025 629.113 781.08 643.84 783.502 648.773 C 781.798 651.563 780.189 654.323 778.261 656.964 C 773.239 665.037 769.544 670.674 763.81 678.238 L 760.505 682.541 L 759.217 683.97 C 748.221 683.336 712.245 682.6 702.658 683.854 L 702.516 681.529 C 700.76 677.341 701.784 631.326 701.841 624.204 C 702.575 617.434 702.22 602.462 702.231 595.082 z" fill="rgb(184,58,35)" transform="translate(0,0)"></path>
<path d="M 702.231 595.082 C 722.33 595.159 762.248 594.17 780.569 595.803 L 782.023 595.959 C 782.096 604.464 781.641 614.609 782.181 622.961 C 782.025 629.113 781.08 643.84 783.502 648.773 C 781.798 651.563 780.189 654.323 778.261 656.964 C 776.426 653.355 777.327 606.768 777.189 599.367 C 769.025 601.149 719.039 600.216 707.08 600.136 C 707.109 625.02 706.554 652.296 707.22 676.969 C 714.85 677.213 760.305 676.586 763.81 678.238 L 760.505 682.541 L 759.217 683.97 C 748.221 683.336 712.245 682.6 702.658 683.854 L 702.516 681.529 C 700.76 677.341 701.784 631.326 701.841 624.204 C 702.575 617.434 702.22 602.462 702.231 595.082 z" fill="rgb(207,107,52)" transform="translate(0,0)"></path>
<path d="M 702.516 681.529 C 709.384 681.241 757.144 680.343 760.505 682.541 L 759.217 683.97 C 748.221 683.336 712.245 682.6 702.658 683.854 L 702.516 681.529 z" fill="rgb(247,177,114)" transform="translate(0,0)"></path>
<path d="M 860.844 498.934 C 864.598 495.754 873.399 488.985 878.389 489.33 L 878.248 490.932 C 874.145 506.044 870.375 514.257 865.051 528.15 L 865.273 530.635 C 869.369 532.248 871.528 532.271 875.134 530.927 C 878.261 527.435 879.17 522.033 880.452 517.3 L 882.615 513.485 C 897.684 505.128 889.554 501.149 897.855 489.22 C 909.407 496.236 903.935 517.131 898.088 526.802 C 891.241 538.127 875.928 543.158 871.429 556.516 C 866.587 570.557 862.931 585.333 859.082 599.697 C 852.231 592.478 845.431 585.211 838.683 577.897 C 848.377 540.723 834.287 528.646 860.844 498.934 z" fill="rgb(207,107,52)" transform="translate(0,0)"></path>
<path d="M 862.825 528.817 C 864.929 520.495 872.726 498.829 876.553 490.577 C 877.118 490.695 877.683 490.814 878.248 490.932 C 874.145 506.044 870.375 514.257 865.051 528.15 L 862.825 528.817 z" fill="rgb(253,248,236)" transform="translate(0,0)"></path>
<path d="M 862.825 528.817 L 865.051 528.15 L 865.273 530.635 C 864.526 542.656 860.117 536.144 862.825 528.817 z" fill="rgb(249,121,100)" transform="translate(0,0)"></path>
<path d="M 702.658 683.854 C 712.245 682.6 748.221 683.336 759.217 683.97 C 757.73 686.357 757.083 687.395 755.016 689.37 C 740.832 707.482 728.316 719.203 709.351 732.015 C 707.462 733.645 705.208 734.952 702.995 736.093 C 703.022 723.799 703.517 699.476 702.511 687.89 C 702.491 686.322 702.514 685.392 702.658 683.854 z" fill="rgb(253,248,236)" transform="translate(0,0)"></path>
<path d="M 702.658 683.854 C 712.245 682.6 748.221 683.336 759.217 683.97 C 757.73 686.357 757.083 687.395 755.016 689.37 C 740.323 688.588 724.059 689.829 709.738 688.662 C 708.679 691.891 708.973 727.314 709.351 732.015 C 707.462 733.645 705.208 734.952 702.995 736.093 C 703.022 723.799 703.517 699.476 702.511 687.89 C 702.491 686.322 702.514 685.392 702.658 683.854 z" fill="rgb(227,160,42)" transform="translate(0,0)"></path>
<path d="M 782.023 595.959 C 792.234 595.765 803.151 596.063 813.413 596.114 C 812.244 598.116 811.229 600.197 809.738 601.987 C 803.887 612.926 797.769 624.588 791.276 635.119 C 789.889 638.492 787.578 641.961 785.528 644.981 C 784.882 646.43 784.29 647.41 783.502 648.773 C 781.08 643.84 782.025 629.113 782.181 622.961 C 781.641 614.609 782.096 604.464 782.023 595.959 z" fill="rgb(227,160,42)" transform="translate(0,0)"></path>
<path d="M 790.239 601.204 C 795.523 601.238 804.976 600.801 809.738 601.987 C 803.887 612.926 797.769 624.588 791.276 635.119 C 789.291 630.563 790.202 607.593 790.239 601.204 z" fill="rgb(253,248,236)" transform="translate(0,0)"></path>
<path d="M 897.855 489.22 C 901.191 487.462 902.04 486.625 905.62 486.839 C 907.554 487.946 909.476 488.885 909.79 491.357 C 913.258 518.7 897.501 535.776 879.049 550.05 C 876.513 557.621 864.943 598.38 862.005 601.558 L 859.082 599.697 C 862.931 585.333 866.587 570.557 871.429 556.516 C 875.928 543.158 891.241 538.127 898.088 526.802 C 903.935 517.131 909.407 496.236 897.855 489.22 z" fill="rgb(253,248,236)" transform="translate(0,0)"></path>
<path d="M 828.966 574.063 C 829.773 574.112 830.581 574.16 831.389 574.209 C 853.416 596.696 875.631 620.069 892.996 646.433 C 895.389 650.065 897.828 653.861 899.66 657.707 C 885.553 708.806 815.243 771.392 775.489 806.457 C 772.536 809.929 770.788 811.222 767.309 814.002 C 761.683 819.489 722.975 849.694 722.371 850.964 C 723.98 852.163 723.572 851.995 725.398 852.774 L 728.649 849.028 L 729.751 849.051 C 731.688 863.029 733.728 876.993 735.872 890.941 C 740.35 918.968 740.754 918.155 736.049 946.272 C 730.581 977.495 722.595 1008.76 710.792 1038.46 C 708.199 1044.98 696.391 1059.02 694.794 1064.72 L 695.62 1065.46 C 717.58 1044.73 731.033 982.679 737.848 953.869 L 739.31 942.681 C 739.987 937.922 740.635 932.46 741.636 927.821 C 742.426 933.282 743.321 938.915 744 944.373 C 749.432 978.184 754.511 1012.05 759.237 1045.97 C 761.947 1065.3 765.246 1094.7 769.537 1112.91 C 764.667 1116.38 754.371 1124.15 749.656 1126.91 C 739.952 1132.81 731.243 1137.97 721.239 1143.32 C 717.075 1147.45 701.002 1152.73 694.624 1155.34 C 646.46 1175.04 604.243 1169.19 554.864 1159.4 C 556.306 1154.36 557.979 1140.15 558.819 1134.2 L 565.766 1085.62 L 590.979 917.117 L 600.429 854.734 C 601.488 847.414 603.85 840.991 603.562 833.574 L 602.35 832.549 C 601.189 833.904 589.222 914.186 588.088 922.664 C 561.611 905.425 564.04 881.006 559.211 877.062 L 558.498 877.633 C 558.497 878.736 558.468 880.273 558.768 881.329 C 564.896 902.885 569.504 912.57 587.317 925.027 C 581.623 966.582 575.367 1008.06 568.55 1049.44 C 537.854 1038.85 522.463 1032.74 492.206 1019.41 C 491.235 1018.98 491.561 1019.1 491.319 1018.13 C 507.179 958.925 521.906 903.061 553.031 849.366 C 575.564 810.496 600.387 777.16 643.644 759.802 C 657.969 754.054 667.002 753.411 679.483 749.37 C 752.449 725.747 794.048 635.301 828.966 574.063 z" fill="rgb(207,107,52)" transform="translate(0,0)"></path>
<path d="M 741.636 927.821 C 742.426 933.282 743.321 938.915 744 944.373 C 749.432 978.184 754.511 1012.05 759.237 1045.97 C 761.947 1065.3 765.246 1094.7 769.537 1112.91 C 764.667 1116.38 754.371 1124.15 749.656 1126.91 C 739.952 1132.81 731.243 1137.97 721.239 1143.32 C 722.885 1140.87 742.974 1127.85 748.011 1123.89 C 753.047 1120.25 756.276 1117.38 760.91 1113.19 C 756.2 1092.09 752.891 1064.05 749.855 1042.34 C 745.808 1013.41 740.953 982.816 737.848 953.869 L 739.31 942.681 C 739.987 937.922 740.635 932.46 741.636 927.821 z" fill="rgb(253,248,236)" transform="translate(0,0)"></path>
<path d="M 828.966 574.063 C 829.773 574.112 830.581 574.16 831.389 574.209 C 853.416 596.696 875.631 620.069 892.996 646.433 C 895.389 650.065 897.828 653.861 899.66 657.707 C 885.553 708.806 815.243 771.392 775.489 806.457 L 777.142 802.498 C 777.343 802.4 777.544 802.301 777.744 802.203 C 814.662 768.018 879.922 708.802 893.202 661.826 C 886.149 644.976 867.359 622.229 855.809 607.622 C 849.501 599.646 831.878 582.278 828.966 574.063 z" fill="rgb(253,248,236)" transform="translate(0,0)"></path>
<path d="M 725.398 852.774 L 728.649 849.028 L 729.751 849.051 C 731.688 863.029 733.728 876.993 735.872 890.941 C 740.35 918.968 740.754 918.155 736.049 946.272 C 731.658 934.147 731.524 909.551 728.571 896.034 C 726.006 884.294 724.675 870.423 723.017 858.453 C 722.71 856.235 724.246 854.555 725.398 852.774 z" fill="rgb(253,248,236)" transform="translate(0,0)"></path>
<path d="M 707.585 896.705 C 709.928 908.627 690.567 956.987 681.981 966.956 C 681.118 962.585 686.697 956.111 688.932 951.328 C 693.575 941.446 697.404 931.202 700.38 920.697 C 702.437 913.576 704.366 902.542 707.585 896.705 z" fill="rgb(55,24,20)" transform="translate(0,0)"></path>
<path d="M 734.886 1139.34 L 742.984 1134.08 L 745.477 1222.46 C 745.736 1230.15 747.39 1264.52 746.422 1269.01 C 743.676 1271.07 742.913 1271.39 739.738 1272.73 C 710.917 1290.86 673.382 1298.16 639.791 1299.41 C 636.412 1300.95 624.723 1299.88 620.693 1299.11 C 601.396 1298.63 559.362 1291.09 542.213 1282.54 C 543.653 1276.2 548.878 1235.73 551.122 1232.43 C 551.949 1210.81 557.256 1184.38 560.958 1162.53 C 580.169 1168.22 601.263 1170.55 621.276 1170.8 C 629.755 1170.9 637.031 1169.92 645.763 1170.38 C 671.102 1165.64 696.171 1159.67 718.93 1147.28 C 723.824 1144.62 728.796 1141.89 733.935 1139.74 L 734.886 1139.34 z" fill="rgb(107,96,81)" transform="translate(0,0)"></path>
<path d="M 560.958 1162.53 C 580.169 1168.22 601.263 1170.55 621.276 1170.8 C 629.755 1170.9 637.031 1169.92 645.763 1170.38 L 551.122 1232.43 C 551.949 1210.81 557.256 1184.38 560.958 1162.53 z" fill="rgb(62,72,38)" transform="translate(0,0)"></path>
<path d="M 734.886 1139.34 L 742.984 1134.08 L 745.477 1222.46 C 745.736 1230.15 747.39 1264.52 746.422 1269.01 C 743.676 1271.07 742.913 1271.39 739.738 1272.73 C 738.313 1270.1 735.125 1152 734.886 1139.34 z" fill="rgb(253,248,236)" transform="translate(0,0)"></path>
<path d="M 632.311 734.112 C 624.378 733.062 618.649 732.435 611.48 728.753 C 588.585 716.995 586.562 684.014 607.486 669.226 C 613.539 664.947 617.058 663.311 624.255 661.281 C 647.419 659.779 653.406 664.174 669.159 680.259 C 673.15 681.253 678.255 682.396 682.101 683.6 C 681.053 686.965 679.833 690.603 678.9 693.97 C 691.329 711.773 682.58 721.156 668.51 732.845 C 668.939 737.94 672.611 744.777 671.679 747.884 C 669.087 750.462 666.545 750.568 662.883 751.379 L 647.352 756.193 C 639.975 748.397 636.812 743.704 632.311 734.112 z" fill="rgb(207,107,52)" transform="translate(0,0)"></path>
<path d="M 624.255 661.281 C 647.419 659.779 653.406 664.174 669.159 680.259 C 673.15 681.253 678.255 682.396 682.101 683.6 C 681.053 686.965 679.833 690.603 678.9 693.97 C 691.329 711.773 682.58 721.156 668.51 732.845 C 668.939 737.94 672.611 744.777 671.679 747.884 C 669.087 750.462 666.545 750.568 662.883 751.379 C 664.351 744.286 665.181 739.565 667.866 732.755 C 675.652 701.058 663.659 685.123 636.288 666.96 C 632.912 664.72 625.79 664.204 624.255 661.281 z" fill="rgb(253,248,236)" transform="translate(0,0)"></path>
<path d="M 661.399 1300.05 C 665.531 1299.48 669.42 1298.99 673.524 1298.26 L 678.522 1297.33 C 681.016 1296.9 683.48 1296.34 685.968 1295.87 L 689.974 1294.95 C 695.001 1293.77 702.915 1289.36 704.091 1294.97 L 704.662 1297.76 C 705.697 1304.07 708.381 1309.39 711.636 1314.82 C 724.469 1321.06 731.974 1319.74 745.494 1322.02 C 757.377 1324.03 766.186 1331.98 755.149 1342 C 739.797 1347.66 684.608 1348.18 666.575 1345.86 C 662.032 1345.28 659.504 1340.29 657.263 1336.54 C 657.757 1329.44 660.098 1320.78 661.087 1313.23 C 661.191 1308.74 661.117 1304.53 661.399 1300.05 z" fill="rgb(227,160,42)" transform="translate(0,0)"></path>
<path d="M 699.097 1297.77 L 704.662 1297.76 C 705.697 1304.07 708.381 1309.39 711.636 1314.82 C 724.469 1321.06 731.974 1319.74 745.494 1322.02 C 757.377 1324.03 766.186 1331.98 755.149 1342 C 754.121 1339.32 754.332 1339.19 753.945 1337 C 749.048 1318.66 718.555 1327.47 705.616 1317.77 C 702.252 1315.24 695.442 1301.21 698.401 1298.45 L 699.097 1297.77 z" fill="rgb(253,248,236)" transform="translate(0,0)"></path>
<path d="M 661.399 1300.05 C 665.531 1299.48 669.42 1298.99 673.524 1298.26 L 678.522 1297.33 C 681.016 1296.9 683.48 1296.34 685.968 1295.87 L 689.974 1294.95 C 695.001 1293.77 702.915 1289.36 704.091 1294.97 L 704.662 1297.76 L 699.097 1297.77 C 687.329 1300.86 675.496 1304.29 663.485 1306.87 C 661.912 1307.2 661.51 1311.58 661.087 1313.23 C 661.191 1308.74 661.117 1304.53 661.399 1300.05 z" fill="rgb(207,107,52)" transform="translate(0,0)"></path>
<path d="M 578.415 1303.86 C 578.86 1296.59 578.489 1295.36 585.292 1297.16 C 594.012 1299.47 605.881 1299.77 614.387 1301.89 C 620.772 1301.9 621.165 1305.12 624.127 1311.4 C 628.289 1320.22 653.781 1321.16 656.045 1323.44 C 656.324 1324.65 655.987 1325.86 655.828 1327.12 C 655.247 1336.3 655.317 1337.74 660.161 1345.45 C 636.134 1347.73 617.218 1348.24 593.088 1345.53 C 563.15 1342.16 574.424 1325.62 578.415 1303.86 z" fill="rgb(227,160,42)" transform="translate(0,0)"></path>
<path d="M 614.387 1301.89 C 620.772 1301.9 621.165 1305.12 624.127 1311.4 C 628.289 1320.22 653.781 1321.16 656.045 1323.44 C 656.324 1324.65 655.987 1325.86 655.828 1327.12 C 652.492 1327.88 651.267 1326.84 647.983 1326.11 C 633.211 1322.84 615.006 1321.36 612.694 1302.87 L 614.387 1301.89 z" fill="rgb(253,248,236)" transform="translate(0,0)"></path>
<path d="M 578.415 1303.86 C 578.86 1296.59 578.489 1295.36 585.292 1297.16 C 594.012 1299.47 605.881 1299.77 614.387 1301.89 L 612.694 1302.87 C 607.579 1301.44 582.064 1301.14 578.415 1303.86 z" fill="rgb(207,107,52)" transform="translate(0,0)"></path>
<path d="M 523.588 1035.79 C 530.15 1038.41 545.655 1044.85 552.098 1045.81 C 552.982 1046.18 557.73 1047.86 557.713 1048.99 C 557.569 1058.85 558.612 1077.14 553.713 1085.97 C 548.272 1095.77 543.277 1083.03 542.114 1079.01 L 540.41 1078.29 C 539.752 1080.8 540.708 1083.47 541.331 1086.08 C 544.206 1089.49 545.7 1090.87 548.885 1094 C 548.968 1103.47 551.818 1116.77 540.785 1118.82 C 540.172 1118.94 539.56 1119.06 538.951 1119.2 C 533.872 1116.46 529.202 1109.82 525.566 1105.16 C 525.039 1104.58 525.042 1104.59 524.703 1103.88 C 524.095 1102.95 523.499 1102.01 522.916 1101.06 C 509.432 1079.13 517.656 1060.28 523.588 1035.79 z" fill="rgb(207,107,52)" transform="translate(0,0)"></path>
<path d="M 542.114 1079.01 C 553.929 1072.33 546.051 1051.66 552.098 1045.81 C 552.982 1046.18 557.73 1047.86 557.713 1048.99 C 557.569 1058.85 558.612 1077.14 553.713 1085.97 C 548.272 1095.77 543.277 1083.03 542.114 1079.01 z" fill="rgb(253,248,236)" transform="translate(0,0)"></path>
<path d="M 541.331 1086.08 C 544.206 1089.49 545.7 1090.87 548.885 1094 C 548.968 1103.47 551.818 1116.77 540.785 1118.82 C 540.172 1118.94 539.56 1119.06 538.951 1119.2 C 541.072 1108.96 538.663 1094.38 541.331 1086.08 z" fill="rgb(253,248,236)" transform="translate(0,0)"></path>
<path d="M 648.383 1301.42 C 651.8 1300.98 655.751 1300.96 659.232 1300.84 C 659.066 1308.23 658.842 1313.04 657.65 1320.3 C 651.151 1319.64 644.018 1318.72 637.743 1316.96 L 636.17 1316.39 C 627.105 1313.05 625.159 1310.06 621.348 1301.87 C 631.09 1302.09 638.654 1302.31 648.383 1301.42 z" fill="rgb(253,248,236)" transform="translate(0,0)"></path>
<path d="M 0 1243.05 L 368.379 1243.16 L 485.666 1243.09 C 504.651 1243.07 527.621 1242.45 546.332 1243.11 C 543.724 1257.16 541.961 1271.16 539.47 1285.1 C 551.863 1288.71 564.952 1292.71 577.383 1295.97 C 575.011 1308.02 568.299 1329.95 572.281 1339.89 C 584.495 1351.44 610.501 1348.79 627.312 1350.88 L 633.989 1349.62 C 633.786 1349.77 657.428 1348.14 658.726 1348.23 C 678.019 1349.49 696.661 1349.97 715.979 1348.67 C 722.082 1348.25 730.111 1347.81 736.087 1348.63 L 596.038 1440.09 C 562.392 1461.88 523.562 1485.81 491.299 1509 L 179.818 1509 L 0 1509 L 0 1243.05 z" fill="rgb(253,248,236)" transform="translate(0,0)"></path>
<path d="M 572.281 1339.89 C 584.495 1351.44 610.501 1348.79 627.312 1350.88 L 633.989 1349.62 C 633.786 1349.77 657.428 1348.14 658.726 1348.23 C 678.019 1349.49 696.661 1349.97 715.979 1348.67 C 722.082 1348.25 730.111 1347.81 736.087 1348.63 L 596.038 1440.09 C 562.392 1461.88 523.562 1485.81 491.299 1509 L 179.818 1509 C 184.711 1505.79 205.671 1497.26 211.893 1494.64 L 277.106 1467.18 L 443.645 1395.75 C 483.895 1378.71 533.469 1358.79 572.281 1339.89 z" fill="rgb(107,96,81)" transform="translate(0,0)"></path>
<path d="M 627.312 1350.88 L 633.989 1349.62 C 629.796 1353.49 545.214 1391.39 541.564 1391.49 C 550.187 1384.29 561.277 1381.59 571.794 1376.72 C 590.251 1368 608.757 1359.39 627.312 1350.88 z" fill="rgb(253,248,236)" transform="translate(0,0)"></path>
<path d="M 912.778 500.035 L 932.132 500.119 L 1013.17 500.008 C 1013.1 530.392 1013.44 560.776 1014.18 591.151 L 1015.02 591.433 C 1016.56 607.064 1014.41 677.442 1016.69 685.012 C 1042.37 684.108 1071.2 685.373 1097.49 684.987 C 1122.66 684.997 1151.21 684.347 1176.11 685.275 L 1178.81 685.255 C 1204.33 685.869 1233.04 686.456 1258.46 685.563 L 1259.16 684.725 L 1261.03 685.34 C 1285.3 686 1311.29 684.364 1336.28 684.51 C 1335.15 709.409 1335.13 753.12 1336.46 777.915 C 1326.35 777.982 1267.04 779.342 1261.51 777.341 C 1260.29 774.682 1260.65 775.578 1261.79 771.922 C 1261.99 764.167 1261.85 755.731 1261.87 747.92 C 1260.49 754.877 1259.78 774.599 1258.03 777.623 C 1257.37 777.96 1255.74 778.862 1255.01 779.101 C 1237.9 778.635 1220.44 778.99 1203.25 778.724 C 1194.56 778.732 1185.88 778.872 1177.2 779.145 L 1176.35 778.899 L 1175.44 779.505 L 1172.86 779.907 L 1098.44 780.155 L 1098.89 784.013 L 1097.63 784.968 C 1096.9 798.701 1102.3 863.618 1095.89 870.217 C 1084.56 874.083 1022.49 869.173 1015.56 872.28 C 1014.2 895.006 1014.27 936.576 1015.28 960.001 L 1015.61 965.351 L 1013.43 964.669 C 988.733 965.636 957.807 964.793 932.608 964.789 C 906.472 964.708 879.364 965.269 853.323 964.512 C 831.951 964.264 810.375 964.038 789.011 964.367 C 775.849 964.57 763.373 965.881 750.064 965.607 L 749.343 960.038 C 748.159 956.743 745.834 939.88 745.201 935.612 C 742.84 919.345 740.374 903.093 737.806 886.857 C 737.219 886.074 737.437 885.72 737.329 884.4 L 736.482 877.913 L 734.398 865.922 C 733.707 859.073 733.084 853.461 731.932 846.698 L 731.807 845.931 C 744.68 835.569 757.167 825.832 769.801 815.037 L 775.699 809.816 L 781.722 804.883 C 783.596 802.392 799.818 788.256 803.294 785.173 C 805.481 782.958 806.867 781.791 809.292 779.824 C 811.814 777.616 813.208 775.407 815.666 773.653 C 817.454 771.767 819.058 770.131 820.946 768.326 C 821.78 767.065 835.053 753.675 836.3 752.885 C 841.673 747.011 847.009 741.46 852.422 735.701 C 854.382 733.43 856.35 731.42 858.291 729.106 C 860.047 726.788 862.96 723.593 864.955 721.415 C 873.777 711.791 880.262 701.027 887.865 690.53 L 891.441 684.157 L 894.902 677.613 C 898.35 669.672 899.993 665.757 902.338 657.312 C 897.971 647.379 885.665 630.213 878.373 622.03 C 877.753 620.782 877.856 620.814 876.773 619.974 L 863.897 605.257 L 866.287 597.031 L 867.61 593.176 L 868.035 590.813 L 870.045 585.195 L 880.469 551.898 C 899.226 538.79 907.855 527.804 912.026 505.523 L 912.778 500.035 z" fill="rgb(227,160,42)" transform="translate(0,0)"></path>
<path d="M 809.292 779.824 C 812.284 780.99 845.87 780.27 851.034 779.891 L 852.008 780.175 L 852.757 779.963 C 880.916 781.335 915.381 780.038 944.071 779.975 L 1098.44 780.155 L 1098.89 784.013 L 1097.63 784.968 C 1096.9 798.701 1102.3 863.618 1095.89 870.217 C 1084.56 874.083 1022.49 869.173 1015.56 872.28 C 1014.2 895.006 1014.27 936.576 1015.28 960.001 L 1015.61 965.351 L 1013.43 964.669 C 988.733 965.636 957.807 964.793 932.608 964.789 C 906.472 964.708 879.364 965.269 853.323 964.512 C 831.951 964.264 810.375 964.038 789.011 964.367 C 775.849 964.57 763.373 965.881 750.064 965.607 L 749.343 960.038 C 748.159 956.743 745.834 939.88 745.201 935.612 C 742.84 919.345 740.374 903.093 737.806 886.857 C 737.219 886.074 737.437 885.72 737.329 884.4 L 736.482 877.913 L 734.398 865.922 C 733.707 859.073 733.084 853.461 731.932 846.698 L 731.807 845.931 C 744.68 835.569 757.167 825.832 769.801 815.037 L 775.699 809.816 L 781.722 804.883 C 783.596 802.392 799.818 788.256 803.294 785.173 C 805.481 782.958 806.867 781.791 809.292 779.824 z" fill="rgb(207,107,52)" transform="translate(0,0)"></path>
<path d="M 809.292 779.824 C 812.284 780.99 845.87 780.27 851.034 779.891 L 852.008 780.175 C 850.077 805.43 849.99 847.839 853.377 872.379 L 853.926 872.936 C 859.199 872.222 931.079 872.105 932.385 873.032 C 934.562 894.084 932.84 919.205 933.519 940.566 C 933.738 947.431 933.237 957.987 933.968 964.493 L 932.608 964.789 C 906.472 964.708 879.364 965.269 853.323 964.512 C 831.951 964.264 810.375 964.038 789.011 964.367 C 775.849 964.57 763.373 965.881 750.064 965.607 L 749.343 960.038 C 748.159 956.743 745.834 939.88 745.201 935.612 C 742.84 919.345 740.374 903.093 737.806 886.857 C 737.219 886.074 737.437 885.72 737.329 884.4 L 736.482 877.913 L 734.398 865.922 C 733.707 859.073 733.084 853.461 731.932 846.698 L 731.807 845.931 C 744.68 835.569 757.167 825.832 769.801 815.037 L 775.699 809.816 L 781.722 804.883 C 783.596 802.392 799.818 788.256 803.294 785.173 C 805.481 782.958 806.867 781.791 809.292 779.824 z" fill="rgb(227,160,42)" transform="translate(0,0)"></path>
<path d="M 803.294 785.173 C 813.605 785.035 840.8 784.059 850 785.137 C 849.333 812.033 849.629 839.925 849.578 866.896 C 840.698 866.915 784.24 867.99 780.624 865.372 C 782.123 852.362 781.467 819.845 781.722 804.883 C 783.596 802.392 799.818 788.256 803.294 785.173 z" fill="rgb(107,96,81)" transform="translate(0,0)"></path>
<path d="M 736.482 877.913 C 742.56 877.827 768.648 876.838 771.988 878.894 L 772.5 880.794 C 771.428 905.68 772.082 934.625 772.058 959.81 L 749.343 960.038 C 748.159 956.743 745.834 939.88 745.201 935.612 C 742.84 919.345 740.374 903.093 737.806 886.857 C 737.219 886.074 737.437 885.72 737.329 884.4 L 736.482 877.913 z" fill="rgb(107,96,81)" transform="translate(0,0)"></path>
<path d="M 769.801 815.037 C 772.012 819.179 771.675 858.815 771.714 866.028 C 763.04 866.083 742.497 866.69 734.398 865.922 C 733.707 859.073 733.084 853.461 731.932 846.698 L 731.807 845.931 C 744.68 835.569 757.167 825.832 769.801 815.037 z" fill="rgb(253,248,236)" transform="translate(0,0)"></path>
<path d="M 859.391 878.403 C 881.38 878.349 905.444 877.853 927.254 878.729 C 926.746 901.24 928.804 937.977 926.799 959.005 L 859.023 959.085 L 859.391 878.403 z" fill="rgb(184,58,35)" transform="translate(0,0)"></path>
<path d="M 1014.2 873.673 L 1015.56 872.28 C 1014.2 895.006 1014.27 936.576 1015.28 960.001 L 1015.61 965.351 L 1013.43 964.669 C 1014.25 960.18 1013.53 942.122 1013.59 936.218 C 1013.83 915.531 1013.1 894.356 1014.2 873.673 z" fill="rgb(250,169,126)" transform="translate(0,0)"></path>
<path d="M 1021.04 784.393 C 1045.13 784.26 1069.21 784.371 1093.29 784.724 C 1093.84 812.011 1093.55 839.803 1093.8 867.186 C 1069.67 867.386 1045.13 867.097 1020.97 867.044 L 1021.04 784.393 z" fill="rgb(184,58,35)" transform="translate(0,0)"></path>
<path d="M 937.869 784.837 L 1010.35 784.873 L 1010.1 866.971 C 986.1 867.235 961.68 867.006 937.642 867.011 C 937.469 839.62 937.545 812.227 937.869 784.837 z" fill="rgb(184,58,35)" transform="translate(0,0)"></path>
<path d="M 936.701 877.738 C 958.194 878.978 987.244 878.087 1009.4 878.106 C 1009.6 904.8 1009.58 931.495 1009.34 958.188 C 992.878 959.981 955.263 958.705 937.439 958.92 L 937.437 908.104 C 937.457 901.406 937.831 883.43 936.701 877.738 z" fill="rgb(138,90,134)" transform="translate(0,0)"></path>
<path d="M 859.655 784.4 C 880.257 785.366 906.28 784.729 927.305 784.812 L 927.087 866.637 L 859.232 866.756 L 859.655 784.4 z" fill="rgb(138,90,134)" transform="translate(0,0)"></path>
<path d="M 867.61 593.176 C 907.971 593.584 950.251 591.942 990.266 593.308 L 1014.05 593.34 C 1013.68 616.635 1013.52 639.934 1013.58 663.232 L 1013.84 683.047 L 891.441 684.157 L 894.902 677.613 C 898.35 669.672 899.993 665.757 902.338 657.312 C 897.971 647.379 885.665 630.213 878.373 622.03 C 877.753 620.782 877.856 620.814 876.773 619.974 L 863.897 605.257 L 866.287 597.031 L 867.61 593.176 z" fill="rgb(207,107,52)" transform="translate(0,0)"></path>
<path d="M 863.897 605.257 L 866.287 597.031 C 871.356 599.065 920.077 598.014 928.308 597.951 L 928.09 677.904 C 917.701 677.862 905.111 678.137 894.902 677.613 C 898.35 669.672 899.993 665.757 902.338 657.312 C 897.971 647.379 885.665 630.213 878.373 622.03 C 877.753 620.782 877.856 620.814 876.773 619.974 L 863.897 605.257 z" fill="rgb(184,58,35)" transform="translate(0,0)"></path>
<path d="M 939.199 597.31 C 954.125 599.026 992.069 598.087 1008.07 598.08 C 1008.03 609.232 1007.3 671.548 1008.71 677.747 C 985.892 678.088 962.583 677.888 939.722 677.925 C 939.102 651.118 940.09 623.858 939.199 597.31 z" fill="rgb(138,90,134)" transform="translate(0,0)"></path>
<path d="M 1179.2 690.76 C 1203.46 690.293 1227.84 690.631 1252.14 690.377 C 1252.14 714.852 1251.61 742.167 1252.73 766.379 L 1252.52 771.686 L 1253.38 775.647 C 1247.4 781.649 1208.92 774.697 1203.25 778.724 C 1194.56 778.732 1185.88 778.872 1177.2 779.145 L 1178.2 771.368 L 1179.01 771.309 C 1180.18 747.967 1179.19 714.964 1179.2 690.76 z" fill="rgb(107,96,81)" transform="translate(0,0)"></path>
<path d="M 1179.01 771.309 C 1187.06 772.825 1242.43 772.727 1252.52 771.686 L 1253.38 775.647 C 1247.4 781.649 1208.92 774.697 1203.25 778.724 C 1194.56 778.732 1185.88 778.872 1177.2 779.145 L 1178.2 771.368 L 1179.01 771.309 z" fill="rgb(175,173,80)" transform="translate(0,0)"></path>
<path d="M 1262.32 690.165 L 1331.23 690.095 L 1331.2 772.411 C 1311.16 772.338 1280.99 773.196 1261.79 771.922 C 1261.99 764.167 1261.85 755.731 1261.87 747.92 C 1262.79 738.658 1262.29 721.317 1261.98 711.625 C 1262.17 704.473 1262.29 697.32 1262.32 690.165 z" fill="rgb(107,96,81)" transform="translate(0,0)"></path>
<path d="M 887.865 690.53 C 900.626 689.689 914.35 690 927.211 690.056 L 927.31 714.295 C 926.804 733.325 927.129 753.042 927.126 772.137 L 858.745 772.079 C 858.819 760.836 859.483 742.869 858.642 732.146 C 858.512 731.113 858.386 730.145 858.291 729.106 C 860.047 726.788 862.96 723.593 864.955 721.415 C 873.777 711.791 880.262 701.027 887.865 690.53 z" fill="rgb(107,96,81)" transform="translate(0,0)"></path>
<path d="M 912.026 505.523 L 927.761 505.169 L 928.203 585.93 C 909.106 585.85 889.019 586.065 870.045 585.195 L 880.469 551.898 C 899.226 538.79 907.855 527.804 912.026 505.523 z" fill="rgb(184,58,35)" transform="translate(0,0)"></path>
<path d="M 912.778 500.035 L 932.132 500.119 C 935.487 511.258 934.775 575.746 934.306 590.337 C 927.03 592.069 879.632 590.45 868.035 590.813 L 870.045 585.195 C 889.019 586.065 909.106 585.85 928.203 585.93 L 927.761 505.169 L 912.026 505.523 L 912.778 500.035 z" fill="rgb(207,107,52)" transform="translate(0,0)"></path>
<path d="M 852.422 735.701 C 852.515 748.2 852.502 760.7 852.382 773.198 C 840.261 773.216 827.742 773.07 815.666 773.653 C 817.454 771.767 819.058 770.131 820.946 768.326 C 821.78 767.065 835.053 753.675 836.3 752.885 C 841.673 747.011 847.009 741.46 852.422 735.701 z" fill="rgb(107,96,81)" transform="translate(0,0)"></path>
<path d="M 836.3 752.885 C 835.384 755.09 823.049 767.46 820.946 768.326 C 821.78 767.065 835.053 753.675 836.3 752.885 z" fill="rgb(62,72,38)" transform="translate(0,0)"></path>
<path d="M 1097.49 684.987 C 1122.66 684.997 1151.21 684.347 1176.11 685.275 C 1171.09 688.606 1107.76 687.098 1097.68 686.852 C 1097.47 709.064 1098.34 737.044 1097.46 758.668 C 1098.11 741.163 1090.64 725.266 1095.29 705.203 L 1094.75 709.459 C 1097.61 700.394 1097.43 694.498 1097.49 684.987 z" fill="rgb(241,195,123)" transform="translate(0,0)"></path>
<path d="M 858.291 729.106 C 858.386 730.145 858.512 731.113 858.642 732.146 C 856.653 732.566 853.851 736.087 853.218 737.594 C 854.266 750.348 853.964 761.371 854.016 774.105 L 853.109 774.043 C 849.808 773.796 830.169 772.605 828.152 775.449 C 828.889 777.081 858.007 777.059 860.735 777.846 C 854.164 778.254 857.805 778.735 852.757 779.963 L 852.008 780.175 L 851.034 779.891 C 845.87 780.27 812.284 780.99 809.292 779.824 C 811.814 777.616 813.208 775.407 815.666 773.653 C 827.742 773.07 840.261 773.216 852.382 773.198 C 852.502 760.7 852.515 748.2 852.422 735.701 C 854.382 733.43 856.35 731.42 858.291 729.106 z" fill="rgb(241,195,123)" transform="translate(0,0)"></path>
<path d="M 1097.17 778.036 C 1108.59 777.989 1169.2 776.517 1176.35 778.899 L 1175.44 779.505 L 1172.86 779.907 L 1098.44 780.155 L 1097.17 778.036 z" fill="rgb(241,195,123)" transform="translate(0,0)"></path>
<path d="M 932.51 685.979 C 958.593 685.932 990.61 684.891 1016.06 685.667 L 1016.02 778.117 C 1004.06 777.441 939.095 779.543 933.433 776.632 C 931.961 769.414 932.426 751.801 932.431 743.775 L 932.51 685.979 z" fill="rgb(207,107,52)" transform="translate(0,0)"></path>
<path d="M 936.807 690.99 L 1010.16 690.64 L 1010.05 773.061 L 936.958 772.615 C 936.749 745.407 936.698 718.199 936.807 690.99 z" fill="rgb(227,160,42)" transform="translate(0,0)"></path>
<path d="M 1020.66 690.9 L 1092.75 690.828 C 1093.2 718.149 1093.18 745.476 1092.7 772.797 C 1069.55 773.464 1044.06 772.961 1020.73 772.983 L 1020.66 690.9 z" fill="rgb(107,96,81)" transform="translate(0,0)"></path>
<path d="M 990.516 505.49 L 1008.08 505.485 L 1008.02 586.44 C 993.263 587.139 975.245 586.649 960.25 586.637 L 938.615 586.473 L 938.51 505.739 L 990.516 505.49 z" fill="rgb(107,96,81)" transform="translate(0,0)"></path>
<path d="M 1103.24 690.672 C 1124.75 691.788 1149.16 690.778 1170.96 691.058 C 1170.78 718.071 1170.76 745.085 1170.9 772.098 C 1156.44 772.045 1115.03 770.982 1102.76 772.414 C 1103.22 768.908 1103.23 765.545 1103.21 762.018 C 1103.07 738.302 1103.98 714.367 1103.24 690.672 z" fill="rgb(184,58,35)" transform="translate(0,0)"></path>
<path d="M 2046.8 1101 L 2048 1100.28 L 2048 1238.84 C 2042.29 1235.67 1427.94 1238.98 1363.45 1237.72 C 1363.84 1234.61 1362.54 1215.76 1361.73 1214.2 C 1360.53 1218.2 1361.61 1226.69 1360.63 1232.18 C 1359.56 1223.44 1360.01 1191.34 1360.28 1180.43 C 1360.77 1161.06 1359.07 1130.5 1360.79 1112.18 C 1361.05 1114.85 1361.39 1117.64 1361.47 1120.31 L 1362.43 1115.08 L 1363.81 1114.25 C 1364.96 1111.14 1370.2 1112.22 1373.32 1112.23 L 2046.96 1112.87 L 2046.8 1101 z" fill="rgb(207,107,52)" transform="translate(0,0)"></path>
<path d="M 1353.34 1005.92 L 2048 1005.76 L 2048 1007.18 L 2048 1100.28 L 2046.8 1101 L 2046.96 1112.87 L 1373.32 1112.23 C 1370.2 1112.22 1364.96 1111.14 1363.81 1114.25 L 1362.43 1115.08 L 1361.47 1120.31 C 1361.39 1117.64 1361.05 1114.85 1360.79 1112.18 C 1357.39 1112.24 1356.8 1112.41 1353.67 1111.31 C 1351.84 1106.58 1353.16 1017.59 1353.34 1005.92 z" fill="rgb(184,58,35)" transform="translate(0,0)"></path>
<path d="M 1906.08 1016.33 C 1930.35 1015.8 1955.37 1016.06 1979.7 1016.03 C 1978.23 1024.1 1978.89 1043.2 1979.06 1052.09 C 1978.93 1059.58 1978.73 1066.77 1979.09 1074.26 C 1978.86 1083.2 1978.79 1092.14 1978.88 1101.08 C 1954.56 1101.39 1930.24 1101.52 1905.93 1101.48 L 1906.08 1016.33 z" fill="rgb(107,96,81)" transform="translate(0,0)"></path>
<path d="M 2048 1007.18 L 2048 1100.28 L 2046.8 1101 C 2027.05 1101.63 1999.95 1099.75 1981.05 1101.5 L 1978.88 1101.08 C 1978.79 1092.14 1978.86 1083.2 1979.09 1074.26 C 1978.73 1066.77 1978.93 1059.58 1979.06 1052.09 C 1978.89 1043.2 1978.23 1024.1 1979.7 1016.03 C 1989.11 1017 2035.71 1016.94 2045.37 1016.45 C 2047.49 1014.75 2047.47 1010.5 2048 1007.18 z" fill="rgb(227,160,42)" transform="translate(0,0)"></path>
<path d="M 1901.24 1015.85 L 1906.08 1016.33 L 1905.93 1101.48 L 1901.43 1102.35 C 1900.31 1079.81 1900.31 1038.48 1901.24 1015.85 z" fill="rgb(227,160,42)" transform="translate(0,0)"></path>
<path d="M 1591.45 1016.29 C 1615.97 1015.32 1642.05 1017.03 1666.09 1016.07 L 1671.25 1016.25 C 1686.59 1016.17 1732.06 1015.09 1745.81 1016.49 C 1769.17 1017.07 1802.53 1017.7 1825.76 1016.75 L 1825.84 1068.1 C 1825.89 1077.45 1826.39 1091.59 1825.51 1100.5 C 1823.33 1101.85 1822.71 1101.61 1820.17 1101.5 C 1797.07 1100.7 1768.74 1101.03 1745.66 1101.39 C 1721.5 1101.34 1695.32 1100.81 1671.32 1101.64 L 1666.15 1101.47 C 1649.01 1100.31 1608.8 1100.75 1591.45 1101.6 L 1585.32 1102.27 C 1584.01 1079.58 1584.9 1039.29 1585.35 1015.89 L 1591.45 1016.29 z" fill="rgb(138,90,134)" transform="translate(0,0)"></path>
<path d="M 1745.81 1016.49 C 1769.17 1017.07 1802.53 1017.7 1825.76 1016.75 L 1825.84 1068.1 C 1825.89 1077.45 1826.39 1091.59 1825.51 1100.5 C 1823.33 1101.85 1822.71 1101.61 1820.17 1101.5 C 1797.07 1100.7 1768.74 1101.03 1745.66 1101.39 L 1745.81 1016.49 z" fill="rgb(227,160,42)" transform="translate(0,0)"></path>
<path d="M 1671.25 1016.25 C 1686.59 1016.17 1732.06 1015.09 1745.81 1016.49 L 1745.66 1101.39 C 1721.5 1101.34 1695.32 1100.81 1671.32 1101.64 L 1671.25 1016.25 z" fill="rgb(107,96,81)" transform="translate(0,0)"></path>
<path d="M 1585.35 1015.89 L 1591.45 1016.29 C 1591.69 1044.73 1591.69 1073.17 1591.45 1101.6 L 1585.32 1102.27 C 1584.01 1079.58 1584.9 1039.29 1585.35 1015.89 z" fill="rgb(227,160,42)" transform="translate(0,0)"></path>
<path d="M 1666.09 1016.07 L 1671.25 1016.25 L 1671.32 1101.64 L 1666.15 1101.47 L 1666.09 1016.07 z" fill="rgb(227,160,42)" transform="translate(0,0)"></path>
<path d="M 1360.57 1016.05 C 1384.05 1016.12 1407.54 1016.33 1431.02 1016.69 C 1455.25 1016.9 1485.64 1017.8 1509.43 1016.83 C 1509.92 1040.46 1510.86 1078.62 1509.72 1101.73 C 1483.98 1100.97 1456.72 1101.29 1430.96 1101.71 L 1360.52 1101.76 C 1359.77 1073.92 1361.16 1044.52 1360.57 1016.05 z" fill="rgb(227,160,42)" transform="translate(0,0)"></path>
<path d="M 1360.57 1016.05 C 1384.05 1016.12 1407.54 1016.33 1431.02 1016.69 L 1430.96 1101.71 L 1360.52 1101.76 C 1359.77 1073.92 1361.16 1044.52 1360.57 1016.05 z" fill="rgb(107,96,81)" transform="translate(0,0)"></path>
<path d="M 1177.2 779.145 C 1185.88 778.872 1194.56 778.732 1203.25 778.724 C 1220.44 778.99 1237.9 778.635 1255.01 779.101 C 1256.72 779.178 1266.66 779.531 1267.66 779.802 L 1336.46 780.009 L 1336.37 838.044 C 1336.39 846.536 1336.85 861.94 1336.17 869.841 C 1339.21 870.805 1339.49 870.673 1342.75 870.384 L 1340.42 869.4 C 1336.11 864.039 1339.73 797.098 1338.05 783.948 L 1337.91 782.91 C 1341.43 779.749 1343.42 779.916 1348.23 779.942 C 1365.08 780.034 1381.94 780.062 1398.79 780.103 C 1402.07 780.039 1407.56 779.78 1410.66 779.951 L 1411.11 783.138 C 1413.96 793.776 1412.01 850.4 1412.19 864.671 C 1412.21 866.488 1411.12 868.66 1410.29 870.307 C 1418.68 877.073 1485.89 869.927 1491.19 873.022 L 1490.45 873.491 L 1487.98 879.052 L 1487.89 958.815 L 1491.5 964.098 C 1472.57 965.209 1432.5 965.592 1414.09 964.428 C 1389.21 964.314 1361.79 963.685 1337.23 965.343 L 1337.08 959.382 C 1336.68 946.896 1338.21 879.697 1335.96 872.987 C 1333.33 892.575 1335.59 942.928 1335.22 965.291 C 1329.02 966.988 1269.37 966.105 1259.13 966.056 C 1232.77 965.417 1204.32 965.968 1177.79 965.985 L 1176.42 966.241 C 1169.74 965.271 1154.96 965.491 1147.75 965.487 C 1130.97 965.487 1114.18 965.6 1097.4 965.828 L 1043.83 965.972 C 1037.23 965.986 1021.12 966.387 1015.61 965.351 L 1015.28 960.001 C 1014.27 936.576 1014.2 895.006 1015.56 872.28 C 1022.49 869.173 1084.56 874.083 1095.89 870.217 C 1102.3 863.618 1096.9 798.701 1097.63 784.968 L 1098.89 784.013 L 1098.44 780.155 L 1172.86 779.907 L 1175.44 779.505 L 1176.35 778.899 L 1177.2 779.145 z" fill="rgb(227,160,42)" transform="translate(0,0)"></path>
<path d="M 1177.2 779.145 C 1185.88 778.872 1194.56 778.732 1203.25 778.724 C 1220.44 778.99 1237.9 778.635 1255.01 779.101 C 1256.72 779.178 1266.66 779.531 1267.66 779.802 C 1263.56 780.095 1257.94 779.353 1254.62 781.041 L 1253.52 783.951 C 1255.2 809.262 1252.22 841.159 1254.37 865.191 C 1256.03 867.795 1256.54 868.562 1257.69 871.399 C 1242.85 873.096 1189.41 874.402 1176.63 871.073 L 1175.23 868.092 C 1177.23 846.377 1175.39 803.31 1175.44 779.505 L 1176.35 778.899 L 1177.2 779.145 z" fill="rgb(138,90,134)" transform="translate(0,0)"></path>
<path d="M 1177.2 779.145 C 1185.88 778.872 1194.56 778.732 1203.25 778.724 C 1220.44 778.99 1237.9 778.635 1255.01 779.101 C 1256.72 779.178 1266.66 779.531 1267.66 779.802 C 1263.56 780.095 1257.94 779.353 1254.62 781.041 L 1253.52 783.951 C 1232.79 785.179 1202.38 784.112 1180.8 784.041 L 1180.68 866.066 C 1189.43 866.104 1250.89 867.036 1254.37 865.191 C 1256.03 867.795 1256.54 868.562 1257.69 871.399 C 1242.85 873.096 1189.41 874.402 1176.63 871.073 L 1175.23 868.092 C 1177.23 846.377 1175.39 803.31 1175.44 779.505 L 1176.35 778.899 L 1177.2 779.145 z" fill="rgb(207,107,52)" transform="translate(0,0)"></path>
<path d="M 1222.59 877.829 C 1233.69 873.25 1250.14 879.626 1259.15 873.029 C 1258.83 903.967 1259.75 935.174 1259.13 966.056 C 1232.77 965.417 1204.32 965.968 1177.79 965.985 C 1177.31 964.382 1178.96 899.618 1179.69 897.38 L 1179.58 877.87 C 1193.91 877.975 1208.25 877.961 1222.59 877.829 z" fill="rgb(184,58,35)" transform="translate(0,0)"></path>
<path d="M 1222.59 877.829 C 1233.69 873.25 1250.14 879.626 1259.15 873.029 C 1258.83 903.967 1259.75 935.174 1259.13 966.056 C 1232.77 965.417 1204.32 965.968 1177.79 965.985 C 1177.31 964.382 1178.96 899.618 1179.69 897.38 C 1180.36 917.207 1179.91 939.864 1179.95 959.828 C 1204.32 959.592 1228.51 960.025 1252.93 959.4 L 1252.91 878.088 C 1242.8 878.115 1232.7 878.028 1222.59 877.829 z" fill="rgb(207,107,52)" transform="translate(0,0)"></path>
<path d="M 1035.29 877.65 C 1035.9 877.065 1037.02 876.576 1037.85 876.546 C 1057.73 875.814 1079.47 878.057 1098.93 873.869 C 1098.03 896.101 1098.91 918.936 1098.38 941.211 C 1098.26 946.191 1098.31 961.639 1097.4 965.828 L 1043.83 965.972 C 1037.23 965.986 1021.12 966.387 1015.61 965.351 L 1015.28 960.001 L 1015.95 960.407 L 1017.64 959.751 C 1019.67 954.857 1017.45 948.519 1019.6 941.397 C 1019.56 920.161 1019.66 898.925 1019.92 877.691 L 1035.29 877.65 z" fill="rgb(184,58,35)" transform="translate(0,0)"></path>
<path d="M 1035.29 877.65 C 1035.9 877.065 1037.02 876.576 1037.85 876.546 C 1057.73 875.814 1079.47 878.057 1098.93 873.869 C 1098.03 896.101 1098.91 918.936 1098.38 941.211 C 1098.26 946.191 1098.31 961.639 1097.4 965.828 L 1043.83 965.972 C 1037.23 965.986 1021.12 966.387 1015.61 965.351 L 1015.28 960.001 L 1015.95 960.407 L 1017.64 959.751 C 1019.67 954.857 1017.45 948.519 1019.6 941.397 L 1019.89 959.664 C 1044.2 959.848 1068.52 959.744 1092.83 959.352 L 1092.25 877.964 C 1073.39 877.593 1054.23 877.886 1035.29 877.65 z" fill="rgb(207,107,52)" transform="translate(0,0)"></path>
<path d="M 1419.07 879.069 L 1487.98 879.052 L 1487.89 958.815 L 1419.18 958.858 C 1418.64 932.73 1419.07 905.295 1419.07 879.069 z" fill="rgb(184,58,35)" transform="translate(0,0)"></path>
<path d="M 1101.15 784.298 C 1124.28 784.168 1148.33 783.729 1171.38 784.318 C 1169.88 807.273 1171.49 831.447 1171 854.524 C 1170.92 858.459 1170.93 863.082 1171.22 866.965 C 1164.84 868.007 1108.42 867.838 1102.28 867.046 C 1100.87 865.298 1101.13 861.834 1101.05 859.365 C 1101.83 844.826 1101.18 823.372 1100.97 808.644 C 1101.61 803.565 1101.2 790.059 1101.15 784.298 z" fill="rgb(107,96,81)" transform="translate(0,0)"></path>
<path d="M 1340.01 784.049 C 1361.59 784.103 1388.2 783.35 1409.3 784.422 C 1408.48 800.935 1408.97 819.132 1408.77 835.79 C 1408.69 842.561 1408.41 861.325 1409.33 867.173 C 1391.74 867.834 1375.93 867.775 1358.46 867.93 C 1353.04 867.123 1345.53 867.131 1339.89 866.966 L 1340.01 784.049 z" fill="rgb(107,96,81)" transform="translate(0,0)"></path>
<path d="M 1337.09 878.637 C 1360.19 879.614 1384.88 878.521 1408.19 878.96 L 1408.14 958.993 L 1337.77 959.35 C 1337.22 938.179 1339.35 898.43 1337.09 878.637 z" fill="rgb(207,107,52)" transform="translate(0,0)"></path>
<path d="M 1261.43 878.866 L 1330.85 878.903 L 1330.54 960.142 C 1307.69 960.54 1284.09 960.211 1261.18 960.166 C 1261.44 933.067 1261.52 905.966 1261.43 878.866 z" fill="rgb(107,96,81)" transform="translate(0,0)"></path>
<path d="M 1102.41 879.04 L 1170.44 878.968 C 1169.78 904.983 1170.26 932.983 1170.24 959.151 L 1102.63 959.261 C 1102.38 932.522 1102.3 905.781 1102.41 879.04 z" fill="rgb(184,58,35)" transform="translate(0,0)"></path>
<path d="M 1649.76 778.24 L 1654.92 778.09 C 1654.83 785.64 1655.03 796.999 1654.15 804.214 C 1654.19 824.237 1655.15 852.597 1654.17 871.871 L 1653.81 873.688 L 1653.87 964.804 L 1491.5 964.098 L 1487.89 958.815 L 1487.98 879.052 L 1490.45 873.491 L 1491.19 873.022 C 1485.89 869.927 1418.68 877.073 1410.29 870.307 C 1411.12 868.66 1412.21 866.488 1412.19 864.671 C 1412.01 850.4 1413.96 793.776 1411.11 783.138 L 1410.66 779.951 C 1407.56 779.78 1402.07 780.039 1398.79 780.103 L 1404.68 777.999 C 1408.06 777.925 1411.63 777.766 1415 777.934 C 1437.62 779.517 1470.88 778.375 1493.87 778.127 C 1519.77 778.38 1548.1 779.182 1573.78 778.556 L 1577.44 778.527 C 1600.48 777.497 1626.46 778.35 1649.76 778.24 z" fill="rgb(207,107,52)" transform="translate(0,0)"></path>
<path d="M 1649.76 778.24 L 1654.92 778.09 C 1654.83 785.64 1655.03 796.999 1654.15 804.214 C 1653.45 798.385 1653.84 786.532 1653.88 780.242 C 1572.8 781.033 1491.73 780.936 1410.66 779.951 C 1407.56 779.78 1402.07 780.039 1398.79 780.103 L 1404.68 777.999 C 1408.06 777.925 1411.63 777.766 1415 777.934 C 1437.62 779.517 1470.88 778.375 1493.87 778.127 C 1519.77 778.38 1548.1 779.182 1573.78 778.556 L 1577.44 778.527 C 1600.48 777.497 1626.46 778.35 1649.76 778.24 z" fill="rgb(247,177,114)" transform="translate(0,0)"></path>
<path d="M 1653.81 873.688 C 1636.54 874.009 1591.3 875.177 1575.73 873.02 L 1576 872.511 C 1604.48 870.018 1625.68 874.866 1654.17 871.871 L 1653.81 873.688 z" fill="rgb(227,160,42)" transform="translate(0,0)"></path>
<path d="M 1578.1 784.244 L 1648.08 784.471 L 1647.86 866.623 L 1577.94 866.108 L 1578.1 784.244 z" fill="rgb(184,58,35)" transform="translate(0,0)"></path>
<path d="M 1499 784.876 L 1567.72 784.887 L 1567.42 864.867 C 1564.82 866.915 1506.61 865.845 1499.11 865.814 L 1499 784.876 z" fill="rgb(184,58,35)" transform="translate(0,0)"></path>
<path d="M 1420.03 784.398 C 1441.26 785.155 1466.08 784.45 1487.89 784.704 L 1487.97 866.881 C 1465.65 866.492 1442.33 866.86 1419.94 866.886 L 1420.03 784.398 z" fill="rgb(138,90,134)" transform="translate(0,0)"></path>
<path d="M 1577.82 878.307 C 1600.17 878.935 1624.25 878.607 1646.75 878.723 L 1646.7 958.587 L 1577.68 959.01 L 1577.82 878.307 z" fill="rgb(138,90,134)" transform="translate(0,0)"></path>
<path d="M 1498.03 878.708 L 1566.96 878.995 L 1566.95 958.133 L 1497.84 958.442 L 1498.03 878.708 z" fill="rgb(138,90,134)" transform="translate(0,0)"></path>
<path d="M 350.154 0 L 361.223 0 L 378.4 0 L 388.183 0 L 388.806 637.252 L 388.397 849.43 C 388.349 888.342 387.818 928.45 388.642 967.264 C 378.051 973.295 361.244 980.47 349.859 985.149 L 350.154 0 z" fill="rgb(207,107,52)" transform="translate(0,0)"></path>
<path d="M 361.223 0 L 378.4 0 C 379.384 65.4468 378.521 133.199 378.459 198.752 L 378.692 499.764 L 378.383 771.252 C 378.922 834.4 378.881 897.551 378.259 960.698 C 372.097 964.133 367.806 965.987 361.29 968.743 C 360.306 936.261 361.116 899.334 361.129 866.529 L 361.21 675.342 L 361.223 0 z" fill="rgb(253,248,236)" transform="translate(0,0)"></path>
<path d="M 764.754 229.723 C 798.179 228.457 829.716 229.206 862.852 228.777 L 862.69 303.51 C 862.648 306.968 861.348 324.046 861.608 325.806 C 862.944 350.846 862.086 385.166 861.911 410.805 L 783.624 410.85 L 783.279 411.662 L 783.225 469.012 C 783.208 476.914 783.567 491.347 782.895 498.668 L 782.85 499.966 C 764.879 499.496 727.258 501.679 711.546 499.946 C 708.999 499.402 704.326 499.218 701.569 499.025 L 701.499 494.073 C 703.26 479.276 700.179 419.193 702.816 410.038 C 703.408 399.401 702.338 324.735 704.235 321.212 L 704.417 319.139 C 705.273 311.61 704.859 295.584 704.837 287.66 C 704.835 268.347 704.676 249.035 704.362 229.725 L 764.754 229.723 z" fill="rgb(227,160,42)" transform="translate(0,0)"></path>
<path d="M 704.362 229.725 L 764.754 229.723 C 772.837 230.053 780.582 228.003 785.047 232.422 C 785.393 234.908 785.592 236.793 785.759 239.301 C 785.852 265.898 785.791 292.496 785.574 319.093 L 784.699 320.88 C 785.161 329.442 784.88 337.245 785.175 345.548 C 785.014 355.839 783.963 382.373 784.841 391.519 C 784.478 397.203 784.322 404.698 783.762 410.113 C 755.189 411.742 731.364 410.55 702.816 410.038 C 703.408 399.401 702.338 324.735 704.235 321.212 L 704.417 319.139 C 705.273 311.61 704.859 295.584 704.837 287.66 C 704.835 268.347 704.676 249.035 704.362 229.725 z" fill="rgb(207,107,52)" transform="translate(0,0)"></path>
<path d="M 704.417 319.139 C 714.497 319.101 779.933 316.806 783.564 320.209 C 783.721 320.356 783.844 320.536 783.984 320.699 C 779.613 321.339 759.733 321.397 754.559 321.347 C 738.898 321.193 719.569 322.391 704.235 321.212 L 704.417 319.139 z" fill="rgb(250,169,126)" transform="translate(0,0)"></path>
<path d="M 709.117 325.499 C 731.588 324.696 755.567 325.024 778.16 324.986 C 778.159 349.374 779.086 380.307 777.886 404.236 C 754.635 404.305 731.383 404.255 708.133 404.087 C 708.126 387.215 707.155 339.719 709.117 325.499 z" fill="rgb(184,58,35)" transform="translate(0,0)"></path>
<path d="M 709.869 234.625 L 778.053 234.781 C 778.256 260.695 777.934 286.97 777.835 312.912 L 709.976 312.948 L 709.869 234.625 z" fill="rgb(184,58,35)" transform="translate(0,0)"></path>
<path d="M 789.415 232.365 C 799.097 234.339 845.212 233.217 856.952 233.099 L 856.698 285.409 C 856.669 292.366 856.272 306.826 857.08 313.239 C 853.517 316.446 822.046 315.213 814.56 315.263 L 789.696 315.158 C 789.762 287.56 789.669 259.962 789.415 232.365 z" fill="rgb(107,96,81)" transform="translate(0,0)"></path>
<path d="M 707.341 416.301 C 721.24 416.379 766.342 414.851 777.86 416.631 C 776.397 432.853 776.691 475.577 777.296 492.102 C 754.204 491.77 730.449 492.036 707.302 492.012 C 707.679 466.777 707.692 441.537 707.341 416.301 z" fill="rgb(107,96,81)" transform="translate(0,0)"></path>
<path d="M 789.909 324.976 C 803.047 325.52 841.256 325.919 854.092 324.878 C 854.643 325.571 855.194 326.264 855.745 326.957 C 856.593 348.827 855.973 383.76 855.84 404.297 C 844.045 404.278 798.968 403.436 789.813 404.707 C 790.664 379.764 789.901 350.284 789.909 324.976 z" fill="rgb(107,96,81)" transform="translate(0,0)"></path>
<path d="M 907.09 405.338 C 893.619 392.774 885.72 382.595 884.922 363.086 C 884.358 349.304 888.862 336.97 898.524 327.02 C 908.69 316.683 922.533 310.788 937.03 310.625 C 966.586 310.25 990.651 333.14 990.241 363.026 C 990.122 377.251 984.252 390.821 973.968 400.649 C 963.699 410.329 950.008 415.536 935.902 415.126 C 929.404 415.012 922.997 413.579 917.068 410.915 C 919.922 402.768 922.347 395.622 925.936 387.744 C 925.606 386.831 925.294 385.912 925 384.986 L 923.817 384.422 C 920.234 384.139 917.672 384.008 914.073 383.977 C 914.279 385.439 914.162 385.478 913.875 387.062 C 911.024 392.673 909.074 399.313 907.09 405.338 z" fill="rgb(253,248,236)" transform="translate(0,0)"></path>
<path d="M 913.875 387.062 L 913.26 386.658 C 907.325 382.813 909.036 382.697 913.349 375.355 C 919.65 364.628 926.16 353.799 932.782 343.269 C 932.5 354.826 932.477 366.432 932.03 377.983 C 931.661 387.507 933.127 385.733 925.936 387.744 C 925.606 386.831 925.294 385.912 925 384.986 L 923.817 384.422 C 920.234 384.139 917.672 384.008 914.073 383.977 C 914.279 385.439 914.162 385.478 913.875 387.062 z" fill="rgb(86,30,20)" transform="translate(0,0)"></path>
<path d="M 923.61 363.111 C 925.138 366.134 925.633 367.965 925.319 371.477 C 924.807 377.203 930.683 382.087 923.817 384.422 C 920.234 384.139 917.672 384.008 914.073 383.977 C 911.756 380.011 921.1 367.167 923.61 363.111 z" fill="rgb(242,204,179)" transform="translate(0,0)"></path>
<path d="M 929.644 353.814 C 929.721 358.719 930.176 378.591 928.192 384.058 C 928.029 384.509 925.698 384.844 925 384.986 L 923.817 384.422 C 930.683 382.087 924.807 377.203 925.319 371.477 C 925.633 367.965 925.138 366.134 923.61 363.111 C 925.707 359.393 927.182 357.238 929.644 353.814 z" fill="rgb(247,177,114)" transform="translate(0,0)"></path>
<path d="M 701.569 499.025 C 704.326 499.218 708.999 499.402 711.546 499.946 C 727.258 501.679 764.879 499.496 782.85 499.966 L 782.849 593.716 L 782.917 594.779 C 792.059 595.147 805.741 594.673 813.948 595.474 L 813.413 596.114 C 803.151 596.063 792.234 595.765 782.023 595.959 L 780.569 595.803 C 762.248 594.17 722.33 595.159 702.231 595.082 C 702.22 602.462 702.575 617.434 701.841 624.204 C 700.247 611.256 701.138 574.288 701.101 559.726 C 701.065 546.085 700.213 511.171 701.569 499.025 z" fill="rgb(207,107,52)" transform="translate(0,0)"></path>
<path d="M 701.569 499.025 C 704.326 499.218 708.999 499.402 711.546 499.946 C 708.555 500.041 704.758 499.688 702.537 501.393 C 701.633 510.122 702.048 524.192 702.063 533.387 C 702.233 553.336 702.108 573.286 701.688 593.232 C 712.831 592.973 774.27 592.246 782.849 593.716 L 782.917 594.779 C 792.059 595.147 805.741 594.673 813.948 595.474 L 813.413 596.114 C 803.151 596.063 792.234 595.765 782.023 595.959 L 780.569 595.803 C 762.248 594.17 722.33 595.159 702.231 595.082 C 702.22 602.462 702.575 617.434 701.841 624.204 C 700.247 611.256 701.138 574.288 701.101 559.726 C 701.065 546.085 700.213 511.171 701.569 499.025 z" fill="rgb(250,169,126)" transform="translate(0,0)"></path>
<path d="M 745.013 505.521 L 776.042 505.246 L 776.167 588.016 L 735.835 588.107 L 707.707 588.08 C 707.864 562.01 708.558 531.179 707.124 505.521 C 719.753 505.69 732.384 505.69 745.013 505.521 z" fill="rgb(138,90,134)" transform="translate(0,0)"></path>
<path d="M 0 1235.74 L 356.805 1235.68 C 419.443 1235.68 485.444 1236.8 547.758 1235.48 L 546.998 1239.68 L 546.332 1243.11 C 527.621 1242.45 504.651 1243.07 485.666 1243.09 L 368.379 1243.16 L 0 1243.05 L 0 1239.27 L 0 1235.74 z" fill="rgb(253,248,236)" transform="translate(0,0)"></path>
<path d="M 546.998 1239.68 L 546.332 1243.11 C 527.621 1242.45 504.651 1243.07 485.666 1243.09 L 368.379 1243.16 L 0 1243.05 L 0 1239.27 C 62.2166 1240.18 125.952 1239.56 188.288 1239.54 L 546.998 1239.68 z" fill="rgb(253,70,12)" transform="translate(0,0)"></path>
<path d="M 903.175 416.339 C 899.942 413.8 895.964 410.874 893.068 407.99 C 854.313 369.395 876.653 305.583 931.028 299.797 C 948.566 298.028 966.075 303.419 979.581 314.746 C 1028.3 355.216 989.531 446.406 913.638 421.221 C 914.706 416.959 915.487 414.885 917.068 410.915 C 922.997 413.579 929.404 415.012 935.902 415.126 C 950.008 415.536 963.699 410.329 973.968 400.649 C 984.252 390.821 990.122 377.251 990.241 363.026 C 990.651 333.14 966.586 310.25 937.03 310.625 C 922.533 310.788 908.69 316.683 898.524 327.02 C 888.862 336.97 884.358 349.304 884.922 363.086 C 885.72 382.595 893.619 392.774 907.09 405.338 L 903.175 416.339 z" fill="rgb(184,58,35)" transform="translate(0,0)"></path>
<path d="M 0 1232.23 L 361.029 1232.13 L 484.15 1232.11 C 504.567 1232.11 528.177 1231.5 548.291 1232.22 L 547.758 1235.48 C 485.444 1236.8 419.443 1235.68 356.805 1235.68 L 0 1235.74 L 0 1232.23 z" fill="rgb(253,70,12)" transform="translate(0,0)"></path>
<path d="M 914.073 383.977 C 917.672 384.008 920.234 384.139 923.817 384.422 L 925 384.986 C 925.294 385.912 925.606 386.831 925.936 387.744 C 922.347 395.622 919.922 402.768 917.068 410.915 C 915.487 414.885 914.706 416.959 913.638 421.221 C 906.492 445.423 897.5 469.255 889.239 493.094 C 887.329 498.609 885.1 504.125 883.556 509.747 L 881.744 508.45 C 880.995 511.359 880.29 513.822 879.917 516.834 L 880.452 517.3 C 879.17 522.033 878.261 527.435 875.134 530.927 C 871.528 532.271 869.369 532.248 865.273 530.635 L 865.051 528.15 C 870.375 514.257 874.145 506.044 878.248 490.932 L 878.389 489.33 C 873.399 488.985 864.598 495.754 860.844 498.934 L 858.408 497.856 C 864.763 491.558 872.122 487.132 880.841 485.123 C 888.807 462.782 895.165 438.727 903.175 416.339 L 907.09 405.338 C 909.074 399.313 911.024 392.673 913.875 387.062 C 914.162 385.478 914.279 385.439 914.073 383.977 z" fill="url(#Gradient1)" transform="translate(0,0)"></path>
<path d="M 1176.77 228.203 L 1293.01 228.379 C 1298.85 228.392 1330.7 227.984 1334.71 228.85 L 1333.65 228.941 C 1319.16 230.105 1262.1 226.32 1255.5 233.03 C 1253.66 241.667 1255.48 267.501 1254.78 279 L 1254.34 279 L 1254.2 233.915 L 1179.97 234.047 C 1179.1 231.469 1180.34 229.796 1177.93 228.753 L 1176.77 228.203 z" fill="rgb(249,121,100)" transform="translate(0,0)"></path>
<metadata><recraft-signature>{"signed_by": "recraft", "signature_b64": "k9awW3QLd0hal1dKf1gJSh1vkYIrQ7b/QPJVHsVcdGTgU5pxWJRR+bNIXMVAiAWotXcbLWkAbQt1coPDD6E3Cg==", "signing_algo": "Ed25519", "generation_timestamp": 1781418446, "identifier": "56f6f04d-33fc-473e-b3e5-846294f18093"}</recraft-signature></metadata></svg>