<svg xmlns="http://www.w3.org/2000/svg" height="896" preserveAspectRatio="none" style="display: block;" version="1.1" viewBox="0 0 2048 1509" width="1216">
<path d="M 0 0 L 2048 0 L 2048 1509 L 0 1509 L 0 0 z" fill="rgb(253,248,236)" transform="translate(0,0)"></path>
<path d="M 583.843 775.088 C 583.634 757.574 583.294 742.732 584.714 725.18 C 592.152 630.082 631.328 540.242 695.952 470.08 C 776.514 383.698 887.999 332.726 1006.04 328.305 C 1122.51 324.96 1235.69 367.145 1321.57 445.903 C 1403.79 522.332 1454.25 625.612 1458.46 738.275 C 1458.72 742.549 1459.07 746.798 1459.01 751.077 C 1460.27 864.167 1414.34 970.276 1335.66 1050.8 C 1253.27 1133.62 1141.62 1180.74 1024.81 1181.99 C 913.525 1183.08 792.677 1135.86 713.588 1057.28 C 634.632 978.84 594.949 892.826 584.433 782.823 C 582.648 779.57 582.701 778.477 583.843 775.088 z" fill="rgb(253,248,236)" transform="translate(0,0)"></path>
<path d="M 583.843 775.088 C 583.634 757.574 583.294 742.732 584.714 725.18 C 592.152 630.082 631.328 540.242 695.952 470.08 C 776.514 383.698 887.999 332.726 1006.04 328.305 C 1122.51 324.96 1235.69 367.145 1321.57 445.903 C 1403.79 522.332 1454.25 625.612 1458.46 738.275 C 1458.41 742.189 1458.64 742.76 1456.66 745.924 C 1454.58 747.34 1454.42 747.798 1452.07 748.269 C 1451.58 643.984 1405.04 540.295 1332.04 466.12 C 1250.21 382.979 1137.2 334.903 1019.93 335.592 C 904.318 335.472 793.45 381.55 711.977 463.578 C 636.677 539.575 593.261 641.473 590.611 748.425 C 590.323 759.683 592.615 766.903 583.843 775.088 z" fill="rgb(107,96,81)" transform="translate(0,0)"></path>
<path d="M 1459.01 751.077 C 1460.27 864.167 1414.34 970.276 1335.66 1050.8 C 1253.27 1133.62 1141.62 1180.74 1024.81 1181.99 C 913.525 1183.08 792.677 1135.86 713.588 1057.28 C 634.632 978.84 594.949 892.826 584.433 782.823 C 586.441 781.972 588.455 781.35 590.523 780.668 C 603.174 885.032 632.204 958.448 704.521 1037.81 C 777.813 1118.24 895.851 1171.07 1004.67 1174.76 C 1121.81 1178.69 1235.7 1135.77 1321.11 1055.5 C 1402.28 978.537 1449.49 872.439 1452.32 760.619 C 1453.99 757.668 1456.94 753.896 1459.01 751.077 z" fill="rgb(107,96,81)" transform="translate(0,0)"></path>
<path d="M 1458.46 738.275 C 1458.72 742.549 1459.07 746.798 1459.01 751.077 C 1456.94 753.896 1453.99 757.668 1452.32 760.619 C 1439.72 772.366 1429.25 779.286 1411.65 782.598 C 1377.36 789.054 1341 778.433 1307.41 771.786 C 1266.88 763.766 1230.57 754.703 1188.81 756.057 C 1161.93 756.928 1145.2 761.477 1120.77 772.551 C 1114.88 775.221 1101.91 782.234 1096.7 783.439 C 1093.84 781.525 1094.76 782.561 1093.54 778.893 C 1096.84 773.686 1115.27 765.829 1121.55 762.986 C 1195.45 729.538 1275.9 759.814 1350.86 772.55 C 1387.19 778.721 1426.41 781.468 1451.69 748.891 C 1451.82 748.684 1451.94 748.477 1452.07 748.269 C 1454.42 747.798 1454.58 747.34 1456.66 745.924 C 1458.64 742.76 1458.41 742.189 1458.46 738.275 z" fill="rgb(207,107,52)" transform="translate(0,0)"></path>
<path d="M 590.697 766.907 C 607.085 749.826 624.938 744.136 648.533 743.911 C 716.599 743.36 779.999 775.555 848.707 771.179 C 876.98 769.379 900.442 760.179 925.73 747.998 C 930.717 745.596 939.126 739.263 941.747 747.082 C 932.735 758.739 879.505 776.249 862.239 777.767 C 833.822 780.265 805.003 779.15 776.985 773.274 C 727.521 766.222 629.344 727.007 593.905 775.12 C 592.484 777.048 591.028 778.331 590.523 780.668 C 588.455 781.35 586.441 781.972 584.433 782.823 C 582.648 779.57 582.701 778.477 583.843 775.088 C 592.615 766.903 590.323 759.683 590.611 748.425 L 590.697 766.907 z" fill="rgb(207,107,52)" transform="translate(0,0)"></path>
<path d="M 1003.12 713.183 C 989.975 708.242 979.623 701.311 972.352 688.897 C 965.211 676.578 963.28 661.919 966.989 648.172 C 970.828 633.993 980.21 621.956 993.022 614.77 C 1005.7 607.555 1020.74 605.75 1034.77 609.764 C 1056.08 615.967 1066.83 632.248 1072.96 651.975 C 1075.56 660.361 1081.4 669.065 1085.65 676.958 L 1072.09 679.135 C 1071.07 681.846 1069.86 684.487 1068.49 687.039 C 1060.92 701.316 1049.8 708.839 1034.71 713.492 L 1029.8 714.278 L 1029.61 715.271 L 1032.79 716.702 C 1069.36 734.477 1064.52 766.361 1079.67 799.777 C 1087.46 816.951 1093.06 826.015 1106.7 839.134 C 1115.99 841.15 1123.87 842.775 1130.56 850.356 C 1145.75 867.552 1136.21 901.78 1111.79 903.663 C 1100.01 904.571 1086.96 903.999 1075.03 903.96 L 1003.6 903.763 C 984.964 903.713 966.323 903.758 947.683 903.897 C 941.602 903.935 914.875 905.443 911.633 901.372 C 910.529 889.032 941.45 867.933 951.244 862.755 C 949.664 840.537 948.117 821.585 950.112 799.319 C 953.583 760.562 959.123 722.646 1003.12 713.183 z" fill="rgb(107,96,81)" transform="translate(0,0)"></path>
<path d="M 1007.57 719.33 C 1060.92 719.096 1058.13 764.393 1073.14 801.893 C 1078.84 816.113 1087.46 827.249 1096.94 839.041 L 1065.12 839.057 C 1046.98 817.826 1035.15 793.31 1024.61 767.778 C 1023.48 765.028 1022.36 764.766 1019.82 764.016 L 1018.01 765.079 C 1014.03 777.01 1051.81 833.278 1062.08 845.292 C 1074 845.133 1103.01 844.916 1113.23 847.201 C 1140.15 855.428 1134.14 894.041 1112.45 896.259 C 1093.81 898.166 1068.74 897.338 1049.59 897.337 L 919.894 897.179 C 931.153 880.943 941.492 875.496 958.556 867.121 C 954.921 834.148 953.927 803.706 960.167 770.941 C 965.494 742.965 977.433 722.883 1007.57 719.33 z" fill="rgb(253,248,236)" transform="translate(0,0)"></path>
<path d="M 1010.54 615.222 C 1035.63 612.591 1055.15 621.617 1063.84 646.443 C 1066.43 653.844 1067.23 661.922 1072.62 667.98 C 1073.78 669.285 1074.07 670.04 1074.66 671.629 C 1073.39 671.701 1068.15 671.919 1067.64 673.063 C 1059.72 690.797 1054.77 699.352 1035.99 706.28 C 1022.44 709.295 1008.7 709.226 996.139 702.753 C 985.487 697.318 977.521 687.764 974.088 676.309 C 964.867 646.551 982.22 623.518 1010.54 615.222 z" fill="rgb(253,248,236)" transform="translate(0,0)"></path>
<path d="M 1102.27 66.3661 C 1121.82 83.5353 1124.73 100.915 1104.33 119.258 C 1105.2 119.346 1106.23 119.45 1107.41 119.569 C 1118.43 112.381 1118.94 108.839 1131.56 104.459 L 1126.54 126.538 C 1138.46 134.879 1179.67 162.47 1187.27 170.926 C 1183.43 186.045 1174.7 197.489 1157.93 193.301 C 1138.41 188.428 1101.88 190.226 1089.73 172.153 C 1082.12 160.829 1090.67 147.84 1089 140.561 C 1084.56 150.486 1080.32 157.971 1084.94 168.986 C 1089.12 178.954 1094.2 183.123 1104.29 186.307 C 1101.33 195.534 1096.51 210.641 1092.57 219.274 C 1081.91 242.6 1085.11 252.399 1086.36 276.401 C 1095.64 282.478 1098.84 285.455 1105.81 294.109 C 1102.35 294.16 1080.69 295.337 1078.52 292.519 C 1068.73 279.851 1041.81 199.567 1034.32 194.182 C 1034.13 202.656 1050.35 232.659 1053.6 244.43 C 1057.18 257.422 1057.8 263.85 1059.41 277.242 C 1065.6 283.34 1069.25 286.929 1074.35 294.187 C 1065.99 294.115 1057.63 294.152 1049.27 294.299 C 1040.47 279.207 1028.16 256.074 1020.29 240.135 C 996.042 240.217 966.56 241.628 943.144 236.335 C 927.489 227.592 916.121 218.331 910.858 200.589 C 909.68 196.618 908.392 190.579 906.154 187.431 C 902.438 202.48 918.268 221.522 928.544 230.726 C 918.653 237.439 916.8 238.863 905.112 241.896 L 902.2 242.779 C 900.948 247.618 908.107 270.911 909.974 277.973 C 916.348 281.983 919.071 283.505 923.748 289.626 C 924.335 290.641 925.741 292.888 926.05 293.871 L 901.436 294.056 C 890.876 277.58 881.677 256.454 869.946 237.893 C 875.206 237.176 881.289 237.072 886.656 236.851 C 886.303 198.26 871.238 147.884 923.389 136.821 C 959.982 129.058 1041.42 145.537 1070.43 123.544 C 1086.13 133.624 1091.61 132.979 1110.35 133.813 C 1107.7 129.175 1104.67 124.332 1101.9 119.727 C 1100.11 117.484 1095.12 112.881 1092.81 110.657 C 1113.37 98.2829 1109.41 85.7256 1102.27 66.3661 z" fill="rgb(107,96,81)" transform="translate(0,0)"></path>
<path d="M 1115.47 138.358 C 1119.99 137.873 1124.11 140.954 1124.92 145.419 C 1125.73 149.884 1122.96 154.219 1118.56 155.353 C 1115.42 156.164 1112.09 155.151 1109.93 152.728 C 1107.78 150.305 1107.15 146.879 1108.32 143.852 C 1109.49 140.825 1112.25 138.704 1115.47 138.358 z" fill="rgb(253,248,236)" transform="translate(0,0)"></path>
<path d="M 1113.26 141.609 C 1116.02 139.797 1119.72 140.486 1121.64 143.169 C 1123.56 145.853 1123.03 149.575 1120.42 151.605 C 1118.64 152.993 1116.24 153.294 1114.18 152.39 C 1112.11 151.486 1110.7 149.521 1110.51 147.271 C 1110.32 145.022 1111.38 142.849 1113.26 141.609 z" fill="rgb(21,17,10)" transform="translate(0,0)"></path>
<path d="M 1238.68 1164.93 C 1243.19 1164.61 1268.49 1164.06 1270.28 1163.11 C 1259.28 1161.09 1244.12 1163.02 1235.35 1159.06 C 1234.13 1156.76 1233.1 1153.85 1232.97 1151.24 C 1232.49 1142.09 1296.83 1126.46 1307.34 1120.69 C 1311.52 1118.39 1315 1113.27 1318.33 1109.84 C 1329.39 1098.5 1341.49 1098.76 1356.38 1098.53 C 1353.55 1104.42 1351.44 1108.07 1347 1112.79 C 1312.23 1116.1 1308.01 1142.48 1337.36 1155.72 C 1337.7 1170.8 1335.08 1182.61 1347.11 1194.8 C 1355.37 1203.66 1372.71 1207.62 1384.08 1206.67 C 1408.01 1204.67 1438.02 1193.8 1458.01 1214.35 C 1482.58 1239.6 1469.25 1268.31 1451.57 1290.19 C 1454.96 1293.62 1458.57 1297.15 1461.87 1300.64 C 1455.95 1315.39 1441.37 1339.04 1433.59 1355.22 C 1426.82 1355.29 1412.27 1355.77 1406.31 1354.65 C 1420.01 1338.62 1427.39 1320.69 1435.93 1301.82 C 1429.61 1298.54 1423.76 1294.48 1420.8 1287.8 C 1415.27 1275.27 1421.58 1270.32 1424.38 1261.87 L 1423.07 1261.48 C 1414.93 1265.13 1415.63 1275.64 1417.09 1283.29 C 1418.99 1293.24 1424.13 1297.83 1432.3 1303.02 C 1420.27 1327.71 1420.1 1331.49 1403.62 1354.43 C 1399.31 1356.65 1384.49 1355.43 1378.96 1355.23 C 1397.83 1333.15 1399.84 1336.03 1404.52 1303.26 L 1393.45 1292.79 C 1387.5 1292.55 1363.26 1293.39 1359.69 1292.02 C 1354.88 1284.92 1336.16 1256.33 1331.36 1251.77 C 1330.98 1257.28 1352.37 1286.89 1357.1 1291.71 C 1359.35 1299.2 1339.21 1345.04 1334.95 1354.96 C 1327.24 1355.03 1317.63 1355.4 1310.13 1354.55 C 1312.71 1350.25 1318.26 1343.96 1320.36 1339.66 C 1326.49 1327.05 1330.42 1309.64 1334.17 1295.91 C 1324.28 1283.39 1314.28 1264.22 1302.71 1254.17 C 1307.09 1264.1 1324.53 1288.46 1331.8 1296.68 C 1322.81 1326.13 1324.01 1327.07 1308.7 1352.95 C 1303.78 1356.49 1289.61 1355.07 1282.74 1354.94 C 1288.97 1347.49 1294.36 1340.94 1301.25 1334.08 C 1303.4 1325.32 1305.47 1307.63 1306.9 1298.13 C 1257.33 1273.66 1277.21 1227.34 1287.96 1186.29 C 1286.71 1186.2 1285.47 1186.09 1284.23 1185.97 C 1262.36 1183.97 1253.01 1182.16 1238.68 1164.93 z" fill="rgb(207,107,52)" transform="translate(0,0)"></path>
<path d="M 1293.23 1136.45 C 1297.09 1134.41 1301.88 1135.8 1304.05 1139.59 C 1306.22 1143.38 1305.01 1148.21 1301.3 1150.52 C 1298.78 1152.09 1295.6 1152.16 1293.01 1150.69 C 1290.43 1149.23 1288.85 1146.48 1288.89 1143.51 C 1288.94 1140.54 1290.6 1137.83 1293.23 1136.45 z" fill="rgb(253,248,236)" transform="translate(0,0)"></path>
<path d="M 1294.12 1138.43 C 1296.87 1137.02 1300.25 1138.03 1301.78 1140.72 C 1303.31 1143.4 1302.46 1146.82 1299.84 1148.47 C 1298.04 1149.61 1295.76 1149.67 1293.91 1148.62 C 1292.05 1147.57 1290.92 1145.59 1290.97 1143.46 C 1291.01 1141.33 1292.22 1139.4 1294.12 1138.43 z" fill="rgb(21,17,10)" transform="translate(0,0)"></path>
<path d="M 986.876 1224.6 C 992.234 1207.89 999.179 1204.09 1014.7 1195.92 C 1013.93 1217.98 1010.63 1221.02 996.933 1237.04 C 997.501 1238.84 998.171 1240.6 998.943 1242.32 C 1002.62 1250.66 1011.47 1257.56 1017.27 1263.71 C 1058.88 1307.82 1088.75 1271.66 1128.82 1287.3 C 1147.57 1297.16 1157.25 1309.79 1160.1 1330.98 C 1159.56 1356.39 1152.1 1365.94 1132.12 1380.28 L 1140.4 1387.8 C 1131.3 1404.05 1122.47 1420.46 1113.92 1437 C 1104.97 1437.04 1095.57 1436.93 1086.66 1437.16 C 1097.55 1422.23 1108.08 1405.46 1114.13 1387.89 C 1089.3 1371.18 1098.37 1367.52 1100.7 1345.59 L 1099.64 1345.61 C 1087.84 1362.18 1095.93 1378.59 1110.97 1389.16 C 1105.05 1406.93 1093.75 1420.78 1085.04 1436.47 C 1077.83 1437.41 1067.23 1436.94 1059.72 1436.84 C 1065.05 1429.66 1074.77 1422.63 1078.38 1414.54 C 1081.18 1408.26 1082.91 1397.9 1084.39 1390.94 C 1079.19 1385.18 1075.41 1381.86 1071.89 1374.89 L 1052.78 1374.5 C 1044.92 1369.65 1037.43 1351.28 1029.25 1346.67 C 1028.6 1350.19 1047.05 1372.09 1050.11 1377.15 C 1043.94 1391.47 1028.42 1423.61 1020.6 1437.1 L 993.254 1437.04 C 996.257 1432.73 1001.58 1427.6 1004.49 1423.1 C 1012.54 1410.66 1019.84 1390.56 1024.06 1376.34 C 1011.51 1375.23 1000.35 1372.03 993.797 1359.91 C 991.917 1356.43 991.062 1353.62 988.833 1350.14 L 987.908 1350.93 C 989.379 1369.52 1005.3 1375.73 1021.11 1378.5 C 1016.15 1391.16 1011.2 1405.22 1005.34 1417.43 C 1002.29 1423.8 994.783 1430.06 992.252 1437.06 C 986.326 1437.2 976.459 1438.27 971.896 1435.19 L 971.681 1432.94 C 974.055 1428.22 981.354 1421.16 985.246 1417.04 C 986.812 1407.05 990.434 1393.89 992.444 1382.87 C 960.763 1354.45 971.239 1324.24 983.631 1289.33 C 968.058 1291.54 952.715 1296.66 936.826 1297.87 C 928.506 1298.5 908.72 1287.85 916.998 1277.72 C 921.028 1272.8 928.038 1266.7 932.831 1262.15 L 964.415 1232.22 C 959.464 1220.72 959.052 1213.34 957.85 1201.04 C 968.443 1207.93 977.674 1215.98 986.876 1224.6 z" fill="rgb(207,107,52)" transform="translate(0,0)"></path>
<path d="M 975.393 1247.35 C 979.81 1246.03 984.473 1248.5 985.847 1252.91 C 987.221 1257.31 984.794 1262 980.406 1263.42 C 977.525 1264.35 974.365 1263.67 972.131 1261.62 C 969.897 1259.58 968.934 1256.49 969.609 1253.54 C 970.283 1250.59 972.492 1248.22 975.393 1247.35 z" fill="rgb(253,248,236)" transform="translate(0,0)"></path>
<path d="M 974.948 1250.48 C 977.712 1248.72 981.382 1249.54 983.137 1252.3 C 984.892 1255.07 984.066 1258.74 981.293 1260.49 C 978.529 1262.23 974.876 1261.41 973.127 1258.65 C 971.378 1255.89 972.192 1252.24 974.948 1250.48 z" fill="rgb(21,17,10)" transform="translate(0,0)"></path>
<path d="M 326.05 473.057 C 322.192 469.151 318.94 461.988 317.87 456.909 C 313.619 436.737 377.441 427.119 384.757 417.854 C 382.208 414.318 377.623 410.018 378.449 405.604 C 380.55 394.379 409.852 398.098 414.076 404.523 C 389.622 418.14 388.006 451.17 416.156 460.398 C 440.003 468.215 464.19 442.97 450.533 417.954 C 502.61 421.123 603.984 401.411 601.277 488.965 C 600.587 511.282 577.656 553.13 567.1 575.073 L 539.639 575.013 C 545.215 567.635 550.955 560.382 556.855 553.261 C 556.979 546.528 556.986 539.424 557.251 532.731 C 557.572 530.141 557.881 528.171 558.384 525.607 C 560.827 524.553 562.618 524.099 564.238 522.026 L 563.483 521.232 C 556.387 523.169 532.075 530.054 526.622 532.883 C 512.577 533.723 481.288 532.18 465.105 532.223 C 458.179 546.393 451.507 560.686 445.091 575.094 L 418.989 575.017 C 423.965 567.856 429.466 561.074 435.446 554.728 L 436.716 537.368 C 432.54 533.055 426.479 526.851 423.898 521.315 C 420.733 514.529 420.674 501.273 415.103 496.139 L 414.377 496.621 C 414.912 510.472 422.422 526.167 431.964 536.572 C 426.678 549.26 420.656 562.267 415.116 574.932 L 388.352 574.766 C 397.155 559.42 410.523 553.467 403.989 533.134 C 398.501 516.056 390.421 500.229 381.373 484.769 C 360.57 484.925 345.004 489.453 328.29 475.476 C 333.191 474.536 346.298 472.558 349.027 468.37 C 346.72 468.174 331.14 472.254 326.05 473.057 z" fill="rgb(184,58,35)" transform="translate(0,0)"></path>
<path d="M 376.304 436.484 C 378.992 435.136 382.198 435.344 384.69 437.026 C 387.182 438.709 388.573 441.605 388.328 444.602 C 388.083 447.599 386.241 450.23 383.509 451.486 C 379.382 453.382 374.497 451.621 372.531 447.527 C 370.565 443.433 372.244 438.519 376.304 436.484 z" fill="rgb(253,248,236)" transform="translate(0,0)"></path>
<path d="M 378.264 438.384 C 381.309 437.395 384.594 438.969 385.729 441.962 C 386.865 444.956 385.452 448.313 382.518 449.593 C 380.488 450.478 378.136 450.175 376.399 448.803 C 374.661 447.431 373.82 445.214 374.21 443.034 C 374.6 440.855 376.158 439.067 378.264 438.384 z" fill="rgb(21,17,10)" transform="translate(0,0)"></path>
<path d="M 1482.49 903.646 C 1482.84 896.726 1482.74 886.034 1485.77 880.134 L 1487.27 879.71 C 1491.93 883.902 1493.85 893.846 1495.44 900.048 C 1496.04 891.694 1497.05 884.634 1498.26 876.382 C 1503.12 884.619 1506.03 890.49 1509.67 899.291 L 1511.4 908.931 C 1547.57 928.792 1521.26 964.32 1552.33 984.009 C 1563.89 991.338 1585.66 988.291 1598.49 985.418 C 1617.53 982.175 1632.98 982.442 1648.04 996.717 C 1652.64 1002.91 1654.77 1006.42 1658.53 1013.19 C 1664.61 1036.45 1658.45 1051.05 1643.19 1069.05 C 1646.42 1073.36 1649.47 1077.43 1652.92 1081.58 C 1645.05 1096.75 1634.72 1118.05 1626.15 1132.25 C 1617.39 1132.05 1608.63 1131.96 1599.87 1132 C 1612.31 1115.57 1619.95 1100.32 1627.23 1080.99 C 1607.24 1071.46 1608.96 1059.46 1614.68 1041.42 L 1613.26 1041.62 C 1604.81 1052.86 1605.71 1070.02 1617.8 1078.53 C 1619.8 1079.9 1621.84 1081.22 1623.91 1082.46 C 1615.79 1099.77 1608.47 1117.36 1595.84 1131.99 C 1588.57 1131.9 1578.58 1132.05 1571.56 1131.29 C 1593.82 1110.17 1588.82 1111.19 1599.87 1084.47 C 1594.26 1078.89 1591.32 1075.67 1586.47 1069.44 C 1575.49 1069.02 1564.5 1068.72 1553.52 1068.55 C 1549.05 1061.83 1531.15 1035.39 1525.91 1031.89 C 1525.89 1037.35 1546.87 1063.5 1551.23 1069.39 C 1551.1 1075 1531.77 1123.71 1528.35 1131.97 L 1501.24 1132.09 C 1506.16 1125.21 1516.88 1114.95 1518.26 1107.09 C 1519.8 1098.24 1527.38 1077.9 1526.35 1069.46 L 1523.89 1067.95 C 1517.61 1063.74 1512.68 1060.27 1507.63 1054.45 C 1504.81 1051.21 1502.83 1042.82 1500.13 1040.85 C 1494.22 1050.47 1516.61 1066.21 1522.62 1070.89 C 1514.79 1091.54 1511.31 1115.19 1498.15 1132.06 L 1472.64 1132.05 C 1479.53 1125.37 1483.83 1120.51 1490.04 1113.16 C 1491.91 1100.8 1494.75 1084.91 1495.36 1072.71 C 1442.56 1005.8 1521.3 968.135 1521.17 935.361 C 1521.15 931.073 1520.74 924.756 1517.55 921.673 L 1515.93 921.802 C 1515.37 924.701 1518.4 930.055 1518.3 933.709 C 1517.69 955.596 1505.52 963.257 1485.86 964.136 C 1476.16 971.459 1473.16 976.21 1460.51 972.207 L 1460.24 971.376 C 1465.32 968.552 1474.78 963.773 1475.77 957.876 L 1474.42 956.893 C 1471.79 958.166 1470 960.702 1468.1 963.085 C 1465.23 966.671 1460.84 968.153 1456.55 970.099 C 1428.09 952.053 1466.85 919.932 1482.49 903.646 z" fill="rgb(107,96,81)" transform="translate(0,0)"></path>
<path d="M 1485 919.108 C 1488.01 918.163 1491.3 918.937 1493.58 921.125 C 1495.85 923.314 1496.76 926.57 1495.93 929.619 C 1495.11 932.668 1492.68 935.025 1489.61 935.768 C 1485.08 936.864 1480.49 934.167 1479.25 929.672 C 1478 925.177 1480.54 920.503 1485 919.108 z" fill="rgb(253,248,236)" transform="translate(0,0)"></path>
<path d="M 1486.47 921.276 C 1489.79 920.709 1492.93 922.938 1493.5 926.254 C 1494.06 929.569 1491.83 932.716 1488.52 933.279 C 1485.2 933.843 1482.06 931.614 1481.5 928.3 C 1480.93 924.987 1483.16 921.842 1486.47 921.276 z" fill="rgb(21,17,10)" transform="translate(0,0)"></path>
<path d="M 1456.27 947.537 C 1457.72 946.487 1459.73 946.74 1460.88 948.118 C 1462.02 949.495 1461.91 951.525 1460.61 952.759 C 1459.69 953.635 1458.36 953.924 1457.16 953.511 C 1455.95 953.098 1455.08 952.051 1454.9 950.794 C 1454.71 949.538 1455.24 948.282 1456.27 947.537 z" fill="rgb(253,248,236)" transform="translate(0,0)"></path>
<path d="M 1418.97 205.995 C 1423.43 196.943 1425.91 194.806 1433.73 188.268 C 1435.23 191.001 1443.86 213.133 1442.33 212.241 C 1458.88 221.892 1479.76 226.656 1497.36 234.257 C 1496.48 238.271 1494.67 247.672 1493.2 250.986 C 1484.75 252.724 1476.35 255.04 1469.22 249.695 C 1468.1 248.85 1466.75 248.453 1465.41 248.047 C 1469.32 261.687 1487.02 252.635 1491.93 254.964 C 1481.2 286.757 1458.28 268.716 1431.04 267.972 C 1431.32 293.407 1434.04 305.464 1421.19 327.909 C 1424.83 337.741 1427.03 346.393 1429.71 356.538 C 1437.27 360.307 1440.35 364.563 1445.79 371.06 C 1440.4 371.215 1423.92 372.426 1420.03 369.907 C 1418.29 362.624 1386.68 302.544 1381.24 298.31 L 1379.79 299.524 C 1380.1 302.663 1391.03 318.991 1393.54 323.739 C 1399.99 335.955 1401.39 343.373 1404.56 356.586 C 1411.23 361.315 1412.63 363.869 1417.47 370.501 C 1412.27 371.763 1400.35 371.593 1394.54 371.655 C 1387.22 358.279 1377.29 337.416 1371.18 323.497 C 1353.62 323.878 1316.42 325.256 1301.21 319.469 C 1296.95 317.159 1292.14 314.714 1288.18 312.008 C 1289.39 306.832 1292.56 296.044 1290.23 291.695 L 1288.89 291.656 C 1286.19 296.014 1289.24 309.507 1281.84 316.155 C 1275.2 322.118 1269.22 323.214 1261.27 326.67 C 1260.1 327.183 1260.22 330.517 1260.25 331.83 C 1263.43 341.492 1265.5 348.05 1267.62 357.954 C 1275.14 362.71 1275.55 363.661 1279.25 371.384 C 1270.95 371.159 1265.46 371.164 1257.22 369.545 C 1245.3 353.043 1238.44 336.535 1230.7 317.804 L 1245.79 317.659 C 1240.34 294.457 1235.77 279.951 1248.05 258.207 C 1258.5 248.906 1253.36 248.446 1270.61 238.799 C 1295.94 231.537 1325.31 235.06 1351.57 234.442 C 1370.17 234.004 1380.45 236.797 1397.25 226.295 C 1391.36 213.609 1390.4 204.551 1392.4 190.588 C 1401.79 195.419 1409.96 200.483 1418.97 205.995 z" fill="rgb(227,160,42)" transform="translate(0,0)"></path>
<path d="M 1435.55 223.483 C 1438.11 222.003 1441.28 222.062 1443.78 223.635 C 1446.28 225.209 1447.7 228.038 1447.47 230.984 C 1447.24 233.929 1445.4 236.505 1442.69 237.674 C 1438.82 239.341 1434.32 237.704 1432.43 233.941 C 1430.54 230.178 1431.91 225.593 1435.55 223.483 z" fill="rgb(253,248,236)" transform="translate(0,0)"></path>
<path d="M 1436.44 225.527 C 1438.16 224.34 1440.39 224.192 1442.25 225.139 C 1444.11 226.087 1445.3 227.978 1445.35 230.065 C 1445.4 232.152 1444.31 234.099 1442.49 235.136 C 1439.85 236.648 1436.49 235.809 1434.86 233.232 C 1433.24 230.655 1433.94 227.257 1436.44 225.527 z" fill="rgb(21,17,10)" transform="translate(0,0)"></path>
<path d="M 1362.77 254.603 C 1367.12 257.517 1360.05 261.701 1357.44 266.44 C 1352.24 275.921 1352.65 282.66 1350.9 292.601 C 1345.84 289.869 1349.2 283.977 1349.86 278.456 C 1351.02 268.789 1355.48 260.999 1362.77 254.603 z" fill="rgb(253,248,236)" transform="translate(0,0)"></path>
<path d="M 1395.01 243.66 C 1397.1 244.764 1396.39 245.746 1394.72 247.728 C 1385.57 258.548 1383.94 267.853 1382.49 281.374 C 1380.11 280.48 1379.59 279.706 1379.75 277.031 C 1380.59 262.683 1384.81 253.335 1395.01 243.66 z" fill="rgb(253,248,236)" transform="translate(0,0)"></path>
<path d="M 1333.03 249.532 C 1338.22 251.276 1328.64 258.829 1326.41 262.628 C 1320.86 272.125 1321.06 279.488 1319.53 289.978 C 1316.24 288.51 1317.22 287.748 1317.41 284.569 C 1318.27 270.207 1322.83 259.638 1333.03 249.532 z" fill="rgb(253,248,236)" transform="translate(0,0)"></path>
<path d="M 1299.9 246.403 C 1301.82 247.046 1304.21 248.027 1301.7 250.313 C 1296.04 255.454 1292.41 262.532 1291.07 270.003 L 1289.55 278.611 C 1284.74 279.17 1287.38 273.163 1287.81 269.963 C 1289.05 260.707 1293.95 253.315 1299.9 246.403 z" fill="rgb(253,248,236)" transform="translate(0,0)"></path>
<path d="M 279.262 749.044 C 299.966 733.166 300.701 712.626 307.672 689.401 C 317.936 655.206 352.538 633.856 387.721 645.998 C 402.076 650.938 413.834 661.454 420.338 675.17 C 435.41 706.554 412.276 724.394 404.944 746.488 L 404.499 747.859 L 405.437 751.697 C 424.576 757.622 443.545 755.004 463.35 753.144 C 470.204 730.705 470.882 705.676 488.986 692.813 C 501.626 685.879 509.354 684.008 521.373 694.01 C 525.375 699.215 528.709 704.778 532.747 710.325 C 538.823 718.673 553.739 738.062 530.662 734.718 C 525.719 734.002 516.283 725.639 512.237 722.25 C 516.463 735.296 521.669 744.255 522.161 758.302 C 523.966 809.773 479.56 832.344 433.319 834.995 L 431.495 834.574 C 381.077 830.609 349.963 798.675 368.113 747.481 C 373.096 733.423 383.587 719.701 380.71 704.328 C 379.194 691.216 362.506 678.795 348.86 682.951 C 325.435 690.085 323.839 725.234 302.588 738.478 C 291.823 745.186 291.902 746.019 279.262 749.044 z" fill="rgb(138,90,134)" transform="translate(0,0)"></path>
<path d="M 404.077 761.065 L 405.697 761.205 C 409.128 785.728 430.632 797.394 454.605 789.614 C 456.087 789.132 460.48 785.869 460.282 784.501 C 459.039 776.667 435.982 777.779 429.597 773.66 C 427.677 772.42 420.163 771.906 419.929 769.049 C 422.36 767.138 454.655 778.272 459.473 776.741 C 465.579 774.8 463.666 781.673 464.095 787.434 C 439.365 803.582 403.949 793.167 404.077 761.065 z" fill="rgb(253,248,236)" transform="translate(0,0)"></path>
<path d="M 504.774 700.459 C 506.507 699.937 508.364 699.998 510.059 700.631 C 513.86 702.052 516.073 706.016 515.287 709.997 C 514.5 713.978 510.945 716.802 506.89 716.67 C 502.834 716.538 499.472 713.487 498.947 709.463 C 498.421 705.44 500.888 701.628 504.774 700.459 z" fill="rgb(253,248,236)" transform="translate(0,0)"></path>
<path d="M 504.774 700.459 C 506.507 699.937 508.364 699.998 510.059 700.631 C 507.914 700.702 506.869 700.916 504.774 700.459 z" fill="rgb(179,168,178)" transform="translate(0,0)"></path>
<path d="M 505.357 702.51 C 508.42 701.514 511.722 703.124 512.824 706.152 C 513.926 709.179 512.431 712.535 509.444 713.741 C 507.417 714.559 505.106 714.206 503.415 712.821 C 501.725 711.435 500.925 709.238 501.329 707.09 C 501.734 704.942 503.278 703.186 505.357 702.51 z" fill="rgb(21,17,10)" transform="translate(0,0)"></path>
<path d="M 767.08 188.214 C 776.48 182.678 787.446 185.436 792.523 195.234 C 796.167 202.267 793.379 205.402 793.438 211.467 C 808.49 221.411 839.749 237.62 851.558 246.493 C 851.501 253.22 851.709 259.014 846.542 264.109 C 825.073 285.276 778.214 251.594 776.277 318.422 C 776.216 320.548 776.341 322.7 777.843 324.341 C 782.493 329.423 787.596 333.325 792.04 338.819 C 787.041 339.024 780.233 339.682 775.605 338.342 L 772.981 335.784 C 770.896 328.681 753.005 296.24 748.121 289.177 L 746.627 288.816 L 747.65 288.527 L 746.377 288.26 L 747.085 287.787 L 745.571 286.722 L 745.971 288.574 L 746.956 288.488 C 746.275 292.739 768.148 331.385 771.525 337.851 L 771.09 338.299 C 767.873 339.504 758.559 339.03 754.586 338.993 C 741.524 308.619 751.436 317.774 720.544 313.503 C 717.074 316.043 716.323 316.992 713.524 320.305 C 706.278 322.167 697.819 321.804 690.389 321.432 C 698.19 310.684 699.604 302.859 697.769 289.429 C 696.95 283.428 695.713 279.458 689.522 277.575 L 688.459 277.975 C 691.427 285.149 695.852 287.484 696.313 295.988 C 696.981 308.29 692.97 316.634 682.943 323.892 C 688.97 323.976 708.758 324.613 713.814 323.206 C 724.344 326.194 724.355 328.863 726.448 339.035 C 708.965 339.335 655.144 341.651 640.041 337.188 C 627.181 333.479 616.395 324.676 610.184 312.82 C 592.965 279.699 617.125 237.766 648.015 222.745 C 674.791 209.725 694.566 212.923 721.698 221.683 C 727.388 232.075 733.954 238.839 746.275 239.991 C 754.496 240.729 762.671 238.156 768.988 232.843 C 785.204 219.108 779.379 201.413 767.08 188.214 z" fill="rgb(184,58,35)" transform="translate(0,0)"></path>
<path d="M 789.084 227.429 C 793.225 225.925 797.807 228.023 799.374 232.141 C 800.94 236.259 798.912 240.872 794.818 242.5 C 792.114 243.576 789.041 243.111 786.776 241.285 C 784.511 239.458 783.405 236.553 783.884 233.683 C 784.362 230.813 786.349 228.423 789.084 227.429 z" fill="rgb(253,248,236)" transform="translate(0,0)"></path>
<path d="M 790.066 229.446 C 792.055 228.781 794.248 229.244 795.799 230.656 C 797.35 232.067 798.017 234.207 797.542 236.25 C 797.067 238.293 795.525 239.919 793.511 240.502 C 790.482 241.379 787.309 239.672 786.371 236.662 C 785.434 233.652 787.076 230.445 790.066 229.446 z" fill="rgb(21,17,10)" transform="translate(0,0)"></path>
<path d="M 668.485 1144.32 L 669.432 1139.26 L 670.255 1138.96 C 671.089 1142.03 671.235 1142.86 671.401 1146.04 C 670.96 1163.22 669.498 1182.71 682.157 1196.22 C 695.99 1210.98 717.967 1207.91 734.784 1201.48 C 764.383 1194.03 811.109 1187.31 820.589 1226.76 C 825.003 1245.13 816.844 1268.97 811.402 1286.85 C 816.728 1289.75 820.803 1292.02 826.41 1294.3 C 817.429 1306.9 794.267 1344.52 789.231 1358.18 L 763.707 1358.09 C 774.099 1349.45 794.866 1315.81 795.237 1302.35 C 794.359 1301.58 794.018 1301.11 793.012 1300.66 C 775.39 1296.73 769.378 1280.08 773.353 1263.76 C 774.057 1260.87 775.151 1257.32 774.459 1254.48 C 761.844 1259.83 769.169 1295.84 790.287 1302.53 C 790.849 1302.7 791.413 1302.87 791.98 1303.03 C 782.528 1321.89 771.684 1339.8 761.067 1358.04 L 736.02 1358.04 C 750.292 1335.7 755.261 1339.6 763.797 1311.08 C 758.336 1302.25 752.809 1293.47 747.217 1284.73 C 729.911 1283.27 703.762 1284 685.691 1284.02 C 685.168 1275.79 685.401 1246.48 684.341 1241.16 L 683.351 1240.88 C 680.024 1244.96 684.286 1313.37 684.471 1325 C 684.789 1344.94 684.089 1341.29 677.272 1360.72 C 671.468 1360.12 658.946 1360.26 652.692 1360.17 C 657.533 1349.04 663.201 1340.56 669.845 1330.55 C 664.969 1312.8 662.035 1291.77 658.145 1273.61 C 656.225 1264.65 655.337 1255.24 652.545 1246.46 L 651.586 1246.11 C 650.375 1250.52 651.487 1253.61 652.53 1258.02 L 634.024 1264.9 C 629.061 1239.48 631.986 1219.26 636.051 1194.12 C 637.092 1187.68 638.217 1177.46 639.878 1171.63 C 655.87 1167.11 662.862 1159.84 668.485 1144.32 z" fill="rgb(107,96,81)" transform="translate(0,0)"></path>
<path d="M 564.194 898.387 C 574.424 909.258 576.88 917.07 568.574 930.592 C 577.06 937.328 615.418 955.167 616.823 963.775 C 617.398 967.297 615.898 971.953 614.208 974.998 C 602.161 974.982 600.903 975.258 592.527 967.276 L 591.866 968.526 C 594.712 976.826 605.028 978.011 612.727 978.311 C 607.527 984.04 604.157 987.316 595.649 987.341 C 585.068 987.373 570.873 983.266 560.288 980.717 C 571.817 1030.96 583.441 1054.16 535.511 1088.85 C 533.82 1096.79 532.661 1101.03 529.338 1108.49 L 535.241 1135.11 C 542.732 1139.3 544.667 1142.89 549.552 1150.03 C 541.978 1150.13 533.664 1150.4 526.156 1150.26 C 518.075 1132.41 510.451 1112.2 502.465 1095.22 C 496.313 1095.55 489.097 1095.75 483.072 1096.51 C 477.999 1104.3 476.156 1106.73 468.916 1112.53 C 471.15 1120.29 472.506 1128.92 474.624 1135.9 C 483.136 1140.71 484.785 1142.5 490.961 1150.05 C 485.944 1149.98 476.503 1150.2 472.014 1149.04 C 463.357 1135.58 457.851 1123.17 450.163 1110.7 C 456.564 1104.19 470.143 1087.26 463.237 1078.03 L 460.254 1076.4 C 458.143 1079.66 468.021 1095.92 445.926 1109.12 C 448.776 1116.01 451.315 1122.74 453.964 1129.67 C 456.86 1137.25 466.051 1141.37 469.083 1149.85 L 446.483 1149.89 C 437.405 1131.92 428.114 1114.05 418.611 1096.29 L 429.463 1095.36 C 424.57 1076.74 415.066 1053.09 426.686 1035.32 C 441.36 1012.88 470.574 1020.88 491.679 1017.13 C 520.047 1012.08 507.685 965.387 518.484 948.228 C 525.331 944.343 529.407 940.984 537.618 936.687 C 535.563 932.454 532.085 925.543 528.094 922.981 C 525.738 916.297 528.579 904.724 535.315 901.361 C 543.624 900.706 546.89 909.924 550.199 916.201 C 554.85 906.951 556.209 904.81 564.194 898.387 z" fill="rgb(227,160,42)" transform="translate(0,0)"></path>
<path d="M 514.774 1014.82 C 523.106 1023.91 523.19 1041.1 514.511 1050.07 C 505.569 1059.31 498.208 1060.6 486.137 1061.34 C 477.356 1057.97 479.635 1056.7 482.739 1048.24 C 484.408 1043.69 486.741 1039.28 489.004 1035 C 502.281 1028.61 506.597 1027.31 514.774 1014.82 z" fill="rgb(253,248,236)" transform="translate(0,0)"></path>
<path d="M 514.059 1020.84 C 520.901 1026.11 518.219 1043.52 511.78 1049.27 C 502.825 1057.26 498.302 1057.77 486.979 1058.37 C 485.98 1058.15 482.639 1057.93 482.688 1056.52 C 482.885 1050.94 487.423 1042.71 490.051 1038.12 C 502.511 1031.06 503.984 1031.6 514.059 1020.84 z" fill="rgb(227,160,42)" transform="translate(0,0)"></path>
<path d="M 555.057 942.574 C 557.694 941.287 560.824 941.542 563.217 943.241 C 565.61 944.94 566.884 947.81 566.539 950.724 C 566.193 953.638 564.284 956.131 561.56 957.223 C 557.555 958.829 552.997 956.978 551.246 953.034 C 549.495 949.09 551.179 944.467 555.057 942.574 z" fill="rgb(253,248,236)" transform="translate(0,0)"></path>
<path d="M 556.571 944.564 C 558.572 943.8 560.832 944.23 562.414 945.674 C 563.995 947.119 564.626 949.332 564.046 951.393 C 563.465 953.455 561.772 955.013 559.669 955.42 C 556.784 955.978 553.95 954.238 553.144 951.412 C 552.337 948.586 553.826 945.613 556.571 944.564 z" fill="rgb(47,37,11)" transform="translate(0,0)"></path>
<path d="M 1499.85 459.573 C 1516.99 458.914 1540.14 448.421 1542.21 429.428 C 1581 467.497 1633.33 426.039 1668.9 471.841 C 1677.76 483.242 1681.61 498.13 1682.08 512.422 C 1680.32 532.617 1676.13 532.804 1668.82 548.282 C 1656.86 559.189 1655.4 560.354 1638.67 560.098 C 1615.9 559.75 1592.85 560.334 1570.08 559.403 C 1575.72 548.599 1577.13 545.66 1588.76 541.557 C 1599.6 539.28 1609.05 539.248 1620.01 539.041 C 1602.61 534.435 1589.9 527.91 1586.34 508.315 C 1584.43 498.245 1586.71 487.831 1592.65 479.483 C 1604.7 462.734 1616.68 465.758 1631.42 463.357 L 1632.17 462.253 C 1617.22 455.649 1597.8 466.578 1589.6 479.429 C 1583.66 488.614 1581.69 499.808 1584.13 510.467 C 1586.92 522.935 1593.01 529.943 1603.36 536.64 C 1595.24 537.884 1587.1 538.967 1578.93 539.888 C 1575.59 539.668 1570.83 539.781 1567.44 539.929 C 1532.87 541.441 1498.29 541.014 1463.7 540.395 C 1459.22 540.315 1452.53 540.442 1448.44 538.752 L 1447.87 536.594 C 1449.1 530.621 1452.34 526.896 1456.33 522.513 C 1466.52 520.099 1482.83 518.903 1493.65 517.688 C 1507.89 516.088 1522.52 514.066 1536.72 512.72 C 1540.87 504.38 1548.69 489.516 1550.68 480.815 C 1547.49 483.257 1537.84 504.421 1535.33 509.677 C 1511.05 514.915 1479.98 514.543 1455.29 519.665 C 1451.92 520.024 1450.73 520.46 1447.71 519.252 L 1446.94 517.327 C 1448.09 513.285 1452.76 508.399 1455.62 504.955 C 1465.37 501.286 1495.86 498.015 1507.32 496.581 C 1505.16 487.353 1500.94 468.636 1499.85 459.573 z" fill="rgb(207,107,52)" transform="translate(0,0)"></path>
<path d="M 1634.99 724.357 C 1646.81 721.113 1659.44 722.717 1670.07 728.815 C 1693 742.017 1687.9 770.876 1686.84 792.589 C 1685.68 816.564 1713.05 820.598 1724.21 802.777 C 1734.61 786.368 1712.52 766.648 1703.99 751.479 C 1711.16 750.292 1717.8 750.448 1724.88 748.65 C 1738.79 761.412 1751.71 773.015 1752.59 793.573 C 1753.04 805.524 1748.64 817.148 1740.39 825.808 C 1719.26 847.985 1683.73 844.229 1665.88 819.525 C 1657.72 801.303 1659.44 792.837 1662.55 773.649 C 1662.71 772.418 1662.87 771.192 1662.93 769.95 C 1663.15 765.153 1661.35 760.484 1657.97 757.074 C 1644.56 743.677 1634.26 764.467 1630.02 774.802 C 1626.17 782.435 1610.93 814.999 1630.19 813.795 C 1643.8 812.944 1652.34 783.932 1660.34 773.34 C 1656.63 790.291 1654 805.392 1664.03 820.916 C 1646.92 843.18 1623.35 850.229 1601.26 829.773 C 1581.87 802.487 1598.01 777.229 1609.06 750.242 L 1611.85 745.004 L 1613.36 741.967 C 1617.88 735.16 1620.09 733.144 1626.52 728.304 C 1628.66 727.126 1632.64 725.445 1634.99 724.357 z" fill="rgb(138,90,134)" transform="translate(0,0)"></path>
<path d="M 1575.48 618.208 C 1577.63 617.514 1580.74 616.148 1582.68 616.773 C 1580.15 618.513 1579.73 618.775 1576.9 619.92 C 1566.46 627.723 1564.13 632.671 1559.6 644.952 C 1585.5 645.157 1599.29 645.564 1615.57 623.907 C 1611.92 640.271 1608.2 645.586 1592.84 652.623 C 1608.98 654.513 1613.28 653.562 1626.2 643.926 C 1621.43 657.94 1616.23 667.302 1600.83 671.112 L 1594.28 671.245 C 1592.99 675.221 1595.82 678.947 1597.63 682.601 C 1601.34 690.086 1599.24 702.532 1596.91 710.376 C 1595.35 713.854 1593.05 719.408 1591.19 722.48 L 1589.58 725.234 C 1583.81 733.02 1579.22 738.511 1572.1 745.286 C 1568 749.196 1563.95 753.162 1559.96 757.183 C 1558.39 762.44 1561.33 766.188 1563.91 771.127 C 1552.1 801.792 1526.9 798.178 1524.01 761.424 C 1521.31 727.285 1568.49 721.232 1557.77 703.817 C 1548.37 697.57 1510.71 699.91 1497.83 699.993 C 1487.85 726.079 1516.18 718.546 1530.93 714.995 C 1511.88 727.055 1510.05 721.62 1490.3 718.762 C 1485.56 718.076 1483.33 725.687 1473.22 718.714 L 1473.15 717.529 C 1478.7 714.382 1481.5 717.68 1486.43 714.825 C 1488.95 711.683 1489.89 705.184 1489.51 701.363 C 1469.43 697.352 1467.78 682.939 1473.35 666.458 C 1501.04 667.695 1505.49 662.739 1530.95 649.208 C 1538.01 646.33 1549.68 645.432 1552.54 642.826 C 1559.9 629.182 1561.43 625.48 1575.48 618.208 z" fill="rgb(138,90,134)" transform="translate(0,0)"></path>
<path d="M 1535.01 661.503 C 1537.7 660.035 1540.98 660.158 1543.56 661.825 C 1546.13 663.491 1547.59 666.433 1547.35 669.491 C 1547.11 672.548 1545.22 675.23 1542.42 676.479 C 1538.32 678.306 1533.51 676.572 1531.52 672.55 C 1529.53 668.527 1531.07 663.652 1535.01 661.503 z" fill="rgb(253,248,236)" transform="translate(0,0)"></path>
<path d="M 1536.1 663.581 C 1538.85 661.866 1542.46 662.693 1544.19 665.432 C 1545.92 668.171 1545.11 671.793 1542.38 673.536 C 1539.63 675.291 1535.98 674.475 1534.24 671.716 C 1532.5 668.957 1533.33 665.309 1536.1 663.581 z" fill="rgb(21,17,10)" transform="translate(0,0)"></path>
<path d="M 1499.62 684.786 C 1502.59 688.833 1499.8 692.642 1496.21 695.289 C 1492.49 698.028 1489.55 697.086 1485.27 696.276 C 1485.01 695.35 1484.75 694.424 1484.48 693.498 C 1486.5 693.13 1488.12 694.19 1490.48 693.714 C 1495.11 692.78 1497.16 688.395 1499.62 684.786 z" fill="rgb(253,248,236)" transform="translate(0,0)"></path>
<path d="M 1509.56 403.532 C 1512 386.784 1518.75 367.161 1528.19 353.065 C 1544.45 328.821 1561.96 321.137 1588.98 315.39 C 1567.44 349.615 1538.71 385.887 1518.02 419.521 C 1525.46 422.132 1528.94 422.323 1536.89 422.573 C 1538.92 422.637 1539.76 425.73 1540.61 427.476 C 1535.05 439.937 1531.6 447.268 1518.5 452.851 C 1510.69 456.182 1503.07 455.919 1498.21 457.52 C 1488.12 458.591 1439.74 465.907 1444.13 447.939 C 1447.29 435.027 1497.46 410.784 1509.56 403.532 z" fill="rgb(207,107,52)" transform="translate(0,0)"></path>
<path d="M 1493.93 424.377 C 1496.66 422.963 1499.95 423.183 1502.47 424.948 C 1504.99 426.713 1506.32 429.73 1505.92 432.779 C 1505.52 435.827 1503.46 438.402 1500.57 439.46 C 1496.48 440.96 1491.93 439.023 1490.17 435.035 C 1488.42 431.047 1490.06 426.382 1493.93 424.377 z" fill="rgb(253,248,236)" transform="translate(0,0)"></path>
<path d="M 1494.59 426.438 C 1497.36 424.803 1500.94 425.687 1502.63 428.429 C 1504.32 431.17 1503.51 434.762 1500.81 436.512 C 1499.01 437.677 1496.72 437.776 1494.82 436.773 C 1492.93 435.769 1491.72 433.818 1491.67 431.674 C 1491.62 429.53 1492.74 427.527 1494.59 426.438 z" fill="rgb(21,17,10)" transform="translate(0,0)"></path>
<path d="M 620.639 1101.78 C 621.661 1090.63 623.052 1080.1 624.559 1069 C 628.106 1074.94 631.539 1080.94 634.854 1087 C 637.588 1092.44 641.459 1099.61 643.587 1105.14 C 652.728 1108.66 661.365 1112 665.073 1121.95 C 672.606 1142.16 660.006 1163.04 640.064 1168.68 L 626.369 1168.93 C 614.157 1178.18 601.063 1195.02 585.739 1184.44 C 588.231 1184.06 592.92 1185.43 594.544 1184.06 C 599.862 1179.56 613.002 1168.14 614.457 1161.59 C 606.475 1165.03 601.681 1178.78 585.492 1182.81 L 584.174 1183.13 L 583.03 1182.17 C 577.115 1177.15 567.63 1166.74 573.511 1158.5 C 587.284 1139.19 604.272 1118.92 620.639 1101.78 z" fill="rgb(107,96,81)" transform="translate(0,0)"></path>
<path d="M 622.169 1117.55 C 626.523 1115.97 631.344 1118.16 633.004 1122.49 C 634.663 1126.82 632.548 1131.67 628.251 1133.41 C 625.405 1134.55 622.162 1134.08 619.767 1132.16 C 617.372 1130.24 616.198 1127.18 616.696 1124.15 C 617.194 1121.12 619.286 1118.6 622.169 1117.55 z" fill="rgb(253,248,236)" transform="translate(0,0)"></path>
<path d="M 623.69 1119.55 C 625.79 1118.99 628.029 1119.61 629.541 1121.17 C 631.053 1122.73 631.598 1124.99 630.966 1127.07 C 630.334 1129.15 628.623 1130.73 626.498 1131.18 C 623.324 1131.86 620.186 1129.89 619.424 1126.74 C 618.662 1123.58 620.555 1120.39 623.69 1119.55 z" fill="rgb(21,17,10)" transform="translate(0,0)"></path>
<path d="M 583.352 1159.89 C 584.987 1158.78 587.212 1159.18 588.351 1160.8 C 589.49 1162.42 589.121 1164.65 587.523 1165.81 C 586.466 1166.58 585.076 1166.72 583.886 1166.18 C 582.696 1165.64 581.891 1164.5 581.781 1163.19 C 581.67 1161.89 582.27 1160.63 583.352 1159.89 z" fill="rgb(253,248,236)" transform="translate(0,0)"></path>
<path d="M 1129.75 1286.04 C 1133.71 1261.74 1152.2 1246.51 1177.1 1251.27 C 1187.49 1253.26 1196.65 1259.34 1202.52 1268.14 C 1214.9 1286.67 1209.04 1313.92 1190.5 1325.87 C 1183.74 1330.22 1170.51 1333.31 1162.75 1331.71 C 1162.16 1325.61 1159.69 1317.08 1158.13 1310.94 C 1157.14 1309.18 1156.28 1307.71 1155.2 1306.02 C 1146.88 1296.14 1141.85 1290.55 1129.75 1286.04 z" fill="rgb(207,107,52)" transform="translate(0,0)"></path>
<path d="M 1157.21 1305.67 C 1155.77 1300.6 1154.11 1290.55 1157.33 1286.23 C 1168.9 1270.73 1194.88 1285.43 1183.4 1303.62 C 1178.54 1311.32 1168.26 1312.78 1159.97 1310.04 L 1158.13 1310.94 C 1157.14 1309.18 1156.28 1307.71 1155.2 1306.02 L 1157.21 1305.67 z" fill="rgb(253,248,236)" transform="translate(0,0)"></path>
<path d="M 1157.21 1305.67 L 1159.97 1310.04 L 1158.13 1310.94 C 1157.14 1309.18 1156.28 1307.71 1155.2 1306.02 L 1157.21 1305.67 z" fill="rgb(208,158,118)" transform="translate(0,0)"></path>
<path d="M 826.006 1196.27 C 871.316 1193.73 855.563 1249.56 861.417 1276.24 C 865.875 1296.56 875.118 1308.82 892.372 1320.18 C 887.172 1320.88 880.877 1321.03 875.541 1321.29 C 843.717 1320.2 827.782 1292.96 826.242 1264.1 C 824.523 1231.9 830.359 1226.45 808.221 1201.49 C 815.572 1198.37 818.13 1197.41 826.006 1196.27 z" fill="rgb(107,96,81)" transform="translate(0,0)"></path>
<path d="M 651.693 1076.73 C 651.015 1081.7 650.491 1086.76 649.129 1091.58 C 659.341 1092.03 668.74 1092.24 678.836 1093.97 C 675.418 1096.82 670.932 1100.37 667.781 1103.35 C 672.407 1103.91 685.909 1104.68 689.246 1105.97 L 689.722 1107.31 C 687.475 1110.26 684.808 1110.96 681.34 1112.48 L 701.101 1123.94 L 692.85 1128.34 C 696.576 1134.4 698.873 1138.21 701.602 1144.84 C 709.552 1164.16 712.39 1188.64 732.262 1199.58 C 723.001 1205.08 700.959 1205.04 691.412 1199.94 C 665.059 1185.88 679.343 1149.39 670.473 1126.33 C 664.97 1112.02 658.435 1108.74 645.47 1102.64 C 642.785 1097.39 640.248 1092.06 637.862 1086.67 C 642.808 1083.57 647.334 1080.64 651.693 1076.73 z" fill="rgb(107,96,81)" transform="translate(0,0)"></path>
<path d="M 1577.02 754.975 C 1585.73 748.028 1596.92 749.384 1607.3 750.668 C 1596.39 770.008 1591.1 783.414 1589.06 805.797 C 1575.34 816.185 1564.15 820.658 1546.64 817.761 C 1542 816.995 1515.33 811.459 1512.18 810.192 C 1501.31 809.162 1487.23 824.627 1481.29 821.56 C 1481.62 813.058 1486.22 815.285 1485.46 807.408 L 1484.63 805.118 L 1485.28 804.281 L 1485.1 802.965 L 1481.18 800.419 C 1480.78 799.742 1480.45 799.183 1480.01 798.529 C 1479.93 795.071 1479.73 794.642 1481.32 791.738 C 1487.78 787.739 1492.15 792.261 1496.87 796.678 C 1508.57 797.053 1535.67 797.474 1545.94 793.983 C 1559.15 789.491 1564.46 776.748 1569.71 765.221 C 1572.07 761.752 1574.51 758.335 1577.02 754.975 z" fill="rgb(138,90,134)" transform="translate(0,0)"></path>
<path d="M 1447.12 1204.07 C 1456.08 1178.53 1481.54 1155.77 1508.34 1178.34 C 1521.4 1189.33 1520.41 1217.23 1520.14 1233.84 C 1520.51 1237.74 1522.47 1252.47 1520.69 1254.83 C 1520.01 1253.9 1519.04 1252.7 1518.53 1251.71 C 1513.14 1243.63 1508.76 1234.12 1504.5 1225.36 L 1503.94 1223.81 C 1502.21 1227.15 1503.12 1236.32 1503.95 1240.17 C 1504.06 1243.06 1505.33 1250.06 1505.81 1253.24 C 1498.6 1244.58 1492.37 1234.14 1487.53 1223.95 C 1485.06 1218.76 1483.05 1210.27 1479.75 1206.24 L 1478.34 1207.08 C 1474.25 1217.17 1477.15 1225.61 1480.49 1234.96 C 1466.29 1221.47 1465.37 1215.78 1447.12 1204.07 z" fill="rgb(207,107,52)" transform="translate(0,0)"></path>
<path d="M 299.342 758.834 C 308.129 752.223 311.395 750.265 317.348 740.313 C 328.575 721.643 327.497 683.473 357.858 685.892 C 363.185 686.316 370.518 689.836 373.507 694.181 C 382.271 706.917 376.089 723.308 370.283 735.716 C 359.915 757.873 356.726 774.06 364.219 797.807 C 352.937 791.629 347.273 789.847 342.182 777.527 C 342.961 777.79 343.745 778.041 344.533 778.279 C 347.295 779.09 348.574 779.675 350.656 778.542 C 348.036 775.583 345.308 775.096 341.508 773.763 C 341.123 770.193 340.29 762.661 341.807 759.583 L 346.873 758.704 L 346.884 757.707 C 341.638 751.82 340.891 749.792 343.607 742.145 C 346.317 739.583 345.806 740.373 350.204 739.592 L 350.39 738.263 L 348.017 735.378 C 346.977 726.197 355.995 726.612 357.77 724.442 L 354.295 720.799 C 357.848 715.525 356.455 717.13 363.1 714.58 L 363.109 713.279 L 359.522 712.143 C 359.359 707.186 359.873 699.468 356.337 696.117 L 355.283 696.542 C 353.836 700.82 350.319 713.03 348.243 716.38 C 335.192 737.441 324.326 752.693 299.342 758.834 z" fill="rgb(138,90,134)" transform="translate(0,0)"></path>
<path d="M 400.156 947.173 C 411.807 946.563 420.099 946.285 430.679 952.245 C 440.499 957.754 447.672 967.003 450.562 977.885 C 456.067 999.152 444.828 1008.4 425.93 1012.58 C 438.017 999.915 446.767 983.754 431.236 968.647 C 425.14 962.736 416.934 959.506 408.445 959.678 C 382.237 960.043 369.471 979.655 369.638 1004.04 C 374.302 1032.78 391.815 1040.82 418.833 1043.46 C 418.075 1047.29 417.762 1054.01 417.458 1058.12 C 404.844 1057.12 395.063 1055.01 384.13 1048.28 C 370.647 1040.17 361.038 1026.93 357.508 1011.6 C 350.577 980.632 369.659 953.715 400.156 947.173 z" fill="rgb(227,160,42)" transform="translate(0,0)"></path>
<path d="M 1244.91 257.964 C 1241.1 256.339 1235.49 254.016 1232 252.027 C 1220.11 245.276 1211.45 234.028 1207.95 220.817 C 1202.03 197.623 1215.84 171.906 1239.48 165.895 C 1255.68 161.773 1268.72 172.807 1281.69 181.103 C 1273.55 199.124 1265.05 192.171 1248.91 188.836 C 1245.76 188.184 1242.43 187.411 1239.27 186.737 C 1232.93 190.572 1225.63 199.999 1225.75 207.373 C 1226.18 233.445 1249.47 237.335 1268.29 238.317 C 1266.27 239.369 1264.25 240.445 1262.25 241.546 C 1254.44 245.872 1250.44 253.271 1244.91 257.964 z" fill="rgb(227,160,42)" transform="translate(0,0)"></path>
<path d="M 1256.2 175.886 C 1258.72 174.696 1261.74 175.758 1262.96 178.268 C 1264.18 180.779 1263.15 183.803 1260.65 185.053 C 1259.01 185.874 1257.06 185.75 1255.53 184.728 C 1254.01 183.705 1253.15 181.942 1253.29 180.112 C 1253.43 178.282 1254.54 176.668 1256.2 175.886 z" fill="rgb(253,248,236)" transform="translate(0,0)"></path>
<path d="M 1511.47 897.41 C 1526.98 898.474 1541.41 905.694 1551.57 917.461 C 1570.36 938.974 1569.48 971.717 1596.44 983.531 C 1585.47 986.606 1563.63 988.099 1553.75 981.638 C 1524.61 962.57 1547.85 926.375 1514.45 907.343 C 1513.4 904.3 1512.4 900.55 1511.47 897.41 z" fill="rgb(107,96,81)" transform="translate(0,0)"></path>
<path d="M 1606.25 351.363 C 1617.64 351.256 1622.51 352.311 1633.56 355.386 C 1613.09 362.555 1592.44 384.152 1574.04 396.468 C 1563.57 403.478 1553.38 409.083 1542.46 415.269 C 1537.08 418.142 1527.24 423.113 1522.45 417.733 C 1523.24 414.747 1542.66 387.414 1545.81 383.704 C 1562.2 364.394 1581.3 353.839 1606.25 351.363 z" fill="rgb(207,107,52)" transform="translate(0,0)"></path>
<path d="M 1768.3 660.57 L 1770.07 656.78 L 1771.11 656.616 C 1771.12 659.367 1771.13 659.461 1770.49 662.125 C 1762.97 681.058 1754.22 693.218 1734.81 702.156 C 1731.09 703.87 1731.17 702.796 1728.99 705.788 C 1732.51 711.111 1743.75 709.113 1748.94 706.801 C 1757.65 702.926 1763.1 696.689 1768.76 689.366 C 1764.41 700.189 1758.47 711.971 1747.02 716.717 C 1740.77 719.309 1723.78 721.797 1721.62 728.909 C 1727.22 738.54 1747.83 731.51 1755.54 727.461 C 1741.74 746.226 1741.04 740.301 1724.88 748.65 C 1717.8 750.448 1711.16 750.292 1703.99 751.479 C 1690.78 730.191 1700.2 706.121 1721.22 694.918 C 1740.93 684.408 1757.47 682.416 1768.3 660.57 z" fill="rgb(107,96,81)" transform="translate(0,0)"></path>
<path d="M 651.875 1261.01 C 654.153 1263.74 656.419 1280.51 657.665 1285.86 C 647.48 1288.63 640.491 1289.91 630.044 1291.62 C 634.591 1304.37 642.714 1320.74 648.558 1333.31 C 646.662 1341.69 643.637 1351.79 641.347 1360.21 L 620.966 1360.19 L 620.211 1359.5 C 619.936 1356.72 627.162 1343.22 628.83 1340.06 C 622.651 1322.46 613.306 1301 606.191 1283.39 C 623.123 1273.22 633.522 1267.69 651.875 1261.01 z" fill="rgb(107,96,81)" transform="translate(0,0)"></path>
<path d="M 1650.65 995.912 C 1664.08 947.904 1726.36 947.801 1750.05 991.165 C 1750.76 992.46 1751.43 993.778 1752.06 995.115 C 1720.27 978.046 1681.04 979.341 1661.11 1013.03 C 1656.85 1005.16 1656.53 1002.98 1650.65 995.912 z" fill="rgb(107,96,81)" transform="translate(0,0)"></path>
<path d="M 415.137 407.41 C 427.632 402.43 441.883 407.473 448.465 419.203 C 453.933 428.948 452.789 441.062 445.592 449.61 C 438.395 458.158 426.654 461.35 416.12 457.622 C 405.586 453.895 398.465 444.029 398.247 432.857 C 398.028 421.685 404.757 411.547 415.137 407.41 z" fill="rgb(184,58,35)" transform="translate(0,0)"></path>
<path d="M 724.711 220.51 C 720.64 209.509 724.363 197.143 733.83 190.217 C 743.297 183.291 756.21 183.486 765.463 190.696 C 774.246 197.539 777.756 209.18 774.22 219.738 C 770.684 230.296 760.872 237.474 749.739 237.648 C 738.606 237.822 728.574 230.953 724.711 220.51 z" fill="rgb(184,58,35)" transform="translate(0,0)"></path>
<path d="M 574.327 289.229 C 581.985 288.64 588.722 288.982 596.306 290.443 C 600.466 291.245 605.209 295.844 601.805 299.663 C 589.295 296.039 577.879 295.289 565.414 299.305 C 539.479 307.662 530.71 339.108 554.807 355.738 C 587.161 378.066 627.865 353.193 663.479 355.222 C 676.661 355.973 683.994 358.552 695.916 363.999 C 699.957 366.126 708.847 370.432 705.511 376.334 C 702.272 376.342 699.293 374.364 696.588 372.569 C 652.226 343.129 596.514 391.534 552.324 363.777 C 543.238 358.069 536.187 349.112 534.022 338.542 C 531.91 328.528 533.938 318.085 539.644 309.589 C 548.192 297.072 560.104 292.057 574.327 289.229 z" fill="rgb(184,58,35)" transform="translate(0,0)"></path>
<path d="M 1510.79 812.854 L 1511.74 812.993 C 1535.51 816.694 1542.09 823.257 1569.09 820.747 C 1573.39 824.612 1574.03 825.606 1579.04 828.905 C 1574.45 844.414 1549.56 853.947 1534.96 846.509 C 1519.15 838.456 1513.91 829.172 1510.79 812.854 z" fill="rgb(138,90,134)" transform="translate(0,0)"></path>
<path d="M 1457.75 543.134 C 1485.65 542.502 1516.84 543.199 1544.78 543.612 C 1539.35 548.318 1534.21 553.352 1529.02 558.321 C 1525.04 560.743 1455.63 559.612 1444.76 559.446 C 1448.66 552.858 1452.25 548.361 1457.75 543.134 z" fill="rgb(207,107,52)" transform="translate(0,0)"></path>
<path d="M 1683.66 515.738 C 1701.03 509.373 1721.39 528.42 1711.54 547.562 C 1708.98 552.626 1704.44 556.409 1699 558.02 C 1685.89 561.907 1678.9 556.189 1669.62 548.129 C 1677.75 539.611 1684.75 527.979 1683.66 515.738 z" fill="rgb(207,107,52)" transform="translate(0,0)"></path>
<path d="M 1321.92 1138.7 C 1336.63 1131.89 1348.16 1131.11 1364.02 1135.12 L 1366.99 1136.1 C 1378.64 1139.95 1382.64 1143.37 1396.06 1146.82 C 1377.6 1163.63 1361.45 1161.3 1339.2 1153.69 C 1329.99 1148.52 1328.67 1147.09 1321.92 1138.7 z" fill="rgb(207,107,52)" transform="translate(0,0)"></path>
<path d="M 929.888 231.831 L 941.146 238.695 C 939.701 240.653 934.056 245.786 931.601 248.439 C 933.557 257.582 935.447 267.217 937.87 276.176 C 944.859 281.852 950.067 286.968 955.663 294.029 C 949.748 294.039 932.591 294.545 928.046 293.286 C 927.156 290.849 926.667 289.908 925.474 287.596 C 920.957 278.942 911.048 253.351 907.574 243.475 C 918.439 242.024 922.646 239.145 929.888 231.831 z" fill="rgb(107,96,81)" transform="translate(0,0)"></path>
<path d="M 1286.31 314.206 C 1291.02 317.024 1295.75 319.631 1300.42 322.428 C 1296.99 325.047 1289.71 328.298 1285.38 330.629 C 1287.67 339.292 1289.51 347.004 1291.28 355.79 L 1290.94 355.574 C 1299.86 362.139 1299.92 362.447 1306.85 370.852 C 1298.69 370.957 1290.53 371.132 1282.37 371.376 C 1274.03 356.757 1270.29 342.902 1263.17 328.853 C 1265.5 327.415 1267.6 327.829 1270.42 326.751 C 1277.61 324.009 1281.35 319.545 1286.31 314.206 z" fill="rgb(227,160,42)" transform="translate(0,0)"></path>
<path d="M 526.622 532.883 C 536.302 533.278 543.514 530.344 552.495 527.068 C 556.206 525.714 554.408 531.469 554.133 532.838 C 549.328 542.893 539.005 565.14 534.999 575.135 L 508.258 575.029 C 521.078 554.625 525.812 559.576 526.622 532.883 z" fill="rgb(184,58,35)" transform="translate(0,0)"></path>
<path d="M 899.001 67.9935 C 902.807 68.0695 901.783 67.4821 904.139 69.5219 L 904.172 71.7755 C 901.616 75.1815 893.689 77.4985 889.449 78.8295 C 859.093 88.3603 835.264 121.507 858.533 150.325 C 865.136 158.503 875.388 156.585 884.207 160.295 C 885.677 163.307 884.839 163.79 883.981 167.681 C 866.713 166.654 850.709 160.305 845.518 142.795 C 832.525 98.9738 865.803 79.8975 899.001 67.9935 z" fill="rgb(107,96,81)" transform="translate(0,0)"></path>
<path d="M 1058.99 1226.1 C 1059.59 1229.97 1057.3 1234.41 1055.21 1237.6 C 1043.39 1255.7 1028.48 1263.22 1009.04 1250.77 C 1002.88 1245.11 995.011 1236.73 1008.25 1234.63 C 1026.21 1231.78 1042.14 1233.88 1058.99 1226.1 z" fill="rgb(207,107,52)" transform="translate(0,0)"></path>
<path d="M 1073.69 67.931 C 1073.86 70.9837 1070.95 78.1422 1070.22 81.0093 C 1065.28 100.387 1076.05 106.563 1091.6 113.439 C 1093.28 114.182 1104.24 128.099 1103.8 129.817 C 1102.49 130.879 1097.4 130.507 1095.58 130.52 C 1062.31 125.621 1043.78 92.2268 1073.69 67.931 z" fill="rgb(107,96,81)" transform="translate(0,0)"></path>
<path d="M 1348.14 1115.44 C 1356.51 1114.98 1366.21 1114.84 1374.67 1114.73 C 1370.41 1124.64 1368.89 1125.24 1364.49 1133.39 C 1352.08 1129.97 1347.69 1129.56 1334.49 1131.17 C 1332.79 1130.99 1321.82 1135.19 1321.08 1133.85 C 1316.97 1126.47 1332.71 1117.28 1337.39 1116.6 C 1343.57 1115.7 1344.52 1115.86 1348.14 1115.44 z" fill="rgb(207,107,52)" transform="translate(0,0)"></path>
<path d="M 518.842 945.739 C 510.367 946.37 508.981 945.499 501.713 941.327 C 496.44 938.3 483.768 914.265 498.046 921.766 C 503.478 924.619 519.901 924.005 526.832 924.148 C 528.928 928.019 531.696 931.37 534.273 934.952 C 531.443 936.855 520.577 943.592 518.842 945.739 z" fill="rgb(227,160,42)" transform="translate(0,0)"></path>
<path d="M 1495.1 752.69 C 1492.35 743.313 1497.46 741.276 1504.99 746.203 C 1513.68 751.886 1512.8 749.669 1522.36 749.981 C 1521.39 760.363 1520.76 764.34 1521.6 774.958 C 1517.38 773.533 1512.87 771.839 1508.68 770.253 L 1508.04 770.551 C 1500.57 774.057 1485.49 777.899 1496.02 765.814 C 1497.6 764.006 1497.45 764.939 1496.98 762.97 C 1496.85 762.069 1496.91 760.794 1496.92 759.857 C 1497.89 758.395 1497.8 758.259 1497.28 756.558 C 1493.08 755.849 1481.9 757.625 1480.52 756.165 C 1480.44 755.769 1480.41 755.93 1480.54 755.664 L 1480.62 755.837 C 1482.42 754.496 1492.14 753.248 1495.1 752.69 z" fill="rgb(138,90,134)" transform="translate(0,0)"></path>
<path d="M 439.234 837.241 C 441.247 837.232 449.584 836.706 450.618 837.37 C 451.426 839.137 451.413 851.794 445.037 853.099 C 443.769 856.547 444.005 858.959 446.595 861.698 C 447.762 862.062 449.227 862.341 450.453 862.608 C 451.937 862.872 478.095 874.923 471.628 875.088 C 470.812 875.109 452.969 868.162 451.945 867.724 L 451.355 869.508 C 455.451 874.877 457.369 879.288 460.111 885.333 C 454.523 879.518 451.577 875.143 446.328 869.332 C 440.32 865.314 422.195 873.006 416.255 876.263 C 415.215 876.921 411.174 879.956 409.812 878.405 C 410.135 876.646 412.691 875.771 414.134 875.087 C 418.966 872.189 424.055 870.109 427.466 865.906 C 425.617 865.962 423.906 866.015 422.055 866.148 C 418.066 868.774 406.288 874.543 401.818 874.551 C 396.305 874.561 419.214 864.434 420.518 864.155 C 420.551 858.068 419.188 857.589 421.991 852.267 L 424.214 853.837 C 424.635 856.807 426.907 862.008 427.954 865.388 C 431.731 864.861 436.975 863.234 440.849 862.16 C 440.185 856.939 439.432 858.004 442.203 853.424 C 441.227 853.307 436.618 853.172 436.546 852.029 C 436.307 848.27 433.214 838.368 437.995 837.499 L 439.234 837.241 z" fill="rgb(138,90,134)" transform="translate(0,0)"></path>
<path d="M 595.475 424.536 C 599.512 423.038 604.043 423.829 607.333 426.607 C 610.624 429.385 612.164 433.719 611.364 437.95 C 610.565 442.181 607.549 445.654 603.472 447.04 C 597.288 449.141 590.563 445.885 588.376 439.731 C 586.189 433.577 589.352 426.808 595.475 424.536 z" fill="rgb(184,58,35)" transform="translate(0,0)"></path>
<path d="M 598.47 429.675 C 601.574 429.034 604.666 430.817 605.666 433.825 C 606.665 436.832 605.255 440.112 602.385 441.455 C 600.204 442.476 597.631 442.154 595.77 440.626 C 593.909 439.098 593.091 436.637 593.667 434.299 C 594.244 431.961 596.112 430.163 598.47 429.675 z" fill="rgb(253,248,236)" transform="translate(0,0)"></path>
<path d="M 487.018 691.114 C 473.117 666.014 502.13 658.75 505.602 680.454 L 505.237 681.673 C 504.338 684.868 502.917 684.297 500.026 685.058 C 495.501 686.249 491.141 688.916 487.018 691.114 z" fill="rgb(107,96,81)" transform="translate(0,0)"></path>
<path d="M 507.085 675.001 L 507.545 674.474 C 514.486 666.433 524.182 664.383 528.019 677.478 C 528.33 678.541 525.315 691.255 524.871 692.766 C 522.808 691.393 517.262 687.566 515.311 686.743 C 505.576 682.64 508.926 685.628 507.085 675.001 z" fill="rgb(138,90,134)" transform="translate(0,0)"></path>
<path d="M 1581.13 826.754 C 1565.68 817.341 1576.77 817.387 1589.03 808.751 C 1591.64 820.226 1592.11 821.51 1598.81 831.335 C 1590.09 830.654 1589.41 830.496 1581.13 826.754 z" fill="rgb(138,90,134)" transform="translate(0,0)"></path>
<path d="M 408.625 834.82 C 415.322 836.18 420.739 836.717 427.193 837.883 C 429.18 845.791 431.723 850.174 424.214 853.837 L 421.991 852.267 C 414.091 852.522 416.294 851.001 412.955 844.006 C 411.506 840.971 410.109 837.846 408.625 834.82 z" fill="rgb(107,96,81)" transform="translate(0,0)"></path>
<path d="M 1530.28 647.86 C 1527.96 644.381 1532.68 633.351 1534.3 629.809 C 1540.11 632.714 1545.88 635.627 1550.92 639.723 C 1549.01 641.865 1536.3 644.421 1530.28 647.86 z" fill="rgb(107,96,81)" transform="translate(0,0)"></path>
<path d="M 1625.49 725.803 C 1623.87 724.203 1624.33 721.144 1625.39 720.225 C 1632.56 714 1636.21 710.434 1635.03 721.083 C 1631.76 722.651 1628.72 724.167 1625.49 725.803 z" fill="rgb(138,90,134)" transform="translate(0,0)"></path>
<path d="M 1611.06 685.702 C 1600.66 685.297 1602.94 685.219 1598.48 676.938 C 1598.09 676.216 1597.94 675.845 1598.17 675.113 C 1598.87 674.746 1600.91 675.696 1602.14 675.933 C 1606 679.148 1608.28 681.527 1611.06 685.702 z" fill="rgb(138,90,134)" transform="translate(0,0)"></path>
<path d="M 1655.2 715.614 C 1657.61 715.758 1667.4 717.691 1668.14 719.385 C 1667.77 720.412 1667.29 721.395 1666.87 722.406 C 1663.43 722.236 1657.05 721.233 1654.12 719.411 C 1653.67 719.134 1655.06 715.978 1655.2 715.614 z" fill="rgb(138,90,134)" transform="translate(0,0)"></path>
<path d="M 1615.7 722.338 C 1623.37 724.864 1619.82 729.073 1616.47 734.686 C 1610.87 736.587 1614.85 724.349 1615.7 722.338 z" fill="rgb(138,90,134)" transform="translate(0,0)"></path>
<path d="M 1647.96 711.478 C 1652.58 713.681 1648.94 718.822 1646.03 720.338 L 1643.99 721.396 C 1637.27 716.827 1642.93 713.989 1647.96 711.478 z" fill="rgb(138,90,134)" transform="translate(0,0)"></path>
<path d="M 1601.26 702.039 C 1605.58 699.61 1607.44 701.519 1606.25 705.987 C 1605.56 708.598 1608.07 711.943 1607.32 713.259 C 1606.88 713.362 1601.72 708.27 1600.62 707.399 C 1600.93 705.437 1601.11 704.031 1601.26 702.039 z" fill="rgb(138,90,134)" transform="translate(0,0)"></path>
<path d="M 1601.85 696.04 C 1603.5 688.824 1602.83 688.727 1610.31 691.454 C 1609.77 700.305 1610.89 697.787 1601.85 696.04 z" fill="rgb(107,96,81)" transform="translate(0,0)"></path>
<path d="M 1599.51 711.393 C 1604.54 713.721 1603.21 720.019 1601.94 724.421 C 1595.87 720.867 1597.85 717.429 1599.51 711.393 z" fill="rgb(138,90,134)" transform="translate(0,0)"></path>
<path d="M 1672.6 722.483 C 1675.49 723.252 1682.01 726.41 1681.33 729.963 C 1677.65 728.984 1669.43 728.464 1671.99 723.673 L 1672.6 722.483 z" fill="rgb(107,96,81)" transform="translate(0,0)"></path>
<path d="M 1593.24 723.367 C 1598.43 727.683 1604 739.885 1591.32 727.867 C 1591.99 726.347 1592.61 724.91 1593.24 723.367 z" fill="rgb(138,90,134)" transform="translate(0,0)"></path>
<path d="M 1589.47 730.651 C 1593.61 734.567 1591.23 736.811 1588.14 740.48 C 1583.24 736.071 1585.32 736.02 1589.47 730.651 z" fill="rgb(138,90,134)" transform="translate(0,0)"></path>
<path d="M 1561.85 759.22 C 1568.17 752.835 1568.91 759.193 1565.96 765.395 C 1564.53 763.375 1563.16 761.316 1561.85 759.22 z" fill="rgb(138,90,134)" transform="translate(0,0)"></path>
<path d="M 1579.34 741.303 C 1583.91 743.131 1583.17 745.53 1581.6 749.608 C 1575.78 747.214 1576.97 746.228 1579.34 741.303 z" fill="rgb(138,90,134)" transform="translate(0,0)"></path>
<path d="M 1572.69 749.729 C 1573.57 749.935 1574.31 750.519 1574.71 751.323 C 1575.11 752.128 1575.14 753.07 1574.78 753.896 C 1574.14 755.372 1572.46 756.094 1570.95 755.542 C 1569.44 754.991 1568.62 753.358 1569.08 751.817 C 1569.54 750.275 1571.12 749.36 1572.69 749.729 z" fill="rgb(138,90,134)" transform="translate(0,0)"></path>
<path d="M 1682.47 733.531 C 1688.59 734.737 1688.6 736.389 1689.51 742.404 C 1685.29 740.183 1684.45 738.049 1682.47 733.531 z" fill="rgb(138,90,134)" transform="translate(0,0)"></path>
<path d="M 1485.46 807.408 C 1483.23 808.076 1475.55 810.902 1474.23 810.7 C 1469.86 810.031 1484.88 805.015 1484.63 805.118 L 1485.46 807.408 z" fill="rgb(107,96,81)" transform="translate(0,0)"></path>
<path d="M 1608.84 743.169 C 1607.73 741.005 1606.59 735.23 1608.61 733.852 C 1610.76 733.974 1611.22 739.644 1611.46 741.161 C 1610.59 741.843 1609.72 742.512 1608.84 743.169 z" fill="rgb(107,96,81)" transform="translate(0,0)"></path>
<path d="M 1481.18 800.419 C 1479.24 800.958 1471.6 803.845 1469.89 802.592 C 1469.48 801.713 1471.42 801.154 1471.97 800.997 C 1474.67 800.244 1477.35 799.421 1480.01 798.529 C 1480.45 799.183 1480.78 799.742 1481.18 800.419 z" fill="rgb(107,96,81)" transform="translate(0,0)"></path>
<path d="M 1489.36 762.917 C 1492.75 761.034 1493.25 760.952 1496.92 759.857 C 1496.91 760.794 1496.85 762.069 1496.98 762.97 C 1493.95 763.147 1493.09 763.351 1490.13 763.99 L 1489.36 762.917 z" fill="rgb(107,96,81)" transform="translate(0,0)"></path>
<path d="M 1490.13 763.99 C 1484.54 768.167 1479.79 767.769 1489.36 762.917 L 1490.13 763.99 z" fill="rgb(179,168,178)" transform="translate(0,0)"></path>
<path d="M 1689.73 747.26 C 1691.96 746.775 1691.5 747.805 1691.05 749.433 C 1689.6 750.089 1689.34 750.115 1689.61 748.24 L 1689.73 747.26 z" fill="rgb(107,96,81)" transform="translate(0,0)"></path>
<metadata><recraft-signature>{"signed_by": "recraft", "signature_b64": "cqiw5Brk1wUmFNVrGGCyLyGoDk7pBUnVWBzMuvXpJd5PLRwzSKQp3H9Tx8SFKiiZ4wK0b91OHPZyKP5KNoHNBA==", "signing_algo": "Ed25519", "generation_timestamp": 1781421498, "identifier": "a696243e-a478-472e-92b1-4f0dfcbed111"}</recraft-signature></metadata></svg>